<svg width="32" height="32" viewBox="0 0 32 32" fill="none" xmlns="http://www.w3.org/2000/svg">
<g id="Frame 1171276048">
<g id="Group 1171276049">
<path id="Subtract" d="M5.47571 9.42969C4.87427 9.42969 4.38672 9.93448 4.38672 10.5572V13.4886C5.83015 13.4886 7.00029 14.7001 7.00029 16.1946C7.00029 17.6891 5.83015 18.9006 4.38672 18.9006V21.832C4.38672 22.4547 4.87428 22.9595 5.47571 22.9595H20.2859C20.8874 22.9595 21.3749 22.4547 21.3749 21.832V10.5572C21.3749 9.93448 20.8874 9.42969 20.2859 9.42969H5.47571Z" fill="#C9D0FF"/>
<path id="Vector" d="M11.9957 18.8997C11.6517 18.8997 11.4953 18.7086 11.4302 18.5912C11.2529 18.269 11.3468 17.7939 11.7325 17.0948C11.9227 16.7508 12.212 16.3166 12.5507 15.877C12.4934 15.2981 12.3475 14.8722 12.2172 14.8203C11.9852 14.8094 11.4797 15.0688 10.7448 15.8306C10.6484 15.9316 10.5545 16.0327 10.4659 16.131C10.5624 16.89 10.3122 17.6573 9.96037 18.1625C9.63984 18.6212 9.24633 18.8615 8.87888 18.8287C8.63131 18.8042 8.39417 18.6076 8.41762 18.2225C8.44889 17.7611 9.00397 16.8027 9.72323 15.9289C9.7128 15.8934 9.69977 15.8579 9.68414 15.8224C9.68153 15.8115 9.6685 15.7842 9.65547 15.7432C9.48087 15.219 9.35578 15.1562 9.34275 15.1507C9.25154 15.1616 9.22027 15.1889 9.22027 15.1889C9.14991 15.3719 8.95446 15.4592 8.77725 15.3855C8.60265 15.3118 8.51926 15.1015 8.58962 14.9159C8.69646 14.6374 8.94925 14.4681 9.30366 14.438C9.83007 14.3889 10.1089 14.9869 10.2418 15.3391C10.9324 14.621 11.6855 14.0694 12.251 14.1022C12.7097 14.124 12.9833 14.5855 13.1267 15.1807C13.812 14.4271 14.5782 13.8045 15.1489 13.8045C15.36 13.8045 15.7509 13.8919 15.9828 14.4653C16.0506 14.6319 16.0949 14.8148 16.1236 14.9978C16.9497 14.1486 17.8592 13.4878 18.5289 13.4878C18.7165 13.4878 18.8703 13.6489 18.8703 13.8455C18.8703 14.0421 18.7165 14.2032 18.5289 14.2032C18.0312 14.2032 17.093 14.9159 16.1627 15.9944C16.0897 17.2696 15.605 18.897 14.6538 18.897C14.302 18.897 14.0622 18.6485 14.0622 18.2799C14.0622 17.7447 14.6746 16.6907 15.4851 15.7077V15.6668C15.4851 15.2872 15.4382 14.9596 15.3522 14.7466C15.261 14.5227 15.175 14.5227 15.1463 14.5227C14.8336 14.5227 14.0622 15.1125 13.2439 16.1118C13.2491 16.2484 13.2518 16.3822 13.2465 16.516C13.2231 17.6655 12.8791 18.8943 11.9878 18.897H11.9852L11.9957 18.8997ZM12.5221 17.1194C12.1859 17.6546 12.0504 18.0178 12.0295 18.1816C12.2224 18.1406 12.4074 17.7802 12.5038 17.2368C12.5116 17.1986 12.5169 17.1604 12.5221 17.1221V17.1194ZM15.2896 17.1494C14.9978 17.5945 14.8362 17.9358 14.7763 18.1324C14.9509 18.0068 15.1463 17.6437 15.2896 17.1494ZM9.71802 17.0894C9.46784 17.4525 9.28542 17.7747 9.18639 17.9986C9.25415 17.9386 9.32972 17.8567 9.41051 17.7447C9.5382 17.5618 9.64765 17.3379 9.71802 17.0894Z" fill="#6478FF"/>
<path id="Subtract_2" d="M20.5078 9.43066H25.5946C26.0161 9.43066 26.3998 9.68252 26.5795 10.0773L26.8363 10.641C26.975 10.9455 26.975 11.2983 26.8363 11.6028L26.5041 12.3322C26.3654 12.6367 26.3654 12.9895 26.5041 13.294L26.8363 14.0235C26.975 14.328 26.975 14.6807 26.8363 14.9852L26.5041 15.7147C26.3654 16.0192 26.3654 16.372 26.5041 16.6765L26.8363 17.4059C26.975 17.7104 26.975 18.0632 26.8363 18.3677L26.5041 19.0971C26.3654 19.4017 26.3654 19.7544 26.5041 20.0589L26.8363 20.7884C26.975 21.0929 26.975 21.4456 26.8363 21.7502L26.5795 22.3139C26.3998 22.7086 26.0161 22.9605 25.5946 22.9605H20.5078V9.43066Z" fill="#93A1FF"/>
<g id="Group 1171276049_2">
<rect id="Rectangle 40293" x="20.5059" y="9.43066" width="0.871189" height="1.80398" fill="#6478FF"/>
<rect id="Rectangle 40294" x="20.5039" y="13.0356" width="0.871189" height="2.25497" fill="#6478FF"/>
<rect id="Rectangle 40295" x="20.5039" y="17.0967" width="0.871189" height="2.25497" fill="#6478FF"/>
<rect id="Rectangle 40296" x="20.5059" y="21.1558" width="0.871189" height="1.80398" fill="#6478FF"/>
</g>
</g>
</g>
</svg>
