<svg width="32" height="32" viewBox="0 0 32 32" fill="none" xmlns="http://www.w3.org/2000/svg">
<g id="reason02Ic">
<g id="Group 1171276050">
<path id="Rectangle 40297" d="M5.0332 9.5873C5.0332 8.88001 5.60658 8.30664 6.31387 8.30664H25.5238C26.2311 8.30664 26.8045 8.88001 26.8045 9.5873V20.237C26.8045 20.9443 26.2311 21.5177 25.5238 21.5177H10.046C9.70634 21.5177 9.38059 21.6526 9.14042 21.8928L7.21943 23.8138C6.41266 24.6205 5.0332 24.0492 5.0332 22.9082V21.5177V9.5873Z" fill="#D2D8FF"/>
<rect id="Rectangle 40300" x="7.59375" y="11.709" width="3.84199" height="1.28066" rx="0.640331" fill="#A5B1FF"/>
<rect id="Rectangle 40304" x="12.7188" y="11.709" width="11.526" height="1.28066" rx="0.640331" fill="#A5B1FF"/>
<path id="Rectangle 40301" d="M7.59375 14.9118C7.59375 14.5582 7.88044 14.2715 8.23408 14.2715H19.76C20.1137 14.2715 20.4004 14.5582 20.4004 14.9118C20.4004 15.2655 20.1137 15.5521 19.76 15.5521H8.23408C7.88044 15.5521 7.59375 15.2655 7.59375 14.9118Z" fill="#A5B1FF"/>
<rect id="Rectangle 40303" x="21.6836" y="14.2715" width="2.56132" height="1.28066" rx="0.640331" fill="#A5B1FF"/>
</g>
<circle id="Ellipse 8752" cx="26" cy="8" r="2" fill="#6478FF"/>
</g>
</svg>
