<svg width="20" height="20" viewBox="0 0 20 20" fill="none" xmlns="http://www.w3.org/2000/svg">
<path d="M2 4.95437C2 4.5276 2.34596 4.18164 2.77273 4.18164H18.2273C18.654 4.18164 19 4.5276 19 4.95437V7.27255H2V4.95437Z" fill="#73798D"/>
<path fill-rule="evenodd" clip-rule="evenodd" d="M19 8.81836H2V15.7729C2 16.1997 2.34596 16.5456 2.77273 16.5456H18.2273C18.654 16.5456 19 16.1997 19 15.7729V8.81836ZM14.3636 10.3638C13.9369 10.3638 13.5909 10.7098 13.5909 11.1365V11.9093C13.5909 12.336 13.9369 12.682 14.3636 12.682H16.6818C17.1086 12.682 17.4545 12.336 17.4545 11.9093V11.1365C17.4545 10.7098 17.1086 10.3638 16.6818 10.3638H14.3636Z" fill="#73798D"/>
</svg>
