<svg width="74" height="86" viewBox="0 0 74 86" fill="none" xmlns="http://www.w3.org/2000/svg">
<path d="M36.9961 2.396H54.7347C55.8102 2.396 56.682 3.26783 56.682 4.34329V12.9111C56.682 13.9866 55.8102 14.8584 54.7347 14.8584H36.9961V2.396Z" fill="#9196A7"/>
<path d="M36.9961 31.4193V2" stroke="#C6CAD2" stroke-width="3.89459" stroke-linecap="round"/>
<path d="M0 50.0541V83.1581C0 84.2336 0.871839 85.1054 1.9473 85.1054H72.0499C73.1253 85.1054 73.9972 84.2336 73.9972 83.1581V50.0541C73.9972 48.9786 73.1253 48.1068 72.0499 48.1068H64.2607C63.1852 48.1068 62.3134 47.235 62.3134 46.1595V37.5862C62.3134 36.8698 61.9201 36.2113 61.2893 35.8716L37.9218 23.2891C37.3454 22.9788 36.6517 22.9788 36.0754 23.2891L12.7078 35.8716C12.0771 36.2113 11.6838 36.8698 11.6838 37.5862V46.1595C11.6838 47.235 10.8119 48.1068 9.73647 48.1068H1.94729C0.871833 48.1068 0 48.9786 0 50.0541Z" fill="#C6CAD2"/>
<circle cx="37.2345" cy="40.5614" r="7.78917" fill="#9196A7"/>
<rect x="25.9688" y="62.0618" width="22.0542" height="23.0435" fill="#9196A7"/>
<path d="M37.2383 35.9148V41.2006H42.4095" stroke="#E2E4E8" stroke-width="2.0907" stroke-linecap="round" stroke-linejoin="round"/>
</svg>
