<svg width="45" height="44" viewBox="0 0 45 44" fill="none" xmlns="http://www.w3.org/2000/svg">
<g id="quill_pen_ai_line" clip-path="url(#clip0_3612_16667)">
<g id="Group">
<path id="Vector" fill-rule="evenodd" clip-rule="evenodd" d="M37.6468 4.4625C37.9839 4.4287 38.3238 4.48851 38.6291 4.63536C38.9345 4.7822 39.1934 5.01038 39.3774 5.29483L39.5204 5.52583L39.7203 5.89616L39.8688 6.21516L40.0209 6.591C40.5984 8.12733 41.0329 10.8022 39.0273 13.8437C38.8766 14.0683 38.7074 14.2799 38.5213 14.4762C38.5452 14.7025 38.5265 14.9313 38.4663 15.1508C38.1028 16.4875 37.6432 17.7963 37.0913 19.0668C36.0811 21.3823 34.6566 23.7235 32.6491 25.7328C28.8908 29.4912 23.9554 31.2163 20.1018 32.0212C18.5893 32.3383 17.2124 32.518 16.0941 32.6207L15.2013 32.6903L14.8163 32.7142L14.5816 34.663L14.4019 36.324L14.3323 37.0793L14.2644 38.029C14.2557 38.1859 14.2508 38.343 14.2498 38.5002C14.2498 38.9864 14.0566 39.4527 13.7128 39.7965C13.369 40.1403 12.9027 40.3335 12.4164 40.3335C11.9302 40.3335 11.4639 40.1403 11.1201 39.7965C10.7763 39.4527 10.5831 38.9864 10.5831 38.5002C10.5831 38.3095 10.5904 38.0877 10.6014 37.8402L10.6564 37.039L10.7353 36.1425L10.8819 34.7272L10.9883 33.8068C11.3641 30.6315 11.8059 27.5258 12.7978 24.4752C13.9436 20.9552 16.0061 16.447 19.6856 12.7693C22.5694 9.88366 25.9776 7.9825 29.0466 6.73766L29.8753 6.41316L30.6819 6.11983C30.8139 6.074 30.9459 6.02816 31.0761 5.986L31.8461 5.73666L32.5831 5.51666L33.2871 5.3205L33.9526 5.15L34.5759 5.00333L35.1534 4.875L36.1544 4.6825L37.2123 4.51566L37.6468 4.4625ZM36.7264 8.30516L36.1361 8.41883L35.4578 8.56366L34.6969 8.74333C34.5611 8.77791 34.4254 8.81335 34.2899 8.84966L33.4283 9.088C33.1313 9.176 32.8233 9.27133 32.5098 9.374L31.5436 9.704C28.5828 10.7747 25.1123 12.5273 22.2779 15.3617C19.1539 18.4838 17.3279 22.4017 16.2848 25.61C15.9823 26.5395 15.7476 27.4012 15.5698 28.1547L15.3791 29.0017L16.2316 28.9228C17.2792 28.8114 18.3206 28.648 19.3519 28.4333C22.8719 27.6982 27.0134 26.182 30.0549 23.1387C31.6133 21.5822 32.7756 19.7342 33.6373 17.8128C31.8479 18.7662 29.9376 19.6205 28.5791 20.0733C28.1177 20.227 27.6141 20.191 27.1792 19.9734C26.7443 19.7558 26.4136 19.3743 26.2599 18.9128C26.1063 18.4514 26.1422 17.9478 26.3599 17.5129C26.5775 17.078 26.959 16.7473 27.4204 16.5937C28.6561 16.183 30.6434 15.2865 32.4694 14.2745C33.3751 13.7722 34.2038 13.2625 34.8546 12.7932L35.2689 12.4815L35.5806 12.223L35.6998 12.113L35.8739 11.9388C35.9072 11.9026 35.9379 11.864 35.9656 11.8233C36.9318 10.3603 36.9189 9.11 36.7264 8.30516ZM9.66644 1.8335C10.0094 1.8335 10.3455 1.92971 10.6366 2.11119C10.9276 2.29268 11.1619 2.55217 11.3128 2.86016L11.4008 3.07466L11.6391 3.76766C11.8906 4.505 12.296 5.18049 12.8282 5.74939C13.3604 6.3183 14.0075 6.76764 14.7264 7.06766L15.0656 7.196L15.7586 7.4325C16.1017 7.54978 16.4023 7.76616 16.6224 8.05428C16.8425 8.3424 16.9723 8.68932 16.9952 9.05117C17.0182 9.41302 16.9333 9.77356 16.7514 10.0872C16.5695 10.4008 16.2986 10.6535 15.9731 10.8132L15.7586 10.9012L15.0656 11.1395C14.3283 11.391 13.6528 11.7963 13.0839 12.3286C12.515 12.8608 12.0656 13.5079 11.7656 14.2268L11.6373 14.566L11.4008 15.259C11.2835 15.6021 11.0671 15.9027 10.779 16.1228C10.4909 16.3429 10.144 16.4727 9.7821 16.4956C9.42025 16.5186 9.05972 16.4337 8.74609 16.2518C8.43246 16.0698 8.17982 15.799 8.02011 15.4735L7.93211 15.259L7.69378 14.566C7.44224 13.8287 7.03693 13.1532 6.50469 12.5843C5.97245 12.0154 5.32542 11.566 4.60644 11.266L4.26728 11.1377L3.57428 10.9012C3.23119 10.7839 2.93059 10.5675 2.71048 10.2794C2.49036 9.99126 2.36062 9.64434 2.33766 9.28249C2.31471 8.92064 2.39956 8.5601 2.58149 8.24647C2.76342 7.93284 3.03427 7.6802 3.35978 7.5205L3.57428 7.4325L4.26728 7.19416C5.00461 6.94263 5.6801 6.53732 6.24901 6.00508C6.81791 5.47283 7.26725 4.8258 7.56728 4.10683L7.69561 3.76766L7.93211 3.07466C8.05563 2.71274 8.28924 2.3985 8.60023 2.17594C8.91122 1.95339 9.28402 1.83365 9.66644 1.8335ZM9.66644 7.69283C9.23271 8.23857 8.73818 8.73309 8.19244 9.16683C8.73878 9.5995 9.23378 10.0945 9.66644 10.6408C10.0991 10.0945 10.5941 9.5995 11.1404 9.16683C10.5947 8.73309 10.1002 8.23857 9.66644 7.69283Z" fill="#6478FF"/>
</g>
</g>
<defs>
<clipPath id="clip0_3612_16667">
<rect width="44" height="44" fill="white" transform="translate(0.5)"/>
</clipPath>
</defs>
</svg>
