<svg width="40" height="40" viewBox="0 0 40 40" fill="none" xmlns="http://www.w3.org/2000/svg">
<rect width="40" height="40" rx="20" fill="white"/>
<path d="M22.0077 28.0759L22.0076 28.076L22.014 28.082C22.1681 28.2255 22.3718 28.3037 22.5823 28.2999C22.7928 28.2962 22.9936 28.211 23.1425 28.0621C23.2913 27.9132 23.3766 27.7124 23.3803 27.5019C23.384 27.2914 23.3059 27.0877 23.1624 26.9337L23.1625 26.9336L23.1563 26.9273L16.2314 20.0016L23.1563 13.0759L23.1564 13.076L23.1624 13.0695C23.3059 12.9155 23.384 12.7118 23.3803 12.5013C23.3766 12.2908 23.2913 12.09 23.1425 11.9411C22.9936 11.7922 22.7928 11.707 22.5823 11.7033C22.3718 11.6995 22.1681 11.7777 22.014 11.9212L22.0139 11.9211L22.0077 11.9273L14.5077 19.4273L14.5076 19.4274C14.3554 19.5798 14.27 19.7863 14.27 20.0016C14.27 20.2169 14.3554 20.4234 14.5076 20.5758L14.5077 20.5759L22.0077 28.0759Z" fill="black" stroke="black" stroke-width="0.5"/>
</svg>
