<svg width="152" height="20" viewBox="0 0 152 20" fill="none" xmlns="http://www.w3.org/2000/svg">
<g clip-path="url(#clip0_398_2060)">
<g clip-path="url(#clip1_398_2060)">
<path d="M47.2303 19.4378C45.0129 19.4378 42.9013 18.5854 41.748 17.8416L43.0852 15.5434C43.7287 15.8777 45.7065 16.836 47.3 16.836C47.3724 16.836 47.4448 16.836 47.5173 16.8304C48.7569 16.7552 49.1441 16.2315 49.2695 16.0616C49.3475 15.9557 49.4199 15.7607 49.367 15.5573C49.314 15.3456 49.1274 15.1534 48.8265 15.003C48.5814 14.8971 47.8878 14.8247 47.1384 14.7523C46.1606 14.6576 45.414 14.5238 44.2663 14.0893C43.6785 13.8664 43.1938 13.5851 42.8261 13.2536C42.606 13.0168 42.4166 12.7354 42.2662 12.4234C42.1659 12.2145 42.0963 12.0278 42.0517 11.8496C41.8233 10.9414 42.0127 9.98313 42.5726 9.22263C43.3916 8.10556 44.6953 7.46484 46.3417 7.36456C46.4392 7.35899 46.5423 7.3562 46.6203 7.3562H46.7178C48.626 7.39799 50.5203 8.19749 51.6735 8.94406L50.3336 11.2478C48.417 10.1753 47.0242 9.9497 46.1913 9.9497C46.0993 9.9497 46.0046 9.9497 45.9127 9.95806C45.4224 9.98592 45.0658 10.1475 44.8458 10.4344C44.6145 10.7408 44.6201 11.0891 44.6563 11.2339C44.7093 11.4456 44.8959 11.6378 45.1968 11.7883C45.467 11.9053 45.7428 11.9861 46.2916 12.039C47.2498 12.1309 48.5647 12.2591 49.7208 12.6881C50.3364 12.9165 50.8183 13.1951 51.1972 13.5377C51.4117 13.7689 51.6011 14.0447 51.7488 14.3539C51.8518 14.5656 51.9243 14.7578 51.9688 14.9389C52.1973 15.8498 52.005 16.8053 51.4479 17.5658C50.6289 18.6829 49.3252 19.3236 47.6788 19.4239C47.5312 19.4323 47.3808 19.4378 47.2303 19.4378Z" fill="black" stroke="black" stroke-width="0.0278571" stroke-miterlimit="10"/>
<path d="M84.0515 3.36426H81.249V19.1648H84.0515V3.36426Z" fill="black"/>
<path d="M130 13.276C129.98 10.1058 127.406 7.54297 124.233 7.54297C121.06 7.54297 118.464 10.1253 118.464 13.3122C118.464 16.499 121.046 19.0814 124.233 19.0814C125.325 19.0814 126.345 18.7722 127.217 18.2429V19.165H130.002V13.2732L130 13.276ZM124.233 16.2957C122.59 16.2957 121.25 14.9585 121.25 13.3122C121.25 11.6658 122.587 10.3287 124.233 10.3287C125.879 10.3287 127.217 11.6658 127.217 13.3122C127.217 14.9585 125.879 16.2957 124.233 16.2957Z" fill="black"/>
<path d="M136.594 3.28076H133.813V19.1677H136.594V3.28076Z" fill="black"/>
<path d="M139.242 9.44279V7.19751L131.166 7.19751V9.44279H139.242Z" fill="black"/>
<path d="M140.599 10.3538C141.098 9.47068 141.791 8.78261 142.685 8.28675C143.577 7.7909 144.596 7.54297 145.744 7.54297C146.892 7.54297 147.822 7.76583 148.577 8.21154C149.332 8.65725 149.85 9.07511 150.129 9.47068C150.407 9.86625 150.653 10.2646 150.864 10.6658C151.213 11.3538 151.385 12.2592 151.385 13.379L151.363 14.3485H142.683C142.819 15.0672 143.19 15.6494 143.794 16.1035C144.399 16.5548 145.056 16.7804 145.766 16.7804C146.597 16.7804 147.218 16.6411 147.625 16.3598C148.031 16.0812 148.29 15.8472 148.396 15.6605L150.889 16.5854C150.511 17.3041 149.889 17.9114 149.02 18.4156C148.151 18.917 147.059 19.1705 145.744 19.1705C144.596 19.1705 143.577 18.9254 142.685 18.4379C141.794 17.9504 141.098 17.2651 140.599 16.382C140.1 15.499 139.85 14.4989 139.85 13.379C139.85 12.2592 140.1 11.2368 140.599 10.3538ZM147.694 10.624C147.209 10.1504 146.569 9.91361 145.766 9.91361C144.964 9.91361 144.304 10.1476 143.738 10.6128C143.173 11.078 142.822 11.6352 142.685 12.2815H148.625C148.488 11.6491 148.179 11.0975 147.694 10.624Z" fill="black"/>
<path d="M19.7936 10.3677C21.4372 10.3677 22.7771 11.7049 22.7771 13.3512C22.7771 14.9976 21.44 16.3347 19.7936 16.3347C18.1473 16.3347 16.8101 14.9976 16.8101 13.3512C16.8101 11.7049 18.1473 10.3677 19.7936 10.3677ZM19.7936 7.58203C16.6068 7.58203 14.0244 10.1644 14.0244 13.3512C14.0244 16.5381 16.6068 19.1205 19.7936 19.1205C22.9805 19.1205 25.5628 16.5381 25.5628 13.3512C25.5628 10.1644 22.9805 7.58203 19.7936 7.58203Z" fill="black"/>
<path d="M59.4841 10.4151C61.1276 10.4151 62.4676 11.7523 62.4676 13.3986C62.4676 15.045 61.1304 16.3821 59.4841 16.3821C57.8377 16.3821 56.5006 15.045 56.5006 13.3986C56.5006 11.7523 57.8377 10.4151 59.4841 10.4151ZM59.4841 7.62939C56.2972 7.62939 53.7148 10.2118 53.7148 13.3986C53.7148 16.5855 56.2972 19.1678 59.4841 19.1678C62.6709 19.1678 65.2533 16.5855 65.2533 13.3986C65.2533 10.2118 62.6709 7.62939 59.4841 7.62939Z" fill="black"/>
<path d="M72.8063 10.4151C74.4499 10.4151 75.7898 11.7523 75.7898 13.3986C75.7898 15.045 74.4527 16.3821 72.8063 16.3821C71.16 16.3821 69.8228 15.045 69.8228 13.3986C69.8228 11.7523 71.16 10.4151 72.8063 10.4151ZM72.8063 7.62939C69.6195 7.62939 67.0371 10.2118 67.0371 13.3986C67.0371 16.5855 69.6195 19.1678 72.8063 19.1678C75.9932 19.1678 78.5755 16.5855 78.5755 13.3986C78.5755 10.2118 75.9932 7.62939 72.8063 7.62939Z" fill="black"/>
<path d="M100.104 19.4518C98.8472 19.4518 98.2678 18.7805 98.0366 18.3765C97.3847 17.2511 97.7357 15.5908 99.1425 13.1505C99.8362 11.9471 100.895 10.4289 102.14 8.89395C101.931 6.87431 101.393 5.37838 100.923 5.19731C100.073 5.16388 98.226 6.06645 95.5322 8.73238C95.1784 9.08338 94.8386 9.43438 94.5127 9.78538C94.8692 12.4346 93.9527 15.1228 92.6602 16.889C91.4874 18.4935 90.0444 19.3292 88.6989 19.2178C87.7935 19.1342 86.9216 18.4462 87.0135 17.0951C87.1249 15.4822 89.1585 12.1365 91.791 9.07502C91.7492 8.95245 91.7019 8.82988 91.6517 8.70731C91.6378 8.67388 91.5988 8.57081 91.5514 8.43152C90.9107 6.60131 90.4567 6.37845 90.4065 6.35895C90.075 6.39517 89.958 6.49267 89.958 6.49545C89.7017 7.13895 88.9802 7.43702 88.3395 7.18074C87.6988 6.92445 87.3952 6.18345 87.6514 5.54274C88.0414 4.56774 88.9719 3.97438 90.2672 3.87131C92.1922 3.70417 93.2173 5.79067 93.6992 7.02195C96.2287 4.51202 98.9865 2.58152 101.062 2.69574C102.742 2.77374 103.745 4.38109 104.265 6.46759C106.773 3.83231 109.583 1.65388 111.675 1.65388C112.45 1.65388 113.876 1.95474 114.729 3.96324C114.974 4.54267 115.135 5.18338 115.241 5.82131C118.264 2.85452 121.598 0.545166 124.047 0.545166C124.738 0.545166 125.298 1.10509 125.298 1.79595C125.298 2.48681 124.738 3.04674 124.047 3.04674C122.219 3.04674 118.785 5.53717 115.383 9.30345C115.119 13.7578 113.344 19.4462 109.862 19.4462C108.569 19.4462 107.7 18.5799 107.7 17.2901C107.7 15.4237 109.94 11.7382 112.915 8.30059C112.915 8.25324 112.915 8.20588 112.915 8.15852C112.915 6.82974 112.74 5.68759 112.425 4.94102C112.093 4.15545 111.779 4.15545 111.675 4.15545C110.533 4.15545 107.706 6.21409 104.708 9.71295C104.731 10.1893 104.733 10.6601 104.722 11.1253C104.633 15.1423 103.377 19.4379 100.115 19.449H100.106L100.104 19.4518ZM102.034 13.2285C100.8 15.1005 100.31 16.368 100.232 16.9391C100.942 16.7998 101.613 15.5351 101.964 13.6325C101.99 13.4987 102.012 13.3622 102.034 13.2285ZM112.166 13.3344C111.096 14.8916 110.505 16.0839 110.288 16.7747C110.923 16.3318 111.642 15.0671 112.166 13.3344ZM91.7632 13.1255C90.8439 14.3985 90.1781 15.5184 89.8159 16.3012C90.0667 16.095 90.3452 15.8053 90.6322 15.4125C91.0974 14.7774 91.4985 13.989 91.7604 13.1255H91.7632Z" fill="#6478FF"/>
<path d="M33.5827 7.2561C30.3958 7.2561 27.8135 9.83846 27.8135 13.0253V19.1678H30.5992V13.0253C30.5992 11.3817 31.9363 10.0418 33.5827 10.0418C35.229 10.0418 36.5662 11.379 36.5662 13.0253V19.1678H39.3519V13.0253C39.3519 9.83846 36.7695 7.2561 33.5827 7.2561Z" fill="black"/>
<path d="M6.00457 7.2561C2.81771 7.2561 0.235352 9.83846 0.235352 13.0253V19.1678H3.02107V13.0253C3.02107 11.3817 4.35821 10.0418 6.00457 10.0418C7.65092 10.0418 8.98807 11.379 8.98807 13.0253V19.1678H11.7738V13.0253C11.7738 9.83846 9.19142 7.2561 6.00457 7.2561Z" fill="black"/>
</g>
</g>
<defs>
<clipPath id="clip0_398_2060">
<rect width="151.264" height="18.9429" fill="white" transform="translate(0.368164 0.528564)"/>
</clipPath>
<clipPath id="clip1_398_2060">
<rect width="151.153" height="18.9011" fill="white" transform="translate(0.235352 0.550781)"/>
</clipPath>
</defs>
</svg>
