<svg width="408" height="136" viewBox="0 0 408 136" fill="none" xmlns="http://www.w3.org/2000/svg">
<rect x="0.5" y="0.5" width="407" height="135" rx="7.5" fill="white"/>
<rect x="0.5" y="0.5" width="407" height="135" rx="7.5" stroke="#C6CAD2"/>
<path d="M21.4757 25.4297C20.8743 25.4297 20.3867 25.9345 20.3867 26.5572V29.4886C21.8302 29.4886 23.0003 30.7001 23.0003 32.1946C23.0003 33.6891 21.8302 34.9006 20.3867 34.9006V37.832C20.3867 38.4547 20.8743 38.9595 21.4757 38.9595H36.2859C36.8874 38.9595 37.3749 38.4547 37.3749 37.832V26.5572C37.3749 25.9345 36.8874 25.4297 36.2859 25.4297H21.4757Z" fill="#C9D0FF"/>
<path d="M27.9957 34.9002C27.6517 34.9002 27.4953 34.7091 27.4302 34.5917C27.2529 34.2695 27.3468 33.7943 27.7325 33.0953C27.9227 32.7513 28.212 32.3171 28.5507 31.8775C28.4934 31.2986 28.3475 30.8727 28.2172 30.8208C27.9852 30.8099 27.4797 31.0693 26.7448 31.8311C26.6484 31.9321 26.5545 32.0331 26.4659 32.1314C26.5624 32.8905 26.3122 33.6578 25.9604 34.163C25.6398 34.6217 25.2463 34.862 24.8789 34.8292C24.6313 34.8046 24.3942 34.608 24.4176 34.223C24.4489 33.7616 25.004 32.8032 25.7232 31.9294C25.7128 31.8939 25.6998 31.8584 25.6841 31.8229C25.6815 31.812 25.6685 31.7847 25.6555 31.7437C25.4809 31.2194 25.3558 31.1566 25.3428 31.1512C25.2515 31.1621 25.2203 31.1894 25.2203 31.1894C25.1499 31.3724 24.9545 31.4597 24.7773 31.386C24.6026 31.3123 24.5193 31.102 24.5896 30.9164C24.6965 30.6378 24.9492 30.4685 25.3037 30.4385C25.8301 30.3894 26.1089 30.9873 26.2418 31.3396C26.9324 30.6215 27.6855 30.0699 28.251 30.1027C28.7097 30.1245 28.9833 30.586 29.1267 31.1812C29.812 30.4276 30.5782 29.805 31.1489 29.805C31.36 29.805 31.7509 29.8924 31.9828 30.4658C32.0506 30.6324 32.0949 30.8153 32.1236 30.9983C32.9497 30.1491 33.8592 29.4883 34.5289 29.4883C34.7165 29.4883 34.8703 29.6494 34.8703 29.846C34.8703 30.0426 34.7165 30.2037 34.5289 30.2037C34.0312 30.2037 33.093 30.9164 32.1627 31.9949C32.0897 33.2701 31.605 34.8975 30.6538 34.8975C30.302 34.8975 30.0622 34.649 30.0622 34.2804C30.0622 33.7452 30.6746 32.6912 31.4851 31.7082V31.6673C31.4851 31.2877 31.4382 30.96 31.3522 30.7471C31.261 30.5232 31.175 30.5232 31.1463 30.5232C30.8336 30.5232 30.0622 31.113 29.2439 32.1123C29.2491 32.2489 29.2518 32.3827 29.2465 32.5165C29.2231 33.666 28.8791 34.8948 27.9878 34.8975H27.9852L27.9957 34.9002ZM28.5221 33.1199C28.1859 33.6551 28.0504 34.0182 28.0295 34.1821C28.2224 34.1411 28.4074 33.7807 28.5038 33.2373C28.5116 33.1991 28.5169 33.1609 28.5221 33.1226V33.1199ZM31.2896 33.1499C30.9978 33.595 30.8362 33.9363 30.7763 34.1329C30.9509 34.0073 31.1463 33.6442 31.2896 33.1499ZM25.718 33.0899C25.4678 33.453 25.2854 33.7752 25.1864 33.9991C25.2541 33.9391 25.3297 33.8571 25.4105 33.7452C25.5382 33.5622 25.6477 33.3383 25.718 33.0899Z" fill="#6478FF"/>
<path d="M36.5078 25.4307H41.5946C42.0161 25.4307 42.3998 25.6825 42.5795 26.0773L42.8363 26.641C42.975 26.9455 42.975 27.2983 42.8363 27.6028L42.5041 28.3322C42.3654 28.6367 42.3654 28.9895 42.5041 29.294L42.8363 30.0235C42.975 30.328 42.975 30.6807 42.8363 30.9852L42.5041 31.7147C42.3654 32.0192 42.3654 32.372 42.5041 32.6765L42.8363 33.4059C42.975 33.7104 42.975 34.0632 42.8363 34.3677L42.5041 35.0971C42.3654 35.4017 42.3654 35.7544 42.5041 36.0589L42.8363 36.7884C42.975 37.0929 42.975 37.4456 42.8363 37.7502L42.5795 38.3139C42.3998 38.7086 42.0161 38.9605 41.5946 38.9605H36.5078V25.4307Z" fill="#93A1FF"/>
<rect x="36.5059" y="25.4307" width="0.871189" height="1.80398" fill="#6478FF"/>
<rect x="36.5039" y="29.0361" width="0.871189" height="2.25497" fill="#6478FF"/>
<rect x="36.5039" y="33.0967" width="0.871189" height="2.25497" fill="#6478FF"/>
<rect x="36.5059" y="37.1553" width="0.871189" height="1.80398" fill="#6478FF"/>
<path d="M59.556 27.144V25.688H60.76V27.144H63.434V28.124H60.76V28.348C60.76 29.0947 61.04 29.7713 61.6 30.378C62.16 30.9753 62.902 31.4047 63.826 31.666L63.266 32.632C62.5567 32.4267 61.936 32.1093 61.404 31.68C60.872 31.2507 60.466 30.7467 60.186 30.168C59.9153 30.8027 59.5093 31.3533 58.968 31.82C58.436 32.2773 57.806 32.6227 57.078 32.856L56.518 31.904C57.4327 31.624 58.1653 31.162 58.716 30.518C59.276 29.8647 59.556 29.1413 59.556 28.348V28.124H56.854V27.144H59.556ZM58.646 33.64H66.668V37.896H58.646V33.64ZM65.492 36.916V34.606H59.836V36.916H65.492ZM63.098 29.146H65.45V25.744H66.668V33.01H65.45V30.14H63.098V29.146ZM72.9683 26.36V27.704C72.9683 28.5347 73.239 29.2953 73.7803 29.986C74.3217 30.6767 75.0403 31.1807 75.9363 31.498L75.3203 32.45C74.6483 32.198 74.0557 31.834 73.5423 31.358C73.0383 30.882 72.651 30.322 72.3803 29.678C72.119 30.378 71.727 30.9847 71.2043 31.498C70.691 32.0113 70.075 32.3987 69.3563 32.66L68.7263 31.694C69.6597 31.3673 70.397 30.8353 70.9383 30.098C71.489 29.3513 71.7643 28.5207 71.7643 27.606V26.36H72.9683ZM70.3223 33.808H78.3443V38.064H77.1263V34.788H70.3223V33.808ZM77.1263 25.744H78.3443V28.95H80.1503V29.972H78.3443V33.192H77.1263V25.744ZM91.1687 25.73V35.04H89.9507V33.374H87.3047V32.422H89.9507V25.73H91.1687ZM80.9067 30.574C83.0907 30.574 84.8873 30.5273 86.2967 30.434C86.4647 29.4727 86.558 28.474 86.5767 27.438H82.0267V26.458H87.7807V26.934C87.7807 27.466 87.762 27.998 87.7247 28.53C87.6967 29.0527 87.6267 29.6547 87.5147 30.336L87.9067 30.294C88.5133 30.2193 88.84 30.1773 88.8867 30.168L88.9707 31.036C87.9067 31.2227 86.768 31.3533 85.5547 31.428V34.242H84.3507V31.498C83.3707 31.5447 82.2787 31.568 81.0747 31.568L80.9067 30.574ZM82.6987 34.032H83.9167V36.804H91.4627V37.784H82.6987V34.032ZM101.9 31.778C102.338 32.0393 102.684 32.394 102.936 32.842C103.188 33.2807 103.314 33.7147 103.314 34.144C103.314 34.7133 103.174 35.222 102.894 35.67C102.614 36.118 102.222 36.468 101.718 36.72C101.214 36.972 100.64 37.098 99.9955 37.098C99.3515 37.098 98.7775 36.972 98.2735 36.72C97.7695 36.468 97.3775 36.118 97.0975 35.67C96.8175 35.2127 96.6775 34.6947 96.6775 34.116H97.8395C97.8395 34.6853 98.0402 35.152 98.4415 35.516C98.8429 35.88 99.3609 36.062 99.9955 36.062C100.63 36.062 101.148 35.8847 101.55 35.53C101.96 35.166 102.166 34.6993 102.166 34.13C102.166 33.5887 101.965 33.1453 101.564 32.8C101.162 32.4547 100.649 32.282 100.024 32.282H99.2815V31.246H100.024C100.612 31.246 101.092 31.092 101.466 30.784C101.839 30.4667 102.026 30.0607 102.026 29.566C102.026 29.0527 101.844 28.6373 101.48 28.32C101.116 27.9933 100.649 27.83 100.08 27.83C99.5102 27.83 99.0435 27.9933 98.6795 28.32C98.3155 28.6467 98.1335 29.0713 98.1335 29.594H96.9715C96.9715 29.0527 97.1022 28.572 97.3635 28.152C97.6249 27.7227 97.9889 27.3913 98.4555 27.158C98.9315 26.9153 99.4729 26.794 100.08 26.794C100.677 26.794 101.209 26.9107 101.676 27.144C102.142 27.3773 102.506 27.704 102.768 28.124C103.038 28.544 103.174 29.02 103.174 29.552C103.174 29.9533 103.057 30.3593 102.824 30.77C102.6 31.1807 102.292 31.5167 101.9 31.778ZM115.033 25.73V38.05H113.857V31.638H112.289V37.462H111.127V26.052H112.289V30.644H113.857V25.73H115.033ZM104.561 34.564C105.895 33.808 106.889 32.912 107.543 31.876C108.196 30.8307 108.569 29.6453 108.663 28.32H105.051V27.326H109.853C109.853 29.062 109.503 30.616 108.803 31.988C108.103 33.3507 106.927 34.4987 105.275 35.432L104.561 34.564Z" fill="black"/>
<path d="M221.476 25.4297C220.874 25.4297 220.387 25.9345 220.387 26.5572V29.4886C221.83 29.4886 223 30.7001 223 32.1946C223 33.6891 221.83 34.9006 220.387 34.9006V37.832C220.387 38.4547 220.874 38.9595 221.476 38.9595H236.286C236.887 38.9595 237.375 38.4547 237.375 37.832V26.5572C237.375 25.9345 236.887 25.4297 236.286 25.4297H221.476Z" fill="#C9D0FF"/>
<path d="M227.996 34.9002C227.652 34.9002 227.495 34.7091 227.43 34.5917C227.253 34.2695 227.347 33.7943 227.732 33.0953C227.923 32.7513 228.212 32.3171 228.551 31.8775C228.493 31.2986 228.347 30.8727 228.217 30.8208C227.985 30.8099 227.48 31.0693 226.745 31.8311C226.648 31.9321 226.555 32.0331 226.466 32.1314C226.562 32.8905 226.312 33.6578 225.96 34.163C225.64 34.6217 225.246 34.862 224.879 34.8292C224.631 34.8046 224.394 34.608 224.418 34.223C224.449 33.7616 225.004 32.8032 225.723 31.9294C225.713 31.8939 225.7 31.8584 225.684 31.8229C225.682 31.812 225.669 31.7847 225.655 31.7437C225.481 31.2194 225.356 31.1566 225.343 31.1512C225.252 31.1621 225.22 31.1894 225.22 31.1894C225.15 31.3724 224.954 31.4597 224.777 31.386C224.603 31.3123 224.519 31.102 224.59 30.9164C224.696 30.6378 224.949 30.4685 225.304 30.4385C225.83 30.3894 226.109 30.9873 226.242 31.3396C226.932 30.6215 227.686 30.0699 228.251 30.1027C228.71 30.1245 228.983 30.586 229.127 31.1812C229.812 30.4276 230.578 29.805 231.149 29.805C231.36 29.805 231.751 29.8924 231.983 30.4658C232.051 30.6324 232.095 30.8153 232.124 30.9983C232.95 30.1491 233.859 29.4883 234.529 29.4883C234.717 29.4883 234.87 29.6494 234.87 29.846C234.87 30.0426 234.717 30.2037 234.529 30.2037C234.031 30.2037 233.093 30.9164 232.163 31.9949C232.09 33.2701 231.605 34.8975 230.654 34.8975C230.302 34.8975 230.062 34.649 230.062 34.2804C230.062 33.7452 230.675 32.6912 231.485 31.7082V31.6673C231.485 31.2877 231.438 30.96 231.352 30.7471C231.261 30.5232 231.175 30.5232 231.146 30.5232C230.834 30.5232 230.062 31.113 229.244 32.1123C229.249 32.2489 229.252 32.3827 229.247 32.5165C229.223 33.666 228.879 34.8948 227.988 34.8975H227.985L227.996 34.9002ZM228.522 33.1199C228.186 33.6551 228.05 34.0182 228.03 34.1821C228.222 34.1411 228.407 33.7807 228.504 33.2373C228.512 33.1991 228.517 33.1609 228.522 33.1226V33.1199ZM231.29 33.1499C230.998 33.595 230.836 33.9363 230.776 34.1329C230.951 34.0073 231.146 33.6442 231.29 33.1499ZM225.718 33.0899C225.468 33.453 225.285 33.7752 225.186 33.9991C225.254 33.9391 225.33 33.8571 225.411 33.7452C225.538 33.5622 225.648 33.3383 225.718 33.0899Z" fill="#6478FF"/>
<path d="M236.508 25.4307H241.595C242.016 25.4307 242.4 25.6825 242.58 26.0773L242.836 26.641C242.975 26.9455 242.975 27.2983 242.836 27.6028L242.504 28.3322C242.365 28.6367 242.365 28.9895 242.504 29.294L242.836 30.0235C242.975 30.328 242.975 30.6807 242.836 30.9852L242.504 31.7147C242.365 32.0192 242.365 32.372 242.504 32.6765L242.836 33.4059C242.975 33.7104 242.975 34.0632 242.836 34.3677L242.504 35.0971C242.365 35.4017 242.365 35.7544 242.504 36.0589L242.836 36.7884C242.975 37.0929 242.975 37.4456 242.836 37.7502L242.58 38.3139C242.4 38.7086 242.016 38.9605 241.595 38.9605H236.508V25.4307Z" fill="#93A1FF"/>
<rect x="236.506" y="25.4307" width="0.871189" height="1.80398" fill="#6478FF"/>
<rect x="236.504" y="29.0361" width="0.871189" height="2.25497" fill="#6478FF"/>
<rect x="236.504" y="33.0967" width="0.871189" height="2.25497" fill="#6478FF"/>
<rect x="236.506" y="37.1553" width="0.871189" height="1.80398" fill="#6478FF"/>
<path d="M243.074 29.1484C245.324 29.1484 247.148 27.3243 247.148 25.0742C247.148 22.8241 245.324 21 243.074 21C240.824 21 239 22.8241 239 25.0742C239 27.3243 240.824 29.1484 243.074 29.1484Z" fill="#4C61F0"/>
<path d="M243.736 22.3393C243.589 22.1694 243.332 22.1514 243.162 22.2989C242.992 22.4465 242.974 22.7038 243.121 22.8737L243.366 23.1557C242.435 22.9873 241.457 23.4068 240.956 24.2738C240.319 25.378 240.697 26.79 241.801 27.4275C242.905 28.0651 244.317 27.6867 244.955 26.5825C245.067 26.3876 245.001 26.1385 244.806 26.026C244.611 25.9135 244.362 25.9802 244.249 26.1751C243.837 26.8896 242.923 27.1344 242.209 26.7219C241.494 26.3094 241.249 25.3957 241.662 24.6812C241.989 24.1135 242.634 23.8423 243.243 23.9618L242.865 24.1454C242.663 24.2437 242.578 24.4875 242.677 24.6899C242.775 24.8923 243.019 24.9766 243.221 24.8783L244.656 24.1809C244.77 24.1255 244.852 24.0202 244.878 23.896C244.903 23.7719 244.869 23.6429 244.786 23.5473L243.736 22.3393Z" fill="#EDEFFF"/>
<path d="M261.488 35.488V32.576H257.82V26.738H266.36V32.576H262.692V35.488H267.69V36.482H256.532V35.488H261.488ZM265.184 31.61V27.704H259.01V31.61H265.184ZM279.912 31.946V32.926H268.782V31.946H279.912ZM270.182 26.248H278.526V27.228H271.372V29.636H278.638V30.644H270.182V26.248ZM270.196 34.172H271.386V36.804H278.736V37.798H270.196V34.172ZM295.375 32.016V32.996H290.503V35.432H289.285V32.996H284.217V32.016H295.375ZM285.617 34.256H286.835V36.818H294.143V37.798H285.617V34.256ZM285.645 26.318H293.933V30.672H285.645V26.318ZM292.743 29.692V27.27H286.835V29.692H292.743ZM306.926 25.73V38.05H305.764V25.73H306.926ZM296.3 34.718C297.13 34.2047 297.774 33.444 298.232 32.436C298.698 31.428 298.932 30.3453 298.932 29.188V28.152H296.636V27.144H302.25V28.152H300.108V29.188C300.108 30.2893 300.332 31.3207 300.78 32.282C301.228 33.234 301.862 33.9527 302.684 34.438L301.956 35.32C301.386 34.9747 300.896 34.4987 300.486 33.892C300.075 33.276 299.758 32.576 299.534 31.792C299.31 32.6413 298.988 33.3973 298.568 34.06C298.148 34.7227 297.639 35.2407 297.042 35.614L296.3 34.718ZM301.326 30.14H303.3V26.01H304.434V37.434H303.3V31.134H301.326V30.14ZM312.68 26.612C313.315 26.612 313.879 26.738 314.374 26.99C314.878 27.2327 315.27 27.578 315.55 28.026C315.839 28.4647 315.984 28.9687 315.984 29.538C315.984 30.1073 315.839 30.616 315.55 31.064C315.27 31.5027 314.878 31.848 314.374 32.1C313.879 32.3427 313.315 32.464 312.68 32.464C312.045 32.464 311.476 32.3427 310.972 32.1C310.468 31.848 310.071 31.5027 309.782 31.064C309.502 30.616 309.362 30.1073 309.362 29.538C309.362 28.9687 309.502 28.4647 309.782 28.026C310.071 27.578 310.468 27.2327 310.972 26.99C311.476 26.738 312.045 26.612 312.68 26.612ZM308.76 34.382C310.393 34.382 311.84 34.3587 313.1 34.312C314.369 34.2653 315.587 34.1487 316.754 33.962L316.852 34.858C315.648 35.0913 314.411 35.2407 313.142 35.306C311.873 35.3713 310.463 35.404 308.914 35.404L308.76 34.382ZM310.538 29.538C310.538 30.0887 310.739 30.5413 311.14 30.896C311.551 31.2413 312.064 31.414 312.68 31.414C313.296 31.414 313.805 31.2413 314.206 30.896C314.607 30.5413 314.808 30.0887 314.808 29.538C314.808 28.9873 314.607 28.5393 314.206 28.194C313.805 27.8393 313.296 27.662 312.68 27.662C312.055 27.662 311.541 27.8393 311.14 28.194C310.739 28.5393 310.538 28.9873 310.538 29.538ZM317.552 25.716H318.756V38.078H317.552V25.716ZM334.681 25.73V38.05H333.519V31.68H331.979V37.434H330.845V25.996H331.979V30.672H333.519V25.73H334.681ZM324.013 34.62C324.881 34.1253 325.539 33.388 325.987 32.408C326.435 31.428 326.659 30.2987 326.659 29.02V28.166H324.321V27.158H330.005V28.166H327.821V29.02C327.821 30.1773 328.045 31.218 328.493 32.142C328.941 33.0567 329.589 33.7333 330.439 34.172L329.725 35.11C329.137 34.7833 328.637 34.3447 328.227 33.794C327.816 33.234 327.499 32.5853 327.275 31.848C327.06 32.688 326.743 33.4253 326.323 34.06C325.903 34.6853 325.385 35.1847 324.769 35.558L324.013 34.62ZM339.427 27.144V25.688H340.631V27.144H343.305V28.124H340.631V28.348C340.631 29.0947 340.911 29.7713 341.471 30.378C342.031 30.9753 342.773 31.4047 343.697 31.666L343.137 32.632C342.428 32.4267 341.807 32.1093 341.275 31.68C340.743 31.2507 340.337 30.7467 340.057 30.168C339.786 30.8027 339.38 31.3533 338.839 31.82C338.307 32.2773 337.677 32.6227 336.949 32.856L336.389 31.904C337.304 31.624 338.036 31.162 338.587 30.518C339.147 29.8647 339.427 29.1413 339.427 28.348V28.124H336.725V27.144H339.427ZM338.517 33.64H346.539V37.896H338.517V33.64ZM345.363 36.916V34.606H339.707V36.916H345.363ZM342.969 29.146H345.321V25.744H346.539V33.01H345.321V30.14H342.969V29.146ZM352.839 26.36V27.704C352.839 28.5347 353.11 29.2953 353.651 29.986C354.193 30.6767 354.911 31.1807 355.807 31.498L355.191 32.45C354.519 32.198 353.927 31.834 353.413 31.358C352.909 30.882 352.522 30.322 352.251 29.678C351.99 30.378 351.598 30.9847 351.075 31.498C350.562 32.0113 349.946 32.3987 349.227 32.66L348.597 31.694C349.531 31.3673 350.268 30.8353 350.809 30.098C351.36 29.3513 351.635 28.5207 351.635 27.606V26.36H352.839ZM350.193 33.808H358.215V38.064H356.997V34.788H350.193V33.808ZM356.997 25.744H358.215V28.95H360.021V29.972H358.215V33.192H356.997V25.744ZM371.04 25.73V35.04H369.822V33.374H367.176V32.422H369.822V25.73H371.04ZM360.778 30.574C362.962 30.574 364.758 30.5273 366.168 30.434C366.336 29.4727 366.429 28.474 366.448 27.438H361.898V26.458H367.652V26.934C367.652 27.466 367.633 27.998 367.596 28.53C367.568 29.0527 367.498 29.6547 367.386 30.336L367.778 30.294C368.384 30.2193 368.711 30.1773 368.758 30.168L368.842 31.036C367.778 31.2227 366.639 31.3533 365.426 31.428V34.242H364.222V31.498C363.242 31.5447 362.15 31.568 360.946 31.568L360.778 30.574ZM362.57 34.032H363.788V36.804H371.334V37.784H362.57V34.032Z" fill="black"/>
<path d="M30.1809 60.3527L29.9274 59.6759C29.7947 59.3229 29.4554 59.0869 29.0789 59.0869H26.3698C25.8686 59.0869 25.4629 59.4926 25.4629 59.9938V71.2886C25.4629 71.7899 25.8686 72.1955 26.3698 72.1955H42.0939C42.5952 72.1955 43.0009 71.7899 43.0009 71.2886V61.8467C43.0009 61.3455 42.5952 60.9398 42.0939 60.9398H31.0313C30.6529 60.9398 30.3155 60.7057 30.1829 60.3508L30.1809 60.3527Z" fill="#6478FF"/>
<g filter="url(#filter0_b_3207_33640)">
<path d="M27.9504 62.3879L27.6969 61.7111C27.5643 61.3581 27.2249 61.1221 26.8485 61.1221H24.1394C23.6381 61.1221 23.2324 61.5278 23.2324 62.029V73.3238C23.2324 73.825 23.6381 74.2307 24.1394 74.2307H39.8635C40.3647 74.2307 40.7704 73.825 40.7704 73.3238V63.8838C40.7704 63.3826 40.3647 62.9769 39.8635 62.9769H28.8008C28.4224 62.9769 28.085 62.7429 27.9524 62.3879H27.9504Z" fill="#93A1FF"/>
</g>
<g filter="url(#filter1_b_3207_33640)">
<path d="M25.7219 64.4211L25.4684 63.7443C25.3357 63.3913 24.9964 63.1553 24.6199 63.1553H21.9089C21.4076 63.1553 21.002 63.561 21.002 64.0622V75.357C21.002 75.8582 21.4076 76.2639 21.9089 76.2639H37.633C38.1342 76.2639 38.5399 75.8582 38.5399 75.357V65.9151C38.5399 65.4138 38.1342 65.0082 37.633 65.0082H26.5703C26.192 65.0082 25.8545 64.7741 25.7219 64.4191V64.4211Z" fill="#C9D0FF"/>
</g>
<path d="M67.69 68.73V69.738H64.82V74.05H63.588V69.738H60.592V74.05H59.346V69.738H56.532V68.73H67.69ZM57.75 64.922C57.75 64.3713 57.9273 63.8953 58.282 63.494C58.646 63.0927 59.1547 62.7847 59.808 62.57C60.4613 62.346 61.2173 62.234 62.076 62.234C62.9347 62.234 63.6907 62.346 64.344 62.57C64.9973 62.7847 65.5013 63.0927 65.856 63.494C66.22 63.8953 66.402 64.3713 66.402 64.922C66.402 65.4633 66.22 65.9393 65.856 66.35C65.5013 66.7513 64.9973 67.064 64.344 67.288C63.6907 67.5027 62.9347 67.61 62.076 67.61C61.2173 67.61 60.4613 67.5027 59.808 67.288C59.1547 67.064 58.646 66.7513 58.282 66.35C57.9273 65.9393 57.75 65.4633 57.75 64.922ZM58.996 64.922C58.996 65.4447 59.276 65.86 59.836 66.168C60.396 66.476 61.1427 66.63 62.076 66.63C63.0093 66.63 63.756 66.476 64.316 66.168C64.8853 65.86 65.17 65.4447 65.17 64.922C65.17 64.3993 64.8853 63.984 64.316 63.676C63.7467 63.3587 63 63.2 62.076 63.2C61.152 63.2 60.4053 63.3587 59.836 63.676C59.276 63.984 58.996 64.3993 58.996 64.922ZM77.6863 64.656V61.73H78.9043V69.682H77.6863V68.044H75.6703V67.064H77.6863V65.636H75.6843V64.656H77.6863ZM68.7683 63.074H71.6663V61.632H72.8843V63.074H75.6703V64.026H68.7683V63.074ZM69.4543 66.91C69.4543 66.462 69.571 66.07 69.8043 65.734C70.047 65.3887 70.3783 65.1227 70.7983 64.936C71.2277 64.74 71.713 64.642 72.2543 64.642C73.085 64.642 73.757 64.852 74.2703 65.272C74.793 65.6827 75.0543 66.2287 75.0543 66.91C75.0543 67.6007 74.793 68.1607 74.2703 68.59C73.757 69.01 73.085 69.22 72.2543 69.22C71.713 69.22 71.2277 69.1267 70.7983 68.94C70.3783 68.744 70.047 68.4733 69.8043 68.128C69.571 67.7733 69.4543 67.3673 69.4543 66.91ZM70.6023 66.91C70.6023 67.33 70.7517 67.666 71.0503 67.918C71.3583 68.1607 71.7597 68.282 72.2543 68.282C72.7583 68.282 73.1597 68.1607 73.4583 67.918C73.7663 67.666 73.9203 67.33 73.9203 66.91C73.9203 66.5087 73.7663 66.1867 73.4583 65.944C73.1503 65.692 72.749 65.566 72.2543 65.566C71.7597 65.566 71.3583 65.692 71.0503 65.944C70.7517 66.1867 70.6023 66.5087 70.6023 66.91ZM70.7423 71.922C70.7423 71.2593 71.1063 70.7413 71.8343 70.368C72.5623 69.9947 73.5703 69.808 74.8583 69.808C76.137 69.808 77.1403 69.9947 77.8683 70.368C78.6057 70.7413 78.9743 71.2593 78.9743 71.922C78.9743 72.5847 78.6057 73.1027 77.8683 73.476C77.1403 73.8493 76.137 74.036 74.8583 74.036C73.5703 74.036 72.5623 73.8493 71.8343 73.476C71.1063 73.1027 70.7423 72.5847 70.7423 71.922ZM72.0023 71.922C72.0023 72.2953 72.2543 72.5847 72.7583 72.79C73.2623 72.9953 73.9623 73.098 74.8583 73.098C75.7543 73.098 76.4497 72.9953 76.9443 72.79C77.4483 72.5847 77.7003 72.2953 77.7003 71.922C77.7003 71.5487 77.4483 71.264 76.9443 71.068C76.4497 70.8627 75.7543 70.76 74.8583 70.76C73.9623 70.76 73.2623 70.8627 72.7583 71.068C72.2543 71.264 72.0023 71.5487 72.0023 71.922ZM91.1547 61.744V68.142H89.9507V66.644H87.1927V67.68H81.6067V62.304H82.8107V64.012H86.0027V62.304H87.1927V63.466H89.9507V61.744H91.1547ZM86.0027 66.7V64.95H82.8107V66.7H86.0027ZM83.1887 68.73H91.1547V71.698H84.4207V72.93H91.5887V73.896H83.2307V70.788H89.9647V69.696H83.1887V68.73ZM89.9507 65.706V64.404H87.1927V65.706H89.9507ZM106.618 61.744V70.83H105.4V67.568H102.348C102.058 67.932 101.694 68.212 101.256 68.408C100.826 68.604 100.35 68.702 99.8275 68.702C99.2302 68.702 98.6889 68.5713 98.2035 68.31C97.7182 68.0487 97.3355 67.6847 97.0555 67.218C96.7849 66.742 96.6495 66.21 96.6495 65.622C96.6495 65.0247 96.7849 64.488 97.0555 64.012C97.3355 63.536 97.7182 63.1673 98.2035 62.906C98.6889 62.6447 99.2302 62.514 99.8275 62.514C100.341 62.514 100.812 62.612 101.242 62.808C101.68 63.004 102.044 63.2793 102.334 63.634H105.4V61.744H106.618ZM97.7975 65.622C97.7975 66.2193 97.9889 66.7093 98.3715 67.092C98.7542 67.4653 99.2395 67.652 99.8275 67.652C100.406 67.652 100.887 67.4653 101.27 67.092C101.662 66.7093 101.858 66.2193 101.858 65.622C101.858 65.0247 101.662 64.5393 101.27 64.166C100.887 63.7833 100.406 63.592 99.8275 63.592C99.2395 63.592 98.7542 63.7833 98.3715 64.166C97.9889 64.5393 97.7975 65.0247 97.7975 65.622ZM98.7075 69.892H99.9255V72.804H106.954V73.784H98.7075V69.892ZM102.866 64.614C102.968 64.9407 103.02 65.2767 103.02 65.622C103.02 65.9393 102.973 66.2613 102.88 66.588H105.4V64.614H102.866ZM111.294 69.108V70.494H117.174V69.108H118.378V73.896H110.104V69.108H111.294ZM108.704 67.33H119.834V68.296H108.704V67.33ZM109.334 65.538C110.099 65.4353 110.809 65.23 111.462 64.922C112.125 64.614 112.652 64.2407 113.044 63.802C113.445 63.354 113.646 62.8873 113.646 62.402V61.87H114.892V62.402C114.892 62.878 115.093 63.34 115.494 63.788C115.895 64.236 116.427 64.6187 117.09 64.936C117.753 65.244 118.462 65.4447 119.218 65.538L118.77 66.49C117.79 66.35 116.889 66.0513 116.068 65.594C115.256 65.1367 114.659 64.5813 114.276 63.928C113.893 64.5907 113.291 65.1507 112.47 65.608C111.658 66.056 110.757 66.35 109.768 66.49L109.334 65.538ZM117.174 72.916V71.432H111.294V72.916H117.174ZM132.084 68.016V68.996H127.212V71.432H125.994V68.996H120.926V68.016H132.084ZM122.326 70.256H123.544V72.818H130.852V73.798H122.326V70.256ZM122.354 62.318H130.642V66.672H122.354V62.318ZM129.452 65.692V63.27H123.544V65.692H129.452ZM143.635 61.73V74.05H142.473V61.73H143.635ZM133.009 70.718C133.839 70.2047 134.483 69.444 134.941 68.436C135.407 67.428 135.641 66.3453 135.641 65.188V64.152H133.345V63.144H138.959V64.152H136.817V65.188C136.817 66.2893 137.041 67.3207 137.489 68.282C137.937 69.234 138.571 69.9527 139.393 70.438L138.665 71.32C138.095 70.9747 137.605 70.4987 137.195 69.892C136.784 69.276 136.467 68.576 136.243 67.792C136.019 68.6413 135.697 69.3973 135.277 70.06C134.857 70.7227 134.348 71.2407 133.751 71.614L133.009 70.718ZM138.035 66.14H140.009V62.01H141.143V73.434H140.009V67.134H138.035V66.14Z" fill="black"/>
<path d="M221.033 61.5873C221.033 60.88 221.607 60.3066 222.314 60.3066H241.524C242.231 60.3066 242.804 60.88 242.804 61.5873V72.237C242.804 72.9443 242.231 73.5177 241.524 73.5177H226.046C225.706 73.5177 225.381 73.6526 225.14 73.8928L223.219 75.8138C222.413 76.6205 221.033 76.0492 221.033 74.9082V73.5177V61.5873Z" fill="#D2D8FF"/>
<rect x="223.594" y="63.709" width="3.84199" height="1.28066" rx="0.640331" fill="#A5B1FF"/>
<rect x="228.719" y="63.709" width="11.526" height="1.28066" rx="0.640331" fill="#A5B1FF"/>
<path d="M223.594 66.9118C223.594 66.5582 223.88 66.2715 224.234 66.2715H235.76C236.114 66.2715 236.4 66.5582 236.4 66.9118C236.4 67.2655 236.114 67.5521 235.76 67.5521H224.234C223.88 67.5521 223.594 67.2655 223.594 66.9118Z" fill="#A5B1FF"/>
<rect x="237.684" y="66.2715" width="2.56132" height="1.28066" rx="0.640331" fill="#A5B1FF"/>
<circle cx="242" cy="60" r="2" fill="#6478FF"/>
<path d="M260.032 73.014H258.87V64.18L257.218 65.244L256.644 64.32L258.87 62.892H260.032V73.014ZM263.458 64.866C263.663 64.866 263.826 64.9313 263.948 65.062C264.078 65.1927 264.144 65.356 264.144 65.552C264.144 65.7573 264.078 65.9253 263.948 66.056C263.826 66.1867 263.663 66.252 263.458 66.252C263.252 66.252 263.084 66.1867 262.954 66.056C262.823 65.9253 262.758 65.7573 262.758 65.552C262.758 65.356 262.823 65.1927 262.954 65.062C263.084 64.9313 263.252 64.866 263.458 64.866ZM262.758 70.27C262.758 70.0647 262.823 69.9013 262.954 69.78C263.084 69.6493 263.252 69.584 263.458 69.584C263.663 69.584 263.826 69.6493 263.948 69.78C264.078 69.9013 264.144 70.0647 264.144 70.27C264.144 70.4753 264.078 70.6433 263.948 70.774C263.826 70.9047 263.663 70.97 263.458 70.97C263.252 70.97 263.084 70.9047 262.954 70.774C262.823 70.6433 262.758 70.4753 262.758 70.27ZM269.493 73.014H268.331V64.18L266.679 65.244L266.105 64.32L268.331 62.892H269.493V73.014ZM284.741 61.744V68.114H283.537V61.744H284.741ZM274.787 67.19C275.403 66.994 275.945 66.7093 276.411 66.336C276.878 65.9533 277.237 65.5147 277.489 65.02C277.751 64.5253 277.881 64.0073 277.881 63.466V63.396H275.123V62.416H281.857V63.396H279.113V63.466C279.113 63.97 279.239 64.4553 279.491 64.922C279.753 65.3887 280.117 65.7993 280.583 66.154C281.05 66.5087 281.587 66.7747 282.193 66.952L281.619 67.89C280.901 67.666 280.271 67.33 279.729 66.882C279.197 66.4247 278.796 65.888 278.525 65.272C278.255 65.944 277.844 66.532 277.293 67.036C276.752 67.5307 276.108 67.8993 275.361 68.142L274.787 67.19ZM276.761 68.702H284.741V71.698H277.965V72.972H285.161V73.924H276.803V70.816H283.551V69.64H276.761V68.702ZM290.86 62.612C291.494 62.612 292.059 62.738 292.554 62.99C293.058 63.2327 293.45 63.578 293.73 64.026C294.019 64.4647 294.164 64.9687 294.164 65.538C294.164 66.1073 294.019 66.616 293.73 67.064C293.45 67.5027 293.058 67.848 292.554 68.1C292.059 68.3427 291.494 68.464 290.86 68.464C290.225 68.464 289.656 68.3427 289.152 68.1C288.648 67.848 288.251 67.5027 287.962 67.064C287.682 66.616 287.542 66.1073 287.542 65.538C287.542 64.9687 287.682 64.4647 287.962 64.026C288.251 63.578 288.648 63.2327 289.152 62.99C289.656 62.738 290.225 62.612 290.86 62.612ZM286.94 70.382C288.573 70.382 290.02 70.3587 291.28 70.312C292.549 70.2653 293.767 70.1487 294.934 69.962L295.032 70.858C293.828 71.0913 292.591 71.2407 291.322 71.306C290.052 71.3713 288.643 71.404 287.094 71.404L286.94 70.382ZM288.718 65.538C288.718 66.0887 288.918 66.5413 289.32 66.896C289.73 67.2413 290.244 67.414 290.86 67.414C291.476 67.414 291.984 67.2413 292.386 66.896C292.787 66.5413 292.988 66.0887 292.988 65.538C292.988 64.9873 292.787 64.5393 292.386 64.194C291.984 63.8393 291.476 63.662 290.86 63.662C290.234 63.662 289.721 63.8393 289.32 64.194C288.918 64.5393 288.718 64.9873 288.718 65.538ZM295.732 61.716H296.936V74.078H295.732V61.716ZM310.25 67.694V68.674H299.12V67.694H310.25ZM300.324 64.404C300.324 63.676 300.716 63.102 301.5 62.682C302.284 62.262 303.343 62.052 304.678 62.052C306.013 62.052 307.072 62.262 307.856 62.682C308.64 63.102 309.032 63.676 309.032 64.404C309.032 65.132 308.64 65.706 307.856 66.126C307.072 66.546 306.013 66.756 304.678 66.756C303.343 66.756 302.284 66.546 301.5 66.126C300.716 65.706 300.324 65.132 300.324 64.404ZM300.45 71.852C300.45 71.152 300.823 70.6107 301.57 70.228C302.317 69.8453 303.353 69.654 304.678 69.654C306.003 69.654 307.039 69.8453 307.786 70.228C308.533 70.6107 308.906 71.152 308.906 71.852C308.906 72.552 308.533 73.0933 307.786 73.476C307.039 73.868 306.003 74.064 304.678 74.064C303.353 74.064 302.317 73.868 301.57 73.476C300.823 73.0933 300.45 72.552 300.45 71.852ZM301.57 64.404C301.57 64.8427 301.845 65.188 302.396 65.44C302.956 65.6827 303.717 65.804 304.678 65.804C305.639 65.804 306.395 65.6827 306.946 65.44C307.506 65.188 307.786 64.8427 307.786 64.404C307.786 63.956 307.506 63.6107 306.946 63.368C306.395 63.116 305.639 62.99 304.678 62.99C303.717 62.99 302.956 63.116 302.396 63.368C301.845 63.6107 301.57 63.956 301.57 64.404ZM301.668 71.852C301.668 72.2533 301.929 72.566 302.452 72.79C302.984 73.0047 303.726 73.112 304.678 73.112C305.63 73.112 306.367 73.0047 306.89 72.79C307.413 72.566 307.674 72.2533 307.674 71.852C307.674 71.4507 307.413 71.1427 306.89 70.928C306.367 70.704 305.63 70.592 304.678 70.592C303.726 70.592 302.984 70.704 302.452 70.928C301.929 71.1427 301.668 71.4507 301.668 71.852ZM320.946 61.73V64.586H322.738V65.594H320.946V68.31H319.728V61.73H320.946ZM311.93 62.528H317.348V63.508H313.134V66.91C314.338 66.91 315.332 66.882 316.116 66.826C316.91 66.7607 317.694 66.6533 318.468 66.504L318.608 67.484C317.778 67.652 316.947 67.7687 316.116 67.834C315.295 67.89 314.222 67.918 312.896 67.918H311.93V62.528ZM313.148 68.968H314.352V70.424H319.756V68.968H320.946V73.854H313.148V68.968ZM319.756 72.874V71.39H314.352V72.874H319.756ZM333.231 62.528V67.582H327.477V62.528H333.231ZM328.303 73.084C329.022 73.0093 329.689 72.846 330.305 72.594C330.921 72.3327 331.416 72.0247 331.789 71.67C332.162 71.306 332.358 70.9327 332.377 70.55H328.793V69.612H332.391V68.45H333.623V69.612H337.207V70.55H333.623C333.642 70.9233 333.833 71.292 334.197 71.656C334.57 72.0107 335.06 72.3187 335.667 72.58C336.274 72.832 336.932 73 337.641 73.084L337.235 74.022C336.292 73.9007 335.443 73.6393 334.687 73.238C333.931 72.846 333.366 72.37 332.993 71.81C332.629 72.37 332.064 72.846 331.299 73.238C330.534 73.63 329.67 73.8913 328.709 74.022L328.303 73.084ZM332.069 66.616V63.494H328.639V66.616H332.069ZM335.723 61.744H336.941V68.8H335.723V61.744ZM347.658 63.186C347.658 64.4553 347.504 65.5847 347.196 66.574H349.03V62.052H350.178V73.434H349.03V67.554H346.832C346.095 69.178 344.821 70.5033 343.01 71.53L342.324 70.648C344.041 69.696 345.217 68.478 345.852 66.994L342.492 67.33L342.324 66.294L346.188 66.042C346.337 65.5007 346.435 64.88 346.482 64.18H342.94V63.186H347.658ZM351.606 61.73H352.768V74.05H351.606V61.73ZM357.808 62.668C358.359 62.668 358.854 62.822 359.292 63.13C359.731 63.4287 360.086 63.8627 360.356 64.432C360.636 64.992 360.804 65.65 360.86 66.406H363.478V61.716H364.668V74.078H363.478V67.372H360.874C360.837 68.1653 360.683 68.8607 360.412 69.458C360.142 70.046 359.782 70.4987 359.334 70.816C358.886 71.1333 358.378 71.292 357.808 71.292C357.211 71.292 356.679 71.1147 356.212 70.76C355.746 70.4053 355.382 69.906 355.12 69.262C354.859 68.6087 354.728 67.848 354.728 66.98C354.728 66.112 354.859 65.3513 355.12 64.698C355.382 64.0447 355.746 63.5453 356.212 63.2C356.679 62.8453 357.211 62.668 357.808 62.668ZM355.876 66.98C355.876 67.6333 355.956 68.2027 356.114 68.688C356.282 69.1733 356.511 69.5513 356.8 69.822C357.09 70.0833 357.426 70.214 357.808 70.214C358.191 70.214 358.527 70.0833 358.816 69.822C359.106 69.5513 359.33 69.1733 359.488 68.688C359.656 68.2027 359.74 67.6333 359.74 66.98C359.74 66.3267 359.656 65.7573 359.488 65.272C359.33 64.7867 359.106 64.4133 358.816 64.152C358.527 63.8907 358.191 63.76 357.808 63.76C357.426 63.76 357.09 63.8907 356.8 64.152C356.511 64.4133 356.282 64.7867 356.114 65.272C355.956 65.7573 355.876 66.3267 355.876 66.98Z" fill="black"/>
<path d="M31.998 91.2002H37.4561C37.787 91.2002 38.0553 91.4685 38.0553 91.7994V94.4356C38.0553 94.7665 37.787 95.0348 37.4561 95.0348H31.998V91.2002Z" fill="#93A1FF"/>
<path d="M31.998 100.13V91.0781" stroke="#6478FF" stroke-width="1.19833" stroke-linecap="round"/>
<path d="M20.6152 105.864V116.05C20.6152 116.381 20.8835 116.649 21.2144 116.649H42.7844C43.1153 116.649 43.3836 116.381 43.3836 116.05V105.864C43.3836 105.533 43.1153 105.265 42.7844 105.265H40.3878C40.0568 105.265 39.7886 104.997 39.7886 104.666V102.028C39.7886 101.807 39.6676 101.605 39.4735 101.5L32.2835 97.6285C32.1061 97.5331 31.8927 97.5331 31.7153 97.6285L24.5253 101.5C24.3313 101.605 24.2102 101.807 24.2102 102.028V104.666C24.2102 104.997 23.942 105.265 23.6111 105.265H21.2144C20.8835 105.265 20.6152 105.533 20.6152 105.864Z" fill="#C9D0FF"/>
<circle cx="32.0724" cy="102.943" r="2.39667" fill="#93A1FF"/>
<rect x="28.6055" y="109.559" width="6.78592" height="7.09032" fill="#93A1FF"/>
<path d="M32.0723 101.514V103.14H33.6634" stroke="#6478FF" stroke-width="0.643292" stroke-linecap="round" stroke-linejoin="round"/>
<path d="M63.798 98.99V99.998H60.956V101.44C60.956 102.121 61.1007 102.798 61.39 103.47C61.6793 104.142 62.0713 104.739 62.566 105.262C63.0607 105.775 63.6113 106.163 64.218 106.424L63.532 107.39C62.8227 107.063 62.188 106.573 61.628 105.92C61.0773 105.267 60.6573 104.525 60.368 103.694C60.0787 104.59 59.654 105.397 59.094 106.116C58.5433 106.825 57.9133 107.353 57.204 107.698L56.504 106.732C57.1013 106.452 57.6473 106.032 58.142 105.472C58.6367 104.903 59.024 104.263 59.304 103.554C59.5933 102.845 59.738 102.14 59.738 101.44V99.998H56.91V98.99H63.798ZM65.394 97.744H66.612V110.064H65.394V97.744ZM78.8763 97.73V107.11H77.6583V105.864H75.1943V104.996H77.6583V97.73H78.8763ZM68.6843 103.4C70.2803 103.391 71.713 103.363 72.9823 103.316C74.261 103.269 75.479 103.176 76.6363 103.036L76.7063 103.904C75.7357 104.072 74.6437 104.193 73.4303 104.268V106.676H72.2123V104.324C71.2137 104.371 70.0937 104.394 68.8523 104.394L68.6843 103.4ZM69.6503 100.376C69.6503 99.9467 69.7763 99.5687 70.0283 99.242C70.2897 98.9153 70.649 98.6633 71.1063 98.486C71.5637 98.3087 72.091 98.22 72.6883 98.22C73.2857 98.22 73.813 98.3087 74.2703 98.486C74.7277 98.6633 75.0823 98.9153 75.3343 99.242C75.5957 99.5687 75.7263 99.9467 75.7263 100.376C75.7263 101.029 75.4463 101.552 74.8863 101.944C74.3263 102.336 73.5937 102.532 72.6883 102.532C71.783 102.532 71.0503 102.336 70.4903 101.944C69.9303 101.552 69.6503 101.029 69.6503 100.376ZM70.4063 106.2H71.6243V108.804H79.1843V109.784H70.4063V106.2ZM70.7983 100.376C70.7983 100.759 70.971 101.062 71.3163 101.286C71.671 101.51 72.1283 101.622 72.6883 101.622C73.2577 101.622 73.7103 101.51 74.0463 101.286C74.3917 101.062 74.5643 100.759 74.5643 100.376C74.5643 99.9933 74.3917 99.69 74.0463 99.466C73.701 99.2327 73.2483 99.116 72.6883 99.116C72.1283 99.116 71.671 99.2327 71.3163 99.466C70.971 99.69 70.7983 99.9933 70.7983 100.376ZM94.6892 97.73V110.05H93.5272V103.652H91.8892V109.42H90.7552V98.01H91.8892V102.644H93.5272V97.73H94.6892ZM84.6652 99.228H89.2292V100.222H85.8692V106.046C86.6999 106.037 87.4232 106.009 88.0392 105.962C88.6552 105.915 89.2712 105.827 89.8872 105.696L90.0132 106.69C89.3132 106.839 88.6272 106.937 87.9552 106.984C87.2832 107.031 86.4572 107.054 85.4772 107.054H84.6652V99.228ZM99.5335 99.004V97.66H100.738V99.004H103.776V99.984H96.4955V99.004H99.5335ZM97.1815 102.826C97.1815 102.154 97.4522 101.613 97.9935 101.202C98.5349 100.791 99.2489 100.586 100.136 100.586C101.022 100.586 101.736 100.791 102.278 101.202C102.819 101.613 103.09 102.154 103.09 102.826C103.09 103.498 102.819 104.035 102.278 104.436C101.736 104.837 101.022 105.038 100.136 105.038C99.2489 105.038 98.5349 104.837 97.9935 104.436C97.4522 104.035 97.1815 103.498 97.1815 102.826ZM98.0215 106.088H106.044V110.064H104.826V107.068H98.0215V106.088ZM98.3295 102.826C98.3295 103.209 98.4929 103.521 98.8195 103.764C99.1555 103.997 99.5942 104.114 100.136 104.114C100.668 104.114 101.097 103.997 101.424 103.764C101.76 103.521 101.928 103.209 101.928 102.826C101.928 102.434 101.76 102.121 101.424 101.888C101.097 101.645 100.668 101.524 100.136 101.524C99.5942 101.524 99.1555 101.645 98.8195 101.888C98.4929 102.121 98.3295 102.434 98.3295 102.826ZM104.826 97.744H106.044V101.104H107.85V102.112H106.044V105.444H104.826V97.744ZM120.862 101.636V97.73H122.08V106.872H120.862V102.63H118.244V101.636H120.862ZM116.704 101.09C116.872 100.651 116.97 100.189 116.998 99.704H112.784V98.724H118.272C118.272 100.395 117.829 101.809 116.942 102.966C116.056 104.114 114.646 105.01 112.714 105.654L112.224 104.688C114.166 104.063 115.514 103.153 116.27 101.958L112.364 102.266L112.182 101.286L116.704 101.09ZM114.296 105.962H115.528V108.804H122.444V109.784H114.296V105.962ZM133.099 99.914V97.744H134.317V104.072H133.099V100.908H130.481V99.914H133.099ZM124.139 103.162C125.072 102.845 125.814 102.331 126.365 101.622C126.925 100.913 127.205 100.119 127.205 99.242V98.122H128.395V99.242C128.395 100.035 128.665 100.773 129.207 101.454C129.757 102.126 130.481 102.607 131.377 102.896L130.747 103.834C130.084 103.61 129.501 103.269 128.997 102.812C128.493 102.345 128.101 101.809 127.821 101.202C127.559 101.883 127.167 102.476 126.645 102.98C126.122 103.484 125.501 103.862 124.783 104.114L124.139 103.162ZM126.365 104.702H134.317V107.698H127.583V108.93H134.751V109.896H126.379V106.788H133.113V105.654H126.365V104.702ZM142.969 98.64V99.606H138.307V101.062H142.633V102.028H138.307V103.54C139.632 103.54 140.701 103.517 141.513 103.47C142.334 103.423 143.146 103.335 143.949 103.204L144.075 104.17C143.226 104.31 142.372 104.403 141.513 104.45C140.664 104.497 139.53 104.52 138.111 104.52H137.103V98.64H142.969ZM138.279 107.768C138.279 107.068 138.648 106.522 139.385 106.13C140.122 105.729 141.135 105.528 142.423 105.528C143.72 105.528 144.733 105.729 145.461 106.13C146.198 106.522 146.567 107.068 146.567 107.768C146.567 108.487 146.198 109.042 145.461 109.434C144.733 109.835 143.72 110.036 142.423 110.036C141.126 110.036 140.108 109.835 139.371 109.434C138.643 109.042 138.279 108.487 138.279 107.768ZM139.497 107.768C139.497 108.188 139.754 108.515 140.267 108.748C140.78 108.981 141.499 109.098 142.423 109.098C143.347 109.098 144.066 108.981 144.579 108.748C145.102 108.515 145.363 108.188 145.363 107.768C145.363 107.357 145.102 107.04 144.579 106.816C144.056 106.583 143.338 106.466 142.423 106.466C141.499 106.466 140.78 106.583 140.267 106.816C139.754 107.04 139.497 107.357 139.497 107.768ZM145.293 97.744H146.511V105.346H145.293V97.744Z" fill="black"/>
<defs>
<filter id="filter0_b_3207_33640" x="20.5019" y="58.3915" width="22.9982" height="18.5695" filterUnits="userSpaceOnUse" color-interpolation-filters="sRGB">
<feFlood flood-opacity="0" result="BackgroundImageFix"/>
<feGaussianBlur in="BackgroundImageFix" stdDeviation="1.36528"/>
<feComposite in2="SourceAlpha" operator="in" result="effect1_backgroundBlur_3207_33640"/>
<feBlend mode="normal" in="SourceGraphic" in2="effect1_backgroundBlur_3207_33640" result="shape"/>
</filter>
<filter id="filter1_b_3207_33640" x="20.2998" y="62.4531" width="18.9414" height="14.5127" filterUnits="userSpaceOnUse" color-interpolation-filters="sRGB">
<feFlood flood-opacity="0" result="BackgroundImageFix"/>
<feGaussianBlur in="BackgroundImageFix" stdDeviation="0.351072"/>
<feComposite in2="SourceAlpha" operator="in" result="effect1_backgroundBlur_3207_33640"/>
<feBlend mode="normal" in="SourceGraphic" in2="effect1_backgroundBlur_3207_33640" result="shape"/>
</filter>
</defs>
</svg>
