<svg width="22" height="22" viewBox="0 0 22 22" fill="none" xmlns="http://www.w3.org/2000/svg">
<path d="M2.56445 2.5625H19.436V19.4341H2.56445V2.5625Z" fill="white" fill-opacity="0.01"/>
<path d="M3.75 17.75L5.25 16L18.25 16.5V20.25H6.5L4.75 19.75L3.75 19V17.75Z" fill="#E4E7FF"/>
<path fill-rule="evenodd" clip-rule="evenodd" d="M5.49935 20.1667H18.3327V16.5H5.49935C4.48683 16.5 3.66602 17.3208 3.66602 18.3333C3.66602 19.3458 4.48683 20.1667 5.49935 20.1667Z" stroke="#6478FF" stroke-linecap="round" stroke-linejoin="round"/>
<path d="M3.66602 18.3359C3.66602 16.5026 3.66602 4.58594 3.66602 4.58594C3.66602 3.06715 4.97932 1.83594 6.59935 1.83594H18.3327V16.5026C18.3327 16.5026 9.15754 16.5026 6.59935 16.5026C4.29038 16.5026 3.66602 16.8162 3.66602 18.3359Z" fill="#6478FF" stroke="#6478FF" stroke-linejoin="round"/>
</svg>
