<svg width="44" height="44" viewBox="0 0 44 44" fill="none" xmlns="http://www.w3.org/2000/svg">
<g id="neutral-student">
<g id="Group 1171276099">
<g id="Group 1171276097">
<circle id="Ellipse 8721" cx="22" cy="22" r="22" fill="#CAD1FF"/>
<mask id="mask0_3207_34914" style="mask-type:alpha" maskUnits="userSpaceOnUse" x="0" y="0" width="44" height="44">
<circle id="Ellipse 8722" cx="22" cy="22" r="22" fill="#D9D9D9"/>
</mask>
<g mask="url(#mask0_3207_34914)">
<path id="Rectangle 40258" d="M7.10836 16.324C8.00209 9.29381 14.5046 4 21.5913 4C29.056 4 35.9975 9.84525 37.0614 17.2337C37.7743 22.1846 37.1689 26.1962 31 29L32.501 26.5C31.7127 28.3492 27.7107 29.75 25.5 30.5L22 31L18 30.5C16.0002 30 11.5012 28.5 10.501 26.5L11.5014 28.5C6.91816 25.6355 6.46698 21.3691 7.10836 16.324Z" fill="#414654"/>
<g id="Group 1171276020">
<rect id="Rectangle 40259" x="20.1094" y="27.2383" width="3.77143" height="8.38095" fill="#FFE2D3"/>
<path id="Rectangle 40260" d="M20.1094 27.2383H23.8808V31.0097L20.1094 32.2669V27.2383Z" fill="#F9BE9F"/>
<ellipse id="Ellipse 8723" cx="21.9954" cy="19.6949" rx="11.1048" ry="10.4762" fill="#FFE2D3"/>
<path id="Vector 26065" d="M16.0145 15.4147C17.1665 15.0223 17.7333 14.9848 18.7002 15.0057" stroke="#414654" stroke-width="0.6" stroke-linecap="round"/>
<path id="Vector 26066" d="M27.3927 15.4133C26.3446 15.0148 25.7637 14.8817 24.7071 15.0042" stroke="#414654" stroke-width="0.6" stroke-linecap="round"/>
<ellipse id="Ellipse 8724" cx="33.4631" cy="22.5239" rx="3.5619" ry="3.0381" transform="rotate(-30 33.4631 22.5239)" fill="#FFE2D3"/>
<ellipse id="Ellipse 8725" cx="3.5619" cy="3.0381" rx="3.5619" ry="3.0381" transform="matrix(-0.866025 -0.5 -0.5 0.866025 15.4922 21.6738)" fill="#FFE2D3"/>
<path id="Subtract" fill-rule="evenodd" clip-rule="evenodd" d="M9.84364 24.3216C8.67924 23.6493 8.20015 22.2992 8.77355 21.3061C9.34695 20.3129 10.7557 20.0528 11.9201 20.725C12.2905 20.9389 12.5916 21.2213 12.8115 21.5391C12.8868 21.6479 12.8285 21.7936 12.7023 21.8335L11.9172 22.0814C11.7519 22.1336 11.7178 22.3524 11.8594 22.4524L13.0293 23.2782C13.1031 23.3303 13.1364 23.4244 13.1029 23.5083C13.0713 23.5875 13.0338 23.665 12.9902 23.7405C12.4168 24.7337 11.008 24.9938 9.84364 24.3216Z" fill="#F9BE9F"/>
<path id="Subtract_2" fill-rule="evenodd" clip-rule="evenodd" d="M34.4845 24.3216C35.6489 23.6493 36.128 22.2992 35.5546 21.3061C34.9812 20.3129 33.5724 20.0528 32.408 20.725C32.0376 20.9389 31.7365 21.2213 31.5166 21.5391C31.4413 21.6479 31.4996 21.7936 31.6258 21.8335L32.411 22.0814C32.5762 22.1336 32.6103 22.3524 32.4687 22.4524L31.2988 23.2782C31.225 23.3303 31.1917 23.4244 31.2252 23.5083C31.2568 23.5875 31.2943 23.665 31.3379 23.7405C31.9113 24.7337 33.3201 24.9938 34.4845 24.3216Z" fill="#F9BE9F"/>
<path id="Ellipse 8731" d="M23.0406 24.0957C23.0406 24.6743 22.5715 25.1433 21.9929 25.1433C21.4143 25.1433 20.9453 24.6743 20.9453 24.0957" stroke="#2D333F" stroke-width="0.419048" stroke-linecap="round"/>
<g id="Ellipse 8727">
<circle cx="25.9788" cy="19.6956" r="3.14286" fill="white"/>
<circle cx="25.9788" cy="19.6956" r="3.14286" fill="white"/>
</g>
<circle id="Ellipse 8730" cx="25.8747" cy="19.8005" r="1.78095" fill="#414654"/>
<g id="Ellipse 8726">
<circle cx="18.01" cy="19.6956" r="3.14286" fill="white"/>
<circle cx="18.01" cy="19.6956" r="3.14286" fill="white"/>
</g>
<circle id="Ellipse 8729" cx="18.1247" cy="19.8005" r="1.78095" fill="#414654"/>
<path id="Rectangle 40261" d="M10.4688 44.0004C10.4688 37.6359 15.6281 32.4766 21.9926 32.4766C28.357 32.4766 33.5164 37.6359 33.5164 44.0004V45.8442H10.4688V44.0004Z" fill="#EDEFFF"/>
<circle id="Ellipse 8732" cx="21.9958" cy="37.0641" r="0.628571" fill="#4C61F0"/>
<circle id="Ellipse 8733" cx="21.9958" cy="39.5778" r="0.628571" fill="#4C61F0"/>
<path id="Vector 26035" d="M24.5533 30.9883L21.8352 32.2454L23.4208 36.0169L26.8185 33.5026L24.5533 30.9883Z" fill="#4C61F0"/>
<path id="Vector 26036" d="M19.0248 30.9883L21.7429 32.2454L20.1574 36.0169L16.7597 33.5026L19.0248 30.9883Z" fill="#4C61F0"/>
<circle id="Ellipse 8735" cx="15.1886" cy="24.0949" r="1.57143" fill="#FFD0D0"/>
<circle id="Ellipse 8736" cx="28.8058" cy="24.0949" r="1.57143" fill="#FFD0D0"/>
<path id="Vector 26067" d="M31 18C27.6764 15.7334 25.9481 14.1527 24 8.52632L26.4348 8C27.034 12.5004 28.3692 14.5227 31 18Z" fill="#414654"/>
<path id="Vector 26068" d="M34 19C30.2016 16.5067 28.2264 14.768 26 8.57895L28.7826 8C30.8571 11.5 32.5714 13.5 34 19Z" fill="#414654"/>
<path id="Vector 26069" d="M10 19C13.7984 16.5067 15.7736 14.768 18 8.57895L15.2174 8C13.1429 11.5 11.4286 13.5 10 19Z" fill="#414654"/>
</g>
</g>
</g>
</g>
</g>
</svg>
