<svg width="16" height="17" viewBox="0 0 16 17" fill="none" xmlns="http://www.w3.org/2000/svg">
<g id="Frame 1171276106">
<g id="Group 1171276023">
<g id="Group 1171276022">
<path id="Rectangle 40262" d="M1.6628 3.43138C1.70264 3.14797 1.94671 2.94457 2.23284 2.93844C4.54611 2.88893 5.85039 2.39133 7.57228 0.882336C7.81038 0.673682 8.17071 0.682072 8.39997 0.900402C10.132 2.54992 11.463 2.97698 13.7414 2.95425C14.0344 2.95132 14.2884 3.15743 14.3291 3.44757C14.5283 4.87021 15.0032 8.94276 14.2535 11.0375C13.2258 13.9091 9.14143 15.7056 8.19248 16.0893C8.06406 16.1412 7.92552 16.1412 7.79711 16.0893C6.84815 15.7056 2.76378 13.9091 1.73609 11.0375C0.983561 8.93476 1.46491 4.83905 1.6628 3.43138Z" fill="#6478FF"/>
<circle id="Ellipse 8734" cx="7.91146" cy="8.58333" r="4.08333" fill="white"/>
<path id="Vector 26037" d="M5.91406 8.37565L7.41406 9.87565L9.83073 7.45898" stroke="#6478FF" stroke-width="1.41667" stroke-linecap="round" stroke-linejoin="round"/>
</g>
</g>
</g>
</svg>
