<svg width="120" height="120" viewBox="0 0 120 120" fill="none" xmlns="http://www.w3.org/2000/svg">
<rect x="9.07324" y="44.8555" width="82.2857" height="48.8571" rx="5.14286" fill="#C6CEFF"/>
<rect x="14.2158" y="39.7129" width="82.2857" height="48.8571" rx="5.14286" fill="#EDEFFF"/>
<rect x="14.2158" y="49.998" width="82.2857" height="7.71429" fill="#93A1FF"/>
<rect x="78.0732" y="71.4268" width="10.2857" height="7.71429" rx="1.71429" fill="#93A1FF"/>
<rect x="23.2158" y="71.4268" width="7.71429" height="7.71429" rx="3.85714" fill="#C6CEFF"/>
<rect x="34.3584" y="71.4268" width="7.71429" height="7.71429" rx="3.85714" fill="#C6CEFF"/>
<rect x="45.502" y="71.4268" width="7.71429" height="7.71429" rx="3.85714" fill="#C6CEFF"/>
<rect x="77.7842" y="26.2871" width="33.1429" height="33.1429" rx="16.5714" fill="#6478FF"/>
<path fill-rule="evenodd" clip-rule="evenodd" d="M102.701 37.8223C103.502 38.6204 103.502 39.9145 102.701 40.7126L94.4939 48.8879C93.6927 49.686 92.3936 49.686 91.5924 48.8879L86.6683 43.9827C85.8671 43.1846 85.8671 41.8905 86.6683 41.0923C87.4696 40.2942 88.7686 40.2942 89.5699 41.0923L93.0432 44.5523L99.7992 37.8223C100.6 37.0241 101.9 37.0241 102.701 37.8223Z" fill="#EDEFFF"/>
</svg>
