<svg width="105" height="62" viewBox="0 0 105 62" fill="none" xmlns="http://www.w3.org/2000/svg">
<path d="M3.11524 4.54115C2.54782 2.23067 4.29696 0 6.6761 0H61.2707C62.9589 0 64.429 1.15269 64.8316 2.79218L78.0963 56.805C78.6637 59.1155 76.9146 61.3462 74.5354 61.3462H19.9408C18.2526 61.3462 16.7826 60.1935 16.38 58.554L3.11524 4.54115Z" fill="#EDEFFF"/>
<path d="M34.1407 40.0771C32.6583 40.0771 31.9746 39.285 31.7018 38.8084C30.9326 37.4805 31.3468 35.5215 33.0067 32.6421C33.8251 31.2221 35.0742 29.4308 36.5434 27.6197C36.2969 25.2366 35.6625 23.4716 35.107 23.2579C34.1045 23.2185 31.9253 24.2834 28.7468 27.429C28.3294 27.8432 27.9284 28.2573 27.5438 28.6715C27.9645 31.7974 26.8831 34.9692 25.358 37.0532C23.9742 38.9464 22.2716 39.9325 20.684 39.801C19.6157 39.7024 18.5869 38.8906 18.6954 37.2964C18.8269 35.3933 21.2263 31.4457 24.3325 27.8333C24.2832 27.6887 24.2273 27.5441 24.1681 27.3994C24.1517 27.36 24.1057 27.2384 24.0498 27.074C23.2938 24.9145 22.758 24.6516 22.6989 24.6286C22.3077 24.6713 22.1697 24.7863 22.1697 24.7896C21.8673 25.5489 21.0159 25.9006 20.26 25.5982C19.504 25.2958 19.1457 24.4215 19.4481 23.6655C19.9083 22.5151 21.0061 21.8149 22.5345 21.6933C24.8058 21.4961 26.0154 23.958 26.584 25.4109C29.5686 22.4493 32.8226 20.1715 35.2714 20.3062C37.2534 20.3983 38.4367 22.2948 39.0513 24.7568C42.0096 21.6473 45.3261 19.0769 47.7946 19.0769C48.7084 19.0769 50.3913 19.4319 51.3971 21.8018C51.6863 22.4855 51.8769 23.2415 52.0019 23.9942C55.5682 20.4936 59.5026 17.7687 62.3918 17.7687C63.207 17.7687 63.8677 18.4294 63.8677 19.2446C63.8677 20.0597 63.207 20.7204 62.3918 20.7204C60.2356 20.7204 56.1828 23.6589 52.1695 28.1028C51.8572 33.3587 49.7635 40.0706 45.6548 40.0706C44.1297 40.0706 43.1041 39.0483 43.1041 37.5265C43.1041 35.3242 45.7468 30.9756 49.2573 26.9196C49.2573 26.8637 49.2573 26.8078 49.2573 26.7519C49.2573 25.1841 49.0502 23.8364 48.6788 22.9555C48.2876 22.0286 47.9162 22.0286 47.7946 22.0286C46.4469 22.0286 43.1107 24.4576 39.574 28.586C39.6003 29.1481 39.6035 29.7036 39.5904 30.2525C39.4852 34.9923 38.0028 40.0607 34.1538 40.0738H34.144L34.1407 40.0771ZM36.4185 32.7341C34.9624 34.943 34.3839 36.4385 34.2919 37.1123C35.13 36.948 35.9222 35.4557 36.3363 33.2107C36.3659 33.053 36.3922 32.8919 36.4185 32.7341ZM48.3731 32.859C47.1109 34.6964 46.4141 36.1032 46.1577 36.9184C46.9071 36.3958 47.7551 34.9035 48.3731 32.859ZM24.2996 32.6125C23.2149 34.1146 22.4293 35.436 22.002 36.3596C22.2979 36.1164 22.6265 35.7745 22.9651 35.3111C23.514 34.5617 23.9873 33.6315 24.2963 32.6125H24.2996Z" fill="#6478FF"/>
<path d="M83.9651 11.015C84.7912 10.1889 86.1306 10.1889 86.9567 11.015L95.9988 20.057C96.8249 20.8831 96.8249 22.2225 95.9988 23.0486L73.5082 45.5392L61.4746 33.5056L83.9651 11.015Z" fill="#4C61F0"/>
<path d="M58.8631 49.7196C57.9058 49.9929 57.0209 49.108 57.2942 48.1508L61.4745 33.5069L73.5069 45.5393L58.8631 49.7196Z" fill="#F3F4F6"/>
<path d="M58.5033 49.8171C57.7044 50.0465 56.9653 49.3073 57.1947 48.5085L58.4746 44.0519L62.9599 48.5372L58.5033 49.8171Z" fill="#4C61F0"/>
</svg>
