<svg width="116" height="40" viewBox="0 0 116 40" fill="none" xmlns="http://www.w3.org/2000/svg">
<rect x="0.5" width="115" height="40" rx="7" fill="#EDEFFF"/>
<path d="M21.416 26.4V11.6C21.416 11.1582 21.7742 10.8 22.216 10.8H31.5483C31.7682 10.8 31.9785 10.8906 32.1296 11.0504L33.5817 12.5862C33.7221 12.7347 33.8004 12.9314 33.8004 13.1358V26.4C33.8004 26.8419 33.4422 27.2 33.0004 27.2H22.216C21.7742 27.2 21.416 26.8419 21.416 26.4Z" fill="#6478FF"/>
<rect x="22.5" y="11.8002" width="12.8" height="16.4" rx="0.8" fill="#C9D0FF"/>
<path d="M24.8984 15.2001H32.8984" stroke="#6478FF" stroke-width="0.88" stroke-linecap="round"/>
<path d="M24.8984 18.4H32.8984" stroke="#6478FF" stroke-width="0.88" stroke-linecap="round"/>
<path d="M24.8984 21.6H32.8984" stroke="#6478FF" stroke-width="0.88" stroke-linecap="round"/>
<path d="M24.8984 24.7999H28.4984" stroke="#6478FF" stroke-width="0.88" stroke-linecap="round"/>
<path d="M58.095 12.865V22.66H56.445V19.345H53.34C53.01 19.705 52.615 19.985 52.155 20.185C51.705 20.385 51.21 20.485 50.67 20.485C50.02 20.485 49.425 20.34 48.885 20.05C48.355 19.76 47.935 19.36 47.625 18.85C47.325 18.33 47.175 17.745 47.175 17.095C47.175 16.435 47.325 15.845 47.625 15.325C47.935 14.805 48.355 14.4 48.885 14.11C49.425 13.82 50.02 13.675 50.67 13.675C51.2 13.675 51.69 13.775 52.14 13.975C52.6 14.165 52.995 14.44 53.325 14.8H56.445V12.865H58.095ZM48.735 17.095C48.735 17.685 48.915 18.16 49.275 18.52C49.645 18.88 50.11 19.06 50.67 19.06C51.23 19.06 51.69 18.88 52.05 18.52C52.41 18.16 52.59 17.685 52.59 17.095C52.59 16.505 52.41 16.03 52.05 15.67C51.69 15.31 51.23 15.13 50.67 15.13C50.11 15.13 49.645 15.31 49.275 15.67C48.915 16.03 48.735 16.505 48.735 17.095ZM49.38 21.67H51.045V24.625H58.425V25.945H49.38V21.67ZM54.03 16.12C54.12 16.42 54.165 16.745 54.165 17.095C54.165 17.415 54.125 17.725 54.045 18.025H56.445V16.12H54.03ZM63.1954 20.845V22.135H69.0004V20.845H70.6354V26.05H61.5754V20.845H63.1954ZM60.1204 18.79H72.1804V20.095H60.1204V18.79ZM60.7504 16.765C61.6504 16.655 62.4454 16.435 63.1354 16.105C63.8254 15.775 64.3554 15.38 64.7254 14.92C65.1054 14.46 65.2954 13.98 65.2954 13.48V13H66.9904V13.48C66.9904 13.97 67.1804 14.45 67.5604 14.92C67.9404 15.38 68.4754 15.775 69.1654 16.105C69.8654 16.435 70.6604 16.655 71.5504 16.765L70.9654 18.055C69.8754 17.905 68.9054 17.6 68.0554 17.14C67.2154 16.67 66.5804 16.095 66.1504 15.415C65.7304 16.095 65.1004 16.67 64.2604 17.14C63.4204 17.6 62.4454 17.905 61.3354 18.055L60.7504 16.765ZM69.0004 24.745V23.395H63.1954V24.745H69.0004ZM85.3057 19.555V20.86H80.2207V23.29H78.5707V20.86H73.2157V19.555H85.3057ZM74.6707 22.09H76.3207V24.64H83.9707V25.96H74.6707V22.09ZM74.7307 13.45H83.7607V18.31H74.7307V13.45ZM82.1407 16.99V14.74H76.3507V16.99H82.1407ZM97.7261 12.85V26.2H96.1661V12.85H97.7261ZM86.1011 22.435C87.0111 21.865 87.6911 21.045 88.1411 19.975C88.6011 18.905 88.8311 17.745 88.8311 16.495V15.625H86.5361V14.275H92.5511V15.625H90.4361V16.495C90.4361 17.705 90.6561 18.815 91.0961 19.825C91.5361 20.835 92.2061 21.605 93.1061 22.135L92.1311 23.32C90.9711 22.62 90.1411 21.45 89.6411 19.81C89.4111 20.66 89.0811 21.415 88.6511 22.075C88.2211 22.735 87.7011 23.26 87.0911 23.65L86.1011 22.435ZM91.5761 17.515H93.4811V13.105H95.0111V25.57H93.4811V18.85H91.5761V17.515Z" fill="#6478FF"/>
</svg>
