<svg width="18" height="18" viewBox="0 0 18 18" fill="none" xmlns="http://www.w3.org/2000/svg">
<rect width="18" height="18" rx="9" fill="#414654"/>
<path d="M10.232 8.524C11.012 8.98 11.504 9.832 11.504 10.564C11.504 12.052 10.28 13.108 8.54 13.108C6.812 13.108 5.588 12.028 5.588 10.492H6.86C6.86 11.368 7.556 11.98 8.54 11.98C9.548 11.98 10.268 11.368 10.268 10.492C10.268 9.652 9.56 9.052 8.564 9.052H7.94V7.984H8.576C9.488 7.984 10.136 7.444 10.136 6.676C10.136 5.896 9.512 5.356 8.624 5.356C7.736 5.356 7.124 5.908 7.124 6.688H5.852C5.852 5.236 6.992 4.228 8.624 4.228C10.232 4.228 11.372 5.212 11.372 6.604C11.372 7.276 10.94 8.068 10.232 8.524Z" fill="#ECEDF0"/>
</svg>
