<svg width="80" height="64" viewBox="0 0 80 64" fill="none" xmlns="http://www.w3.org/2000/svg">
<rect x="45" y="19" width="14" height="27" rx="2" transform="rotate(90 45 19)" fill="#6478FF"/>
<rect x="54" y="27" width="19" height="45" rx="4" transform="rotate(90 54 27)" fill="#93A1FF"/>
<path d="M33.7929 13.5L39.5 19.2071L39.5 26.5L23.5 26.5L23.5 15C23.5 14.1716 24.1716 13.5 25 13.5L33.7929 13.5Z" fill="#F3F4F6" stroke="#E2E4E8"/>
<path d="M18.0872 37.6135C18.2623 36.9569 18.857 36.5 19.5366 36.5H43.4634C44.143 36.5 44.7377 36.9569 44.9128 37.6135L47.8461 48.6135C48.1001 49.5658 47.3823 50.5 46.3968 50.5H16.6032C15.6177 50.5 14.8999 49.5658 15.1539 48.6135L18.0872 37.6135Z" fill="#F3F4F6" stroke="#E2E4E8"/>
<circle cx="15.5" cy="32.5" r="1.5" fill="#4C61F0"/>
<path d="M33 13L40 20H34C33.4477 20 33 19.5523 33 19V13Z" fill="#E2E4E8"/>
<path d="M22 40H27" stroke="#C6CAD2" stroke-linecap="round"/>
<path d="M30 40H41" stroke="#C6CAD2" stroke-linecap="round"/>
<path d="M21 43H33" stroke="#C6CAD2" stroke-linecap="round"/>
<path d="M36 43L42 43" stroke="#C6CAD2" stroke-linecap="round"/>
<path d="M20 46L43 46" stroke="#C6CAD2" stroke-linecap="round"/>
<path d="M58.9495 37.3479L58.6835 36.6272C58.5444 36.2513 58.1883 36 57.7934 36H52.5511C52.0252 36 51.5996 36.432 51.5996 36.9657V48.9929C51.5996 49.5266 52.0252 49.9586 52.5511 49.9586H69.0481C69.574 49.9586 69.9996 49.5266 69.9996 48.9929V38.9388C69.9996 38.405 69.574 37.973 69.0481 37.973H59.8417C59.4447 37.973 59.0907 37.7238 58.9516 37.3458L58.9495 37.3479Z" fill="#D2D7FF"/>
<path d="M57.3499 39.2522L57.0839 38.5315C56.9448 38.1556 56.5887 37.9043 56.1938 37.9043H50.9515C50.4256 37.9043 50 38.3363 50 38.87V50.8972C50 51.4309 50.4256 51.8629 50.9515 51.8629H67.4485C67.9744 51.8629 68.4 51.4309 68.4 50.8972V40.8431C68.4 40.3093 67.9744 39.8773 67.4485 39.8773H58.2421C57.8451 39.8773 57.4911 39.6281 57.352 39.2501L57.3499 39.2522Z" fill="#EDEFFF"/>
<path d="M61.569 34H64.3448C64.7828 34 65.1379 34.3551 65.1379 34.7931V41.931H66.3956C67.1022 41.931 67.4561 42.7853 66.9564 43.2849L63.716 46.5254C63.4063 46.8351 62.9041 46.8351 62.5944 46.5254L59.3539 43.2849C58.8543 42.7853 59.2081 41.931 59.9147 41.931H60.7759V34.7931C60.7759 34.3551 61.1309 34 61.569 34Z" fill="#B5BFFF"/>
</svg>
