<svg width="25" height="24" viewBox="0 0 25 24" fill="none" xmlns="http://www.w3.org/2000/svg">
<g id="Frame 1171276367">
<g id="Group 1171276100">
<g id="Group">
<path id="Vector" d="M3.2278 5.48006L5.46834 3.23952C5.88145 2.82641 6.55215 2.82641 6.96526 3.23952L9.2058 5.48006L5.46834 9.21752L3.2278 6.97212C2.81469 6.55901 2.81469 5.88831 3.2278 5.47519V5.48006Z" fill="#6478FF"/>
<path id="Vector_2" d="M20.1056 16.6102L20.7763 19.5263C20.9513 20.2894 20.2708 20.9698 19.5078 20.7948L16.5917 20.1241C16.3973 20.0804 16.2223 19.9832 16.0814 19.8422L5.4668 9.21793L9.20426 5.48047L19.8237 16.0999C19.9646 16.2409 20.0618 16.4158 20.1056 16.6102Z" fill="#C9D0FF"/>
<path id="Vector_3" d="M20.7587 21.0698L18.8633 20.6372L20.6372 18.8633L21.0747 20.749C21.1184 20.9386 20.9483 21.1087 20.7587 21.0649V21.0698Z" fill="#6478FF"/>
</g>
</g>
</g>
</svg>
