<svg width="24" height="24" viewBox="0 0 24 24" fill="none" xmlns="http://www.w3.org/2000/svg">
<path d="M9.99274 3.92413L9.99285 3.92402L9.98639 3.918C9.83237 3.77448 9.62865 3.69635 9.41816 3.70006C9.20767 3.70378 9.00684 3.78905 8.85797 3.93791C8.70911 4.08678 8.62383 4.28761 8.62012 4.4981C8.61641 4.7086 8.69454 4.91231 8.83806 5.06634L8.83795 5.06644L8.84418 5.07267L15.769 11.9984L8.84418 18.9241L8.84407 18.924L8.83806 18.9305C8.69454 19.0845 8.61641 19.2882 8.62012 19.4987C8.62384 19.7092 8.70911 19.91 8.85797 20.0589C9.00684 20.2078 9.20767 20.293 9.41816 20.2967C9.62866 20.3005 9.83237 20.2223 9.98639 20.0788L9.9865 20.0789L9.99274 20.0727L17.4927 12.5727L17.4929 12.5726C17.645 12.4202 17.7305 12.2137 17.7305 11.9984C17.7305 11.7831 17.645 11.5766 17.4929 11.4242L17.4927 11.4241L9.99274 3.92413Z" fill="white" stroke="white" stroke-width="0.5"/>
</svg>
