<svg width="20" height="20" viewBox="0 0 20 20" fill="none" xmlns="http://www.w3.org/2000/svg">
<path d="M8.5125 6.00674L8.51255 6.0067L8.51005 6.00421C8.44202 5.93639 8.35062 5.89825 8.25481 5.90006C8.15903 5.90187 8.06908 5.94341 8.00348 6.01359C7.93807 6.08357 7.90164 6.17667 7.90005 6.27298C7.89847 6.36927 7.9318 6.46357 7.99473 6.53582L7.99468 6.53586L7.99707 6.53842L11.2323 10L7.99707 13.4616L7.99703 13.4615L7.99473 13.4642C7.9318 13.5364 7.89847 13.6307 7.90005 13.727C7.90164 13.8233 7.93807 13.9164 8.00348 13.9864C8.06909 14.0566 8.15903 14.0981 8.25481 14.0999C8.35062 14.1017 8.44202 14.0636 8.51005 13.9958L8.51009 13.9958L8.5125 13.9933L11.9966 10.2658L11.9967 10.2658C12.0635 10.1942 12.1 10.0985 12.1 10C12.1 9.90151 12.0635 9.80581 11.9967 9.73421L11.9966 9.73416L8.5125 6.00674Z" fill="#6478FF" stroke="#6478FF" stroke-width="0.2"/>
</svg>
