<svg width="73" height="36" viewBox="0 0 73 36" fill="none" xmlns="http://www.w3.org/2000/svg">
<path d="M36.0827 0.632494C36.2803 0.332989 36.7197 0.332989 36.9173 0.632494L42.9166 9.72463C43.1359 10.0571 42.8975 10.5 42.4993 10.5H30.5007C30.1025 10.5 29.8641 10.0571 30.0834 9.72463L36.0827 0.632494Z" fill="#5A6072"/>
<rect y="8" width="73" height="28" rx="2" fill="#5A6072"/>
<path d="M24.104 21.584V22.772H20.108V24.62H18.608V22.772H14.372V21.584H24.104ZM15.5 23.696H16.988V25.628H23.024V26.816H15.5V23.696ZM15.572 16.712H22.868V20.696H15.572V16.712ZM21.404 19.508V17.876H17.024V19.508H21.404ZM34.0643 16.244V26.996H32.6603V16.244H34.0643ZM24.6443 23.888C25.3803 23.424 25.9203 22.768 26.2643 21.92C26.6163 21.064 26.7923 20.132 26.7923 19.124V18.548H25.0283V17.348H29.8403V18.548H28.2323V19.124C28.2323 20.108 28.4003 21.004 28.7363 21.812C29.0723 22.612 29.6043 23.224 30.3323 23.648L29.4683 24.716C28.5643 24.18 27.9163 23.288 27.5243 22.04C27.1163 23.432 26.4523 24.412 25.5323 24.98L24.6443 23.888ZM29.0723 19.94H30.4883V16.436H31.8683V26.504H30.4883V21.152H29.0723V19.94ZM42.2302 24.524V22.52H39.1582V16.928H40.6342V18.608H45.3142V16.928H46.7902V22.52H43.7182V24.524H47.8582V25.736H38.1262V24.524H42.2302ZM45.3142 21.332V19.784H40.6342V21.332H45.3142ZM57.5425 16.244V26.996H56.0545V16.244H57.5425ZM48.6385 23.984C49.9905 23.344 50.9945 22.584 51.6505 21.704C52.3145 20.824 52.7065 19.772 52.8265 18.548H49.1905V17.36H54.3505C54.3505 19.12 53.9785 20.644 53.2345 21.932C52.4905 23.212 51.2145 24.288 49.4065 25.16L48.6385 23.984Z" fill="white"/>
</svg>
