<svg width="20" height="20" viewBox="0 0 20 20" fill="none" xmlns="http://www.w3.org/2000/svg">
<path fill-rule="evenodd" clip-rule="evenodd" d="M1.5 4C0.947715 4 0.5 4.44772 0.5 5V8.0001C1.60439 8.00031 2.49961 8.89566 2.49961 10.0001C2.49961 11.1045 1.60439 11.9999 0.5 12.0001V15C0.5 15.5523 0.947715 16 1.5 16H18.5C19.0523 16 19.5 15.5523 19.5 15V12C19.4999 12 19.4999 12 19.4998 12C18.3952 12 17.4998 11.1046 17.4998 10C17.4998 8.89548 18.3952 8.00005 19.4998 8.00005C19.4999 8.00005 19.4999 8.00005 19.5 8.00005V5C19.5 4.44772 19.0523 4 18.5 4H1.5Z" fill="#73798D"/>
<circle cx="8" cy="8" r="1" stroke="white"/>
<circle cx="12" cy="12" r="1" stroke="white"/>
<path fill-rule="evenodd" clip-rule="evenodd" d="M7.05807 12.8608C6.86281 12.6655 6.86281 12.349 7.05807 12.1537L12.1581 7.05367C12.3534 6.85841 12.6699 6.85841 12.8652 7.05367C13.0605 7.24894 13.0605 7.56552 12.8652 7.76078L7.76517 12.8608C7.56991 13.0561 7.25333 13.0561 7.05807 12.8608Z" fill="white"/>
</svg>
