<svg width="32" height="32" viewBox="0 0 32 32" fill="none" xmlns="http://www.w3.org/2000/svg">
<path d="M18.1143 21.994L23.9997 21.994" stroke="#6478FF" stroke-width="1.17333" stroke-linecap="round"/>
<path d="M14.1191 24.2911L24.0004 24.2911" stroke="#6478FF" stroke-width="1.17333" stroke-linecap="round"/>
<path d="M25.2452 10.5255L22.9824 12.7882L19.2112 9.01697L21.4739 6.75423C21.8905 6.33767 22.5659 6.33767 22.9824 6.75423L25.2452 9.01697C25.6617 9.43353 25.6617 10.1089 25.2452 10.5255Z" fill="#6478FF"/>
<path d="M8.48871 19.7368L19.209 9.01648L22.9802 12.7877L12.26 23.508C12.1186 23.6493 11.9403 23.7481 11.7456 23.7931L8.80399 24.4719C8.03591 24.6492 7.34754 23.9608 7.52479 23.1927L8.20361 20.2511C8.24856 20.0564 8.34735 19.8781 8.48871 19.7368Z" fill="#C9D0FF"/>
<path d="M7.23022 24.4348L7.67383 22.5317L9.46324 24.3212L7.54892 24.7554C7.35691 24.799 7.18553 24.6266 7.23022 24.4348Z" fill="#6478FF"/>
</svg>
