<svg width="116" height="40" viewBox="0 0 116 40" fill="none" xmlns="http://www.w3.org/2000/svg">
<rect x="0.5" width="115" height="40" rx="7" fill="#EDEFFF"/>
<path d="M22.0996 26.7999V12C22.0996 11.5581 22.4578 11.2 22.8996 11.2H32.5913C32.8066 11.2 33.0129 11.2868 33.1634 11.4408L34.6718 12.9843C34.8178 13.1337 34.8996 13.3344 34.8996 13.5434V26.8C34.8996 27.2418 34.5414 27.6 34.0996 27.6H22.8996C22.4578 27.6 22.0996 27.2418 22.0996 26.7999Z" fill="#C9D0FF"/>
<path d="M24.5 14.3999H32.5" stroke="#6478FF" stroke-width="0.88" stroke-linecap="round"/>
<path d="M24.5 17.145H32.5" stroke="#6478FF" stroke-width="0.88" stroke-linecap="round"/>
<path d="M24.5 19.8896H32.5" stroke="#6478FF" stroke-width="0.88" stroke-linecap="round"/>
<path d="M24.5 22.6348H28.1" stroke="#6478FF" stroke-width="0.88" stroke-linecap="round"/>
<circle cx="32.8193" cy="25.8176" r="3.18259" fill="#6478FF"/>
<path d="M32.8203 24.1343V26.1393H34.3232" stroke="white" stroke-width="0.6" stroke-linecap="round" stroke-linejoin="round"/>
<path d="M52.005 13.945V16.045C52.005 16.875 52.14 17.68 52.41 18.46C52.68 19.24 53.07 19.935 53.58 20.545C54.1 21.145 54.71 21.6 55.41 21.91L54.45 23.245C53.69 22.895 53.035 22.385 52.485 21.715C51.935 21.035 51.505 20.25 51.195 19.36C50.885 20.32 50.445 21.165 49.875 21.895C49.315 22.615 48.64 23.16 47.85 23.53L46.86 22.165C47.57 21.845 48.185 21.37 48.705 20.74C49.235 20.11 49.64 19.39 49.92 18.58C50.2 17.76 50.34 16.915 50.34 16.045V13.945H52.005ZM56.355 12.835H58.005V26.23H56.355V12.835ZM71.1904 12.865V20.92H69.5404V18.16H67.6654V16.825H69.5404V12.865H71.1904ZM60.1354 14.11H63.1954V12.73H64.8304V14.11H67.9054V15.415H60.1354V14.11ZM60.8554 18.34C60.8554 17.88 60.9904 17.47 61.2604 17.11C61.5304 16.74 61.9054 16.455 62.3854 16.255C62.8754 16.045 63.4204 15.94 64.0204 15.94C64.6304 15.94 65.1704 16.045 65.6404 16.255C66.1204 16.455 66.4954 16.74 66.7654 17.11C67.0354 17.47 67.1704 17.88 67.1704 18.34C67.1704 18.8 67.0354 19.215 66.7654 19.585C66.4954 19.945 66.1204 20.225 65.6404 20.425C65.1704 20.625 64.6304 20.725 64.0204 20.725C63.4204 20.725 62.8754 20.625 62.3854 20.425C61.9054 20.225 61.5304 19.945 61.2604 19.585C60.9904 19.215 60.8554 18.8 60.8554 18.34ZM62.3854 21.535H71.1904V26.05H62.3854V21.535ZM62.4454 18.34C62.4454 18.7 62.5904 18.985 62.8804 19.195C63.1704 19.405 63.5504 19.51 64.0204 19.51C64.4904 19.51 64.8704 19.405 65.1604 19.195C65.4504 18.985 65.5954 18.7 65.5954 18.34C65.5954 17.98 65.4504 17.695 65.1604 17.485C64.8704 17.275 64.4904 17.17 64.0204 17.17C63.5504 17.17 63.1704 17.275 62.8804 17.485C62.5904 17.695 62.4454 17.98 62.4454 18.34ZM69.5854 24.745V22.855H64.0054V24.745H69.5854ZM78.4357 23.245V20.635H74.5657V13.735H76.2007V15.91H82.3207V13.735H83.9557V20.635H80.0707V23.245H85.3207V24.595H73.2307V23.245H78.4357ZM82.3207 19.315V17.215H76.2007V19.315H82.3207ZM97.3811 12.85V26.2H95.7311V12.85H97.3811ZM86.4161 22.555C88.1161 21.735 89.3911 20.755 90.2411 19.615C91.0911 18.475 91.5911 17.13 91.7411 15.58H87.0761V14.245H93.4361C93.4361 16.385 92.9611 18.255 92.0111 19.855C91.0611 21.455 89.4811 22.79 87.2711 23.86L86.4161 22.555Z" fill="#6478FF"/>
</svg>
