<svg width="60" height="60" viewBox="0 0 60 60" fill="none" xmlns="http://www.w3.org/2000/svg">
<circle cx="30" cy="30" r="30" fill="#6478FF"/>
<mask id="mask0_3207_35807" style="mask-type:alpha" maskUnits="userSpaceOnUse" x="0" y="0" width="60" height="60">
<circle cx="30" cy="30" r="30" fill="#D9D9D9"/>
</mask>
<g mask="url(#mask0_3207_35807)">
<path d="M14.2871 60.0014C14.2871 51.3226 21.3226 44.2871 30.0014 44.2871C38.6802 44.2871 45.7157 51.3226 45.7157 60.0014V62.5157H14.2871V60.0014Z" fill="#4957B6"/>
<path d="M27.4287 37.1445H32.5716V45.0017C30.6498 45.9151 29.5257 46.0002 27.4287 45.0017V44.6445V37.1445Z" fill="#FFE2D3"/>
<path d="M27.4287 37.1445H32.5716V42.2874L27.4287 44.0017V37.1445Z" fill="#F9BE9F"/>
<ellipse cx="29.9993" cy="26.858" rx="15.1429" ry="14.2857" fill="#FFE2D3"/>
<path d="M23.2158 20.7154C24.6614 20.6192 25.3247 20.7506 26.4301 21.0726" stroke="#414654" stroke-width="0.714286" stroke-linecap="round"/>
<path d="M36.7871 20.7158C35.4591 20.5805 34.7501 20.6064 33.5728 21.0729" stroke="#414654" stroke-width="0.714286" stroke-linecap="round"/>
<ellipse cx="45.6382" cy="30.7159" rx="4.85714" ry="4.14286" transform="rotate(-30 45.6382 30.7159)" fill="#FFE2D3"/>
<ellipse cx="4.85714" cy="4.14286" rx="4.85714" ry="4.14286" transform="matrix(-0.866025 -0.5 -0.5 0.866025 21.1289 29.5566)" fill="#FFE2D3"/>
<path fill-rule="evenodd" clip-rule="evenodd" d="M13.44 33.1695C11.8522 32.2528 11.1989 30.4118 11.9808 29.0574C12.7627 27.7031 14.6838 27.3484 16.2716 28.2651C16.7767 28.5568 17.1873 28.9419 17.4871 29.3752C17.5898 29.5236 17.5103 29.7223 17.3382 29.7766L16.2675 30.1147C16.0422 30.1859 15.9957 30.4843 16.1888 30.6206L17.7841 31.7467C17.8848 31.8178 17.9301 31.946 17.8845 32.0605C17.8414 32.1685 17.7902 32.2742 17.7308 32.3772C16.9489 33.7315 15.0278 34.0862 13.44 33.1695Z" fill="#F9BE9F"/>
<path fill-rule="evenodd" clip-rule="evenodd" d="M47.0287 33.1695C48.6165 32.2528 49.2699 30.4118 48.4879 29.0574C47.706 27.7031 45.785 27.3484 44.1972 28.2651C43.692 28.5568 43.2815 28.9419 42.9816 29.3752C42.879 29.5236 42.9585 29.7223 43.1305 29.7766L44.2012 30.1147C44.4266 30.1859 44.473 30.4843 44.2799 30.6206L42.6846 31.7467C42.584 31.8178 42.5386 31.946 42.5843 32.0605C42.6274 32.1685 42.6785 32.2742 42.738 32.3772C43.5199 33.7315 45.4409 34.0862 47.0287 33.1695Z" fill="#F9BE9F"/>
<path d="M31.4304 32.8584C31.4304 33.6474 30.7908 34.287 30.0018 34.287C29.2128 34.287 28.5732 33.6474 28.5732 32.8584" stroke="#2D333F" stroke-width="0.571429" stroke-linecap="round"/>
<circle cx="35.4312" cy="26.858" r="4.28571" fill="white"/>
<circle cx="35.4312" cy="26.858" r="4.28571" fill="white"/>
<circle cx="35.287" cy="27.0018" r="2.42857" fill="#414654"/>
<circle cx="24.5718" cy="26.858" r="4.28571" fill="white"/>
<circle cx="24.5718" cy="26.858" r="4.28571" fill="white"/>
<circle cx="24.7128" cy="27.0018" r="2.42857" fill="#414654"/>
<circle cx="20.7161" cy="32.8587" r="2.14286" fill="#FFD0D0"/>
<circle cx="39.2874" cy="32.8587" r="2.14286" fill="#FFD0D0"/>
<path d="M21.0754 18.2162L18.2182 15.002C15.1183 19.2658 14.0683 21.7422 14.6468 26.4305L16.0754 26.7877L21.0754 18.2162Z" fill="#414654"/>
<path d="M40.0018 18.2162L42.8589 15.002C45.9589 19.2658 47.0089 21.7422 46.4304 26.4305L45.0018 26.7877L40.0018 18.2162Z" fill="#414654"/>
<path d="M43.484 14.6817C42.0426 19.8768 32.1468 19.2656 24.385 19.2656C18.9796 19.2656 15.376 17.7377 13.5742 14.6817C19.7003 12.237 18.425 6.43066 26.1868 6.43066C33.9486 6.43066 44.6676 10.4159 43.484 14.6817Z" fill="#414654"/>
<rect x="29.2871" y="45.7158" width="1.42857" height="7.85714" fill="#E2E4E8"/>
<rect x="29.2871" y="45.7158" width="1.42857" height="2.85714" fill="#C6CAD2"/>
</g>
</svg>
