<svg width="60" height="60" viewBox="0 0 60 60" fill="none" xmlns="http://www.w3.org/2000/svg">
<circle cx="30" cy="30" r="30" fill="#6478FF"/>
<mask id="mask0_3207_33292" style="mask-type:alpha" maskUnits="userSpaceOnUse" x="0" y="0" width="60" height="60">
<circle cx="30" cy="30" r="30" fill="#D9D9D9"/>
</mask>
<g mask="url(#mask0_3207_33292)">
<circle cx="24.2857" cy="42.1392" r="4.28571" fill="#414654"/>
<path d="M14.2891 59.9994C14.2891 51.3207 21.3246 44.2852 30.0033 44.2852C38.6821 44.2852 45.7176 51.3207 45.7176 59.9994V62.5137H14.2891V59.9994Z" fill="#C2CAFF"/>
<path d="M14.2891 57.1423C14.2891 50.0415 20.0454 44.2852 27.1462 44.2852V62.8566H14.2891V57.1423Z" fill="#4957B6"/>
<path d="M45.7109 57.1423C45.7109 50.0415 39.9546 44.2852 32.8538 44.2852V62.8566H45.7109V57.1423Z" fill="#4957B6"/>
<ellipse cx="29.99" cy="24.2835" rx="17.8571" ry="17.1429" fill="#414654"/>
<path d="M27.4219 37.1406H32.5647V44.9978C30.6429 45.9112 29.5189 45.9963 27.4219 44.9978V44.6406V37.1406Z" fill="#FFE2D3"/>
<path d="M27.4219 37.1406H32.5647V42.2835L27.4219 43.9978V37.1406Z" fill="#F9BE9F"/>
<ellipse cx="29.9944" cy="26.8502" rx="15.1429" ry="14.2857" fill="#FFE2D3"/>
<path d="M23.2109 19.6344C24.6565 19.5381 25.3198 19.6696 26.4252 19.9915" stroke="#414654" stroke-width="0.714286" stroke-linecap="round"/>
<path d="M36.7891 19.6377C35.461 19.5024 34.7521 19.5283 33.5748 19.9948" stroke="#414654" stroke-width="0.714286" stroke-linecap="round"/>
<ellipse cx="45.6294" cy="30.7061" rx="4.85714" ry="4.14286" transform="rotate(-30 45.6294 30.7061)" fill="#FFE2D3"/>
<ellipse cx="4.85714" cy="4.14286" rx="4.85714" ry="4.14286" transform="matrix(-0.866025 -0.5 -0.5 0.866025 21.125 29.5469)" fill="#FFE2D3"/>
<path fill-rule="evenodd" clip-rule="evenodd" d="M13.5201 33.1705C11.9323 32.2538 11.279 30.4127 12.0609 29.0584C12.8428 27.7041 14.7638 27.3494 16.3517 28.2661C16.8508 28.5543 17.2576 28.9338 17.5565 29.3608C17.6603 29.5091 17.581 29.7088 17.4084 29.7633L16.3119 30.1096C16.0865 30.1807 16.0401 30.4792 16.2332 30.6155L17.8582 31.7625C17.9594 31.834 18.0046 31.9633 17.9579 32.078C17.9162 32.1802 17.8673 32.2805 17.8109 32.3782C17.029 33.7325 15.1079 34.0872 13.5201 33.1705Z" fill="#F9BE9F"/>
<path fill-rule="evenodd" clip-rule="evenodd" d="M46.894 33.1705C48.4818 32.2538 49.1351 30.4127 48.3532 29.0584C47.5713 27.7041 45.6502 27.3494 44.0624 28.2661C43.5633 28.5543 43.1565 28.9338 42.8576 29.3608C42.7538 29.5091 42.8331 29.7088 43.0057 29.7633L44.1022 30.1096C44.3275 30.1807 44.374 30.4792 44.1809 30.6155L42.5559 31.7625C42.4546 31.834 42.4094 31.9633 42.4562 32.078C42.4978 32.1802 42.5468 32.2805 42.6032 32.3782C43.3851 33.7325 45.3062 34.0872 46.894 33.1705Z" fill="#F9BE9F"/>
<path d="M31.4275 32.8477C31.4275 33.6366 30.7879 34.2762 29.9989 34.2762C29.2099 34.2762 28.5703 33.6366 28.5703 32.8477" stroke="#2D333F" stroke-width="0.571429" stroke-linecap="round"/>
<path d="M19.7109 24.002L20.9967 25.2877" stroke="#2D333F" stroke-width="0.571429" stroke-linecap="round"/>
<path d="M40.1328 24.002L38.8471 25.2877" stroke="#2D333F" stroke-width="0.571429" stroke-linecap="round"/>
<circle cx="35.4185" cy="26.8619" r="4.28571" fill="white"/>
<circle cx="35.4185" cy="26.8619" r="4.28571" fill="white"/>
<circle cx="35.2801" cy="27.0008" r="2.42857" fill="#414654"/>
<circle cx="24.567" cy="26.8619" r="4.28571" fill="white"/>
<circle cx="24.567" cy="26.8619" r="4.28571" fill="white"/>
<circle cx="24.702" cy="27.0008" r="2.42857" fill="#414654"/>
<circle cx="20.7132" cy="32.8518" r="2.14286" fill="#FFD0D0"/>
<circle cx="39.2913" cy="32.8518" r="2.14286" fill="#FFD0D0"/>
<path d="M17.1337 16.4263L20.3482 14.6406C17.8485 23.2121 17.4478 33.5977 18.5623 42.8549C18.0219 41.4955 17.4911 40.3549 17.1337 38.5692C15.3452 29.0831 14.9305 24.0401 17.1337 16.4263Z" fill="#414654"/>
<path d="M42.4913 16.4263L39.2768 14.6406C41.7765 23.2121 42.1772 33.5977 41.0627 42.8549C41.6031 41.4955 42.1339 40.3549 42.4913 38.5692C44.2798 29.0831 44.6945 24.0401 42.4913 16.4263Z" fill="#414654"/>
<path d="M37.8627 18.2193C33.9626 16.6812 31.9345 15.6087 29.6484 11.7907L32.5056 11.4336C33.2088 14.4874 34.7756 15.8597 37.8627 18.2193Z" fill="#414654"/>
<path d="M42.1406 19.2907C37.3926 17.5098 34.9237 16.2679 32.1406 11.8471L35.6189 11.4336C38.2121 13.9336 40.3549 15.3622 42.1406 19.2907Z" fill="#414654"/>
<path d="M17.8516 19.2907C22.5996 17.5098 25.0685 16.2679 27.8516 11.8471L24.3733 11.4336C21.7801 13.9336 19.6373 15.3622 17.8516 19.2907Z" fill="#414654"/>
</g>
</svg>
