<svg width="24" height="24" viewBox="0 0 24 24" fill="none" xmlns="http://www.w3.org/2000/svg">
<path d="M7.09694 14.4125L11.7547 9.75473C11.8202 9.68931 11.909 9.65257 12.0016 9.65257C12.0942 9.65257 12.183 9.68931 12.2485 9.75473L16.9062 14.4125C16.9679 14.4787 17.0015 14.5663 16.9999 14.6568C16.9983 14.7473 16.9617 14.8337 16.8977 14.8977C16.8337 14.9617 16.7473 14.9983 16.6568 14.9999C16.5663 15.0015 16.4787 14.9679 16.4125 14.9062L12.0016 10.4959L7.59067 14.9062C7.52445 14.9679 7.43686 15.0015 7.34636 14.9999C7.25586 14.9983 7.16951 14.9617 7.1055 14.8977C7.0415 14.8337 7.00484 14.7473 7.00324 14.6568C7.00165 14.5663 7.03524 14.4787 7.09694 14.4125Z" fill="#6478FF"/>
<path fill-rule="evenodd" clip-rule="evenodd" d="M6.73715 14.0652L11.4012 9.40118C11.5604 9.24212 11.7765 9.15257 12.0016 9.15257C12.2267 9.15257 12.4425 9.2419 12.6018 9.40096L17.266 14.0652L17.272 14.0717C17.4221 14.2327 17.5037 14.4456 17.4999 14.6656C17.496 14.8857 17.4068 15.0956 17.2512 15.2512C17.0956 15.4068 16.8857 15.496 16.6656 15.4999C16.4456 15.5037 16.2327 15.4221 16.0717 15.272L16.0652 15.266L12.0016 11.203L7.93797 15.266L7.93153 15.272C7.77053 15.4221 7.55757 15.5037 7.33754 15.4999C7.1175 15.496 6.90756 15.4068 6.75195 15.2512C6.59634 15.0956 6.5072 14.8857 6.50332 14.6656C6.49944 14.4456 6.58111 14.2327 6.73114 14.0717L6.73715 14.0652ZM12.0016 10.4959L16.4125 14.9062C16.4787 14.9679 16.5663 15.0015 16.6568 14.9999C16.7473 14.9983 16.8337 14.9617 16.8977 14.8977C16.9617 14.8337 16.9983 14.7473 16.9999 14.6568C17.0015 14.5663 16.9679 14.4787 16.9062 14.4125L12.2485 9.75473C12.183 9.68931 12.0942 9.65257 12.0016 9.65257C11.909 9.65257 11.8202 9.68931 11.7547 9.75473L7.09694 14.4125C7.03524 14.4787 7.00165 14.5663 7.00324 14.6568C7.00484 14.7473 7.0415 14.8337 7.1055 14.8977C7.16951 14.9617 7.25586 14.9983 7.34636 14.9999C7.43686 15.0015 7.52445 14.9679 7.59067 14.9062L12.0016 10.4959Z" fill="#6478FF"/>
</svg>
