<svg width="24" height="24" viewBox="0 0 24 24" fill="none" xmlns="http://www.w3.org/2000/svg">
<path d="M3.99484 14.4968L3.99477 14.4967L3.99116 14.5006C3.86531 14.6357 3.79679 14.8143 3.80005 14.9989C3.80331 15.1835 3.87808 15.3596 4.00862 15.4901C4.13916 15.6207 4.31528 15.6955 4.49987 15.6987C4.68445 15.702 4.8631 15.6335 4.99817 15.5076L4.99823 15.5077L5.00197 15.5039L11.9984 8.50841L18.9948 15.5039L18.9948 15.504L18.9986 15.5076C19.1337 15.6335 19.3124 15.702 19.4969 15.6987C19.6815 15.6955 19.8576 15.6207 19.9882 15.4901C20.1187 15.3596 20.1935 15.1835 20.1968 14.9989C20.2 14.8143 20.1315 14.6357 20.0056 14.5006L20.0057 14.5005L20.002 14.4968L12.502 6.99679L12.5019 6.99672C12.3683 6.8633 12.1872 6.78835 11.9984 6.78835C11.8096 6.78835 11.6285 6.8633 11.4949 6.99672L11.4948 6.99679L3.99484 14.4968Z" fill="white" stroke="white" stroke-width="0.3"/>
</svg>
