<svg width="32" height="32" viewBox="0 0 32 32" fill="none" xmlns="http://www.w3.org/2000/svg">
<g id="graphic-selectschool">
<g id="Group 3666">
<path id="Rectangle 946" d="M15.998 3.19971H21.4561C21.787 3.19971 22.0553 3.46796 22.0553 3.79887V6.43512C22.0553 6.76604 21.787 7.03429 21.4561 7.03429H15.998V3.19971Z" fill="#93A1FF"/>
<path id="Vector 25939" d="M15.998 12.1297V3.07764" stroke="#6478FF" stroke-width="1.19833" stroke-linecap="round"/>
<path id="Vector 25938" d="M4.61523 17.8634V28.0493C4.61523 28.3802 4.88349 28.6485 5.2144 28.6485H26.7844C27.1153 28.6485 27.3836 28.3802 27.3836 28.0493V17.8634C27.3836 17.5325 27.1153 17.2643 26.7844 17.2643H24.3878C24.0568 17.2643 23.7886 16.996 23.7886 16.6651V14.0271C23.7886 13.8067 23.6676 13.6041 23.4735 13.4996L16.2835 9.62806C16.1061 9.53257 15.8927 9.53257 15.7153 9.62806L8.52534 13.4996C8.33126 13.6041 8.21024 13.8067 8.21024 14.0271V16.6651C8.21024 16.996 7.94198 17.2643 7.61107 17.2643H5.2144C4.88349 17.2643 4.61523 17.5325 4.61523 17.8634Z" fill="#C9D0FF"/>
<circle id="Ellipse 8648" cx="16.0725" cy="14.9426" r="2.39667" fill="#93A1FF"/>
<rect id="Rectangle 945" x="12.6055" y="21.5586" width="6.78592" height="7.09032" fill="#93A1FF"/>
<path id="Vector 25940" d="M16.0723 13.5127V15.1391H17.6634" stroke="#6478FF" stroke-width="0.643292" stroke-linecap="round" stroke-linejoin="round"/>
</g>
</g>
</svg>
