<svg width="649" height="300" viewBox="0 0 649 300" fill="none" xmlns="http://www.w3.org/2000/svg">
<rect x="0.5" y="-0.5" width="649" height="301" rx="8.5" fill="url(#paint0_linear_2688_13125)"/>
<rect x="0.5" y="-0.5" width="649" height="301" rx="8.5" stroke="#ECEDF0"/>
<g filter="url(#filter0_d_2688_13125)">
<rect x="131" y="26" width="387" height="248" rx="8" fill="white" shape-rendering="crispEdges"/>
<path d="M311.669 51.28V61.96H310.409V56.536H309.245V61.432H308.021V51.496H309.245V55.456H310.409V51.28H311.669ZM302.885 52.552H306.821V53.62H304.181V58.384C305.349 58.368 306.405 58.272 307.349 58.096L307.469 59.176C306.861 59.296 306.265 59.376 305.681 59.416C305.097 59.456 304.405 59.476 303.605 59.476H302.885V52.552ZM315.533 52.288V51.22H316.853V52.288H319.337V53.344H313.049V52.288H315.533ZM313.601 55.72C313.601 55.336 313.709 54.996 313.925 54.7C314.141 54.396 314.445 54.164 314.837 54.004C315.237 53.836 315.689 53.752 316.193 53.752C316.697 53.752 317.145 53.836 317.537 54.004C317.937 54.164 318.245 54.396 318.461 54.7C318.685 54.996 318.797 55.336 318.797 55.72C318.797 56.104 318.685 56.444 318.461 56.74C318.245 57.028 317.937 57.256 317.537 57.424C317.145 57.584 316.697 57.664 316.193 57.664C315.689 57.664 315.237 57.584 314.837 57.424C314.445 57.256 314.141 57.028 313.925 56.74C313.709 56.444 313.601 56.104 313.601 55.72ZM314.345 58.468H321.389V61.972H320.069V59.524H314.345V58.468ZM314.861 55.72C314.861 56.008 314.981 56.24 315.221 56.416C315.469 56.584 315.793 56.668 316.193 56.668C316.593 56.668 316.913 56.584 317.153 56.416C317.401 56.24 317.525 56.008 317.525 55.72C317.525 55.416 317.401 55.18 317.153 55.012C316.913 54.844 316.593 54.76 316.193 54.76C315.793 54.76 315.469 54.844 315.221 55.012C314.981 55.18 314.861 55.416 314.861 55.72ZM320.069 51.292H321.389V54.112H322.877V55.192H321.389V57.976H320.069V51.292ZM333.839 53.644V51.292H335.159V59.212H333.839V54.724H331.751V53.644H333.839ZM326.243 56.788C327.059 56.5 327.691 56.024 328.139 55.36C328.587 54.696 328.811 53.96 328.811 53.152V51.928H330.143V53.164C330.143 53.908 330.355 54.588 330.779 55.204C331.211 55.82 331.819 56.272 332.603 56.56L331.907 57.568C331.347 57.352 330.863 57.048 330.455 56.656C330.047 56.256 329.731 55.792 329.507 55.264C329.275 55.856 328.939 56.376 328.499 56.824C328.067 57.264 327.547 57.6 326.939 57.832L326.243 56.788ZM328.163 58.384H329.483V60.7H335.399V61.756H328.163V58.384ZM341.339 52.024V53.08H338.435V54.136H341.231V55.132H338.435V56.248C339.115 56.24 339.695 56.22 340.175 56.188C340.663 56.156 341.155 56.096 341.651 56.008L341.771 57.064C341.203 57.168 340.635 57.236 340.067 57.268C339.507 57.3 338.783 57.316 337.895 57.316H337.175V52.024H341.339ZM338.555 58.288H345.827V61.972H344.519V59.344H338.555V58.288ZM342.275 51.484H343.499V53.968H344.579V51.28H345.827V57.784H344.579V55.036H343.499V57.724H342.275V51.484Z" fill="black"/>
<rect x="158.5" y="76" width="109" height="20" rx="2.5" fill="#EDEFFF"/>
<path d="M172.684 82.52V87.744H171.804V85.36H170.46V84.64H171.804V82.52H172.684ZM166.852 86.312C167.631 86.0613 168.255 85.7173 168.724 85.28C169.199 84.8373 169.476 84.3333 169.556 83.768H167.228V83.064H170.5C170.5 83.9973 170.212 84.8053 169.636 85.488C169.065 86.1707 168.26 86.68 167.22 87.016L166.852 86.312ZM168.084 87.224H168.972V88.8H172.86V89.504H168.084V87.224ZM179.42 82.848V83.392C179.42 83.7653 179.412 84.096 179.396 84.384C179.38 84.6667 179.338 84.984 179.268 85.336H180.212V86.04H177.42V87.16H179.444V89.648H178.572V87.856H174.42V87.16H176.54V86.04H173.764V85.336H178.396C178.466 85.0053 178.511 84.704 178.532 84.432C178.554 84.1547 178.564 83.8613 178.564 83.552H174.572V82.848H179.42ZM186.836 82.52V89.64H185.996V86.024H185.22V89.288H184.404V82.664H185.22V85.304H185.996V82.52H186.836ZM180.98 83.368H183.604V84.08H181.844V87.256C182.623 87.2453 183.327 87.1813 183.956 87.064L184.036 87.784C183.631 87.864 183.234 87.9173 182.844 87.944C182.455 87.9707 181.994 87.984 181.46 87.984H180.98V83.368ZM189.413 83.192V82.48H190.293V83.192H191.949V83.896H187.757V83.192H189.413ZM188.125 85.48C188.125 85.224 188.197 84.9973 188.341 84.8C188.485 84.5973 188.687 84.4427 188.949 84.336C189.215 84.224 189.517 84.168 189.853 84.168C190.189 84.168 190.487 84.224 190.749 84.336C191.015 84.4427 191.221 84.5973 191.365 84.8C191.514 84.9973 191.589 85.224 191.589 85.48C191.589 85.736 191.514 85.9627 191.365 86.16C191.221 86.352 191.015 86.504 190.749 86.616C190.487 86.7227 190.189 86.776 189.853 86.776C189.517 86.776 189.215 86.7227 188.949 86.616C188.687 86.504 188.485 86.352 188.341 86.16C188.197 85.9627 188.125 85.736 188.125 85.48ZM188.621 87.312H193.317V89.648H192.437V88.016H188.621V87.312ZM188.965 85.48C188.965 85.672 189.045 85.8267 189.205 85.944C189.37 86.056 189.586 86.112 189.853 86.112C190.119 86.112 190.333 86.056 190.493 85.944C190.658 85.8267 190.741 85.672 190.741 85.48C190.741 85.2773 190.658 85.12 190.493 85.008C190.333 84.896 190.119 84.84 189.853 84.84C189.586 84.84 189.37 84.896 189.205 85.008C189.045 85.12 188.965 85.2773 188.965 85.48ZM192.437 82.528H193.317V84.408H194.309V85.128H193.317V86.984H192.437V82.528ZM200.533 83.168V83.896C200.533 84.4987 200.517 85.0347 200.485 85.504C200.458 85.9733 200.389 86.5173 200.277 87.136L199.413 87.048C199.519 86.4667 199.586 85.944 199.613 85.48C199.639 85.016 199.653 84.488 199.653 83.896V83.88H195.373V83.168H200.533ZM194.741 88.008H196.181V85.728H197.045V88.008H197.941V85.728H198.805V88.008H201.181V88.728H194.741V88.008Z" fill="#6478FF"/>
<path d="M208.06 83.176V87.022H207.538V83.176H208.06ZM203.836 84.844C203.836 84.592 203.896 84.368 204.016 84.172C204.14 83.972 204.306 83.816 204.514 83.704C204.726 83.592 204.962 83.536 205.222 83.536C205.482 83.536 205.718 83.592 205.93 83.704C206.142 83.816 206.308 83.972 206.428 84.172C206.548 84.368 206.608 84.592 206.608 84.844C206.608 85.092 206.548 85.316 206.428 85.516C206.308 85.712 206.142 85.866 205.93 85.978C205.718 86.09 205.482 86.146 205.222 86.146C204.962 86.146 204.726 86.09 204.514 85.978C204.306 85.866 204.14 85.712 204.016 85.516C203.896 85.316 203.836 85.092 203.836 84.844ZM204.346 84.844C204.346 85.092 204.428 85.296 204.592 85.456C204.76 85.612 204.97 85.69 205.222 85.69C205.474 85.69 205.684 85.612 205.852 85.456C206.02 85.296 206.104 85.092 206.104 84.844C206.104 84.592 206.02 84.386 205.852 84.226C205.684 84.066 205.474 83.986 205.222 83.986C204.97 83.986 204.76 84.066 204.592 84.226C204.428 84.386 204.346 84.592 204.346 84.844ZM204.658 86.632H205.174V87.916H208.216V88.336H204.658V86.632ZM213.748 85.864V86.284H211.66V87.328H211.138V86.284H208.966V85.864H213.748ZM209.566 86.824H210.088V87.922H213.22V88.342H209.566V86.824ZM209.578 83.422H213.13V85.288H209.578V83.422ZM212.62 84.868V83.83H210.088V84.868H212.62ZM216.01 83.626V84.544C216.01 84.852 216.066 85.158 216.178 85.462C216.294 85.762 216.452 86.032 216.652 86.272C216.856 86.512 217.084 86.694 217.336 86.818L217.018 87.226C216.734 87.078 216.482 86.862 216.262 86.578C216.042 86.294 215.874 85.97 215.758 85.606C215.642 85.994 215.47 86.34 215.242 86.644C215.014 86.948 214.752 87.178 214.456 87.334L214.138 86.914C214.398 86.786 214.63 86.598 214.834 86.35C215.042 86.098 215.204 85.814 215.32 85.498C215.44 85.182 215.5 84.864 215.5 84.544V83.626H216.01ZM217.762 83.176H218.284V85.294H219.142V85.738H218.284V88.456H217.762V83.176ZM223.768 83.176V88.456H223.252V83.176H223.768ZM219.484 87.028C220.108 87.028 220.592 87.022 220.936 87.01V86.458C220.624 86.418 220.376 86.314 220.192 86.146C220.012 85.974 219.922 85.758 219.922 85.498C219.922 85.202 220.038 84.966 220.27 84.79C220.502 84.61 220.81 84.52 221.194 84.52C221.574 84.52 221.882 84.61 222.118 84.79C222.354 84.966 222.472 85.202 222.472 85.498C222.472 85.758 222.38 85.974 222.196 86.146C222.012 86.314 221.766 86.418 221.458 86.458V86.992C221.974 86.968 222.462 86.926 222.922 86.866L222.958 87.25C222.438 87.342 221.904 87.402 221.356 87.43C220.808 87.454 220.208 87.466 219.556 87.466L219.484 87.028ZM219.592 83.812H220.936V83.176H221.458V83.812H222.796V84.226H219.592V83.812ZM220.414 85.498C220.414 85.674 220.486 85.814 220.63 85.918C220.774 86.022 220.962 86.074 221.194 86.074C221.43 86.074 221.618 86.022 221.758 85.918C221.902 85.814 221.974 85.674 221.974 85.498C221.974 85.322 221.902 85.182 221.758 85.078C221.618 84.97 221.43 84.916 221.194 84.916C220.962 84.916 220.774 84.97 220.63 85.078C220.486 85.182 220.414 85.322 220.414 85.498Z" fill="#6478FF"/>
<rect x="251.5" y="82" width="8" height="8" rx="1" fill="#6478FF"/>
<path fill-rule="evenodd" clip-rule="evenodd" d="M258.239 84.1953C258.499 84.4556 258.499 84.8777 258.239 85.1381L255.572 87.8047C255.312 88.0651 254.89 88.0651 254.629 87.8047L253.029 86.2047C252.769 85.9444 252.769 85.5223 253.029 85.2619C253.29 85.0016 253.712 85.0016 253.972 85.2619L255.101 86.3905L257.296 84.1953C257.556 83.9349 257.978 83.9349 258.239 84.1953Z" fill="#EDEFFF"/>
<rect x="270.5" y="76" width="109" height="20" rx="2.5" fill="#ECEDF0"/>
<path d="M283.804 85.2V84.424H282.204C281.98 84.984 281.612 85.464 281.1 85.864C280.593 86.2587 279.953 86.5653 279.18 86.784L278.836 86.088C279.652 85.8693 280.284 85.5573 280.732 85.152C281.18 84.7467 281.436 84.272 281.5 83.728H279.212V83.024H282.452C282.452 83.28 282.433 83.512 282.396 83.72H283.804V82.52H284.684V86.688H283.804V85.904H282.124V85.2H283.804ZM279.956 88.192C279.956 87.904 280.052 87.6533 280.244 87.44C280.441 87.2267 280.719 87.064 281.076 86.952C281.439 86.8347 281.86 86.776 282.34 86.776C282.82 86.776 283.239 86.8347 283.596 86.952C283.953 87.064 284.231 87.2267 284.428 87.44C284.625 87.6533 284.724 87.904 284.724 88.192C284.724 88.48 284.625 88.7307 284.428 88.944C284.231 89.1573 283.951 89.32 283.588 89.432C283.231 89.5493 282.815 89.608 282.34 89.608C281.86 89.608 281.439 89.5493 281.076 89.432C280.719 89.32 280.441 89.1573 280.244 88.944C280.052 88.7307 279.956 88.48 279.956 88.192ZM280.828 88.192C280.828 88.4267 280.961 88.608 281.228 88.736C281.495 88.864 281.865 88.928 282.34 88.928C282.815 88.928 283.185 88.864 283.452 88.736C283.724 88.608 283.86 88.4267 283.86 88.192C283.86 87.9573 283.727 87.776 283.46 87.648C283.193 87.52 282.82 87.456 282.34 87.456C281.865 87.456 281.495 87.52 281.228 87.648C280.961 87.776 280.828 87.9573 280.828 88.192ZM291.636 82.528V89.648H290.764V82.528H291.636ZM286.084 87.632C286.948 87.632 287.722 87.6213 288.404 87.6C289.092 87.5733 289.746 87.5173 290.364 87.432L290.42 88.08C289.327 88.2667 287.964 88.36 286.332 88.36H285.9L285.796 87.632H286.084ZM285.932 83.416H287.636V82.6H288.516V83.416H290.236V84.12H285.932V83.416ZM286.364 85.784C286.364 85.5173 286.436 85.2827 286.58 85.08C286.724 84.872 286.927 84.712 287.188 84.6C287.45 84.488 287.748 84.432 288.084 84.432C288.42 84.432 288.719 84.488 288.98 84.6C289.247 84.712 289.452 84.872 289.596 85.08C289.746 85.2827 289.82 85.5173 289.82 85.784C289.82 86.0507 289.746 86.2853 289.596 86.488C289.452 86.6907 289.247 86.848 288.98 86.96C288.719 87.072 288.42 87.128 288.084 87.128C287.748 87.128 287.45 87.072 287.188 86.96C286.927 86.848 286.724 86.6907 286.58 86.488C286.436 86.2853 286.364 86.0507 286.364 85.784ZM287.188 85.784C287.188 85.992 287.268 86.1573 287.428 86.28C287.594 86.3973 287.812 86.456 288.084 86.456C288.356 86.456 288.572 86.3973 288.732 86.28C288.898 86.1573 288.98 85.992 288.98 85.784C288.98 85.576 288.898 85.4133 288.732 85.296C288.572 85.1787 288.356 85.12 288.084 85.12C287.812 85.12 287.594 85.1787 287.428 85.296C287.268 85.4133 287.188 85.576 287.188 85.784ZM298.836 82.52V89.64H297.996V86.024H297.22V89.288H296.404V82.664H297.22V85.304H297.996V82.52H298.836ZM292.98 83.368H295.604V84.08H293.844V87.256C294.623 87.2453 295.327 87.1813 295.956 87.064L296.036 87.784C295.631 87.864 295.234 87.9173 294.844 87.944C294.455 87.9707 293.994 87.984 293.46 87.984H292.98V83.368ZM301.413 83.192V82.48H302.293V83.192H303.949V83.896H299.757V83.192H301.413ZM300.125 85.48C300.125 85.224 300.197 84.9973 300.341 84.8C300.485 84.5973 300.687 84.4427 300.949 84.336C301.215 84.224 301.517 84.168 301.853 84.168C302.189 84.168 302.487 84.224 302.749 84.336C303.015 84.4427 303.221 84.5973 303.365 84.8C303.514 84.9973 303.589 85.224 303.589 85.48C303.589 85.736 303.514 85.9627 303.365 86.16C303.221 86.352 303.015 86.504 302.749 86.616C302.487 86.7227 302.189 86.776 301.853 86.776C301.517 86.776 301.215 86.7227 300.949 86.616C300.687 86.504 300.485 86.352 300.341 86.16C300.197 85.9627 300.125 85.736 300.125 85.48ZM300.621 87.312H305.317V89.648H304.437V88.016H300.621V87.312ZM300.965 85.48C300.965 85.672 301.045 85.8267 301.205 85.944C301.37 86.056 301.586 86.112 301.853 86.112C302.119 86.112 302.333 86.056 302.493 85.944C302.658 85.8267 302.741 85.672 302.741 85.48C302.741 85.2773 302.658 85.12 302.493 85.008C302.333 84.896 302.119 84.84 301.853 84.84C301.586 84.84 301.37 84.896 301.205 85.008C301.045 85.12 300.965 85.2773 300.965 85.48ZM304.437 82.528H305.317V84.408H306.309V85.128H305.317V86.984H304.437V82.528ZM312.533 83.168V83.896C312.533 84.4987 312.517 85.0347 312.485 85.504C312.458 85.9733 312.389 86.5173 312.277 87.136L311.413 87.048C311.519 86.4667 311.586 85.944 311.613 85.48C311.639 85.016 311.653 84.488 311.653 83.896V83.88H307.373V83.168H312.533ZM306.741 88.008H308.181V85.728H309.045V88.008H309.941V85.728H310.805V88.008H313.181V88.728H306.741V88.008Z" fill="#AFB3C0"/>
<path d="M317.522 83.626V84.544C317.522 84.852 317.578 85.158 317.69 85.462C317.806 85.762 317.964 86.032 318.164 86.272C318.368 86.512 318.596 86.694 318.848 86.818L318.53 87.226C318.246 87.078 317.994 86.862 317.774 86.578C317.554 86.294 317.386 85.97 317.27 85.606C317.154 85.994 316.982 86.34 316.754 86.644C316.526 86.948 316.264 87.178 315.968 87.334L315.65 86.914C315.91 86.786 316.142 86.598 316.346 86.35C316.554 86.098 316.716 85.814 316.832 85.498C316.952 85.182 317.012 84.864 317.012 84.544V83.626H317.522ZM319.274 83.176H319.796V85.294H320.654V85.738H319.796V88.456H319.274V83.176ZM325.28 83.176V88.456H324.764V83.176H325.28ZM320.996 87.028C321.62 87.028 322.104 87.022 322.448 87.01V86.458C322.136 86.418 321.888 86.314 321.704 86.146C321.524 85.974 321.434 85.758 321.434 85.498C321.434 85.202 321.55 84.966 321.782 84.79C322.014 84.61 322.322 84.52 322.706 84.52C323.086 84.52 323.394 84.61 323.63 84.79C323.866 84.966 323.984 85.202 323.984 85.498C323.984 85.758 323.892 85.974 323.708 86.146C323.524 86.314 323.278 86.418 322.97 86.458V86.992C323.486 86.968 323.974 86.926 324.434 86.866L324.47 87.25C323.95 87.342 323.416 87.402 322.868 87.43C322.32 87.454 321.72 87.466 321.068 87.466L320.996 87.028ZM321.104 83.812H322.448V83.176H322.97V83.812H324.308V84.226H321.104V83.812ZM321.926 85.498C321.926 85.674 321.998 85.814 322.142 85.918C322.286 86.022 322.474 86.074 322.706 86.074C322.942 86.074 323.13 86.022 323.27 85.918C323.414 85.814 323.486 85.674 323.486 85.498C323.486 85.322 323.414 85.182 323.27 85.078C323.13 84.97 322.942 84.916 322.706 84.916C322.474 84.916 322.286 84.97 322.142 85.078C321.998 85.182 321.926 85.322 321.926 85.498Z" fill="#AFB3C0"/>
<rect x="363.5" y="82" width="8" height="8" rx="1" fill="white"/>
<rect x="382.5" y="76" width="109" height="20" rx="2.5" fill="#ECEDF0"/>
<path d="M395.804 85.2V84.424H394.204C393.98 84.984 393.612 85.464 393.1 85.864C392.593 86.2587 391.953 86.5653 391.18 86.784L390.836 86.088C391.652 85.8693 392.284 85.5573 392.732 85.152C393.18 84.7467 393.436 84.272 393.5 83.728H391.212V83.024H394.452C394.452 83.28 394.433 83.512 394.396 83.72H395.804V82.52H396.684V86.688H395.804V85.904H394.124V85.2H395.804ZM391.956 88.192C391.956 87.904 392.052 87.6533 392.244 87.44C392.441 87.2267 392.719 87.064 393.076 86.952C393.439 86.8347 393.86 86.776 394.34 86.776C394.82 86.776 395.239 86.8347 395.596 86.952C395.953 87.064 396.231 87.2267 396.428 87.44C396.625 87.6533 396.724 87.904 396.724 88.192C396.724 88.48 396.625 88.7307 396.428 88.944C396.231 89.1573 395.951 89.32 395.588 89.432C395.231 89.5493 394.815 89.608 394.34 89.608C393.86 89.608 393.439 89.5493 393.076 89.432C392.719 89.32 392.441 89.1573 392.244 88.944C392.052 88.7307 391.956 88.48 391.956 88.192ZM392.828 88.192C392.828 88.4267 392.961 88.608 393.228 88.736C393.495 88.864 393.865 88.928 394.34 88.928C394.815 88.928 395.185 88.864 395.452 88.736C395.724 88.608 395.86 88.4267 395.86 88.192C395.86 87.9573 395.727 87.776 395.46 87.648C395.193 87.52 394.82 87.456 394.34 87.456C393.865 87.456 393.495 87.52 393.228 87.648C392.961 87.776 392.828 87.9573 392.828 88.192ZM403.636 82.528V89.648H402.764V82.528H403.636ZM398.084 87.632C398.948 87.632 399.722 87.6213 400.404 87.6C401.092 87.5733 401.746 87.5173 402.364 87.432L402.42 88.08C401.327 88.2667 399.964 88.36 398.332 88.36H397.9L397.796 87.632H398.084ZM397.932 83.416H399.636V82.6H400.516V83.416H402.236V84.12H397.932V83.416ZM398.364 85.784C398.364 85.5173 398.436 85.2827 398.58 85.08C398.724 84.872 398.927 84.712 399.188 84.6C399.45 84.488 399.748 84.432 400.084 84.432C400.42 84.432 400.719 84.488 400.98 84.6C401.247 84.712 401.452 84.872 401.596 85.08C401.746 85.2827 401.82 85.5173 401.82 85.784C401.82 86.0507 401.746 86.2853 401.596 86.488C401.452 86.6907 401.247 86.848 400.98 86.96C400.719 87.072 400.42 87.128 400.084 87.128C399.748 87.128 399.45 87.072 399.188 86.96C398.927 86.848 398.724 86.6907 398.58 86.488C398.436 86.2853 398.364 86.0507 398.364 85.784ZM399.188 85.784C399.188 85.992 399.268 86.1573 399.428 86.28C399.594 86.3973 399.812 86.456 400.084 86.456C400.356 86.456 400.572 86.3973 400.732 86.28C400.898 86.1573 400.98 85.992 400.98 85.784C400.98 85.576 400.898 85.4133 400.732 85.296C400.572 85.1787 400.356 85.12 400.084 85.12C399.812 85.12 399.594 85.1787 399.428 85.296C399.268 85.4133 399.188 85.576 399.188 85.784ZM410.836 82.52V89.64H409.996V86.024H409.22V89.288H408.404V82.664H409.22V85.304H409.996V82.52H410.836ZM404.98 83.368H407.604V84.08H405.844V87.256C406.623 87.2453 407.327 87.1813 407.956 87.064L408.036 87.784C407.631 87.864 407.234 87.9173 406.844 87.944C406.455 87.9707 405.994 87.984 405.46 87.984H404.98V83.368ZM413.413 83.192V82.48H414.293V83.192H415.949V83.896H411.757V83.192H413.413ZM412.125 85.48C412.125 85.224 412.197 84.9973 412.341 84.8C412.485 84.5973 412.687 84.4427 412.949 84.336C413.215 84.224 413.517 84.168 413.853 84.168C414.189 84.168 414.487 84.224 414.749 84.336C415.015 84.4427 415.221 84.5973 415.365 84.8C415.514 84.9973 415.589 85.224 415.589 85.48C415.589 85.736 415.514 85.9627 415.365 86.16C415.221 86.352 415.015 86.504 414.749 86.616C414.487 86.7227 414.189 86.776 413.853 86.776C413.517 86.776 413.215 86.7227 412.949 86.616C412.687 86.504 412.485 86.352 412.341 86.16C412.197 85.9627 412.125 85.736 412.125 85.48ZM412.621 87.312H417.317V89.648H416.437V88.016H412.621V87.312ZM412.965 85.48C412.965 85.672 413.045 85.8267 413.205 85.944C413.37 86.056 413.586 86.112 413.853 86.112C414.119 86.112 414.333 86.056 414.493 85.944C414.658 85.8267 414.741 85.672 414.741 85.48C414.741 85.2773 414.658 85.12 414.493 85.008C414.333 84.896 414.119 84.84 413.853 84.84C413.586 84.84 413.37 84.896 413.205 85.008C413.045 85.12 412.965 85.2773 412.965 85.48ZM416.437 82.528H417.317V84.408H418.309V85.128H417.317V86.984H416.437V82.528ZM424.533 83.168V83.896C424.533 84.4987 424.517 85.0347 424.485 85.504C424.458 85.9733 424.389 86.5173 424.277 87.136L423.413 87.048C423.519 86.4667 423.586 85.944 423.613 85.48C423.639 85.016 423.653 84.488 423.653 83.896V83.88H419.373V83.168H424.533ZM418.741 88.008H420.181V85.728H421.045V88.008H421.941V85.728H422.805V88.008H425.181V88.728H418.741V88.008Z" fill="#AFB3C0"/>
<path d="M432.06 83.176V87.022H431.538V83.176H432.06ZM427.836 84.844C427.836 84.592 427.896 84.368 428.016 84.172C428.14 83.972 428.306 83.816 428.514 83.704C428.726 83.592 428.962 83.536 429.222 83.536C429.482 83.536 429.718 83.592 429.93 83.704C430.142 83.816 430.308 83.972 430.428 84.172C430.548 84.368 430.608 84.592 430.608 84.844C430.608 85.092 430.548 85.316 430.428 85.516C430.308 85.712 430.142 85.866 429.93 85.978C429.718 86.09 429.482 86.146 429.222 86.146C428.962 86.146 428.726 86.09 428.514 85.978C428.306 85.866 428.14 85.712 428.016 85.516C427.896 85.316 427.836 85.092 427.836 84.844ZM428.346 84.844C428.346 85.092 428.428 85.296 428.592 85.456C428.76 85.612 428.97 85.69 429.222 85.69C429.474 85.69 429.684 85.612 429.852 85.456C430.02 85.296 430.104 85.092 430.104 84.844C430.104 84.592 430.02 84.386 429.852 84.226C429.684 84.066 429.474 83.986 429.222 83.986C428.97 83.986 428.76 84.066 428.592 84.226C428.428 84.386 428.346 84.592 428.346 84.844ZM428.658 86.632H429.174V87.916H432.216V88.336H428.658V86.632ZM437.748 85.864V86.284H435.66V87.328H435.138V86.284H432.966V85.864H437.748ZM433.566 86.824H434.088V87.922H437.22V88.342H433.566V86.824ZM433.578 83.422H437.13V85.288H433.578V83.422ZM436.62 84.868V83.83H434.088V84.868H436.62ZM441.144 85.246V83.29H441.63V88.186H441.144V85.672H440.364V85.246H441.144ZM438.162 86.992C438.51 86.788 438.78 86.484 438.972 86.08C439.168 85.672 439.266 85.244 439.266 84.796V84.562H438.312V84.136H439.266V83.356H439.764V84.136H440.712V84.562H439.764V84.796C439.764 85.228 439.862 85.636 440.058 86.02C440.258 86.404 440.532 86.69 440.88 86.878L440.586 87.268C440.338 87.132 440.124 86.942 439.944 86.698C439.764 86.454 439.624 86.174 439.524 85.858C439.428 86.198 439.29 86.502 439.11 86.77C438.93 87.034 438.714 87.24 438.462 87.388L438.162 86.992ZM442.2 83.17H442.698V88.45H442.2V83.17ZM448.23 85.708V86.128H446.982V86.764H447.642V88.456H447.126V87.184H443.988V86.764H444.702V86.128H443.46V85.708H448.23ZM443.976 84.31C443.976 83.994 444.144 83.746 444.48 83.566C444.816 83.386 445.27 83.296 445.842 83.296C446.414 83.296 446.868 83.386 447.204 83.566C447.54 83.746 447.708 83.994 447.708 84.31C447.708 84.626 447.54 84.874 447.204 85.054C446.868 85.234 446.414 85.324 445.842 85.324C445.27 85.324 444.816 85.234 444.48 85.054C444.144 84.874 443.976 84.626 443.976 84.31ZM444.51 84.31C444.51 84.502 444.628 84.65 444.864 84.754C445.1 84.858 445.426 84.91 445.842 84.91C446.258 84.91 446.584 84.858 446.82 84.754C447.056 84.65 447.174 84.502 447.174 84.31C447.174 84.118 447.054 83.97 446.814 83.866C446.578 83.758 446.254 83.704 445.842 83.704C445.43 83.704 445.104 83.758 444.864 83.866C444.628 83.97 444.51 84.118 444.51 84.31ZM446.478 86.764V86.128H445.218V86.764H446.478Z" fill="#AFB3C0"/>
<rect x="475.5" y="82" width="8" height="8" rx="1" fill="white"/>
<rect x="158.5" y="104" width="109" height="20" rx="2.5" fill="#EDEFFF"/>
<path d="M169.356 110.912V111.544C169.356 112.045 169.497 112.496 169.78 112.896C170.063 113.296 170.471 113.581 171.004 113.752L170.54 114.44C170.167 114.312 169.844 114.125 169.572 113.88C169.305 113.629 169.095 113.333 168.94 112.992C168.78 113.387 168.551 113.728 168.252 114.016C167.959 114.299 167.601 114.512 167.18 114.656L166.724 113.944C167.284 113.757 167.716 113.451 168.02 113.024C168.324 112.592 168.476 112.109 168.476 111.576V110.912H169.356ZM167.876 116.272C167.876 115.84 168.092 115.504 168.524 115.264C168.956 115.024 169.548 114.904 170.3 114.904C171.047 114.904 171.633 115.024 172.06 115.264C172.492 115.504 172.708 115.84 172.708 116.272C172.708 116.704 172.495 117.04 172.068 117.28C171.641 117.52 171.052 117.64 170.3 117.64C169.548 117.64 168.956 117.52 168.524 117.28C168.092 117.04 167.876 116.704 167.876 116.272ZM168.764 116.272C168.764 116.496 168.895 116.667 169.156 116.784C169.423 116.901 169.804 116.96 170.3 116.96C170.791 116.96 171.169 116.901 171.436 116.784C171.703 116.667 171.836 116.496 171.836 116.272C171.836 116.048 171.703 115.877 171.436 115.76C171.169 115.643 170.791 115.584 170.3 115.584C169.804 115.584 169.423 115.643 169.156 115.76C168.895 115.877 168.764 116.048 168.764 116.272ZM170.404 111.896H171.796V110.528H172.676V114.712H171.796V112.624H170.404V111.896ZM179.428 110.872V111.464C179.428 111.859 179.42 112.208 179.404 112.512C179.388 112.816 179.346 113.155 179.276 113.528H180.212V114.232H178.54V115.84H177.684V114.232H176.772V115.84H175.9V114.232H173.764V113.528H178.404C178.474 113.171 178.516 112.845 178.532 112.552C178.554 112.259 178.564 111.933 178.564 111.576H174.54V110.872H179.428ZM174.476 115.216H175.356V116.808H179.62V117.512H174.476V115.216ZM184.7 111.056V111.472C184.7 111.835 184.69 112.176 184.668 112.496C184.647 112.816 184.599 113.173 184.524 113.568L183.668 113.472C183.775 112.933 183.834 112.363 183.844 111.76H181.1V111.056H184.7ZM180.668 114.136C181.26 114.136 181.722 114.131 182.052 114.12V112.68H182.916V114.096C183.738 114.059 184.46 113.997 185.084 113.912L185.14 114.536C184.484 114.659 183.791 114.741 183.06 114.784C182.33 114.821 181.564 114.84 180.764 114.84L180.668 114.136ZM181.732 115.384H182.604V116.8H186.612V117.504H181.732V115.384ZM185.5 110.52H186.38V112.752H187.3V113.472H186.38V115.864H185.5V110.52ZM193.829 110.52V117.64H192.989V114.024H192.213V117.288H191.397V110.664H192.213V113.304H192.989V110.52H193.829ZM187.973 111.368H190.597V112.08H188.837V115.256C189.615 115.245 190.319 115.181 190.949 115.064L191.029 115.784C190.623 115.864 190.226 115.917 189.837 115.944C189.447 115.971 188.986 115.984 188.453 115.984H187.973V111.368ZM196.405 111.192V110.48H197.285V111.192H198.941V111.896H194.749V111.192H196.405ZM195.117 113.48C195.117 113.224 195.189 112.997 195.333 112.8C195.477 112.597 195.679 112.443 195.941 112.336C196.207 112.224 196.509 112.168 196.845 112.168C197.181 112.168 197.479 112.224 197.741 112.336C198.007 112.443 198.213 112.597 198.357 112.8C198.506 112.997 198.581 113.224 198.581 113.48C198.581 113.736 198.506 113.963 198.357 114.16C198.213 114.352 198.007 114.504 197.741 114.616C197.479 114.723 197.181 114.776 196.845 114.776C196.509 114.776 196.207 114.723 195.941 114.616C195.679 114.504 195.477 114.352 195.333 114.16C195.189 113.963 195.117 113.736 195.117 113.48ZM195.613 115.312H200.309V117.648H199.429V116.016H195.613V115.312ZM195.957 113.48C195.957 113.672 196.037 113.827 196.197 113.944C196.362 114.056 196.578 114.112 196.845 114.112C197.111 114.112 197.325 114.056 197.485 113.944C197.65 113.827 197.733 113.672 197.733 113.48C197.733 113.277 197.65 113.12 197.485 113.008C197.325 112.896 197.111 112.84 196.845 112.84C196.578 112.84 196.362 112.896 196.197 113.008C196.037 113.12 195.957 113.277 195.957 113.48ZM199.429 110.528H200.309V112.408H201.301V113.128H200.309V114.984H199.429V110.528ZM207.525 111.168V111.896C207.525 112.499 207.509 113.035 207.477 113.504C207.45 113.973 207.381 114.517 207.269 115.136L206.405 115.048C206.512 114.467 206.578 113.944 206.605 113.48C206.632 113.016 206.645 112.488 206.645 111.896V111.88H202.365V111.168H207.525ZM201.733 116.008H203.173V113.728H204.037V116.008H204.933V113.728H205.797V116.008H208.173V116.728H201.733V116.008Z" fill="#6478FF"/>
<path d="M215.06 111.176V115.022H214.538V111.176H215.06ZM210.836 112.844C210.836 112.592 210.896 112.368 211.016 112.172C211.14 111.972 211.306 111.816 211.514 111.704C211.726 111.592 211.962 111.536 212.222 111.536C212.482 111.536 212.718 111.592 212.93 111.704C213.142 111.816 213.308 111.972 213.428 112.172C213.548 112.368 213.608 112.592 213.608 112.844C213.608 113.092 213.548 113.316 213.428 113.516C213.308 113.712 213.142 113.866 212.93 113.978C212.718 114.09 212.482 114.146 212.222 114.146C211.962 114.146 211.726 114.09 211.514 113.978C211.306 113.866 211.14 113.712 211.016 113.516C210.896 113.316 210.836 113.092 210.836 112.844ZM211.346 112.844C211.346 113.092 211.428 113.296 211.592 113.456C211.76 113.612 211.97 113.69 212.222 113.69C212.474 113.69 212.684 113.612 212.852 113.456C213.02 113.296 213.104 113.092 213.104 112.844C213.104 112.592 213.02 112.386 212.852 112.226C212.684 112.066 212.474 111.986 212.222 111.986C211.97 111.986 211.76 112.066 211.592 112.226C211.428 112.386 211.346 112.592 211.346 112.844ZM211.658 114.632H212.174V115.916H215.216V116.336H211.658V114.632ZM220.748 113.864V114.284H218.66V115.328H218.138V114.284H215.966V113.864H220.748ZM216.566 114.824H217.088V115.922H220.22V116.342H216.566V114.824ZM216.578 111.422H220.13V113.288H216.578V111.422ZM219.62 112.868V111.83H217.088V112.868H219.62Z" fill="#6478FF"/>
<rect x="251.5" y="110" width="8" height="8" rx="1" fill="#6478FF"/>
<path fill-rule="evenodd" clip-rule="evenodd" d="M258.239 112.195C258.499 112.456 258.499 112.878 258.239 113.138L255.572 115.805C255.312 116.065 254.89 116.065 254.629 115.805L253.029 114.205C252.769 113.944 252.769 113.522 253.029 113.262C253.29 113.002 253.712 113.002 253.972 113.262L255.101 114.391L257.296 112.195C257.556 111.935 257.978 111.935 258.239 112.195Z" fill="#EDEFFF"/>
<rect x="270.5" y="104" width="109" height="20" rx="2.5" fill="#EDEFFF"/>
<path d="M285.204 113.8V114.504H282.42V115.12C283.06 115.163 283.556 115.293 283.908 115.512C284.26 115.725 284.436 116.013 284.436 116.376C284.436 116.776 284.217 117.085 283.78 117.304C283.348 117.528 282.748 117.64 281.98 117.64C281.207 117.64 280.601 117.528 280.164 117.304C279.732 117.085 279.516 116.776 279.516 116.376C279.516 116.013 279.692 115.725 280.044 115.512C280.401 115.293 280.9 115.163 281.54 115.12V114.504H278.772V113.8H285.204ZM279.076 112.776C279.503 112.739 279.879 112.659 280.204 112.536C280.535 112.413 280.799 112.267 280.996 112.096C281.193 111.92 281.316 111.733 281.364 111.536H279.356V110.84H284.628V111.536H282.612C282.687 111.845 282.927 112.115 283.332 112.344C283.737 112.573 284.26 112.717 284.9 112.776L284.588 113.464C283.953 113.395 283.409 113.24 282.956 113C282.503 112.76 282.18 112.459 281.988 112.096C281.796 112.459 281.473 112.76 281.02 113C280.567 113.24 280.02 113.395 279.38 113.464L279.076 112.776ZM280.404 116.376C280.404 116.573 280.537 116.723 280.804 116.824C281.071 116.925 281.463 116.976 281.98 116.976C282.492 116.976 282.881 116.925 283.148 116.824C283.415 116.723 283.548 116.573 283.548 116.376C283.548 116.173 283.415 116.021 283.148 115.92C282.881 115.819 282.492 115.768 281.98 115.768C280.929 115.768 280.404 115.971 280.404 116.376ZM287.748 110.928C288.106 110.928 288.428 111 288.716 111.144C289.01 111.288 289.239 111.491 289.404 111.752C289.57 112.013 289.652 112.307 289.652 112.632C289.652 112.957 289.57 113.251 289.404 113.512C289.239 113.773 289.01 113.976 288.716 114.12C288.428 114.264 288.106 114.336 287.748 114.336C287.391 114.336 287.066 114.264 286.772 114.12C286.484 113.976 286.258 113.773 286.092 113.512C285.927 113.251 285.844 112.957 285.844 112.632C285.844 112.307 285.927 112.013 286.092 111.752C286.258 111.491 286.484 111.288 286.772 111.144C287.066 111 287.391 110.928 287.748 110.928ZM286.652 116.264C286.652 115.832 286.866 115.493 287.292 115.248C287.719 115.003 288.3 114.88 289.036 114.88C289.772 114.88 290.351 115.003 290.772 115.248C291.199 115.493 291.412 115.832 291.412 116.264C291.412 116.696 291.199 117.032 290.772 117.272C290.351 117.517 289.772 117.64 289.036 117.64C288.3 117.64 287.719 117.517 287.292 117.272C286.866 117.032 286.652 116.696 286.652 116.264ZM286.7 112.632C286.7 112.925 286.799 113.16 286.996 113.336C287.194 113.512 287.444 113.6 287.748 113.6C288.052 113.6 288.303 113.512 288.5 113.336C288.698 113.16 288.796 112.925 288.796 112.632C288.796 112.339 288.698 112.104 288.5 111.928C288.303 111.752 288.052 111.664 287.748 111.664C287.444 111.664 287.194 111.752 286.996 111.928C286.799 112.104 286.7 112.339 286.7 112.632ZM287.524 116.264C287.524 116.483 287.655 116.653 287.916 116.776C288.178 116.893 288.551 116.952 289.036 116.952C289.516 116.952 289.887 116.893 290.148 116.776C290.415 116.653 290.548 116.483 290.548 116.264C290.548 116.04 290.418 115.869 290.156 115.752C289.895 115.635 289.522 115.576 289.036 115.576C288.546 115.576 288.17 115.635 287.908 115.752C287.652 115.869 287.524 116.04 287.524 116.264ZM290.452 110.528H291.332V112.2H292.324V112.92H291.332V114.704H290.452V110.528ZM298.836 110.52V117.64H297.996V114.024H297.22V117.288H296.404V110.664H297.22V113.304H297.996V110.52H298.836ZM292.98 111.368H295.604V112.08H293.844V115.256C294.623 115.245 295.327 115.181 295.956 115.064L296.036 115.784C295.631 115.864 295.234 115.917 294.844 115.944C294.455 115.971 293.994 115.984 293.46 115.984H292.98V111.368ZM301.413 111.192V110.48H302.293V111.192H303.949V111.896H299.757V111.192H301.413ZM300.125 113.48C300.125 113.224 300.197 112.997 300.341 112.8C300.485 112.597 300.687 112.443 300.949 112.336C301.215 112.224 301.517 112.168 301.853 112.168C302.189 112.168 302.487 112.224 302.749 112.336C303.015 112.443 303.221 112.597 303.365 112.8C303.514 112.997 303.589 113.224 303.589 113.48C303.589 113.736 303.514 113.963 303.365 114.16C303.221 114.352 303.015 114.504 302.749 114.616C302.487 114.723 302.189 114.776 301.853 114.776C301.517 114.776 301.215 114.723 300.949 114.616C300.687 114.504 300.485 114.352 300.341 114.16C300.197 113.963 300.125 113.736 300.125 113.48ZM300.621 115.312H305.317V117.648H304.437V116.016H300.621V115.312ZM300.965 113.48C300.965 113.672 301.045 113.827 301.205 113.944C301.37 114.056 301.586 114.112 301.853 114.112C302.119 114.112 302.333 114.056 302.493 113.944C302.658 113.827 302.741 113.672 302.741 113.48C302.741 113.277 302.658 113.12 302.493 113.008C302.333 112.896 302.119 112.84 301.853 112.84C301.586 112.84 301.37 112.896 301.205 113.008C301.045 113.12 300.965 113.277 300.965 113.48ZM304.437 110.528H305.317V112.408H306.309V113.128H305.317V114.984H304.437V110.528ZM312.533 111.168V111.896C312.533 112.499 312.517 113.035 312.485 113.504C312.458 113.973 312.389 114.517 312.277 115.136L311.413 115.048C311.519 114.467 311.586 113.944 311.613 113.48C311.639 113.016 311.653 112.488 311.653 111.896V111.88H307.373V111.168H312.533ZM306.741 116.008H308.181V113.728H309.045V116.008H309.941V113.728H310.805V116.008H313.181V116.728H306.741V116.008Z" fill="#6478FF"/>
<path d="M319.556 113.228V112.55H318.26C318.092 112.97 317.814 113.33 317.426 113.63C317.042 113.93 316.566 114.164 315.998 114.332L315.788 113.918C316.416 113.738 316.91 113.482 317.27 113.15C317.634 112.814 317.838 112.426 317.882 111.986H316.064V111.56H318.446C318.446 111.76 318.428 111.95 318.392 112.13H319.556V111.17H320.078V114.32H319.556V113.648H318.206V113.228H319.556ZM316.604 115.406C316.604 115.086 316.76 114.836 317.072 114.656C317.388 114.472 317.816 114.38 318.356 114.38C318.892 114.38 319.316 114.472 319.628 114.656C319.944 114.836 320.102 115.086 320.102 115.406C320.102 115.722 319.944 115.97 319.628 116.15C319.316 116.334 318.892 116.426 318.356 116.426C317.816 116.426 317.388 116.334 317.072 116.15C316.76 115.97 316.604 115.722 316.604 115.406ZM317.12 115.406C317.12 115.598 317.23 115.748 317.45 115.856C317.674 115.964 317.976 116.018 318.356 116.018C318.74 116.018 319.042 115.964 319.262 115.856C319.482 115.748 319.592 115.598 319.592 115.406C319.592 115.214 319.482 115.064 319.262 114.956C319.042 114.844 318.74 114.788 318.356 114.788C317.976 114.788 317.674 114.844 317.45 114.956C317.23 115.064 317.12 115.214 317.12 115.406ZM322.412 111.482C322.628 111.482 322.828 111.522 323.012 111.602C323.196 111.678 323.35 111.786 323.474 111.926H324.8V111.176H325.322V114.29H324.8V113.564H323.468C323.344 113.704 323.19 113.812 323.006 113.888C322.826 113.964 322.628 114.002 322.412 114.002C322.156 114.002 321.924 113.948 321.716 113.84C321.508 113.732 321.344 113.582 321.224 113.39C321.104 113.198 321.044 112.982 321.044 112.742C321.044 112.502 321.104 112.286 321.224 112.094C321.344 111.902 321.508 111.752 321.716 111.644C321.924 111.536 322.156 111.482 322.412 111.482ZM321.542 112.742C321.542 112.982 321.624 113.178 321.788 113.33C321.952 113.482 322.16 113.558 322.412 113.558C322.664 113.558 322.87 113.482 323.03 113.33C323.194 113.178 323.276 112.982 323.276 112.742C323.276 112.502 323.194 112.306 323.03 112.154C322.87 112.002 322.664 111.926 322.412 111.926C322.16 111.926 321.952 112.002 321.788 112.154C321.624 112.306 321.542 112.502 321.542 112.742ZM321.812 115.43C321.812 115.11 321.968 114.862 322.28 114.686C322.596 114.506 323.028 114.416 323.576 114.416C324.124 114.416 324.554 114.506 324.866 114.686C325.182 114.862 325.34 115.11 325.34 115.43C325.34 115.75 325.182 115.998 324.866 116.174C324.554 116.354 324.124 116.444 323.576 116.444C323.028 116.444 322.596 116.354 322.28 116.174C321.968 115.998 321.812 115.75 321.812 115.43ZM322.322 115.43C322.322 115.622 322.432 115.772 322.652 115.88C322.876 115.984 323.184 116.036 323.576 116.036C323.972 116.036 324.28 115.984 324.5 115.88C324.72 115.772 324.83 115.622 324.83 115.43C324.83 115.238 324.72 115.09 324.5 114.986C324.28 114.878 323.972 114.824 323.576 114.824C323.184 114.824 322.876 114.878 322.652 114.986C322.432 115.09 322.322 115.238 322.322 115.43ZM324.8 113.138V112.346H323.714C323.754 112.478 323.774 112.61 323.774 112.742C323.774 112.874 323.754 113.006 323.714 113.138H324.8ZM330.044 113.228V112.55H328.748C328.58 112.97 328.302 113.33 327.914 113.63C327.53 113.93 327.054 114.164 326.486 114.332L326.276 113.918C326.904 113.738 327.398 113.482 327.758 113.15C328.122 112.814 328.326 112.426 328.37 111.986H326.552V111.56H328.934C328.934 111.76 328.916 111.95 328.88 112.13H330.044V111.17H330.566V114.32H330.044V113.648H328.694V113.228H330.044ZM327.092 115.406C327.092 115.086 327.248 114.836 327.56 114.656C327.876 114.472 328.304 114.38 328.844 114.38C329.38 114.38 329.804 114.472 330.116 114.656C330.432 114.836 330.59 115.086 330.59 115.406C330.59 115.722 330.432 115.97 330.116 116.15C329.804 116.334 329.38 116.426 328.844 116.426C328.304 116.426 327.876 116.334 327.56 116.15C327.248 115.97 327.092 115.722 327.092 115.406ZM327.608 115.406C327.608 115.598 327.718 115.748 327.938 115.856C328.162 115.964 328.464 116.018 328.844 116.018C329.228 116.018 329.53 115.964 329.75 115.856C329.97 115.748 330.08 115.598 330.08 115.406C330.08 115.214 329.97 115.064 329.75 114.956C329.53 114.844 329.228 114.788 328.844 114.788C328.464 114.788 328.162 114.844 327.938 114.956C327.718 115.064 327.608 115.214 327.608 115.406ZM335.942 111.17V116.45H335.444V111.17H335.942ZM331.388 115.022C331.744 114.802 332.02 114.476 332.216 114.044C332.416 113.612 332.516 113.148 332.516 112.652V112.208H331.532V111.776H333.938V112.208H333.02V112.652C333.02 113.124 333.116 113.566 333.308 113.978C333.5 114.386 333.772 114.694 334.124 114.902L333.812 115.28C333.568 115.132 333.358 114.928 333.182 114.668C333.006 114.404 332.87 114.104 332.774 113.768C332.678 114.132 332.54 114.456 332.36 114.74C332.18 115.024 331.962 115.246 331.706 115.406L331.388 115.022ZM333.542 113.06H334.388V111.29H334.874V116.186H334.388V113.486H333.542V113.06Z" fill="#6478FF"/>
<rect x="363.5" y="110" width="8" height="8" rx="1" fill="#6478FF"/>
<path fill-rule="evenodd" clip-rule="evenodd" d="M370.239 112.195C370.499 112.456 370.499 112.878 370.239 113.138L367.572 115.805C367.312 116.065 366.89 116.065 366.629 115.805L365.029 114.205C364.769 113.944 364.769 113.522 365.029 113.262C365.29 113.002 365.712 113.002 365.972 113.262L367.101 114.391L369.296 112.195C369.556 111.935 369.978 111.935 370.239 112.195Z" fill="#EDEFFF"/>
<rect x="382.5" y="104" width="109" height="20" rx="2.5" fill="#ECEDF0"/>
<path d="M397.204 113.8V114.504H394.42V115.12C395.06 115.163 395.556 115.293 395.908 115.512C396.26 115.725 396.436 116.013 396.436 116.376C396.436 116.776 396.217 117.085 395.78 117.304C395.348 117.528 394.748 117.64 393.98 117.64C393.207 117.64 392.601 117.528 392.164 117.304C391.732 117.085 391.516 116.776 391.516 116.376C391.516 116.013 391.692 115.725 392.044 115.512C392.401 115.293 392.9 115.163 393.54 115.12V114.504H390.772V113.8H397.204ZM391.076 112.776C391.503 112.739 391.879 112.659 392.204 112.536C392.535 112.413 392.799 112.267 392.996 112.096C393.193 111.92 393.316 111.733 393.364 111.536H391.356V110.84H396.628V111.536H394.612C394.687 111.845 394.927 112.115 395.332 112.344C395.737 112.573 396.26 112.717 396.9 112.776L396.588 113.464C395.953 113.395 395.409 113.24 394.956 113C394.503 112.76 394.18 112.459 393.988 112.096C393.796 112.459 393.473 112.76 393.02 113C392.567 113.24 392.02 113.395 391.38 113.464L391.076 112.776ZM392.404 116.376C392.404 116.573 392.537 116.723 392.804 116.824C393.071 116.925 393.463 116.976 393.98 116.976C394.492 116.976 394.881 116.925 395.148 116.824C395.415 116.723 395.548 116.573 395.548 116.376C395.548 116.173 395.415 116.021 395.148 115.92C394.881 115.819 394.492 115.768 393.98 115.768C392.929 115.768 392.404 115.971 392.404 116.376ZM399.748 110.928C400.106 110.928 400.428 111 400.716 111.144C401.01 111.288 401.239 111.491 401.404 111.752C401.57 112.013 401.652 112.307 401.652 112.632C401.652 112.957 401.57 113.251 401.404 113.512C401.239 113.773 401.01 113.976 400.716 114.12C400.428 114.264 400.106 114.336 399.748 114.336C399.391 114.336 399.066 114.264 398.772 114.12C398.484 113.976 398.258 113.773 398.092 113.512C397.927 113.251 397.844 112.957 397.844 112.632C397.844 112.307 397.927 112.013 398.092 111.752C398.258 111.491 398.484 111.288 398.772 111.144C399.066 111 399.391 110.928 399.748 110.928ZM398.652 116.264C398.652 115.832 398.866 115.493 399.292 115.248C399.719 115.003 400.3 114.88 401.036 114.88C401.772 114.88 402.351 115.003 402.772 115.248C403.199 115.493 403.412 115.832 403.412 116.264C403.412 116.696 403.199 117.032 402.772 117.272C402.351 117.517 401.772 117.64 401.036 117.64C400.3 117.64 399.719 117.517 399.292 117.272C398.866 117.032 398.652 116.696 398.652 116.264ZM398.7 112.632C398.7 112.925 398.799 113.16 398.996 113.336C399.194 113.512 399.444 113.6 399.748 113.6C400.052 113.6 400.303 113.512 400.5 113.336C400.698 113.16 400.796 112.925 400.796 112.632C400.796 112.339 400.698 112.104 400.5 111.928C400.303 111.752 400.052 111.664 399.748 111.664C399.444 111.664 399.194 111.752 398.996 111.928C398.799 112.104 398.7 112.339 398.7 112.632ZM399.524 116.264C399.524 116.483 399.655 116.653 399.916 116.776C400.178 116.893 400.551 116.952 401.036 116.952C401.516 116.952 401.887 116.893 402.148 116.776C402.415 116.653 402.548 116.483 402.548 116.264C402.548 116.04 402.418 115.869 402.156 115.752C401.895 115.635 401.522 115.576 401.036 115.576C400.546 115.576 400.17 115.635 399.908 115.752C399.652 115.869 399.524 116.04 399.524 116.264ZM402.452 110.528H403.332V112.2H404.324V112.92H403.332V114.704H402.452V110.528ZM410.836 110.52V117.64H409.996V114.024H409.22V117.288H408.404V110.664H409.22V113.304H409.996V110.52H410.836ZM404.98 111.368H407.604V112.08H405.844V115.256C406.623 115.245 407.327 115.181 407.956 115.064L408.036 115.784C407.631 115.864 407.234 115.917 406.844 115.944C406.455 115.971 405.994 115.984 405.46 115.984H404.98V111.368ZM413.413 111.192V110.48H414.293V111.192H415.949V111.896H411.757V111.192H413.413ZM412.125 113.48C412.125 113.224 412.197 112.997 412.341 112.8C412.485 112.597 412.687 112.443 412.949 112.336C413.215 112.224 413.517 112.168 413.853 112.168C414.189 112.168 414.487 112.224 414.749 112.336C415.015 112.443 415.221 112.597 415.365 112.8C415.514 112.997 415.589 113.224 415.589 113.48C415.589 113.736 415.514 113.963 415.365 114.16C415.221 114.352 415.015 114.504 414.749 114.616C414.487 114.723 414.189 114.776 413.853 114.776C413.517 114.776 413.215 114.723 412.949 114.616C412.687 114.504 412.485 114.352 412.341 114.16C412.197 113.963 412.125 113.736 412.125 113.48ZM412.621 115.312H417.317V117.648H416.437V116.016H412.621V115.312ZM412.965 113.48C412.965 113.672 413.045 113.827 413.205 113.944C413.37 114.056 413.586 114.112 413.853 114.112C414.119 114.112 414.333 114.056 414.493 113.944C414.658 113.827 414.741 113.672 414.741 113.48C414.741 113.277 414.658 113.12 414.493 113.008C414.333 112.896 414.119 112.84 413.853 112.84C413.586 112.84 413.37 112.896 413.205 113.008C413.045 113.12 412.965 113.277 412.965 113.48ZM416.437 110.528H417.317V112.408H418.309V113.128H417.317V114.984H416.437V110.528ZM424.533 111.168V111.896C424.533 112.499 424.517 113.035 424.485 113.504C424.458 113.973 424.389 114.517 424.277 115.136L423.413 115.048C423.519 114.467 423.586 113.944 423.613 113.48C423.639 113.016 423.653 112.488 423.653 111.896V111.88H419.373V111.168H424.533ZM418.741 116.008H420.181V113.728H421.045V116.008H421.941V113.728H422.805V116.008H425.181V116.728H418.741V116.008Z" fill="#AFB3C0"/>
<path d="M432.06 111.176V115.022H431.538V111.176H432.06ZM427.836 112.844C427.836 112.592 427.896 112.368 428.016 112.172C428.14 111.972 428.306 111.816 428.514 111.704C428.726 111.592 428.962 111.536 429.222 111.536C429.482 111.536 429.718 111.592 429.93 111.704C430.142 111.816 430.308 111.972 430.428 112.172C430.548 112.368 430.608 112.592 430.608 112.844C430.608 113.092 430.548 113.316 430.428 113.516C430.308 113.712 430.142 113.866 429.93 113.978C429.718 114.09 429.482 114.146 429.222 114.146C428.962 114.146 428.726 114.09 428.514 113.978C428.306 113.866 428.14 113.712 428.016 113.516C427.896 113.316 427.836 113.092 427.836 112.844ZM428.346 112.844C428.346 113.092 428.428 113.296 428.592 113.456C428.76 113.612 428.97 113.69 429.222 113.69C429.474 113.69 429.684 113.612 429.852 113.456C430.02 113.296 430.104 113.092 430.104 112.844C430.104 112.592 430.02 112.386 429.852 112.226C429.684 112.066 429.474 111.986 429.222 111.986C428.97 111.986 428.76 112.066 428.592 112.226C428.428 112.386 428.346 112.592 428.346 112.844ZM428.658 114.632H429.174V115.916H432.216V116.336H428.658V114.632ZM437.748 113.864V114.284H435.66V115.328H435.138V114.284H432.966V113.864H437.748ZM433.566 114.824H434.088V115.922H437.22V116.342H433.566V114.824ZM433.578 111.422H437.13V113.288H433.578V111.422ZM436.62 112.868V111.83H434.088V112.868H436.62ZM440.01 111.626V112.544C440.01 112.852 440.066 113.158 440.178 113.462C440.294 113.762 440.452 114.032 440.652 114.272C440.856 114.512 441.084 114.694 441.336 114.818L441.018 115.226C440.734 115.078 440.482 114.862 440.262 114.578C440.042 114.294 439.874 113.97 439.758 113.606C439.642 113.994 439.47 114.34 439.242 114.644C439.014 114.948 438.752 115.178 438.456 115.334L438.138 114.914C438.398 114.786 438.63 114.598 438.834 114.35C439.042 114.098 439.204 113.814 439.32 113.498C439.44 113.182 439.5 112.864 439.5 112.544V111.626H440.01ZM441.762 111.176H442.284V113.294H443.142V113.738H442.284V116.456H441.762V111.176ZM447.768 111.176V116.456H447.252V111.176H447.768ZM443.484 115.028C444.108 115.028 444.592 115.022 444.936 115.01V114.458C444.624 114.418 444.376 114.314 444.192 114.146C444.012 113.974 443.922 113.758 443.922 113.498C443.922 113.202 444.038 112.966 444.27 112.79C444.502 112.61 444.81 112.52 445.194 112.52C445.574 112.52 445.882 112.61 446.118 112.79C446.354 112.966 446.472 113.202 446.472 113.498C446.472 113.758 446.38 113.974 446.196 114.146C446.012 114.314 445.766 114.418 445.458 114.458V114.992C445.974 114.968 446.462 114.926 446.922 114.866L446.958 115.25C446.438 115.342 445.904 115.402 445.356 115.43C444.808 115.454 444.208 115.466 443.556 115.466L443.484 115.028ZM443.592 111.812H444.936V111.176H445.458V111.812H446.796V112.226H443.592V111.812ZM444.414 113.498C444.414 113.674 444.486 113.814 444.63 113.918C444.774 114.022 444.962 114.074 445.194 114.074C445.43 114.074 445.618 114.022 445.758 113.918C445.902 113.814 445.974 113.674 445.974 113.498C445.974 113.322 445.902 113.182 445.758 113.078C445.618 112.97 445.43 112.916 445.194 112.916C444.962 112.916 444.774 112.97 444.63 113.078C444.486 113.182 444.414 113.322 444.414 113.498Z" fill="#AFB3C0"/>
<rect x="475.5" y="110" width="8" height="8" rx="1" fill="white"/>
<rect x="242" y="232" width="80" height="22" rx="4" fill="#EDEFFF"/>
<path d="M275.97 239.83V238.92H277.07V239.83H278.9V240.69H277.07C277.083 241.083 277.263 241.437 277.61 241.75C277.963 242.057 278.453 242.277 279.08 242.41L278.65 243.25C278.156 243.15 277.73 242.987 277.37 242.76C277.016 242.527 276.74 242.25 276.54 241.93C276.346 242.283 276.066 242.587 275.7 242.84C275.34 243.087 274.9 243.267 274.38 243.38L273.93 242.53C274.576 242.397 275.076 242.163 275.43 241.83C275.783 241.497 275.966 241.117 275.98 240.69H274.15V239.83H275.97ZM273.6 243.85C274.74 243.85 275.77 243.833 276.69 243.8C277.61 243.767 278.49 243.693 279.33 243.58L279.4 244.38C278.64 244.507 277.863 244.597 277.07 244.65V247.54H275.97V244.71C275.256 244.737 274.51 244.75 273.73 244.75L273.6 243.85ZM279.88 238.9H280.98V247.81H279.88V238.9ZM285.78 245.81V243.76H286.88V245.81H290.4V246.71H282.34V245.81H285.78ZM282.58 243.06C283.18 242.96 283.72 242.76 284.2 242.46C284.687 242.16 285.067 241.8 285.34 241.38C285.613 240.96 285.75 240.53 285.75 240.09V239.43H286.91V240.09C286.91 240.537 287.047 240.97 287.32 241.39C287.593 241.81 287.973 242.17 288.46 242.47C288.947 242.763 289.49 242.96 290.09 243.06L289.62 243.99C288.873 243.843 288.21 243.567 287.63 243.16C287.057 242.747 286.623 242.25 286.33 241.67C286.037 242.25 285.597 242.747 285.01 243.16C284.43 243.567 283.77 243.843 283.03 243.99L282.58 243.06Z" fill="#6478FF"/>
<rect x="327" y="232" width="80" height="22" rx="4" fill="#6478FF"/>
<path d="M354.997 240.87V238.91H356.097V245.51H354.997V241.77H353.257V240.87H354.997ZM348.667 243.49C349.347 243.25 349.874 242.853 350.247 242.3C350.621 241.747 350.807 241.133 350.807 240.46V239.44H351.917V240.47C351.917 241.09 352.094 241.657 352.447 242.17C352.807 242.683 353.314 243.06 353.967 243.3L353.387 244.14C352.921 243.96 352.517 243.707 352.177 243.38C351.837 243.047 351.574 242.66 351.387 242.22C351.194 242.713 350.914 243.147 350.547 243.52C350.187 243.887 349.754 244.167 349.247 244.36L348.667 243.49ZM350.267 244.82H351.367V246.75H356.297V247.63H350.267V244.82ZM361.247 239.52V240.4H358.827V241.28H361.157V242.11H358.827V243.04C359.394 243.033 359.877 243.017 360.277 242.99C360.684 242.963 361.094 242.913 361.507 242.84L361.607 243.72C361.134 243.807 360.661 243.863 360.187 243.89C359.721 243.917 359.117 243.93 358.377 243.93H357.777V239.52H361.247ZM358.927 244.74H364.987V247.81H363.897V245.62H358.927V244.74ZM362.027 239.07H363.047V241.14H363.947V238.9H364.987V244.32H363.947V242.03H363.047V244.27H362.027V239.07ZM371.162 239.28C371.589 239.28 371.969 239.357 372.302 239.51C372.636 239.657 372.896 239.867 373.082 240.14C373.269 240.407 373.362 240.717 373.362 241.07C373.362 241.517 373.212 241.893 372.912 242.2C372.612 242.507 372.216 242.707 371.722 242.8V243.54C372.496 243.5 373.216 243.43 373.882 243.33L373.962 244.12C373.156 244.273 372.316 244.373 371.442 244.42C370.569 244.46 369.619 244.48 368.592 244.48L368.462 243.61C369.382 243.61 370.102 243.6 370.622 243.58V242.81C370.116 242.717 369.709 242.517 369.402 242.21C369.102 241.897 368.952 241.517 368.952 241.07C368.952 240.717 369.046 240.407 369.232 240.14C369.419 239.867 369.679 239.657 370.012 239.51C370.352 239.357 370.736 239.28 371.162 239.28ZM369.672 245.12H370.782V246.74H375.792V247.63H369.672V245.12ZM369.972 241.07C369.972 241.37 370.079 241.607 370.292 241.78C370.512 241.947 370.802 242.03 371.162 242.03C371.516 242.03 371.799 241.943 372.012 241.77C372.232 241.597 372.342 241.363 372.342 241.07C372.342 240.777 372.232 240.543 372.012 240.37C371.799 240.197 371.516 240.11 371.162 240.11C370.802 240.11 370.512 240.197 370.292 240.37C370.079 240.543 369.972 240.777 369.972 241.07ZM374.382 238.91H375.482V241.78H376.682V242.68H375.482V245.7H374.382V238.91ZM379.353 245.88V244.39H378.193V241.49H383.263V240.38H378.173V239.51H384.353V242.35H379.273V243.51H384.553V244.39H383.253V245.88H385.293V246.77H377.233V245.88H379.353ZM382.183 245.88V244.39H380.433V245.88H382.183Z" fill="white"/>
</g>
<defs>
<filter id="filter0_d_2688_13125" x="115" y="14" width="419" height="280" filterUnits="userSpaceOnUse" color-interpolation-filters="sRGB">
<feFlood flood-opacity="0" result="BackgroundImageFix"/>
<feColorMatrix in="SourceAlpha" type="matrix" values="0 0 0 0 0 0 0 0 0 0 0 0 0 0 0 0 0 0 127 0" result="hardAlpha"/>
<feOffset dy="4"/>
<feGaussianBlur stdDeviation="8"/>
<feComposite in2="hardAlpha" operator="out"/>
<feColorMatrix type="matrix" values="0 0 0 0 0 0 0 0 0 0 0 0 0 0 0 0 0 0 0.05 0"/>
<feBlend mode="normal" in2="BackgroundImageFix" result="effect1_dropShadow_2688_13125"/>
<feBlend mode="normal" in="SourceGraphic" in2="effect1_dropShadow_2688_13125" result="shape"/>
</filter>
<linearGradient id="paint0_linear_2688_13125" x1="325" y1="0" x2="325" y2="300" gradientUnits="userSpaceOnUse">
<stop stop-color="#EDEFFF"/>
<stop offset="1" stop-color="#E2E5FF"/>
</linearGradient>
</defs>
</svg>
