<svg width="648" height="300" viewBox="0 0 648 300" fill="none" xmlns="http://www.w3.org/2000/svg">
<g clip-path="url(#clip0_2688_13154)">
<rect width="648" height="300" rx="8" fill="url(#paint0_radial_2688_13154)"/>
<rect x="30" y="20" width="96" height="44" rx="22" fill="#93A1FF"/>
<path d="M73.934 40.45V38.704H70.334C69.83 39.964 69.002 41.044 67.85 41.944C66.71 42.832 65.27 43.522 63.53 44.014L62.756 42.448C64.592 41.956 66.014 41.254 67.022 40.342C68.03 39.43 68.606 38.362 68.75 37.138H63.602V35.554H70.892C70.892 36.13 70.85 36.652 70.766 37.12H73.934V34.42H75.914V43.798H73.934V42.034H70.154V40.45H73.934ZM65.276 47.182C65.276 46.534 65.492 45.97 65.924 45.49C66.368 45.01 66.992 44.644 67.796 44.392C68.612 44.128 69.56 43.996 70.64 43.996C71.72 43.996 72.662 44.128 73.466 44.392C74.27 44.644 74.894 45.01 75.338 45.49C75.782 45.97 76.004 46.534 76.004 47.182C76.004 47.83 75.782 48.394 75.338 48.874C74.894 49.354 74.264 49.72 73.448 49.972C72.644 50.236 71.708 50.368 70.64 50.368C69.56 50.368 68.612 50.236 67.796 49.972C66.992 49.72 66.368 49.354 65.924 48.874C65.492 48.394 65.276 47.83 65.276 47.182ZM67.238 47.182C67.238 47.71 67.538 48.118 68.138 48.406C68.738 48.694 69.572 48.838 70.64 48.838C71.708 48.838 72.542 48.694 73.142 48.406C73.754 48.118 74.06 47.71 74.06 47.182C74.06 46.654 73.76 46.246 73.16 45.958C72.56 45.67 71.72 45.526 70.64 45.526C69.572 45.526 68.738 45.67 68.138 45.958C67.538 46.246 67.238 46.654 67.238 47.182ZM92.0064 34.42V50.44H90.1344V34.42H92.0064ZM78.0564 45.922C79.1484 45.238 79.9644 44.254 80.5044 42.97C81.0564 41.686 81.3324 40.294 81.3324 38.794V37.75H78.5784V36.13H85.7964V37.75H83.2584V38.794C83.2584 40.246 83.5224 41.578 84.0504 42.79C84.5784 44.002 85.3824 44.926 86.4624 45.562L85.2924 46.984C83.9004 46.144 82.9044 44.74 82.3044 42.772C82.0284 43.792 81.6324 44.698 81.1164 45.49C80.6004 46.282 79.9764 46.912 79.2444 47.38L78.0564 45.922ZM84.6264 40.018H86.9124V34.726H88.7484V49.684H86.9124V41.62H84.6264V40.018Z" fill="white"/>
<rect x="194" y="20" width="96" height="44" rx="22" fill="#93A1FF"/>
<path d="M230.356 35.842V34.366H232.318V35.842H235.63V37.408H232.318V37.588C232.318 38.38 232.66 39.106 233.344 39.766C234.04 40.414 234.988 40.876 236.188 41.152L235.36 42.646C234.436 42.43 233.638 42.1 232.966 41.656C232.294 41.2 231.766 40.654 231.382 40.018C231.01 40.726 230.482 41.332 229.798 41.836C229.114 42.34 228.298 42.706 227.35 42.934L226.486 41.404C227.71 41.116 228.658 40.624 229.33 39.928C230.014 39.232 230.356 38.452 230.356 37.588V37.408H227.044V35.842H230.356ZM229.42 43.438H239.896V47.542H231.418V48.802H240.418V50.314H229.456V46.12H237.952V44.95H229.42V43.438ZM235.198 38.254H237.934V34.438H239.896V42.772H237.934V39.838H235.198V38.254ZM246.088 35.932V34.33H248.068V35.932H251.794V37.516H242.362V35.932H246.088ZM243.19 41.08C243.19 40.504 243.352 39.994 243.676 39.55C244 39.094 244.456 38.746 245.044 38.506C245.644 38.254 246.322 38.128 247.078 38.128C247.834 38.128 248.506 38.254 249.094 38.506C249.694 38.746 250.156 39.094 250.48 39.55C250.816 39.994 250.984 40.504 250.984 41.08C250.984 41.656 250.816 42.166 250.48 42.61C250.156 43.042 249.694 43.384 249.094 43.636C248.506 43.876 247.834 43.996 247.078 43.996C246.322 43.996 245.644 43.876 245.044 43.636C244.456 43.384 244 43.042 243.676 42.61C243.352 42.166 243.19 41.656 243.19 41.08ZM244.306 45.202H254.872V50.458H252.892V46.786H244.306V45.202ZM245.08 41.08C245.08 41.512 245.26 41.86 245.62 42.124C245.992 42.376 246.478 42.502 247.078 42.502C247.678 42.502 248.158 42.376 248.518 42.124C248.89 41.86 249.076 41.512 249.076 41.08C249.076 40.624 248.89 40.27 248.518 40.018C248.158 39.766 247.678 39.64 247.078 39.64C246.478 39.64 245.992 39.766 245.62 40.018C245.26 40.27 245.08 40.624 245.08 41.08ZM252.892 34.438H254.872V38.668H257.104V40.288H254.872V44.464H252.892V34.438Z" fill="white"/>
<rect x="358" y="20" width="96" height="44" rx="22" fill="#93A1FF"/>
<path d="M396.3 35.734V38.254C396.3 39.214 396.45 40.156 396.75 41.08C397.062 42.004 397.506 42.832 398.082 43.564C398.658 44.284 399.348 44.842 400.152 45.238L398.946 46.804C398.106 46.372 397.38 45.76 396.768 44.968C396.156 44.176 395.676 43.258 395.328 42.214C394.968 43.33 394.464 44.314 393.816 45.166C393.168 46.018 392.4 46.666 391.512 47.11L390.324 45.508C391.152 45.112 391.866 44.536 392.466 43.78C393.078 43.012 393.54 42.148 393.852 41.188C394.176 40.228 394.338 39.25 394.338 38.254V35.734H396.3ZM401.07 34.438H403.068V40.72H405.516V42.376H403.068V50.458H401.07V34.438ZM419.556 34.438V50.458H417.594V34.438H419.556ZM406.416 46.012C408.192 46.012 409.578 46 410.574 45.976V44.482C409.674 44.338 408.96 44.008 408.432 43.492C407.904 42.964 407.64 42.322 407.64 41.566C407.64 40.978 407.802 40.456 408.126 40C408.462 39.544 408.924 39.196 409.512 38.956C410.112 38.704 410.796 38.578 411.564 38.578C412.332 38.578 413.016 38.704 413.616 38.956C414.216 39.196 414.678 39.544 415.002 40C415.338 40.456 415.506 40.978 415.506 41.566C415.506 42.322 415.236 42.964 414.696 43.492C414.168 44.008 413.454 44.338 412.554 44.482V45.904C414.138 45.82 415.518 45.7 416.694 45.544L416.82 46.966C415.272 47.254 413.688 47.44 412.068 47.524C410.46 47.596 408.654 47.632 406.65 47.632L406.416 46.012ZM406.722 36.274H410.574V34.474H412.554V36.274H416.406V37.822H406.722V36.274ZM409.512 41.566C409.512 42.022 409.698 42.388 410.07 42.664C410.454 42.928 410.952 43.06 411.564 43.06C412.188 43.06 412.686 42.928 413.058 42.664C413.43 42.4 413.616 42.034 413.616 41.566C413.616 41.098 413.43 40.732 413.058 40.468C412.686 40.204 412.188 40.072 411.564 40.072C410.952 40.072 410.454 40.21 410.07 40.486C409.698 40.75 409.512 41.11 409.512 41.566Z" fill="white"/>
<rect x="522" y="20" width="96" height="44" rx="22" fill="#93A1FF"/>
<path d="M569.102 42.466V44.032H563V46.948H561.02V44.032H554.594V42.466H569.102ZM556.34 45.508H558.32V48.568H567.5V50.152H556.34V45.508ZM556.412 35.14H567.248V40.972H556.412V35.14ZM565.304 39.388V36.688H558.356V39.388H565.304ZM574.088 35.932V34.33H576.068V35.932H579.794V37.516H570.362V35.932H574.088ZM571.19 41.08C571.19 40.504 571.352 39.994 571.676 39.55C572 39.094 572.456 38.746 573.044 38.506C573.644 38.254 574.322 38.128 575.078 38.128C575.834 38.128 576.506 38.254 577.094 38.506C577.694 38.746 578.156 39.094 578.48 39.55C578.816 39.994 578.984 40.504 578.984 41.08C578.984 41.656 578.816 42.166 578.48 42.61C578.156 43.042 577.694 43.384 577.094 43.636C576.506 43.876 575.834 43.996 575.078 43.996C574.322 43.996 573.644 43.876 573.044 43.636C572.456 43.384 572 43.042 571.676 42.61C571.352 42.166 571.19 41.656 571.19 41.08ZM572.306 45.202H582.872V50.458H580.892V46.786H572.306V45.202ZM573.08 41.08C573.08 41.512 573.26 41.86 573.62 42.124C573.992 42.376 574.478 42.502 575.078 42.502C575.678 42.502 576.158 42.376 576.518 42.124C576.89 41.86 577.076 41.512 577.076 41.08C577.076 40.624 576.89 40.27 576.518 40.018C576.158 39.766 575.678 39.64 575.078 39.64C574.478 39.64 573.992 39.766 573.62 40.018C573.26 40.27 573.08 40.624 573.08 41.08ZM580.892 34.438H582.872V38.668H585.104V40.288H582.872V44.464H580.892V34.438Z" fill="white"/>
<g filter="url(#filter0_d_2688_13154)">
<rect x="19" y="87" width="196" height="213" fill="white"/>
</g>
<path d="M43.504 122.128V118.496C42.928 118.165 42.4853 117.749 42.176 117.248C41.8667 116.747 41.712 116.187 41.712 115.568C41.712 114.821 41.936 114.165 42.384 113.6C42.8427 113.024 43.4667 112.581 44.256 112.272C45.056 111.963 45.9627 111.808 46.976 111.808C47.9893 111.808 48.896 111.963 49.696 112.272C50.496 112.581 51.12 113.024 51.568 113.6C52.016 114.165 52.24 114.821 52.24 115.568C52.24 116.187 52.0853 116.747 51.776 117.248C51.4667 117.749 51.0293 118.165 50.464 118.496V122.128H53.44V123.552H40.544V122.128H43.504ZM43.44 115.568C43.44 116.304 43.76 116.885 44.4 117.312C45.0507 117.739 45.9093 117.952 46.976 117.952C48.0427 117.952 48.896 117.739 49.536 117.312C50.1867 116.885 50.512 116.304 50.512 115.568C50.512 114.843 50.1867 114.267 49.536 113.84C48.8853 113.403 48.032 113.184 46.976 113.184C45.92 113.184 45.0667 113.403 44.416 113.84C43.7653 114.267 43.44 114.843 43.44 115.568ZM48.704 122.128V119.152C48.1493 119.269 47.5733 119.328 46.976 119.328C46.3893 119.328 45.8187 119.269 45.264 119.152V122.128H48.704ZM65.6644 111.056V113.024H67.5844V114.48H65.6644V116.096H67.5844V117.536H65.6644V119.472H63.9044V111.056H65.6644ZM54.6884 115.296C54.6884 114.635 54.8537 114.043 55.1844 113.52C55.515 112.997 55.9684 112.592 56.5444 112.304C57.1204 112.005 57.771 111.856 58.4964 111.856C59.211 111.856 59.8564 112.005 60.4324 112.304C61.019 112.592 61.4777 112.997 61.8084 113.52C62.139 114.043 62.3044 114.635 62.3044 115.296C62.3044 115.957 62.139 116.549 61.8084 117.072C61.4777 117.595 61.019 118.005 60.4324 118.304C59.8564 118.592 59.211 118.736 58.4964 118.736C57.771 118.736 57.1204 118.592 56.5444 118.304C55.9684 118.005 55.515 117.595 55.1844 117.072C54.8537 116.549 54.6884 115.957 54.6884 115.296ZM56.2724 120.08H65.6644V125.296H63.9044V121.488H56.2724V120.08ZM56.4004 115.296C56.4004 115.893 56.5977 116.373 56.9924 116.736C57.387 117.088 57.8884 117.264 58.4964 117.264C59.1044 117.264 59.6057 117.088 60.0004 116.736C60.395 116.373 60.5924 115.893 60.5924 115.296C60.5924 114.709 60.395 114.24 60.0004 113.888C59.6057 113.525 59.1044 113.344 58.4964 113.344C57.8884 113.344 57.387 113.525 56.9924 113.888C56.5977 114.24 56.4004 114.709 56.4004 115.296ZM84.3443 111.04V125.28H82.6803V111.04H84.3443ZM71.9443 121.264C72.9149 120.656 73.6403 119.781 74.1203 118.64C74.6109 117.499 74.8563 116.261 74.8563 114.928V114H72.4083V112.56H78.8243V114H76.5683V114.928C76.5683 116.219 76.8029 117.403 77.2723 118.48C77.7416 119.557 78.4563 120.379 79.4163 120.944L78.3763 122.208C77.1389 121.461 76.2536 120.213 75.7203 118.464C75.4749 119.371 75.1229 120.176 74.6643 120.88C74.2056 121.584 73.6509 122.144 73.0003 122.56L71.9443 121.264ZM77.7843 116.016H79.8163V111.312H81.4483V124.608H79.8163V117.44H77.7843V116.016ZM91.5126 112.208V114.448C91.5126 115.333 91.6566 116.192 91.9446 117.024C92.2326 117.856 92.6486 118.597 93.1926 119.248C93.7473 119.888 94.398 120.373 95.1446 120.704L94.1206 122.128C93.31 121.755 92.6113 121.211 92.0246 120.496C91.438 119.771 90.9793 118.933 90.6486 117.984C90.318 119.008 89.8486 119.909 89.2406 120.688C88.6433 121.456 87.9233 122.037 87.0806 122.432L86.0246 120.976C86.782 120.635 87.438 120.128 87.9926 119.456C88.558 118.784 88.99 118.016 89.2886 117.152C89.5873 116.277 89.7366 115.376 89.7366 114.448V112.208H91.5126ZM96.1526 111.024H97.9126V125.312H96.1526V111.024Z" fill="#2D333F"/>
<path d="M40 149.5H190" stroke="#E2E4E8" stroke-width="8" stroke-linecap="round"/>
<path d="M40 173.5H159" stroke="#E2E4E8" stroke-width="8" stroke-linecap="round"/>
<path d="M40 197.5H190" stroke="#E2E4E8" stroke-width="8" stroke-linecap="round"/>
<path d="M40 221.5H190" stroke="#E2E4E8" stroke-width="8" stroke-linecap="round"/>
<path d="M40 245.5H146" stroke="#E2E4E8" stroke-width="8" stroke-linecap="round"/>
<path d="M40 269.5H190" stroke="#E2E4E8" stroke-width="8" stroke-linecap="round"/>
<g filter="url(#filter1_d_2688_13154)">
<rect x="226" y="87" width="196" height="213" fill="white"/>
</g>
<path d="M259.688 111.04V125.28H258.024V111.04H259.688ZM247.288 121.264C248.259 120.656 248.984 119.781 249.464 118.64C249.955 117.499 250.2 116.261 250.2 114.928V114H247.752V112.56H254.168V114H251.912V114.928C251.912 116.219 252.147 117.403 252.616 118.48C253.085 119.557 253.8 120.379 254.76 120.944L253.72 122.208C252.483 121.461 251.597 120.213 251.064 118.464C250.819 119.371 250.467 120.176 250.008 120.88C249.549 121.584 248.995 122.144 248.344 122.56L247.288 121.264ZM253.128 116.016H255.16V111.312H256.792V124.608H255.16V117.44H253.128V116.016ZM266.856 112.208V114.448C266.856 115.333 267 116.192 267.288 117.024C267.576 117.856 267.992 118.597 268.536 119.248C269.091 119.888 269.742 120.373 270.488 120.704L269.464 122.128C268.654 121.755 267.955 121.211 267.368 120.496C266.782 119.771 266.323 118.933 265.992 117.984C265.662 119.008 265.192 119.909 264.584 120.688C263.987 121.456 263.267 122.037 262.424 122.432L261.368 120.976C262.126 120.635 262.782 120.128 263.336 119.456C263.902 118.784 264.334 118.016 264.632 117.152C264.931 116.277 265.08 115.376 265.08 114.448V112.208H266.856ZM271.496 111.024H273.256V125.312H271.496V111.024ZM288.393 118.192V119.584H282.969V122.176H281.209V119.584H275.497V118.192H288.393ZM277.049 120.896H278.809V123.616H286.969V125.024H277.049V120.896ZM277.113 111.68H286.745V116.864H277.113V111.68ZM285.017 115.456V113.056H278.841V115.456H285.017ZM306.065 118.432V119.824H300.641V122.272H298.881V119.824H293.169V118.432H306.065ZM294.721 121.12H296.465V123.6H304.641V125.024H294.721V121.12ZM294.849 111.488H296.593V113.088H302.641V111.488H304.401V117.296H294.849V111.488ZM302.641 115.904V114.416H296.593V115.904H302.641ZM320.065 119.456V120.848H316.945V125.296H315.201V120.848H312.033V125.296H310.273V120.848H307.169V119.456H320.065ZM308.673 111.552H318.545V115.504H310.481V116.864H318.881V118.272H308.689V114.208H316.769V112.944H308.673V111.552Z" fill="#2D333F"/>
<path d="M247 149.5H397" stroke="#E2E4E8" stroke-width="8" stroke-linecap="round"/>
<path d="M247 173.5H397" stroke="#E2E4E8" stroke-width="8" stroke-linecap="round"/>
<path d="M247 197.5H397" stroke="#E2E4E8" stroke-width="8" stroke-linecap="round"/>
<path d="M247 221.5H300" stroke="#E2E4E8" stroke-width="8" stroke-linecap="round"/>
<path d="M247 245.5H397" stroke="#E2E4E8" stroke-width="8" stroke-linecap="round"/>
<path d="M247 269.5H397" stroke="#E2E4E8" stroke-width="8" stroke-linecap="round"/>
<g filter="url(#filter2_d_2688_13154)">
<rect x="433" y="87" width="196" height="213" fill="white"/>
</g>
<path d="M466.288 111.024V125.312H464.528V111.024H466.288ZM455.28 112.208H457.024V115.776H460.432V112.208H462.16V121.936H455.28V112.208ZM460.432 120.528V117.152H457.024V120.528H460.432ZM480.112 112.336V113.792C480.112 114.997 480.08 116.069 480.016 117.008C479.963 117.947 479.824 119.035 479.6 120.272L477.872 120.096C478.086 118.933 478.219 117.888 478.272 116.96C478.326 116.032 478.352 114.976 478.352 113.792V113.76H469.792V112.336H480.112ZM468.528 122.016H471.408V117.456H473.136V122.016H474.928V117.456H476.656V122.016H481.408V123.456H468.528V122.016ZM484.417 124.912H482.705L486.129 111.632H487.825L484.417 124.912ZM501.579 111.04V125.28H499.899V118.048H498.347V124.576H496.715V111.328H498.347V116.608H499.899V111.04H501.579ZM489.867 112.736H495.115V114.16H491.595V120.512C493.152 120.491 494.56 120.363 495.819 120.128L495.979 121.568C495.168 121.728 494.374 121.835 493.595 121.888C492.816 121.941 491.894 121.968 490.827 121.968H489.867V112.736ZM508.971 122.128V118.864H510.731V122.128H516.299V123.568H503.403V122.128H508.971ZM503.947 118.048C504.886 117.899 505.729 117.605 506.475 117.168C507.233 116.72 507.825 116.187 508.251 115.568C508.689 114.939 508.913 114.288 508.923 113.616H504.475V112.208H515.195V113.616H510.747C510.758 114.288 510.982 114.933 511.419 115.552C511.857 116.171 512.454 116.693 513.211 117.12C513.979 117.547 514.838 117.835 515.787 117.984L515.099 119.376C513.894 119.152 512.833 118.736 511.915 118.128C510.998 117.52 510.31 116.773 509.851 115.888C509.393 116.784 508.705 117.541 507.787 118.16C506.881 118.779 505.835 119.205 504.651 119.44L503.947 118.048Z" fill="#2D333F"/>
<path d="M454 149.5H604" stroke="#E2E4E8" stroke-width="8" stroke-linecap="round"/>
<path d="M454 173.5H521" stroke="#E2E4E8" stroke-width="8" stroke-linecap="round"/>
<path d="M454 197.5H604" stroke="#E2E4E8" stroke-width="8" stroke-linecap="round"/>
<path d="M454 221.5H604" stroke="#E2E4E8" stroke-width="8" stroke-linecap="round"/>
<path d="M454 245.5H566" stroke="#E2E4E8" stroke-width="8" stroke-linecap="round"/>
<path d="M454 269.5H604" stroke="#E2E4E8" stroke-width="8" stroke-linecap="round"/>
</g>
<defs>
<filter id="filter0_d_2688_13154" x="7" y="79" width="220" height="237" filterUnits="userSpaceOnUse" color-interpolation-filters="sRGB">
<feFlood flood-opacity="0" result="BackgroundImageFix"/>
<feColorMatrix in="SourceAlpha" type="matrix" values="0 0 0 0 0 0 0 0 0 0 0 0 0 0 0 0 0 0 127 0" result="hardAlpha"/>
<feOffset dy="4"/>
<feGaussianBlur stdDeviation="6"/>
<feComposite in2="hardAlpha" operator="out"/>
<feColorMatrix type="matrix" values="0 0 0 0 0 0 0 0 0 0 0 0 0 0 0 0 0 0 0.09 0"/>
<feBlend mode="normal" in2="BackgroundImageFix" result="effect1_dropShadow_2688_13154"/>
<feBlend mode="normal" in="SourceGraphic" in2="effect1_dropShadow_2688_13154" result="shape"/>
</filter>
<filter id="filter1_d_2688_13154" x="214" y="79" width="220" height="237" filterUnits="userSpaceOnUse" color-interpolation-filters="sRGB">
<feFlood flood-opacity="0" result="BackgroundImageFix"/>
<feColorMatrix in="SourceAlpha" type="matrix" values="0 0 0 0 0 0 0 0 0 0 0 0 0 0 0 0 0 0 127 0" result="hardAlpha"/>
<feOffset dy="4"/>
<feGaussianBlur stdDeviation="6"/>
<feComposite in2="hardAlpha" operator="out"/>
<feColorMatrix type="matrix" values="0 0 0 0 0 0 0 0 0 0 0 0 0 0 0 0 0 0 0.09 0"/>
<feBlend mode="normal" in2="BackgroundImageFix" result="effect1_dropShadow_2688_13154"/>
<feBlend mode="normal" in="SourceGraphic" in2="effect1_dropShadow_2688_13154" result="shape"/>
</filter>
<filter id="filter2_d_2688_13154" x="421" y="79" width="220" height="237" filterUnits="userSpaceOnUse" color-interpolation-filters="sRGB">
<feFlood flood-opacity="0" result="BackgroundImageFix"/>
<feColorMatrix in="SourceAlpha" type="matrix" values="0 0 0 0 0 0 0 0 0 0 0 0 0 0 0 0 0 0 127 0" result="hardAlpha"/>
<feOffset dy="4"/>
<feGaussianBlur stdDeviation="6"/>
<feComposite in2="hardAlpha" operator="out"/>
<feColorMatrix type="matrix" values="0 0 0 0 0 0 0 0 0 0 0 0 0 0 0 0 0 0 0.09 0"/>
<feBlend mode="normal" in2="BackgroundImageFix" result="effect1_dropShadow_2688_13154"/>
<feBlend mode="normal" in="SourceGraphic" in2="effect1_dropShadow_2688_13154" result="shape"/>
</filter>
<radialGradient id="paint0_radial_2688_13154" cx="0" cy="0" r="1" gradientUnits="userSpaceOnUse" gradientTransform="translate(310.5 249) rotate(-36.1086) scale(233.321 268.245)">
<stop stop-color="#D4D9FF"/>
<stop offset="1" stop-color="#EDEFFF"/>
</radialGradient>
<clipPath id="clip0_2688_13154">
<rect width="648" height="300" rx="8" fill="white"/>
</clipPath>
</defs>
</svg>
