<svg width="648" height="300" viewBox="0 0 648 300" fill="none" xmlns="http://www.w3.org/2000/svg">
<g clip-path="url(#clip0_2688_13246)">
<rect width="648" height="300" rx="8" fill="url(#paint0_radial_2688_13246)"/>
<g filter="url(#filter0_d_2688_13246)">
<mask id="path-3-outside-1_2688_13246" maskUnits="userSpaceOnUse" x="159" y="0" width="336" height="300" fill="black">
<rect fill="white" x="159" width="336" height="300"/>
<path d="M169 0H485V300H169V0Z"/>
</mask>
<path d="M169 0H485V300H169V0Z" fill="#FDFDFD"/>
<path d="M475 0V300H495V0H475ZM179 300V0H159V300H179Z" fill="#5A6072" mask="url(#path-3-outside-1_2688_13246)"/>
</g>
<path d="M295 28C295 23.5817 298.582 20 303 20H457C461.418 20 465 23.5817 465 28V68H303C298.582 68 295 64.4183 295 60V28Z" fill="#6478FF"/>
<path d="M327.827 32.8V30.352H328.871V38.236H327.827V33.664H325.583V32.8H327.827ZM320.159 35.932C320.951 35.636 321.583 35.152 322.055 34.48C322.535 33.808 322.775 33.068 322.775 32.26V30.976H323.819V32.284C323.819 33.02 324.051 33.704 324.515 34.336C324.979 34.96 325.591 35.416 326.351 35.704L325.799 36.508C325.231 36.284 324.731 35.96 324.299 35.536C323.875 35.104 323.547 34.608 323.315 34.048C323.091 34.672 322.755 35.22 322.307 35.692C321.859 36.156 321.327 36.512 320.711 36.76L320.159 35.932ZM322.055 37.372H323.087V39.832H329.123V40.672H322.055V37.372ZM333.815 30.988V32.38C333.815 32.98 334.003 33.548 334.379 34.084C334.755 34.612 335.271 35.004 335.927 35.26L335.387 36.052C334.907 35.868 334.491 35.604 334.139 35.26C333.795 34.908 333.523 34.5 333.323 34.036C333.131 34.548 332.851 35.008 332.483 35.416C332.123 35.824 331.691 36.136 331.187 36.352L330.635 35.548C331.083 35.348 331.471 35.08 331.799 34.744C332.135 34.4 332.387 34.024 332.555 33.616C332.731 33.2 332.819 32.788 332.819 32.38V30.988H333.815ZM332.531 38.98C332.531 38.388 332.847 37.924 333.479 37.588C334.111 37.252 334.975 37.084 336.071 37.084C337.167 37.084 338.031 37.252 338.663 37.588C339.295 37.924 339.611 38.388 339.611 38.98C339.611 39.58 339.295 40.048 338.663 40.384C338.031 40.72 337.167 40.888 336.071 40.888C334.975 40.888 334.111 40.72 333.479 40.384C332.847 40.048 332.531 39.58 332.531 38.98ZM333.563 38.98C333.563 39.324 333.783 39.596 334.223 39.796C334.671 39.996 335.287 40.096 336.071 40.096C336.847 40.096 337.455 40 337.895 39.808C338.343 39.608 338.567 39.332 338.567 38.98C338.567 38.636 338.347 38.368 337.907 38.176C337.467 37.984 336.855 37.888 336.071 37.888C335.287 37.888 334.671 37.984 334.223 38.176C333.783 38.368 333.563 38.636 333.563 38.98ZM336.311 30.556H337.283V33.148H338.567V30.352H339.563V36.856H338.567V34H337.283V36.52H336.311V30.556ZM349.811 30.34V36.316H348.767V30.34H349.811ZM341.795 30.952H342.827V34.684C343.739 34.676 344.579 34.64 345.347 34.576C346.115 34.504 346.883 34.384 347.651 34.216L347.807 35.08C346.959 35.256 346.127 35.38 345.311 35.452C344.495 35.524 343.611 35.56 342.659 35.56H341.795V30.952ZM342.959 36.808H349.811V40.756H342.959V36.808ZM348.791 39.916V37.648H343.979V39.916H348.791ZM353.604 37.84H352.668L352.488 31.204H353.76L353.604 37.84ZM352.488 39.544C352.488 39.352 352.548 39.196 352.668 39.076C352.796 38.956 352.956 38.896 353.148 38.896C353.332 38.896 353.484 38.956 353.604 39.076C353.724 39.196 353.784 39.352 353.784 39.544C353.784 39.736 353.724 39.892 353.604 40.012C353.484 40.14 353.332 40.204 353.148 40.204C352.956 40.204 352.796 40.14 352.668 40.012C352.548 39.892 352.488 39.736 352.488 39.544ZM367.844 35.728V36.568H363.668V38.656H362.624V36.568H358.28V35.728H367.844ZM359.48 37.648H360.524V39.844H366.788V40.684H359.48V37.648ZM359.504 30.844H366.608V34.576H359.504V30.844ZM365.588 33.736V31.66H360.524V33.736H365.588ZM377.744 30.34V40.9H376.748V30.34H377.744ZM368.636 38.044C369.348 37.604 369.9 36.952 370.292 36.088C370.692 35.224 370.892 34.296 370.892 33.304V32.416H368.924V31.552H373.736V32.416H371.9V33.304C371.9 34.248 372.092 35.132 372.476 35.956C372.86 36.772 373.404 37.388 374.108 37.804L373.484 38.56C372.996 38.264 372.576 37.856 372.224 37.336C371.872 36.808 371.6 36.208 371.408 35.536C371.216 36.264 370.94 36.912 370.58 37.48C370.22 38.048 369.784 38.492 369.272 38.812L368.636 38.044ZM372.944 34.12H374.636V30.58H375.608V40.372H374.636V34.972H372.944V34.12ZM386.69 35.524C387.066 35.748 387.362 36.052 387.578 36.436C387.794 36.812 387.902 37.184 387.902 37.552C387.902 38.04 387.782 38.476 387.542 38.86C387.302 39.244 386.966 39.544 386.534 39.76C386.102 39.976 385.61 40.084 385.058 40.084C384.506 40.084 384.014 39.976 383.582 39.76C383.15 39.544 382.814 39.244 382.574 38.86C382.334 38.468 382.214 38.024 382.214 37.528H383.21C383.21 38.016 383.382 38.416 383.726 38.728C384.07 39.04 384.514 39.196 385.058 39.196C385.602 39.196 386.046 39.044 386.39 38.74C386.742 38.428 386.918 38.028 386.918 37.54C386.918 37.076 386.746 36.696 386.402 36.4C386.058 36.104 385.618 35.956 385.082 35.956H384.446V35.068H385.082C385.586 35.068 385.998 34.936 386.318 34.672C386.638 34.4 386.798 34.052 386.798 33.628C386.798 33.188 386.642 32.832 386.33 32.56C386.018 32.28 385.618 32.14 385.13 32.14C384.642 32.14 384.242 32.28 383.93 32.56C383.618 32.84 383.462 33.204 383.462 33.652H382.466C382.466 33.188 382.578 32.776 382.802 32.416C383.026 32.048 383.338 31.764 383.738 31.564C384.146 31.356 384.61 31.252 385.13 31.252C385.642 31.252 386.098 31.352 386.498 31.552C386.898 31.752 387.21 32.032 387.434 32.392C387.666 32.752 387.782 33.16 387.782 33.616C387.782 33.96 387.682 34.308 387.482 34.66C387.29 35.012 387.026 35.3 386.69 35.524ZM392.403 31.096C392.947 31.096 393.431 31.204 393.855 31.42C394.287 31.628 394.623 31.924 394.863 32.308C395.111 32.684 395.235 33.116 395.235 33.604C395.235 34.092 395.111 34.528 394.863 34.912C394.623 35.288 394.287 35.584 393.855 35.8C393.431 36.008 392.947 36.112 392.403 36.112C391.859 36.112 391.371 36.008 390.939 35.8C390.507 35.584 390.167 35.288 389.919 34.912C389.679 34.528 389.559 34.092 389.559 33.604C389.559 33.116 389.679 32.684 389.919 32.308C390.167 31.924 390.507 31.628 390.939 31.42C391.371 31.204 391.859 31.096 392.403 31.096ZM389.043 37.756C390.443 37.756 391.683 37.736 392.763 37.696C393.851 37.656 394.895 37.556 395.895 37.396L395.979 38.164C394.947 38.364 393.887 38.492 392.799 38.548C391.711 38.604 390.503 38.632 389.175 38.632L389.043 37.756ZM390.567 33.604C390.567 34.076 390.739 34.464 391.083 34.768C391.435 35.064 391.875 35.212 392.403 35.212C392.931 35.212 393.367 35.064 393.711 34.768C394.055 34.464 394.227 34.076 394.227 33.604C394.227 33.132 394.055 32.748 393.711 32.452C393.367 32.148 392.931 31.996 392.403 31.996C391.867 31.996 391.427 32.148 391.083 32.452C390.739 32.748 390.567 33.132 390.567 33.604ZM396.579 30.328H397.611V40.924H396.579V30.328ZM407.865 31.42C407.865 33.124 407.501 34.628 406.773 35.932C406.045 37.236 404.785 38.328 402.993 39.208L402.429 38.392C404.245 37.504 405.497 36.34 406.185 34.9L402.645 35.236L402.477 34.324L406.509 34.06C406.669 33.548 406.777 32.952 406.833 32.272H403.017V31.42H407.865ZM409.881 30.34H410.925V40.9H409.881V30.34ZM421.437 30.34V40.912H420.393V38.356H418.041V37.54H420.393V30.34H421.437ZM412.689 35.884C414.065 35.884 415.305 35.864 416.409 35.824C417.521 35.784 418.585 35.692 419.601 35.548L419.673 36.304C418.745 36.472 417.717 36.588 416.589 36.652V40.588H415.545V36.7C414.681 36.732 413.769 36.748 412.809 36.748L412.689 35.884ZM413.457 32.956C413.457 32.54 413.569 32.176 413.793 31.864C414.017 31.544 414.329 31.3 414.729 31.132C415.137 30.956 415.601 30.868 416.121 30.868C416.641 30.868 417.097 30.956 417.489 31.132C417.889 31.3 418.201 31.544 418.425 31.864C418.649 32.176 418.761 32.54 418.761 32.956C418.761 33.372 418.649 33.736 418.425 34.048C418.201 34.36 417.889 34.604 417.489 34.78C417.097 34.948 416.641 35.032 416.121 35.032C415.601 35.032 415.137 34.948 414.729 34.78C414.329 34.604 414.017 34.36 413.793 34.048C413.569 33.736 413.457 33.372 413.457 32.956ZM414.441 32.956C414.441 33.34 414.593 33.652 414.897 33.892C415.209 34.124 415.617 34.24 416.121 34.24C416.617 34.24 417.017 34.124 417.321 33.892C417.625 33.652 417.777 33.34 417.777 32.956C417.777 32.564 417.625 32.252 417.321 32.02C417.017 31.78 416.617 31.66 416.121 31.66C415.625 31.66 415.221 31.78 414.909 32.02C414.597 32.252 414.441 32.564 414.441 32.956ZM431.59 31.3V32.152H425.458V35.38H431.698V36.22H424.426V31.3H431.59ZM423.226 38.632H432.79V39.484H423.226V38.632ZM441.862 30.328V34.588H443.506V35.464H441.862V40.9H440.806V30.328H441.862ZM433.75 38.128C435.07 37.464 436.09 36.644 436.81 35.668C437.538 34.684 437.958 33.568 438.07 32.32H434.266V31.468H439.126C439.126 33.06 438.738 34.496 437.962 35.776C437.194 37.048 435.986 38.096 434.338 38.92L433.75 38.128ZM446.836 37.6C447.5 37.6 448.24 37.588 449.056 37.564V35.824C448.48 35.728 448.016 35.48 447.664 35.08C447.312 34.672 447.136 34.176 447.136 33.592C447.136 33.152 447.236 32.76 447.436 32.416C447.644 32.072 447.928 31.808 448.288 31.624C448.656 31.432 449.072 31.336 449.536 31.336C450 31.336 450.416 31.432 450.784 31.624C451.152 31.808 451.436 32.072 451.636 32.416C451.844 32.76 451.948 33.152 451.948 33.592C451.948 34.184 451.772 34.68 451.42 35.08C451.076 35.48 450.612 35.728 450.028 35.824V37.528C450.892 37.488 451.624 37.424 452.224 37.336L452.296 38.092C450.992 38.34 449.216 38.464 446.968 38.464L446.836 37.6ZM448.084 33.592C448.084 34.016 448.216 34.356 448.48 34.612C448.752 34.868 449.104 34.996 449.536 34.996C449.96 34.996 450.308 34.868 450.58 34.612C450.852 34.356 450.988 34.016 450.988 33.592C450.988 33.176 450.852 32.836 450.58 32.572C450.308 32.308 449.96 32.176 449.536 32.176C449.112 32.176 448.764 32.308 448.492 32.572C448.22 32.836 448.084 33.176 448.084 33.592ZM452.692 30.568H453.676V34.72H454.864V30.34H455.86V40.9H454.864V35.572H453.676V40.348H452.692V30.568ZM304.955 46.604H305.675L305.279 49.028H304.211L304.955 46.604ZM312.786 47.42V48.284H310.482V49.52C310.482 50.072 310.598 50.632 310.83 51.2C311.062 51.768 311.382 52.284 311.79 52.748C312.206 53.204 312.67 53.552 313.182 53.792L312.594 54.62C312.01 54.332 311.486 53.908 311.022 53.348C310.566 52.78 310.218 52.144 309.978 51.44C309.738 52.208 309.378 52.9 308.898 53.516C308.426 54.132 307.898 54.588 307.314 54.884L306.702 54.056C307.206 53.808 307.67 53.44 308.094 52.952C308.518 52.464 308.85 51.916 309.09 51.308C309.338 50.7 309.462 50.104 309.462 49.52V48.284H307.074V47.42H312.786ZM313.974 46.352H315.018V50.588H316.722V51.452H315.018V56.912H313.974V46.352ZM318.834 46.784V48.272H321.69V46.784H322.71V51.392H317.802V46.784H318.834ZM321.69 50.552V49.076H318.834V50.552H321.69ZM318.846 52.28H325.59V54.884H319.902V55.964H325.962V56.792H318.87V54.104H324.57V53.096H318.846V52.28ZM324.546 46.352H325.59V48.596H327.114V49.448H325.59V51.776H324.546V46.352ZM335.502 49.064V46.352H336.546V52.652H335.502V49.928H333.51V49.064H335.502ZM327.87 51.68C328.39 51.496 328.846 51.228 329.238 50.876C329.638 50.524 329.946 50.12 330.162 49.664C330.386 49.208 330.498 48.736 330.498 48.248V47.9H328.182V47.048H333.834V47.9H331.542V48.248C331.542 48.696 331.646 49.132 331.854 49.556C332.062 49.972 332.358 50.348 332.742 50.684C333.134 51.012 333.586 51.264 334.098 51.44L333.558 52.268C332.982 52.052 332.478 51.74 332.046 51.332C331.614 50.924 331.282 50.448 331.05 49.904C330.818 50.512 330.474 51.044 330.018 51.5C329.562 51.948 329.026 52.28 328.41 52.496L327.87 51.68ZM329.49 53.216H336.546V56.912H335.502V54.068H329.49V53.216ZM349.32 46.352V49.016H350.868V49.892H349.32V52.484H348.276V46.352H349.32ZM341.136 47.408H343.74V46.244H344.772V47.408H347.376V48.236H341.136V47.408ZM341.724 50.552C341.724 49.992 341.956 49.544 342.42 49.208C342.884 48.864 343.496 48.692 344.256 48.692C345.016 48.692 345.628 48.864 346.092 49.208C346.556 49.544 346.788 49.992 346.788 50.552C346.788 51.112 346.556 51.564 346.092 51.908C345.628 52.244 345.016 52.412 344.256 52.412C343.496 52.412 342.884 52.244 342.42 51.908C341.956 51.564 341.724 51.112 341.724 50.552ZM342.648 52.94H343.68V54.02H348.3V52.94H349.32V56.768H342.648V52.94ZM342.708 50.552C342.708 50.872 342.848 51.132 343.128 51.332C343.416 51.532 343.792 51.632 344.256 51.632C344.712 51.632 345.08 51.532 345.36 51.332C345.648 51.132 345.792 50.872 345.792 50.552C345.792 50.232 345.648 49.972 345.36 49.772C345.08 49.572 344.712 49.472 344.256 49.472C343.792 49.472 343.416 49.572 343.128 49.772C342.848 49.972 342.708 50.232 342.708 50.552ZM348.3 55.928V54.824H343.68V55.928H348.3ZM355.009 47.096C355.553 47.096 356.037 47.204 356.461 47.42C356.893 47.628 357.229 47.924 357.469 48.308C357.717 48.684 357.841 49.116 357.841 49.604C357.841 50.092 357.717 50.528 357.469 50.912C357.229 51.288 356.893 51.584 356.461 51.8C356.037 52.008 355.553 52.112 355.009 52.112C354.465 52.112 353.977 52.008 353.545 51.8C353.113 51.584 352.773 51.288 352.525 50.912C352.285 50.528 352.165 50.092 352.165 49.604C352.165 49.116 352.285 48.684 352.525 48.308C352.773 47.924 353.113 47.628 353.545 47.42C353.977 47.204 354.465 47.096 355.009 47.096ZM351.649 53.756C353.049 53.756 354.289 53.736 355.369 53.696C356.457 53.656 357.501 53.556 358.501 53.396L358.585 54.164C357.553 54.364 356.493 54.492 355.405 54.548C354.317 54.604 353.109 54.632 351.781 54.632L351.649 53.756ZM353.173 49.604C353.173 50.076 353.345 50.464 353.689 50.768C354.041 51.064 354.481 51.212 355.009 51.212C355.537 51.212 355.973 51.064 356.317 50.768C356.661 50.464 356.833 50.076 356.833 49.604C356.833 49.132 356.661 48.748 356.317 48.452C355.973 48.148 355.537 47.996 355.009 47.996C354.473 47.996 354.033 48.148 353.689 48.452C353.345 48.748 353.173 49.132 353.173 49.604ZM359.185 46.328H360.217V56.924H359.185V46.328ZM363.361 49.04H362.629L362.497 46.616H363.493L363.361 49.04ZM373.472 46.352V54.044H372.428V46.352H373.472ZM365.024 49.688C365.024 49.184 365.144 48.736 365.384 48.344C365.632 47.944 365.964 47.632 366.38 47.408C366.804 47.184 367.276 47.072 367.796 47.072C368.316 47.072 368.788 47.184 369.212 47.408C369.636 47.632 369.968 47.944 370.208 48.344C370.448 48.736 370.568 49.184 370.568 49.688C370.568 50.184 370.448 50.632 370.208 51.032C369.968 51.424 369.636 51.732 369.212 51.956C368.788 52.18 368.316 52.292 367.796 52.292C367.276 52.292 366.804 52.18 366.38 51.956C365.964 51.732 365.632 51.424 365.384 51.032C365.144 50.632 365.024 50.184 365.024 49.688ZM366.044 49.688C366.044 50.184 366.208 50.592 366.536 50.912C366.872 51.224 367.292 51.38 367.796 51.38C368.3 51.38 368.72 51.224 369.056 50.912C369.392 50.592 369.56 50.184 369.56 49.688C369.56 49.184 369.392 48.772 369.056 48.452C368.72 48.132 368.3 47.972 367.796 47.972C367.292 47.972 366.872 48.132 366.536 48.452C366.208 48.772 366.044 49.184 366.044 49.688ZM366.668 53.264H367.7V55.832H373.784V56.672H366.668V53.264ZM381.524 47.42V48.284H379.088V49.52C379.088 50.104 379.212 50.684 379.46 51.26C379.708 51.836 380.044 52.348 380.468 52.796C380.892 53.236 381.364 53.568 381.884 53.792L381.296 54.62C380.688 54.34 380.144 53.92 379.664 53.36C379.192 52.8 378.832 52.164 378.584 51.452C378.336 52.22 377.972 52.912 377.492 53.528C377.02 54.136 376.48 54.588 375.872 54.884L375.272 54.056C375.784 53.816 376.252 53.456 376.676 52.976C377.1 52.488 377.432 51.94 377.672 51.332C377.92 50.724 378.044 50.12 378.044 49.52V48.284H375.62V47.42H381.524ZM382.892 46.352H383.936V56.912H382.892V46.352ZM394.442 46.916V47.756H392.15V47.972C392.15 48.596 392.386 49.168 392.858 49.688C393.33 50.2 393.954 50.568 394.73 50.792L394.25 51.608C393.65 51.432 393.122 51.164 392.666 50.804C392.218 50.436 391.878 50.004 391.646 49.508C391.414 50.068 391.066 50.556 390.602 50.972C390.146 51.38 389.598 51.684 388.958 51.884L388.442 51.068C389.25 50.82 389.898 50.416 390.386 49.856C390.874 49.288 391.118 48.66 391.118 47.972V47.756H388.79V46.916H394.442ZM390.014 52.268H396.758V54.86H391.07V56H397.13V56.804H390.038V54.092H395.738V53.072H390.014V52.268ZM395.714 46.352H396.758V48.62H398.294V49.46H396.758V51.776H395.714V46.352ZM406.052 54.704V52.208H402.908V47.204H410.228V52.208H407.084V54.704H411.368V55.556H401.804V54.704H406.052ZM409.22 51.38V48.032H403.928V51.38H409.22ZM421.856 54.728V55.592H412.292V54.728H421.856ZM413.456 47.132H420.692V50.372H414.5V52.016H420.932V52.868H413.48V49.544H419.66V47.984H413.456V47.132ZM427.424 47.12C427.424 47.936 427.288 48.668 427.016 49.316H428.6V46.568H429.572V52.28H428.6V50.156H426.584C425.904 51.212 424.84 52.044 423.392 52.652L422.876 51.884C423.924 51.46 424.74 50.92 425.324 50.264C425.908 49.6 426.248 48.836 426.344 47.972H423.332V47.12H427.424ZM423.38 56.096C424.028 55.864 424.54 55.5 424.916 55.004C425.3 54.5 425.492 53.984 425.492 53.456V52.796H426.488V53.456C426.488 53.944 426.608 54.412 426.848 54.86C427.088 55.308 427.44 55.672 427.904 55.952C428.368 55.648 428.728 55.264 428.984 54.8C429.24 54.336 429.368 53.888 429.368 53.456V52.796H430.376V53.456C430.376 54.024 430.56 54.552 430.928 55.04C431.304 55.528 431.816 55.88 432.464 56.096L431.972 56.864C431.468 56.68 431.036 56.416 430.676 56.072C430.316 55.736 430.044 55.34 429.86 54.884C429.684 55.34 429.432 55.748 429.104 56.108C428.784 56.476 428.392 56.76 427.928 56.96C427.44 56.768 427.032 56.492 426.704 56.132C426.376 55.78 426.132 55.376 425.972 54.92C425.78 55.352 425.508 55.736 425.156 56.072C424.804 56.416 424.384 56.68 423.896 56.864L423.38 56.096ZM430.7 46.34H431.696V52.424H430.7V46.34ZM436.089 47.144C436.561 47.144 436.985 47.276 437.361 47.54C437.737 47.796 438.041 48.168 438.273 48.656C438.513 49.136 438.657 49.7 438.705 50.348H440.949V46.328H441.969V56.924H440.949V51.176H438.717C438.685 51.856 438.553 52.452 438.321 52.964C438.089 53.468 437.781 53.856 437.397 54.128C437.013 54.4 436.577 54.536 436.089 54.536C435.577 54.536 435.121 54.384 434.721 54.08C434.321 53.776 434.009 53.348 433.785 52.796C433.561 52.236 433.449 51.584 433.449 50.84C433.449 50.096 433.561 49.444 433.785 48.884C434.009 48.324 434.321 47.896 434.721 47.6C435.121 47.296 435.577 47.144 436.089 47.144ZM434.433 50.84C434.433 51.4 434.501 51.888 434.637 52.304C434.781 52.72 434.977 53.044 435.225 53.276C435.473 53.5 435.761 53.612 436.089 53.612C436.417 53.612 436.705 53.5 436.953 53.276C437.201 53.044 437.393 52.72 437.529 52.304C437.673 51.888 437.745 51.4 437.745 50.84C437.745 50.28 437.673 49.792 437.529 49.376C437.393 48.96 437.201 48.64 436.953 48.416C436.705 48.192 436.417 48.08 436.089 48.08C435.761 48.08 435.473 48.192 435.225 48.416C434.977 48.64 434.781 48.96 434.637 49.376C434.501 49.792 434.433 50.28 434.433 50.84ZM446.073 54.704V51.896C445.625 51.648 445.277 51.34 445.029 50.972C444.789 50.604 444.669 50.184 444.669 49.712C444.669 49.168 444.833 48.692 445.161 48.284C445.489 47.868 445.945 47.548 446.529 47.324C447.113 47.1 447.777 46.988 448.521 46.988C449.273 46.988 449.937 47.1 450.513 47.324C451.097 47.548 451.553 47.868 451.881 48.284C452.209 48.692 452.373 49.168 452.373 49.712C452.373 50.176 452.253 50.592 452.013 50.96C451.773 51.328 451.437 51.632 451.005 51.872V54.704H453.321V55.556H443.757V54.704H446.073ZM445.689 49.712C445.689 50.096 445.809 50.432 446.049 50.72C446.289 51.008 446.621 51.232 447.045 51.392C447.477 51.544 447.969 51.62 448.521 51.62C449.073 51.62 449.565 51.544 449.997 51.392C450.429 51.232 450.765 51.008 451.005 50.72C451.245 50.432 451.365 50.096 451.365 49.712C451.365 49.336 451.245 49.004 451.005 48.716C450.765 48.428 450.429 48.204 449.997 48.044C449.565 47.884 449.073 47.804 448.521 47.804C447.969 47.804 447.477 47.884 447.045 48.044C446.621 48.204 446.289 48.428 446.049 48.716C445.809 49.004 445.689 49.336 445.689 49.712ZM449.961 54.704V52.268C449.513 52.38 449.033 52.436 448.521 52.436C448.049 52.436 447.577 52.384 447.105 52.28V54.704H449.961ZM455.157 54.896C455.341 54.896 455.493 54.956 455.613 55.076C455.733 55.196 455.793 55.352 455.793 55.544C455.793 55.736 455.733 55.892 455.613 56.012C455.493 56.14 455.341 56.204 455.157 56.204C454.965 56.204 454.805 56.14 454.677 56.012C454.557 55.892 454.497 55.736 454.497 55.544C454.497 55.352 454.557 55.196 454.677 55.076C454.805 54.956 454.965 54.896 455.157 54.896Z" fill="white"/>
<path d="M306 248C306 243.582 309.582 240 314 240H457C461.418 240 465 243.582 465 248V272H314C309.582 272 306 268.418 306 264V248Z" fill="#6478FF"/>
<path d="M317.893 251.144C318.405 251.144 318.861 251.296 319.261 251.6C319.669 251.904 319.985 252.336 320.209 252.896C320.433 253.448 320.545 254.096 320.545 254.84C320.545 255.576 320.433 256.224 320.209 256.784C319.985 257.344 319.669 257.776 319.261 258.08C318.861 258.384 318.405 258.536 317.893 258.536C317.373 258.536 316.909 258.384 316.501 258.08C316.101 257.776 315.785 257.344 315.553 256.784C315.329 256.224 315.217 255.576 315.217 254.84C315.217 254.096 315.329 253.448 315.553 252.896C315.785 252.336 316.101 251.904 316.501 251.6C316.909 251.296 317.373 251.144 317.893 251.144ZM316.213 254.84C316.213 255.4 316.281 255.888 316.417 256.304C316.561 256.72 316.761 257.044 317.017 257.276C317.273 257.5 317.565 257.612 317.893 257.612C318.221 257.612 318.509 257.5 318.757 257.276C319.013 257.044 319.209 256.72 319.345 256.304C319.489 255.88 319.561 255.392 319.561 254.84C319.561 254.288 319.489 253.804 319.345 253.388C319.209 252.964 319.013 252.64 318.757 252.416C318.509 252.192 318.221 252.08 317.893 252.08C317.565 252.08 317.273 252.192 317.017 252.416C316.761 252.64 316.561 252.964 316.417 253.388C316.281 253.804 316.213 254.288 316.213 254.84ZM322.177 250.352H323.221V254.54H324.925V255.404H323.221V260.912H322.177V250.352ZM333.709 250.352V254.66H335.413V255.524H333.709V260.912H332.665V250.352H333.709ZM325.501 252.02H328.117V250.484H329.173V252.02H331.729V252.86H325.501V252.02ZM326.077 256.136C326.077 255.664 326.189 255.244 326.413 254.876C326.637 254.508 326.945 254.22 327.337 254.012C327.729 253.804 328.169 253.7 328.657 253.7C329.153 253.7 329.597 253.804 329.989 254.012C330.381 254.22 330.689 254.508 330.913 254.876C331.137 255.244 331.249 255.664 331.249 256.136C331.249 256.608 331.137 257.032 330.913 257.408C330.689 257.776 330.381 258.064 329.989 258.272C329.597 258.472 329.153 258.572 328.657 258.572C328.169 258.572 327.729 258.468 327.337 258.26C326.945 258.052 326.637 257.764 326.413 257.396C326.189 257.028 326.077 256.608 326.077 256.136ZM327.073 256.136C327.073 256.6 327.221 256.98 327.517 257.276C327.813 257.564 328.193 257.708 328.657 257.708C329.121 257.708 329.501 257.564 329.797 257.276C330.093 256.98 330.241 256.6 330.241 256.136C330.241 255.672 330.093 255.292 329.797 254.996C329.501 254.7 329.121 254.552 328.657 254.552C328.193 254.552 327.813 254.7 327.517 254.996C327.221 255.292 327.073 255.672 327.073 256.136ZM338.018 257.84H337.082L336.902 251.204H338.174L338.018 257.84ZM336.902 259.544C336.902 259.352 336.962 259.196 337.082 259.076C337.21 258.956 337.37 258.896 337.562 258.896C337.746 258.896 337.898 258.956 338.018 259.076C338.138 259.196 338.198 259.352 338.198 259.544C338.198 259.736 338.138 259.892 338.018 260.012C337.898 260.14 337.746 260.204 337.562 260.204C337.37 260.204 337.21 260.14 337.082 260.012C336.962 259.892 336.902 259.736 336.902 259.544ZM351.358 250.328V260.924H350.314V250.328H351.358ZM343.066 254.84C343.066 254.096 343.178 253.448 343.402 252.896C343.634 252.336 343.954 251.904 344.362 251.6C344.778 251.296 345.246 251.144 345.766 251.144C346.286 251.144 346.75 251.296 347.158 251.6C347.574 251.904 347.894 252.336 348.118 252.896C348.35 253.448 348.466 254.096 348.466 254.84C348.466 255.576 348.35 256.224 348.118 256.784C347.894 257.344 347.574 257.776 347.158 258.08C346.75 258.384 346.286 258.536 345.766 258.536C345.246 258.536 344.778 258.384 344.362 258.08C343.954 257.776 343.634 257.344 343.402 256.784C343.178 256.224 343.066 255.576 343.066 254.84ZM344.074 254.84C344.074 255.392 344.146 255.88 344.29 256.304C344.434 256.72 344.634 257.044 344.89 257.276C345.146 257.5 345.438 257.612 345.766 257.612C346.094 257.612 346.386 257.5 346.642 257.276C346.898 257.044 347.098 256.72 347.242 256.304C347.386 255.88 347.458 255.392 347.458 254.84C347.458 254.288 347.386 253.804 347.242 253.388C347.098 252.964 346.898 252.64 346.642 252.416C346.386 252.192 346.094 252.08 345.766 252.08C345.438 252.08 345.146 252.192 344.89 252.416C344.634 252.64 344.434 252.964 344.29 253.388C344.146 253.804 344.074 254.288 344.074 254.84ZM355.27 252.128V250.64H356.29V252.128H358.378V252.968H353.17V252.128H355.27ZM353.518 256.064C353.518 255.6 353.614 255.184 353.806 254.816C354.006 254.448 354.278 254.16 354.622 253.952C354.966 253.744 355.354 253.64 355.786 253.64C356.218 253.64 356.606 253.744 356.95 253.952C357.302 254.16 357.574 254.448 357.766 254.816C357.966 255.184 358.066 255.6 358.066 256.064C358.066 256.536 357.966 256.956 357.766 257.324C357.574 257.692 357.302 257.98 356.95 258.188C356.606 258.388 356.218 258.488 355.786 258.488C355.354 258.488 354.962 258.388 354.61 258.188C354.266 257.98 353.998 257.692 353.806 257.324C353.614 256.956 353.518 256.536 353.518 256.064ZM354.442 256.064C354.442 256.52 354.566 256.892 354.814 257.18C355.07 257.468 355.394 257.612 355.786 257.612C356.178 257.612 356.502 257.468 356.758 257.18C357.014 256.892 357.142 256.52 357.142 256.064C357.142 255.608 357.014 255.236 356.758 254.948C356.502 254.66 356.178 254.516 355.786 254.516C355.394 254.516 355.07 254.66 354.814 254.948C354.566 255.236 354.442 255.608 354.442 256.064ZM358.894 250.592H359.866V254.768H361.15V250.34H362.134V260.9H361.15V255.62H359.866V260.396H358.894V250.592ZM372.599 250.352V256.892H371.603V254.072H370.355V256.736H369.371V250.508H370.355V253.22H371.603V250.352H372.599ZM363.623 251.528H365.795V250.4H366.815V251.528H368.951V252.356H363.623V251.528ZM364.055 254.66C364.055 254.116 364.263 253.68 364.679 253.352C365.095 253.024 365.635 252.86 366.299 252.86C366.971 252.86 367.515 253.024 367.931 253.352C368.347 253.68 368.555 254.116 368.555 254.66C368.555 255.204 368.347 255.644 367.931 255.98C367.515 256.308 366.971 256.472 366.299 256.472C365.635 256.472 365.095 256.308 364.679 255.98C364.263 255.644 364.055 255.204 364.055 254.66ZM364.355 260C364.995 259.784 365.499 259.444 365.867 258.98C366.243 258.516 366.431 258.036 366.431 257.54V257.192H367.439V257.54C367.439 257.988 367.559 258.424 367.799 258.848C368.047 259.272 368.399 259.616 368.855 259.88C369.311 259.6 369.667 259.244 369.923 258.812C370.179 258.372 370.307 257.948 370.307 257.54V257.192H371.327V257.54C371.327 258.068 371.515 258.56 371.891 259.016C372.267 259.472 372.779 259.8 373.427 260L372.935 260.768C372.431 260.6 371.995 260.352 371.627 260.024C371.267 259.696 370.995 259.32 370.811 258.896C370.635 259.336 370.383 259.728 370.055 260.072C369.735 260.416 369.343 260.684 368.879 260.876C368.399 260.7 367.995 260.44 367.667 260.096C367.339 259.76 367.091 259.376 366.923 258.944C366.723 259.36 366.443 259.728 366.083 260.048C365.731 260.368 365.315 260.608 364.835 260.768L364.355 260ZM364.979 254.66C364.979 254.972 365.099 255.224 365.339 255.416C365.587 255.608 365.907 255.704 366.299 255.704C366.691 255.704 367.011 255.608 367.259 255.416C367.507 255.224 367.631 254.972 367.631 254.66C367.631 254.348 367.507 254.1 367.259 253.916C367.011 253.724 366.691 253.628 366.299 253.628C365.907 253.628 365.587 253.724 365.339 253.916C365.099 254.1 364.979 254.348 364.979 254.66ZM376.991 251.144C377.463 251.144 377.887 251.276 378.263 251.54C378.639 251.796 378.943 252.168 379.175 252.656C379.415 253.136 379.559 253.7 379.607 254.348H381.851V250.328H382.871V260.924H381.851V255.176H379.619C379.587 255.856 379.455 256.452 379.223 256.964C378.991 257.468 378.683 257.856 378.299 258.128C377.915 258.4 377.479 258.536 376.991 258.536C376.479 258.536 376.023 258.384 375.623 258.08C375.223 257.776 374.911 257.348 374.687 256.796C374.463 256.236 374.351 255.584 374.351 254.84C374.351 254.096 374.463 253.444 374.687 252.884C374.911 252.324 375.223 251.896 375.623 251.6C376.023 251.296 376.479 251.144 376.991 251.144ZM375.335 254.84C375.335 255.4 375.403 255.888 375.539 256.304C375.683 256.72 375.879 257.044 376.127 257.276C376.375 257.5 376.663 257.612 376.991 257.612C377.319 257.612 377.607 257.5 377.855 257.276C378.103 257.044 378.295 256.72 378.431 256.304C378.575 255.888 378.647 255.4 378.647 254.84C378.647 254.28 378.575 253.792 378.431 253.376C378.295 252.96 378.103 252.64 377.855 252.416C377.607 252.192 377.319 252.08 376.991 252.08C376.663 252.08 376.375 252.192 376.127 252.416C375.879 252.64 375.683 252.96 375.539 253.376C375.403 253.792 375.335 254.28 375.335 254.84ZM386.975 258.704V255.896C386.527 255.648 386.179 255.34 385.931 254.972C385.691 254.604 385.571 254.184 385.571 253.712C385.571 253.168 385.735 252.692 386.063 252.284C386.391 251.868 386.847 251.548 387.431 251.324C388.015 251.1 388.679 250.988 389.423 250.988C390.175 250.988 390.839 251.1 391.415 251.324C391.999 251.548 392.455 251.868 392.783 252.284C393.111 252.692 393.275 253.168 393.275 253.712C393.275 254.176 393.155 254.592 392.915 254.96C392.675 255.328 392.339 255.632 391.907 255.872V258.704H394.223V259.556H384.659V258.704H386.975ZM386.591 253.712C386.591 254.096 386.711 254.432 386.951 254.72C387.191 255.008 387.523 255.232 387.947 255.392C388.379 255.544 388.871 255.62 389.423 255.62C389.975 255.62 390.467 255.544 390.899 255.392C391.331 255.232 391.667 255.008 391.907 254.72C392.147 254.432 392.267 254.096 392.267 253.712C392.267 253.336 392.147 253.004 391.907 252.716C391.667 252.428 391.331 252.204 390.899 252.044C390.467 251.884 389.975 251.804 389.423 251.804C388.871 251.804 388.379 251.884 387.947 252.044C387.523 252.204 387.191 252.428 386.951 252.716C386.711 253.004 386.591 253.336 386.591 253.712ZM390.863 258.704V256.268C390.415 256.38 389.935 256.436 389.423 256.436C388.951 256.436 388.479 256.384 388.007 256.28V258.704H390.863ZM396.059 258.896C396.243 258.896 396.395 258.956 396.515 259.076C396.635 259.196 396.695 259.352 396.695 259.544C396.695 259.736 396.635 259.892 396.515 260.012C396.395 260.14 396.243 260.204 396.059 260.204C395.867 260.204 395.707 260.14 395.579 260.012C395.459 259.892 395.399 259.736 395.399 259.544C395.399 259.352 395.459 259.196 395.579 259.076C395.707 258.956 395.867 258.896 396.059 258.896ZM409.332 250.34V252.872H410.88V253.736H409.332V256.316H408.288V250.34H409.332ZM401.112 255.62C402.376 255.284 403.372 254.788 404.1 254.132C404.836 253.476 405.248 252.716 405.336 251.852H401.58V251.012H406.452C406.452 252.34 406.02 253.472 405.156 254.408C404.292 255.344 403.076 256.024 401.508 256.448L401.112 255.62ZM402.66 256.796H409.332V260.756H402.66V256.796ZM408.312 259.916V257.636H403.68V259.916H408.312ZM415.2 251.252V253.088C415.2 253.704 415.312 254.316 415.536 254.924C415.768 255.524 416.084 256.064 416.484 256.544C416.892 257.024 417.348 257.388 417.852 257.636L417.216 258.452C416.648 258.156 416.144 257.724 415.704 257.156C415.264 256.588 414.928 255.94 414.696 255.212C414.464 255.988 414.12 256.68 413.664 257.288C413.208 257.896 412.684 258.356 412.092 258.668L411.456 257.828C411.976 257.572 412.44 257.196 412.848 256.7C413.264 256.196 413.588 255.628 413.82 254.996C414.06 254.364 414.18 253.728 414.18 253.088V251.252H415.2ZM418.704 250.352H419.748V254.588H421.464V255.476H419.748V260.912H418.704V250.352ZM430.309 250.352V253.016H431.857V253.892H430.309V256.484H429.265V250.352H430.309ZM422.125 251.408H424.729V250.244H425.761V251.408H428.365V252.236H422.125V251.408ZM422.713 254.552C422.713 253.992 422.945 253.544 423.409 253.208C423.873 252.864 424.485 252.692 425.245 252.692C426.005 252.692 426.617 252.864 427.081 253.208C427.545 253.544 427.777 253.992 427.777 254.552C427.777 255.112 427.545 255.564 427.081 255.908C426.617 256.244 426.005 256.412 425.245 256.412C424.485 256.412 423.873 256.244 423.409 255.908C422.945 255.564 422.713 255.112 422.713 254.552ZM423.637 256.94H424.669V258.02H429.289V256.94H430.309V260.768H423.637V256.94ZM423.697 254.552C423.697 254.872 423.837 255.132 424.117 255.332C424.405 255.532 424.781 255.632 425.245 255.632C425.701 255.632 426.069 255.532 426.349 255.332C426.637 255.132 426.781 254.872 426.781 254.552C426.781 254.232 426.637 253.972 426.349 253.772C426.069 253.572 425.701 253.472 425.245 253.472C424.781 253.472 424.405 253.572 424.117 253.772C423.837 253.972 423.697 254.232 423.697 254.552ZM429.289 259.928V258.824H424.669V259.928H429.289ZM441.253 250.34V260.9H440.221V250.34H441.253ZM433.237 251.372H434.269V257.3C436.013 257.284 437.645 257.124 439.165 256.82L439.297 257.696C437.641 258.032 435.917 258.2 434.125 258.2H433.237V251.372ZM451.225 250.328V254.468H452.929V255.332H451.225V260.924H450.181V250.328H451.225ZM443.533 251.372H448.441V252.212H444.565V257.42C445.533 257.42 446.373 257.396 447.085 257.348C447.797 257.292 448.513 257.196 449.233 257.06L449.353 257.948C448.593 258.092 447.845 258.188 447.109 258.236C446.373 258.276 445.461 258.296 444.373 258.296H443.533V251.372ZM455.533 257.84H454.597L454.417 251.204H455.689L455.533 257.84ZM454.417 259.544C454.417 259.352 454.477 259.196 454.597 259.076C454.725 258.956 454.885 258.896 455.077 258.896C455.261 258.896 455.413 258.956 455.533 259.076C455.653 259.196 455.713 259.352 455.713 259.544C455.713 259.736 455.653 259.892 455.533 260.012C455.413 260.14 455.261 260.204 455.077 260.204C454.885 260.204 454.725 260.14 454.597 260.012C454.477 259.892 454.417 259.736 454.417 259.544Z" fill="white"/>
<path d="M189 90C189 85.5817 192.582 82 197 82H389C393.418 82 397 85.5817 397 90V122C397 126.418 393.418 130 389 130H189V90Z" fill="#F3F4F6"/>
<path d="M205.796 92.784V93.48C205.796 93.984 205.784 94.444 205.76 94.86C205.736 95.276 205.672 95.74 205.568 96.252H207.02V97.092H197.456V96.252H204.548C204.652 95.764 204.716 95.32 204.74 94.92C204.772 94.52 204.788 94.092 204.788 93.636H198.68V92.784H205.796ZM198.572 98.1H205.832V100.812H199.64V101.964H206.096V102.804H198.608V100.02H204.8V98.916H198.572V98.1ZM211.352 93.096C211.896 93.096 212.38 93.204 212.804 93.42C213.236 93.628 213.572 93.924 213.812 94.308C214.06 94.684 214.184 95.116 214.184 95.604C214.184 96.092 214.06 96.528 213.812 96.912C213.572 97.288 213.236 97.584 212.804 97.8C212.38 98.008 211.896 98.112 211.352 98.112C210.808 98.112 210.32 98.008 209.888 97.8C209.456 97.584 209.116 97.288 208.868 96.912C208.628 96.528 208.508 96.092 208.508 95.604C208.508 95.116 208.628 94.684 208.868 94.308C209.116 93.924 209.456 93.628 209.888 93.42C210.32 93.204 210.808 93.096 211.352 93.096ZM207.992 99.756C209.392 99.756 210.632 99.736 211.712 99.696C212.8 99.656 213.844 99.556 214.844 99.396L214.928 100.164C213.896 100.364 212.836 100.492 211.748 100.548C210.66 100.604 209.452 100.632 208.124 100.632L207.992 99.756ZM209.516 95.604C209.516 96.076 209.688 96.464 210.032 96.768C210.384 97.064 210.824 97.212 211.352 97.212C211.88 97.212 212.316 97.064 212.66 96.768C213.004 96.464 213.176 96.076 213.176 95.604C213.176 95.132 213.004 94.748 212.66 94.452C212.316 94.148 211.88 93.996 211.352 93.996C210.816 93.996 210.376 94.148 210.032 94.452C209.688 94.748 209.516 95.132 209.516 95.604ZM215.528 92.328H216.56V102.924H215.528V92.328ZM229.514 93.024V93.948C229.514 94.628 229.498 95.232 229.466 95.76C229.434 96.288 229.35 96.888 229.214 97.56H230.75V98.424H226.478V102.924H225.422V98.424H221.198V97.56H228.158C228.302 96.896 228.39 96.3 228.422 95.772C228.462 95.236 228.482 94.628 228.482 93.948V93.864H222.386V93.024H229.514ZM235.346 92.94V93.96C235.346 94.704 235.574 95.38 236.03 95.988C236.494 96.596 237.114 97.032 237.89 97.296L237.326 98.112C236.758 97.896 236.262 97.588 235.838 97.188C235.422 96.788 235.098 96.32 234.866 95.784C234.634 96.4 234.29 96.936 233.834 97.392C233.378 97.848 232.834 98.192 232.202 98.424L231.662 97.584C232.478 97.296 233.122 96.828 233.594 96.18C234.074 95.532 234.314 94.804 234.314 93.996V92.94H235.346ZM233.354 100.896C233.354 100.264 233.666 99.772 234.29 99.42C234.922 99.068 235.79 98.892 236.894 98.892C237.99 98.892 238.85 99.068 239.474 99.42C240.106 99.772 240.422 100.264 240.422 100.896C240.422 101.528 240.11 102.016 239.486 102.36C238.862 102.712 237.998 102.888 236.894 102.888C235.79 102.888 234.922 102.712 234.29 102.36C233.666 102.016 233.354 101.528 233.354 100.896ZM234.398 100.896C234.398 101.264 234.618 101.552 235.058 101.76C235.498 101.968 236.11 102.072 236.894 102.072C237.678 102.072 238.29 101.968 238.73 101.76C239.17 101.552 239.39 101.264 239.39 100.896C239.39 100.52 239.17 100.228 238.73 100.02C238.29 99.812 237.678 99.708 236.894 99.708C236.11 99.708 235.498 99.812 235.058 100.02C234.618 100.228 234.398 100.52 234.398 100.896ZM237.086 94.536H239.33V92.352H240.374V98.58H239.33V95.4H237.086V94.536ZM251.151 92.34V102.9H250.155V92.34H251.151ZM242.295 96.9C242.295 96.148 242.387 95.496 242.571 94.944C242.755 94.384 243.015 93.956 243.351 93.66C243.695 93.356 244.091 93.204 244.539 93.204C245.179 93.204 245.699 93.492 246.099 94.068C246.499 94.636 246.731 95.42 246.795 96.42H248.055V92.568H249.039V102.372H248.055V97.272H246.795C246.755 98.304 246.531 99.12 246.123 99.72C245.723 100.312 245.195 100.608 244.539 100.608C244.091 100.608 243.695 100.46 243.351 100.164C243.015 99.86 242.755 99.428 242.571 98.868C242.387 98.308 242.295 97.652 242.295 96.9ZM243.243 96.9C243.243 97.748 243.359 98.416 243.591 98.904C243.823 99.392 244.139 99.636 244.539 99.636C244.947 99.636 245.267 99.396 245.499 98.916C245.731 98.428 245.847 97.756 245.847 96.9C245.847 96.052 245.731 95.388 245.499 94.908C245.267 94.42 244.947 94.176 244.539 94.176C244.139 94.176 243.823 94.42 243.591 94.908C243.359 95.388 243.243 96.052 243.243 96.9ZM260.331 95.892V92.328H261.363V102.924H260.331V96.744H257.931V95.892H260.331ZM252.627 99.852C253.139 99.596 253.603 99.22 254.019 98.724C254.435 98.22 254.759 97.652 254.991 97.02C255.231 96.38 255.351 95.736 255.351 95.088V93.24H256.383V95.088C256.383 95.72 256.499 96.344 256.731 96.96C256.963 97.568 257.283 98.112 257.691 98.592C258.099 99.072 258.559 99.432 259.071 99.672L258.459 100.512C257.875 100.208 257.359 99.768 256.911 99.192C256.463 98.616 256.119 97.956 255.879 97.212C255.647 97.988 255.303 98.684 254.847 99.3C254.391 99.916 253.867 100.38 253.275 100.692L252.627 99.852ZM270.165 100.704V98.484H267.033V93.072H268.065V94.92H273.321V93.072H274.353V98.484H271.197V100.704H275.481V101.568H265.917V100.704H270.165ZM273.321 97.644V95.76H268.065V97.644H273.321ZM280.641 97.92V96.936H277.653V92.652H284.781V93.468H278.685V94.368H284.505V95.16H278.685V96.132H284.841V96.936H281.685V97.92H285.933V98.76H276.405V97.92H280.641ZM277.545 101.196C277.545 100.644 277.857 100.228 278.481 99.948C279.105 99.66 280.001 99.516 281.169 99.516C282.329 99.516 283.221 99.66 283.845 99.948C284.477 100.228 284.793 100.644 284.793 101.196C284.793 101.74 284.477 102.156 283.845 102.444C283.213 102.74 282.321 102.888 281.169 102.888C280.001 102.888 279.105 102.744 278.481 102.456C277.857 102.168 277.545 101.748 277.545 101.196ZM278.589 101.196C278.589 101.5 278.809 101.728 279.249 101.88C279.689 102.032 280.329 102.108 281.169 102.108C282.009 102.108 282.649 102.032 283.089 101.88C283.529 101.728 283.749 101.5 283.749 101.196C283.749 100.9 283.525 100.676 283.077 100.524C282.637 100.364 282.001 100.284 281.169 100.284C280.337 100.284 279.697 100.364 279.249 100.524C278.809 100.676 278.589 100.9 278.589 101.196ZM297.807 92.328V96.588H299.451V97.464H297.807V102.9H296.751V92.328H297.807ZM289.695 100.128C291.015 99.464 292.035 98.644 292.755 97.668C293.483 96.684 293.903 95.568 294.015 94.32H290.211V93.468H295.071C295.071 95.06 294.683 96.496 293.907 97.776C293.139 99.048 291.931 100.096 290.283 100.92L289.695 100.128ZM306.063 93.108V93.96H303.759V94.308C303.759 94.996 303.987 95.624 304.443 96.192C304.899 96.752 305.515 97.16 306.291 97.416L305.799 98.22C305.207 98.028 304.695 97.74 304.263 97.356C303.831 96.964 303.499 96.508 303.267 95.988C303.035 96.588 302.691 97.112 302.235 97.56C301.779 98.008 301.239 98.34 300.615 98.556L300.099 97.728C300.899 97.456 301.535 97.008 302.007 96.384C302.487 95.752 302.727 95.06 302.727 94.308V93.96H300.399V93.108H306.063ZM301.503 100.92C301.503 100.304 301.811 99.828 302.427 99.492C303.051 99.148 303.903 98.976 304.983 98.976C306.071 98.976 306.923 99.148 307.539 99.492C308.155 99.828 308.463 100.304 308.463 100.92C308.463 101.544 308.155 102.028 307.539 102.372C306.923 102.716 306.071 102.888 304.983 102.888C303.903 102.888 303.051 102.712 302.427 102.36C301.811 102.016 301.503 101.536 301.503 100.92ZM302.523 100.92C302.523 101.288 302.739 101.572 303.171 101.772C303.611 101.972 304.215 102.072 304.983 102.072C305.751 102.072 306.351 101.972 306.783 101.772C307.223 101.572 307.443 101.288 307.443 100.92C307.443 100.56 307.227 100.284 306.795 100.092C306.363 99.892 305.759 99.792 304.983 99.792C304.207 99.792 303.603 99.892 303.171 100.092C302.739 100.284 302.523 100.56 302.523 100.92ZM307.311 92.352H308.355V95.004H309.903V95.856H308.355V98.7H307.311V92.352ZM322.941 97.272V98.112H318.681V99.192C319.665 99.24 320.429 99.424 320.973 99.744C321.517 100.064 321.789 100.496 321.789 101.04C321.789 101.624 321.469 102.076 320.829 102.396C320.189 102.724 319.301 102.888 318.165 102.888C317.029 102.888 316.141 102.724 315.501 102.396C314.861 102.076 314.541 101.624 314.541 101.04C314.541 100.496 314.809 100.064 315.345 99.744C315.889 99.424 316.653 99.24 317.637 99.192V98.112H313.401V97.272H322.941ZM313.917 95.844C314.541 95.78 315.117 95.644 315.645 95.436C316.173 95.228 316.601 94.972 316.929 94.668C317.257 94.356 317.437 94.024 317.469 93.672H314.277V92.844H322.077V93.672H318.873C318.905 94.032 319.085 94.368 319.413 94.68C319.741 94.984 320.169 95.24 320.697 95.448C321.225 95.648 321.805 95.78 322.437 95.844L322.053 96.66C321.149 96.556 320.345 96.32 319.641 95.952C318.945 95.576 318.457 95.108 318.177 94.548C317.897 95.108 317.405 95.576 316.701 95.952C315.997 96.32 315.193 96.556 314.289 96.66L313.917 95.844ZM315.585 101.04C315.585 101.384 315.809 101.648 316.257 101.832C316.705 102.008 317.341 102.096 318.165 102.096C318.981 102.096 319.613 102.004 320.061 101.82C320.509 101.636 320.733 101.376 320.733 101.04C320.733 100.696 320.509 100.432 320.061 100.248C319.613 100.064 318.981 99.972 318.165 99.972C317.341 99.972 316.705 100.064 316.257 100.248C315.809 100.432 315.585 100.696 315.585 101.04ZM326.206 100.704V97.896C325.758 97.648 325.41 97.34 325.162 96.972C324.922 96.604 324.802 96.184 324.802 95.712C324.802 95.168 324.966 94.692 325.294 94.284C325.622 93.868 326.078 93.548 326.662 93.324C327.246 93.1 327.91 92.988 328.654 92.988C329.406 92.988 330.07 93.1 330.646 93.324C331.23 93.548 331.686 93.868 332.014 94.284C332.342 94.692 332.506 95.168 332.506 95.712C332.506 96.176 332.386 96.592 332.146 96.96C331.906 97.328 331.57 97.632 331.138 97.872V100.704H333.454V101.556H323.89V100.704H326.206ZM325.822 95.712C325.822 96.096 325.942 96.432 326.182 96.72C326.422 97.008 326.754 97.232 327.178 97.392C327.61 97.544 328.102 97.62 328.654 97.62C329.206 97.62 329.698 97.544 330.13 97.392C330.562 97.232 330.898 97.008 331.138 96.72C331.378 96.432 331.498 96.096 331.498 95.712C331.498 95.336 331.378 95.004 331.138 94.716C330.898 94.428 330.562 94.204 330.13 94.044C329.698 93.884 329.206 93.804 328.654 93.804C328.102 93.804 327.61 93.884 327.178 94.044C326.754 94.204 326.422 94.428 326.182 94.716C325.942 95.004 325.822 95.336 325.822 95.712ZM330.094 100.704V98.268C329.646 98.38 329.166 98.436 328.654 98.436C328.182 98.436 327.71 98.384 327.238 98.28V100.704H330.094ZM342.586 92.352V95.784H344.134V96.648H342.586V100.272H341.542V92.352H342.586ZM334.402 93.6H337.006V92.352H338.038V93.6H340.642V94.44H334.402V93.6ZM334.99 96.972C334.99 96.58 335.094 96.236 335.302 95.94C335.518 95.636 335.818 95.404 336.202 95.244C336.586 95.076 337.026 94.992 337.522 94.992C338.018 94.992 338.458 95.076 338.842 95.244C339.226 95.404 339.522 95.636 339.73 95.94C339.946 96.236 340.054 96.58 340.054 96.972C340.054 97.572 339.818 98.052 339.346 98.412C338.882 98.772 338.274 98.952 337.522 98.952C336.77 98.952 336.158 98.772 335.686 98.412C335.222 98.052 334.99 97.572 334.99 96.972ZM335.974 96.972C335.974 97.332 336.114 97.616 336.394 97.824C336.682 98.032 337.058 98.136 337.522 98.136C337.986 98.136 338.358 98.032 338.638 97.824C338.918 97.616 339.058 97.332 339.058 96.972C339.058 96.612 338.918 96.328 338.638 96.12C338.358 95.912 337.986 95.808 337.522 95.808C337.058 95.808 336.682 95.912 336.394 96.12C336.114 96.328 335.974 96.612 335.974 96.972ZM335.986 99.636H337.018V101.832H343.054V102.672H335.986V99.636ZM356.584 92.34V102.9H355.588V97.476H354.172V102.36H353.212V92.58H354.172V96.612H355.588V92.34H356.584ZM348.136 93.612H349.168V99.288C350.352 99.272 351.452 99.16 352.468 98.952L352.588 99.864C351.42 100.088 350.164 100.2 348.82 100.2H348.136V93.612ZM360.448 97.548V96.084C359.584 95.732 359.152 95.208 359.152 94.512C359.152 93.896 359.484 93.416 360.148 93.072C360.82 92.72 361.732 92.544 362.884 92.544C364.036 92.544 364.944 92.72 365.608 93.072C366.28 93.416 366.616 93.896 366.616 94.512C366.616 94.856 366.504 95.164 366.28 95.436C366.064 95.7 365.748 95.916 365.332 96.084V97.548H367.66V98.364H358.12V97.548H360.448ZM359.26 101.004C359.26 100.412 359.58 99.952 360.22 99.624C360.86 99.296 361.748 99.132 362.884 99.132C364.02 99.132 364.908 99.296 365.548 99.624C366.188 99.952 366.508 100.412 366.508 101.004C366.508 101.604 366.188 102.068 365.548 102.396C364.908 102.732 364.02 102.9 362.884 102.9C361.748 102.9 360.86 102.732 360.22 102.396C359.58 102.068 359.26 101.604 359.26 101.004ZM360.22 94.512C360.22 94.88 360.456 95.168 360.928 95.376C361.408 95.576 362.06 95.676 362.884 95.676C363.708 95.676 364.356 95.576 364.828 95.376C365.308 95.168 365.548 94.88 365.548 94.512C365.548 94.144 365.308 93.856 364.828 93.648C364.356 93.44 363.708 93.336 362.884 93.336C362.06 93.336 361.408 93.44 360.928 93.648C360.456 93.856 360.22 94.144 360.22 94.512ZM360.304 101.004C360.304 101.356 360.528 101.628 360.976 101.82C361.424 102.004 362.06 102.096 362.884 102.096C363.7 102.096 364.332 102.004 364.78 101.82C365.228 101.628 365.452 101.356 365.452 101.004C365.452 100.668 365.224 100.408 364.768 100.224C364.32 100.032 363.692 99.936 362.884 99.936C362.068 99.936 361.432 100.032 360.976 100.224C360.528 100.408 360.304 100.668 360.304 101.004ZM364.3 97.548V96.36C363.884 96.432 363.412 96.468 362.884 96.468C362.364 96.468 361.892 96.432 361.468 96.36V97.548H364.3ZM378.148 97.884V98.724H368.608V97.884H378.148ZM369.64 94.812C369.64 94.38 369.792 94.004 370.096 93.684C370.4 93.364 370.832 93.12 371.392 92.952C371.96 92.784 372.62 92.7 373.372 92.7C374.124 92.7 374.78 92.784 375.34 92.952C375.908 93.12 376.344 93.364 376.648 93.684C376.952 94.004 377.104 94.38 377.104 94.812C377.104 95.244 376.952 95.62 376.648 95.94C376.344 96.26 375.908 96.508 375.34 96.684C374.78 96.852 374.124 96.936 373.372 96.936C372.62 96.936 371.96 96.852 371.392 96.684C370.832 96.508 370.4 96.26 370.096 95.94C369.792 95.62 369.64 95.244 369.64 94.812ZM369.832 99.624H370.864V101.832H377.092V102.684H369.832V99.624ZM370.708 94.812C370.708 95.212 370.948 95.528 371.428 95.76C371.908 95.984 372.556 96.096 373.372 96.096C374.196 96.096 374.844 95.984 375.316 95.76C375.796 95.528 376.036 95.212 376.036 94.812C376.036 94.412 375.796 94.104 375.316 93.888C374.844 93.664 374.196 93.552 373.372 93.552C372.556 93.552 371.908 93.664 371.428 93.888C370.948 94.104 370.708 94.412 370.708 94.812ZM202.004 109.396V114.22H197.924V109.396H202.004ZM201.032 113.392V110.212H198.884V113.392H201.032ZM199.448 115.252H200.492V117.832H206.672V118.672H199.448V115.252ZM203.12 108.532H204.092V111.436H205.376V108.352H206.372V116.212H205.376V112.288H204.092V115.84H203.12V108.532ZM213.314 109.564V108.304H214.346V109.564H216.638V110.404H214.334V110.62C214.334 111.252 214.566 111.84 215.03 112.384C215.494 112.92 216.114 113.312 216.89 113.56L216.41 114.376C215.818 114.184 215.302 113.904 214.862 113.536C214.43 113.16 214.094 112.724 213.854 112.228C213.622 112.788 213.282 113.28 212.834 113.704C212.386 114.12 211.854 114.432 211.238 114.64L210.722 113.836C211.506 113.572 212.134 113.148 212.606 112.564C213.078 111.972 213.314 111.324 213.314 110.62V110.404H210.998V109.564H213.314ZM211.946 118.048C212.586 117.944 213.174 117.752 213.71 117.472C214.254 117.192 214.682 116.852 214.994 116.452C215.314 116.044 215.474 115.616 215.474 115.168V114.952H216.53V115.168C216.53 115.632 216.686 116.064 216.998 116.464C217.31 116.864 217.734 117.204 218.27 117.484C218.806 117.756 219.398 117.944 220.046 118.048L219.638 118.876C218.814 118.732 218.078 118.456 217.43 118.048C216.782 117.648 216.306 117.156 216.002 116.572C215.698 117.148 215.218 117.64 214.562 118.048C213.914 118.456 213.178 118.732 212.354 118.876L211.946 118.048ZM216.338 111.304H218.378V108.352H219.422V115.636H218.378V112.156H216.338V111.304ZM233.516 113.728V114.568H229.34V116.656H228.296V114.568H223.952V113.728H233.516ZM225.152 115.648H226.196V117.844H232.46V118.684H225.152V115.648ZM225.176 108.844H232.28V112.576H225.176V108.844ZM231.26 111.736V109.66H226.196V111.736H231.26ZM240.368 109.108V109.96H238.064V110.308C238.064 110.996 238.292 111.624 238.748 112.192C239.204 112.752 239.82 113.16 240.596 113.416L240.104 114.22C239.512 114.028 239 113.74 238.568 113.356C238.136 112.964 237.804 112.508 237.572 111.988C237.34 112.588 236.996 113.112 236.54 113.56C236.084 114.008 235.544 114.34 234.92 114.556L234.404 113.728C235.204 113.456 235.84 113.008 236.312 112.384C236.792 111.752 237.032 111.06 237.032 110.308V109.96H234.704V109.108H240.368ZM235.808 116.92C235.808 116.304 236.116 115.828 236.732 115.492C237.356 115.148 238.208 114.976 239.288 114.976C240.376 114.976 241.228 115.148 241.844 115.492C242.46 115.828 242.768 116.304 242.768 116.92C242.768 117.544 242.46 118.028 241.844 118.372C241.228 118.716 240.376 118.888 239.288 118.888C238.208 118.888 237.356 118.712 236.732 118.36C236.116 118.016 235.808 117.536 235.808 116.92ZM236.828 116.92C236.828 117.288 237.044 117.572 237.476 117.772C237.916 117.972 238.52 118.072 239.288 118.072C240.056 118.072 240.656 117.972 241.088 117.772C241.528 117.572 241.748 117.288 241.748 116.92C241.748 116.56 241.532 116.284 241.1 116.092C240.668 115.892 240.064 115.792 239.288 115.792C238.512 115.792 237.908 115.892 237.476 116.092C237.044 116.284 236.828 116.56 236.828 116.92ZM241.616 108.352H242.66V111.004H244.208V111.856H242.66V114.7H241.616V108.352ZM253.592 108.328V118.924H252.548V108.328H253.592ZM245.3 112.84C245.3 112.096 245.412 111.448 245.636 110.896C245.868 110.336 246.188 109.904 246.596 109.6C247.012 109.296 247.48 109.144 248 109.144C248.52 109.144 248.984 109.296 249.392 109.6C249.808 109.904 250.128 110.336 250.352 110.896C250.584 111.448 250.7 112.096 250.7 112.84C250.7 113.576 250.584 114.224 250.352 114.784C250.128 115.344 249.808 115.776 249.392 116.08C248.984 116.384 248.52 116.536 248 116.536C247.48 116.536 247.012 116.384 246.596 116.08C246.188 115.776 245.868 115.344 245.636 114.784C245.412 114.224 245.3 113.576 245.3 112.84ZM246.308 112.84C246.308 113.392 246.38 113.88 246.524 114.304C246.668 114.72 246.868 115.044 247.124 115.276C247.38 115.5 247.672 115.612 248 115.612C248.328 115.612 248.62 115.5 248.876 115.276C249.132 115.044 249.332 114.72 249.476 114.304C249.62 113.88 249.692 113.392 249.692 112.84C249.692 112.288 249.62 111.804 249.476 111.388C249.332 110.964 249.132 110.64 248.876 110.416C248.62 110.192 248.328 110.08 248 110.08C247.672 110.08 247.38 110.192 247.124 110.416C246.868 110.64 246.668 110.964 246.524 111.388C246.38 111.804 246.308 112.288 246.308 112.84ZM263.577 108.328V112.528H265.221V113.392H263.577V118.9H262.533V108.328H263.577ZM255.849 109.372H256.881V115.384C258.553 115.368 260.125 115.208 261.597 114.904L261.717 115.768C260.157 116.08 258.485 116.236 256.701 116.236H255.849V109.372ZM266.697 119.428H265.953L266.349 117.028H267.405L266.697 119.428ZM276.594 109.396V114.22H272.514V109.396H276.594ZM275.622 113.392V110.212H273.474V113.392H275.622ZM274.038 115.252H275.082V117.832H281.262V118.672H274.038V115.252ZM277.71 108.532H278.682V111.436H279.966V108.352H280.962V116.212H279.966V112.288H278.682V115.84H277.71V108.532ZM290.592 109.396V116.248H285.72V109.396H290.592ZM289.572 115.408V110.224H286.74V115.408H289.572ZM292.404 108.352H293.448V112.54H295.152V113.404H293.448V118.912H292.404V108.352ZM302.016 109.42V110.284H299.58V111.52C299.58 112.104 299.704 112.684 299.952 113.26C300.2 113.836 300.536 114.348 300.96 114.796C301.384 115.236 301.856 115.568 302.376 115.792L301.788 116.62C301.18 116.34 300.636 115.92 300.156 115.36C299.684 114.8 299.324 114.164 299.076 113.452C298.828 114.22 298.464 114.912 297.984 115.528C297.512 116.136 296.972 116.588 296.364 116.884L295.764 116.056C296.276 115.816 296.744 115.456 297.168 114.976C297.592 114.488 297.924 113.94 298.164 113.332C298.412 112.724 298.536 112.12 298.536 111.52V110.284H296.112V109.42H302.016ZM303.384 108.352H304.428V118.912H303.384V108.352ZM311.58 109.12V113.836H306.708V109.12H311.58ZM307.608 115.156H314.496V118.912H313.452V115.984H307.608V115.156ZM310.572 113.008V109.948H307.728V113.008H310.572ZM313.452 108.352H314.496V111.052H316.032V111.916H314.496V114.604H313.452V108.352ZM329.082 113.728V114.568H324.906V116.656H323.862V114.568H319.518V113.728H329.082ZM320.718 115.648H321.762V117.844H328.026V118.684H320.718V115.648ZM320.742 108.844H327.846V112.576H320.742V108.844ZM326.826 111.736V109.66H321.762V111.736H326.826ZM335.935 109.108V109.96H333.631V110.308C333.631 110.996 333.859 111.624 334.315 112.192C334.771 112.752 335.387 113.16 336.163 113.416L335.671 114.22C335.079 114.028 334.567 113.74 334.135 113.356C333.703 112.964 333.371 112.508 333.139 111.988C332.907 112.588 332.563 113.112 332.107 113.56C331.651 114.008 331.111 114.34 330.487 114.556L329.971 113.728C330.771 113.456 331.407 113.008 331.879 112.384C332.359 111.752 332.599 111.06 332.599 110.308V109.96H330.271V109.108H335.935ZM331.375 116.92C331.375 116.304 331.683 115.828 332.299 115.492C332.923 115.148 333.775 114.976 334.855 114.976C335.943 114.976 336.795 115.148 337.411 115.492C338.027 115.828 338.335 116.304 338.335 116.92C338.335 117.544 338.027 118.028 337.411 118.372C336.795 118.716 335.943 118.888 334.855 118.888C333.775 118.888 332.923 118.712 332.299 118.36C331.683 118.016 331.375 117.536 331.375 116.92ZM332.395 116.92C332.395 117.288 332.611 117.572 333.043 117.772C333.483 117.972 334.087 118.072 334.855 118.072C335.623 118.072 336.223 117.972 336.655 117.772C337.095 117.572 337.315 117.288 337.315 116.92C337.315 116.56 337.099 116.284 336.667 116.092C336.235 115.892 335.631 115.792 334.855 115.792C334.079 115.792 333.475 115.892 333.043 116.092C332.611 116.284 332.395 116.56 332.395 116.92ZM337.183 108.352H338.227V111.004H339.775V111.856H338.227V114.7H337.183V108.352ZM349.483 108.34V118.9H348.487V108.34H349.483ZM340.627 112.9C340.627 112.148 340.719 111.496 340.903 110.944C341.087 110.384 341.347 109.956 341.683 109.66C342.027 109.356 342.423 109.204 342.871 109.204C343.511 109.204 344.031 109.492 344.431 110.068C344.831 110.636 345.063 111.42 345.127 112.42H346.387V108.568H347.371V118.372H346.387V113.272H345.127C345.087 114.304 344.863 115.12 344.455 115.72C344.055 116.312 343.527 116.608 342.871 116.608C342.423 116.608 342.027 116.46 341.683 116.164C341.347 115.86 341.087 115.428 340.903 114.868C340.719 114.308 340.627 113.652 340.627 112.9ZM341.575 112.9C341.575 113.748 341.691 114.416 341.923 114.904C342.155 115.392 342.471 115.636 342.871 115.636C343.279 115.636 343.599 115.396 343.831 114.916C344.063 114.428 344.179 113.756 344.179 112.9C344.179 112.052 344.063 111.388 343.831 110.908C343.599 110.42 343.279 110.176 342.871 110.176C342.471 110.176 342.155 110.42 341.923 110.908C341.691 111.388 341.575 112.052 341.575 112.9ZM357.361 114.844V115.372C357.361 115.852 357.481 116.316 357.721 116.764C357.969 117.204 358.325 117.564 358.789 117.844C359.261 117.548 359.625 117.172 359.881 116.716C360.137 116.252 360.265 115.804 360.265 115.372V114.844H361.273V115.372C361.273 115.932 361.457 116.452 361.825 116.932C362.201 117.412 362.717 117.764 363.373 117.988L362.869 118.756C362.365 118.572 361.933 118.312 361.573 117.976C361.213 117.64 360.937 117.248 360.745 116.8C360.569 117.256 360.321 117.664 360.001 118.024C359.681 118.384 359.289 118.664 358.825 118.864C358.345 118.68 357.937 118.412 357.601 118.06C357.273 117.708 357.025 117.304 356.857 116.848C356.657 117.28 356.381 117.66 356.029 117.988C355.677 118.316 355.261 118.572 354.781 118.756L354.265 117.988C354.913 117.756 355.425 117.396 355.801 116.908C356.177 116.412 356.365 115.9 356.365 115.372V114.844H357.361ZM353.989 111.436C353.989 110.956 354.105 110.528 354.337 110.152C354.577 109.776 354.909 109.484 355.333 109.276C355.757 109.06 356.233 108.952 356.761 108.952C357.289 108.952 357.765 109.06 358.189 109.276C358.613 109.484 358.941 109.776 359.173 110.152C359.413 110.528 359.533 110.956 359.533 111.436C359.533 111.916 359.413 112.34 359.173 112.708C358.941 113.076 358.613 113.364 358.189 113.572C357.765 113.78 357.289 113.884 356.761 113.884C356.233 113.884 355.757 113.78 355.333 113.572C354.909 113.364 354.577 113.076 354.337 112.708C354.105 112.34 353.989 111.916 353.989 111.436ZM355.009 111.436C355.009 111.908 355.173 112.292 355.501 112.588C355.829 112.884 356.249 113.032 356.761 113.032C357.273 113.032 357.693 112.888 358.021 112.6C358.349 112.304 358.513 111.916 358.513 111.436C358.513 110.956 358.349 110.568 358.021 110.272C357.693 109.976 357.273 109.828 356.761 109.828C356.249 109.828 355.829 109.98 355.501 110.284C355.173 110.58 355.009 110.964 355.009 111.436ZM361.393 108.352H362.437V114.376H361.393V108.352ZM367.069 109.144C367.541 109.144 367.965 109.276 368.341 109.54C368.717 109.796 369.021 110.168 369.253 110.656C369.493 111.136 369.637 111.7 369.685 112.348H371.929V108.328H372.949V118.924H371.929V113.176H369.697C369.665 113.856 369.533 114.452 369.301 114.964C369.069 115.468 368.761 115.856 368.377 116.128C367.993 116.4 367.557 116.536 367.069 116.536C366.557 116.536 366.101 116.384 365.701 116.08C365.301 115.776 364.989 115.348 364.765 114.796C364.541 114.236 364.429 113.584 364.429 112.84C364.429 112.096 364.541 111.444 364.765 110.884C364.989 110.324 365.301 109.896 365.701 109.6C366.101 109.296 366.557 109.144 367.069 109.144ZM365.413 112.84C365.413 113.4 365.481 113.888 365.617 114.304C365.761 114.72 365.957 115.044 366.205 115.276C366.453 115.5 366.741 115.612 367.069 115.612C367.397 115.612 367.685 115.5 367.933 115.276C368.181 115.044 368.373 114.72 368.509 114.304C368.653 113.888 368.725 113.4 368.725 112.84C368.725 112.28 368.653 111.792 368.509 111.376C368.373 110.96 368.181 110.64 367.933 110.416C367.685 110.192 367.397 110.08 367.069 110.08C366.741 110.08 366.453 110.192 366.205 110.416C365.957 110.64 365.761 110.96 365.617 111.376C365.481 111.792 365.413 112.28 365.413 112.84ZM377.053 116.704V113.896C376.605 113.648 376.257 113.34 376.009 112.972C375.769 112.604 375.649 112.184 375.649 111.712C375.649 111.168 375.813 110.692 376.141 110.284C376.469 109.868 376.925 109.548 377.509 109.324C378.093 109.1 378.757 108.988 379.501 108.988C380.253 108.988 380.917 109.1 381.493 109.324C382.077 109.548 382.533 109.868 382.861 110.284C383.189 110.692 383.353 111.168 383.353 111.712C383.353 112.176 383.233 112.592 382.993 112.96C382.753 113.328 382.417 113.632 381.985 113.872V116.704H384.301V117.556H374.737V116.704H377.053ZM376.669 111.712C376.669 112.096 376.789 112.432 377.029 112.72C377.269 113.008 377.601 113.232 378.025 113.392C378.457 113.544 378.949 113.62 379.501 113.62C380.053 113.62 380.545 113.544 380.977 113.392C381.409 113.232 381.745 113.008 381.985 112.72C382.225 112.432 382.345 112.096 382.345 111.712C382.345 111.336 382.225 111.004 381.985 110.716C381.745 110.428 381.409 110.204 380.977 110.044C380.545 109.884 380.053 109.804 379.501 109.804C378.949 109.804 378.457 109.884 378.025 110.044C377.601 110.204 377.269 110.428 377.029 110.716C376.789 111.004 376.669 111.336 376.669 111.712ZM380.941 116.704V114.268C380.493 114.38 380.013 114.436 379.501 114.436C379.029 114.436 378.557 114.384 378.085 114.28V116.704H380.941ZM386.138 116.896C386.322 116.896 386.474 116.956 386.594 117.076C386.714 117.196 386.774 117.352 386.774 117.544C386.774 117.736 386.714 117.892 386.594 118.012C386.474 118.14 386.322 118.204 386.138 118.204C385.946 118.204 385.786 118.14 385.658 118.012C385.538 117.892 385.478 117.736 385.478 117.544C385.478 117.352 385.538 117.196 385.658 117.076C385.786 116.956 385.946 116.896 386.138 116.896Z" fill="#414654"/>
<path d="M189 147C189 142.582 192.582 139 197 139H389C393.418 139 397 142.582 397 147V179C397 183.418 393.418 187 389 187H189V147Z" fill="#F3F4F6"/>
<path d="M206.42 149.34V159.9H205.424V149.34H206.42ZM197.312 157.044C198.024 156.604 198.576 155.952 198.968 155.088C199.368 154.224 199.568 153.296 199.568 152.304V151.416H197.6V150.552H202.412V151.416H200.576V152.304C200.576 153.248 200.768 154.132 201.152 154.956C201.536 155.772 202.08 156.388 202.784 156.804L202.16 157.56C201.672 157.264 201.252 156.856 200.9 156.336C200.548 155.808 200.276 155.208 200.084 154.536C199.892 155.264 199.616 155.912 199.256 156.48C198.896 157.048 198.46 157.492 197.948 157.812L197.312 157.044ZM201.62 153.12H203.312V149.58H204.284V159.372H203.312V153.972H201.62V153.12ZM211.724 150.252V152.088C211.724 152.72 211.844 153.344 212.084 153.96C212.332 154.576 212.668 155.124 213.092 155.604C213.516 156.084 213.988 156.444 214.508 156.684L213.896 157.524C213.296 157.228 212.76 156.792 212.288 156.216C211.824 155.64 211.468 154.98 211.22 154.236C210.98 155.028 210.62 155.732 210.14 156.348C209.668 156.956 209.12 157.416 208.496 157.728L207.86 156.864C208.388 156.616 208.868 156.244 209.3 155.748C209.732 155.252 210.068 154.684 210.308 154.044C210.556 153.404 210.68 152.752 210.68 152.088V150.252H211.724ZM215.54 149.328H216.584V159.924H215.54V149.328ZM227.985 154.728V155.568H223.809V157.656H222.765V155.568H218.421V154.728H227.985ZM219.621 156.648H220.665V158.844H226.929V159.684H219.621V156.648ZM219.645 149.844H226.749V153.576H219.645V149.844ZM225.729 152.736V150.66H220.665V152.736H225.729ZM236.342 154.524C236.718 154.748 237.014 155.052 237.23 155.436C237.446 155.812 237.554 156.184 237.554 156.552C237.554 157.04 237.434 157.476 237.194 157.86C236.954 158.244 236.618 158.544 236.186 158.76C235.754 158.976 235.262 159.084 234.71 159.084C234.158 159.084 233.666 158.976 233.234 158.76C232.802 158.544 232.466 158.244 232.226 157.86C231.986 157.468 231.866 157.024 231.866 156.528H232.862C232.862 157.016 233.034 157.416 233.378 157.728C233.722 158.04 234.166 158.196 234.71 158.196C235.254 158.196 235.698 158.044 236.042 157.74C236.394 157.428 236.57 157.028 236.57 156.54C236.57 156.076 236.398 155.696 236.054 155.4C235.71 155.104 235.27 154.956 234.734 154.956H234.098V154.068H234.734C235.238 154.068 235.65 153.936 235.97 153.672C236.29 153.4 236.45 153.052 236.45 152.628C236.45 152.188 236.294 151.832 235.982 151.56C235.67 151.28 235.27 151.14 234.782 151.14C234.294 151.14 233.894 151.28 233.582 151.56C233.27 151.84 233.114 152.204 233.114 152.652H232.118C232.118 152.188 232.23 151.776 232.454 151.416C232.678 151.048 232.99 150.764 233.39 150.564C233.798 150.356 234.262 150.252 234.782 150.252C235.294 150.252 235.75 150.352 236.15 150.552C236.55 150.752 236.862 151.032 237.086 151.392C237.318 151.752 237.434 152.16 237.434 152.616C237.434 152.96 237.334 153.308 237.134 153.66C236.942 154.012 236.678 154.3 236.342 154.524ZM242.055 150.096C242.599 150.096 243.083 150.204 243.507 150.42C243.939 150.628 244.275 150.924 244.515 151.308C244.763 151.684 244.887 152.116 244.887 152.604C244.887 153.092 244.763 153.528 244.515 153.912C244.275 154.288 243.939 154.584 243.507 154.8C243.083 155.008 242.599 155.112 242.055 155.112C241.511 155.112 241.023 155.008 240.591 154.8C240.159 154.584 239.819 154.288 239.571 153.912C239.331 153.528 239.211 153.092 239.211 152.604C239.211 152.116 239.331 151.684 239.571 151.308C239.819 150.924 240.159 150.628 240.591 150.42C241.023 150.204 241.511 150.096 242.055 150.096ZM238.695 156.756C240.095 156.756 241.335 156.736 242.415 156.696C243.503 156.656 244.547 156.556 245.547 156.396L245.631 157.164C244.599 157.364 243.539 157.492 242.451 157.548C241.363 157.604 240.155 157.632 238.827 157.632L238.695 156.756ZM240.219 152.604C240.219 153.076 240.391 153.464 240.735 153.768C241.087 154.064 241.527 154.212 242.055 154.212C242.583 154.212 243.019 154.064 243.363 153.768C243.707 153.464 243.879 153.076 243.879 152.604C243.879 152.132 243.707 151.748 243.363 151.452C243.019 151.148 242.583 150.996 242.055 150.996C241.519 150.996 241.079 151.148 240.735 151.452C240.391 151.748 240.219 152.132 240.219 152.604ZM246.231 149.328H247.263V159.924H246.231V149.328ZM254.901 159.012H253.905V151.44L252.489 152.352L251.997 151.56L253.905 150.336H254.901V159.012ZM266.106 154.728V155.568H261.93V157.656H260.886V155.568H256.542V154.728H266.106ZM257.742 156.648H258.786V158.844H265.05V159.684H257.742V156.648ZM257.766 149.844H264.87V153.576H257.766V149.844ZM263.85 152.736V150.66H258.786V152.736H263.85ZM275.262 149.34V152.448H276.81V153.3H275.262V156.984H274.218V149.34H275.262ZM267.534 150.24H272.202V151.092H268.566V154.284C269.622 154.284 270.482 154.26 271.146 154.212C271.818 154.164 272.482 154.072 273.138 153.936L273.258 154.776C272.546 154.92 271.834 155.02 271.122 155.076C270.418 155.124 269.498 155.148 268.362 155.148H267.534V150.24ZM268.662 156.216H269.694V158.832H275.718V159.672H268.662V156.216ZM282.9 150.564V149.304H283.932V150.564H286.224V151.404H283.92V151.62C283.92 152.252 284.152 152.84 284.616 153.384C285.08 153.92 285.7 154.312 286.476 154.56L285.996 155.376C285.404 155.184 284.888 154.904 284.448 154.536C284.016 154.16 283.68 153.724 283.44 153.228C283.208 153.788 282.868 154.28 282.42 154.704C281.972 155.12 281.44 155.432 280.824 155.64L280.308 154.836C281.092 154.572 281.72 154.148 282.192 153.564C282.664 152.972 282.9 152.324 282.9 151.62V151.404H280.584V150.564H282.9ZM281.532 159.048C282.172 158.944 282.76 158.752 283.296 158.472C283.84 158.192 284.268 157.852 284.58 157.452C284.9 157.044 285.06 156.616 285.06 156.168V155.952H286.116V156.168C286.116 156.632 286.272 157.064 286.584 157.464C286.896 157.864 287.32 158.204 287.856 158.484C288.392 158.756 288.984 158.944 289.632 159.048L289.224 159.876C288.4 159.732 287.664 159.456 287.016 159.048C286.368 158.648 285.892 158.156 285.588 157.572C285.284 158.148 284.804 158.64 284.148 159.048C283.5 159.456 282.764 159.732 281.94 159.876L281.532 159.048ZM285.924 152.304H287.964V149.352H289.008V156.636H287.964V153.156H285.924V152.304ZM299.904 149.352V159.912H298.92V154.464H297.84V159.372H296.88V149.568H297.84V153.624H298.92V149.352H299.904ZM290.568 156.684C291.104 156.244 291.476 155.644 291.684 154.884C291.892 154.124 291.996 153.324 291.996 152.484V151.452H290.916V150.612H293.508V151.452H292.896V152.484C292.896 153.164 292.944 153.816 293.04 154.44C293.136 155.064 293.344 155.632 293.664 156.144C293.976 155.664 294.18 155.116 294.276 154.5C294.372 153.884 294.42 153.212 294.42 152.484V151.452H293.808V150.612H296.304V151.452H295.32V152.484C295.32 153.34 295.424 154.148 295.632 154.908C295.84 155.66 296.216 156.252 296.76 156.684L296.172 157.404C295.572 156.924 295.148 156.172 294.9 155.148C294.66 156.236 294.244 157.024 293.652 157.512C293.068 157.016 292.656 156.216 292.416 155.112C292.152 156.16 291.728 156.924 291.144 157.404L290.568 156.684ZM313.578 153.72V154.56H309.318V155.556H312.354V158.016H306.222V158.988H312.678V159.792H305.214V157.272H311.346V156.348H305.178V155.556H308.274V154.56H304.038V153.72H313.578ZM304.53 152.448C305.162 152.4 305.742 152.288 306.27 152.112C306.806 151.928 307.242 151.7 307.578 151.428C307.922 151.148 308.126 150.848 308.19 150.528H304.914V149.688H312.714V150.528H309.426C309.49 150.848 309.69 151.148 310.026 151.428C310.37 151.7 310.81 151.928 311.346 152.112C311.882 152.288 312.462 152.4 313.086 152.448L312.75 153.24C311.846 153.152 311.042 152.948 310.338 152.628C309.634 152.308 309.126 151.9 308.814 151.404C308.502 151.9 307.99 152.308 307.278 152.628C306.574 152.948 305.77 153.152 304.866 153.24L304.53 152.448ZM323.502 149.34V159.9H322.506V149.34H323.502ZM314.646 153.9C314.646 153.148 314.738 152.496 314.922 151.944C315.106 151.384 315.366 150.956 315.702 150.66C316.046 150.356 316.442 150.204 316.89 150.204C317.53 150.204 318.05 150.492 318.45 151.068C318.85 151.636 319.082 152.42 319.146 153.42H320.406V149.568H321.39V159.372H320.406V154.272H319.146C319.106 155.304 318.882 156.12 318.474 156.72C318.074 157.312 317.546 157.608 316.89 157.608C316.442 157.608 316.046 157.46 315.702 157.164C315.366 156.86 315.106 156.428 314.922 155.868C314.738 155.308 314.646 154.652 314.646 153.9ZM315.594 153.9C315.594 154.748 315.71 155.416 315.942 155.904C316.174 156.392 316.49 156.636 316.89 156.636C317.298 156.636 317.618 156.396 317.85 155.916C318.082 155.428 318.198 154.756 318.198 153.9C318.198 153.052 318.082 152.388 317.85 151.908C317.618 151.42 317.298 151.176 316.89 151.176C316.49 151.176 316.174 151.42 315.942 151.908C315.71 152.388 315.594 153.052 315.594 153.9ZM332.683 152.892V149.328H333.715V159.924H332.683V153.744H330.283V152.892H332.683ZM324.979 156.852C325.491 156.596 325.955 156.22 326.371 155.724C326.787 155.22 327.111 154.652 327.343 154.02C327.583 153.38 327.703 152.736 327.703 152.088V150.24H328.735V152.088C328.735 152.72 328.851 153.344 329.083 153.96C329.315 154.568 329.635 155.112 330.043 155.592C330.451 156.072 330.911 156.432 331.423 156.672L330.811 157.512C330.227 157.208 329.711 156.768 329.263 156.192C328.815 155.616 328.471 154.956 328.231 154.212C327.999 154.988 327.655 155.684 327.199 156.3C326.743 156.916 326.219 157.38 325.627 157.692L324.979 156.852ZM339.541 149.604H340.261L339.865 152.028H338.797L339.541 149.604ZM350.12 149.328V159.924H349.076V149.328H350.12ZM341.828 153.84C341.828 153.096 341.94 152.448 342.164 151.896C342.396 151.336 342.716 150.904 343.124 150.6C343.54 150.296 344.008 150.144 344.528 150.144C345.048 150.144 345.512 150.296 345.92 150.6C346.336 150.904 346.656 151.336 346.88 151.896C347.112 152.448 347.228 153.096 347.228 153.84C347.228 154.576 347.112 155.224 346.88 155.784C346.656 156.344 346.336 156.776 345.92 157.08C345.512 157.384 345.048 157.536 344.528 157.536C344.008 157.536 343.54 157.384 343.124 157.08C342.716 156.776 342.396 156.344 342.164 155.784C341.94 155.224 341.828 154.576 341.828 153.84ZM342.836 153.84C342.836 154.392 342.908 154.88 343.052 155.304C343.196 155.72 343.396 156.044 343.652 156.276C343.908 156.5 344.2 156.612 344.528 156.612C344.856 156.612 345.148 156.5 345.404 156.276C345.66 156.044 345.86 155.72 346.004 155.304C346.148 154.88 346.22 154.392 346.22 153.84C346.22 153.288 346.148 152.804 346.004 152.388C345.86 151.964 345.66 151.64 345.404 151.416C345.148 151.192 344.856 151.08 344.528 151.08C344.2 151.08 343.908 151.192 343.652 151.416C343.396 151.64 343.196 151.964 343.052 152.388C342.908 152.804 342.836 153.288 342.836 153.84ZM357.338 157.776V155.352H355.586V154.512H357.158V151.14H355.55V150.3H363.41V151.14H361.802V154.512H363.398V155.352H361.622V157.776H364.286V158.628H354.722V157.776H357.338ZM360.77 154.512V151.14H358.202V154.512H360.77ZM360.602 157.776V155.352H358.37V157.776H360.602ZM373.91 149.352V157.404H372.866V155.196H371.126V154.356H372.866V152.964H371.126V152.124H372.866V149.352H373.91ZM365.21 150.6H367.694V149.328H368.738V150.6H371.126V151.44H365.21V150.6ZM365.798 154.02C365.798 153.62 365.898 153.268 366.098 152.964C366.306 152.652 366.59 152.412 366.95 152.244C367.318 152.076 367.734 151.992 368.198 151.992C368.67 151.992 369.086 152.076 369.446 152.244C369.814 152.412 370.098 152.652 370.298 152.964C370.506 153.268 370.61 153.62 370.61 154.02C370.61 154.412 370.506 154.764 370.298 155.076C370.098 155.38 369.814 155.616 369.446 155.784C369.078 155.952 368.662 156.036 368.198 156.036C367.734 156.036 367.318 155.952 366.95 155.784C366.59 155.616 366.306 155.38 366.098 155.076C365.898 154.764 365.798 154.412 365.798 154.02ZM366.782 154.02C366.782 154.388 366.91 154.684 367.166 154.908C367.43 155.124 367.774 155.232 368.198 155.232C368.622 155.232 368.966 155.124 369.23 154.908C369.494 154.684 369.626 154.388 369.626 154.02C369.626 153.66 369.494 153.368 369.23 153.144C368.966 152.92 368.622 152.808 368.198 152.808C367.774 152.808 367.43 152.92 367.166 153.144C366.91 153.368 366.782 153.66 366.782 154.02ZM367.094 156.708H368.138V158.832H374.162V159.672H367.094V156.708ZM376.718 152.04H375.998L376.394 149.616H377.462L376.718 152.04ZM387.873 149.34V159.9H386.877V149.34H387.873ZM379.017 153.9C379.017 153.148 379.109 152.496 379.293 151.944C379.477 151.384 379.737 150.956 380.073 150.66C380.417 150.356 380.813 150.204 381.261 150.204C381.901 150.204 382.421 150.492 382.821 151.068C383.221 151.636 383.453 152.42 383.517 153.42H384.777V149.568H385.761V159.372H384.777V154.272H383.517C383.477 155.304 383.253 156.12 382.845 156.72C382.445 157.312 381.917 157.608 381.261 157.608C380.813 157.608 380.417 157.46 380.073 157.164C379.737 156.86 379.477 156.428 379.293 155.868C379.109 155.308 379.017 154.652 379.017 153.9ZM379.965 153.9C379.965 154.748 380.081 155.416 380.313 155.904C380.545 156.392 380.861 156.636 381.261 156.636C381.669 156.636 381.989 156.396 382.221 155.916C382.453 155.428 382.569 154.756 382.569 153.9C382.569 153.052 382.453 152.388 382.221 151.908C381.989 151.42 381.669 151.176 381.261 151.176C380.861 151.176 380.545 151.42 380.313 151.908C380.081 152.388 379.965 153.052 379.965 153.9ZM207.008 171.34V172.192H202.724V175.912H201.692V172.192H197.456V171.34H207.008ZM198.008 169.66C198.648 169.572 199.244 169.392 199.796 169.12C200.356 168.84 200.804 168.5 201.14 168.1C201.476 167.692 201.644 167.272 201.644 166.84V166.828H198.344V165.988H206.084V166.828H202.808V166.84C202.808 167.272 202.976 167.692 203.312 168.1C203.648 168.5 204.096 168.84 204.656 169.12C205.216 169.392 205.816 169.572 206.456 169.66L206.06 170.5C205.204 170.356 204.428 170.076 203.732 169.66C203.044 169.236 202.544 168.72 202.232 168.112C201.912 168.72 201.408 169.236 200.72 169.66C200.032 170.076 199.26 170.356 198.404 170.5L198.008 169.66ZM216.26 165.796V169.396H213.224V170.68H217.484V171.52H207.944V170.68H212.192V169.396H209.156V165.796H216.26ZM209 172.564H216.308V175.912H215.276V173.404H209V172.564ZM215.24 168.556V166.624H210.176V168.556H215.24ZM220.509 167.128V165.64H221.529V167.128H223.617V167.968H218.409V167.128H220.509ZM218.757 171.064C218.757 170.6 218.853 170.184 219.045 169.816C219.245 169.448 219.517 169.16 219.861 168.952C220.205 168.744 220.593 168.64 221.025 168.64C221.457 168.64 221.845 168.744 222.189 168.952C222.541 169.16 222.813 169.448 223.005 169.816C223.205 170.184 223.305 170.6 223.305 171.064C223.305 171.536 223.205 171.956 223.005 172.324C222.813 172.692 222.541 172.98 222.189 173.188C221.845 173.388 221.457 173.488 221.025 173.488C220.593 173.488 220.201 173.388 219.849 173.188C219.505 172.98 219.237 172.692 219.045 172.324C218.853 171.956 218.757 171.536 218.757 171.064ZM219.681 171.064C219.681 171.52 219.805 171.892 220.053 172.18C220.309 172.468 220.633 172.612 221.025 172.612C221.417 172.612 221.741 172.468 221.997 172.18C222.253 171.892 222.381 171.52 222.381 171.064C222.381 170.608 222.253 170.236 221.997 169.948C221.741 169.66 221.417 169.516 221.025 169.516C220.633 169.516 220.309 169.66 220.053 169.948C219.805 170.236 219.681 170.608 219.681 171.064ZM224.133 165.592H225.105V169.768H226.389V165.34H227.373V175.9H226.389V170.62H225.105V175.396H224.133V165.592ZM231.741 166.144C232.253 166.144 232.709 166.296 233.109 166.6C233.517 166.904 233.833 167.336 234.057 167.896C234.281 168.448 234.393 169.096 234.393 169.84C234.393 170.576 234.281 171.224 234.057 171.784C233.833 172.344 233.517 172.776 233.109 173.08C232.709 173.384 232.253 173.536 231.741 173.536C231.221 173.536 230.757 173.384 230.349 173.08C229.949 172.776 229.633 172.344 229.401 171.784C229.177 171.224 229.065 170.576 229.065 169.84C229.065 169.096 229.177 168.448 229.401 167.896C229.633 167.336 229.949 166.904 230.349 166.6C230.757 166.296 231.221 166.144 231.741 166.144ZM230.061 169.84C230.061 170.4 230.129 170.888 230.265 171.304C230.409 171.72 230.609 172.044 230.865 172.276C231.121 172.5 231.413 172.612 231.741 172.612C232.069 172.612 232.357 172.5 232.605 172.276C232.861 172.044 233.057 171.72 233.193 171.304C233.337 170.88 233.409 170.392 233.409 169.84C233.409 169.288 233.337 168.804 233.193 168.388C233.057 167.964 232.861 167.64 232.605 167.416C232.357 167.192 232.069 167.08 231.741 167.08C231.413 167.08 231.121 167.192 230.865 167.416C230.609 167.64 230.409 167.964 230.265 168.388C230.129 168.804 230.061 169.288 230.061 169.84ZM236.013 165.352H237.069V167.98H238.713V168.844H237.069V171.112H238.713V171.976H237.069V175.912H236.013V165.352ZM244.251 167.128V165.64H245.271V167.128H247.359V167.968H242.151V167.128H244.251ZM242.499 171.064C242.499 170.6 242.595 170.184 242.787 169.816C242.987 169.448 243.259 169.16 243.603 168.952C243.947 168.744 244.335 168.64 244.767 168.64C245.199 168.64 245.587 168.744 245.931 168.952C246.283 169.16 246.555 169.448 246.747 169.816C246.947 170.184 247.047 170.6 247.047 171.064C247.047 171.536 246.947 171.956 246.747 172.324C246.555 172.692 246.283 172.98 245.931 173.188C245.587 173.388 245.199 173.488 244.767 173.488C244.335 173.488 243.943 173.388 243.591 173.188C243.247 172.98 242.979 172.692 242.787 172.324C242.595 171.956 242.499 171.536 242.499 171.064ZM243.423 171.064C243.423 171.52 243.547 171.892 243.795 172.18C244.051 172.468 244.375 172.612 244.767 172.612C245.159 172.612 245.483 172.468 245.739 172.18C245.995 171.892 246.123 171.52 246.123 171.064C246.123 170.608 245.995 170.236 245.739 169.948C245.483 169.66 245.159 169.516 244.767 169.516C244.375 169.516 244.051 169.66 243.795 169.948C243.547 170.236 243.423 170.608 243.423 171.064ZM247.875 165.592H248.847V169.768H250.131V165.34H251.115V175.9H250.131V170.62H248.847V175.396H247.875V165.592ZM254.979 173.704V170.896C254.531 170.648 254.183 170.34 253.935 169.972C253.695 169.604 253.575 169.184 253.575 168.712C253.575 168.168 253.739 167.692 254.067 167.284C254.395 166.868 254.851 166.548 255.435 166.324C256.019 166.1 256.683 165.988 257.427 165.988C258.179 165.988 258.843 166.1 259.419 166.324C260.003 166.548 260.459 166.868 260.787 167.284C261.115 167.692 261.279 168.168 261.279 168.712C261.279 169.176 261.159 169.592 260.919 169.96C260.679 170.328 260.343 170.632 259.911 170.872V173.704H262.227V174.556H252.663V173.704H254.979ZM254.595 168.712C254.595 169.096 254.715 169.432 254.955 169.72C255.195 170.008 255.527 170.232 255.951 170.392C256.383 170.544 256.875 170.62 257.427 170.62C257.979 170.62 258.471 170.544 258.903 170.392C259.335 170.232 259.671 170.008 259.911 169.72C260.151 169.432 260.271 169.096 260.271 168.712C260.271 168.336 260.151 168.004 259.911 167.716C259.671 167.428 259.335 167.204 258.903 167.044C258.471 166.884 257.979 166.804 257.427 166.804C256.875 166.804 256.383 166.884 255.951 167.044C255.527 167.204 255.195 167.428 254.955 167.716C254.715 168.004 254.595 168.336 254.595 168.712ZM258.867 173.704V171.268C258.419 171.38 257.939 171.436 257.427 171.436C256.955 171.436 256.483 171.384 256.011 171.28V173.704H258.867ZM264.063 173.896C264.247 173.896 264.399 173.956 264.519 174.076C264.639 174.196 264.699 174.352 264.699 174.544C264.699 174.736 264.639 174.892 264.519 175.012C264.399 175.14 264.247 175.204 264.063 175.204C263.871 175.204 263.711 175.14 263.583 175.012C263.463 174.892 263.403 174.736 263.403 174.544C263.403 174.352 263.463 174.196 263.583 174.076C263.711 173.956 263.871 173.896 264.063 173.896Z" fill="#414654"/>
<path d="M189 204C189 199.582 192.582 196 197 196H233.03C237.448 196 241.03 199.582 241.03 204V218C241.03 222.418 237.448 226 233.03 226H189V204Z" fill="#F3F4F6"/>
<path d="M203.014 208.996C204.118 208.996 205.03 209.884 205.03 210.988C205.03 212.116 204.118 213.004 203.014 213.004C201.886 213.004 200.998 212.116 200.998 210.988C200.998 209.884 201.886 208.996 203.014 208.996Z" fill="#AFB3C0"/>
<path d="M215.014 208.996C216.118 208.996 217.03 209.884 217.03 210.988C217.03 212.116 216.118 213.004 215.014 213.004C213.886 213.004 212.998 212.116 212.998 210.988C212.998 209.884 213.886 208.996 215.014 208.996Z" fill="#AFB3C0"/>
<path d="M227.014 208.996C228.118 208.996 229.03 209.884 229.03 210.988C229.03 212.116 228.118 213.004 227.014 213.004C225.886 213.004 224.998 212.116 224.998 210.988C224.998 209.884 225.886 208.996 227.014 208.996Z" fill="#AFB3C0"/>
</g>
<rect x="0.5" y="0.5" width="647" height="299" rx="7.5" stroke="#ECEDF0"/>
<defs>
<filter id="filter0_d_2688_13246" x="123" y="-32" width="408" height="372" filterUnits="userSpaceOnUse" color-interpolation-filters="sRGB">
<feFlood flood-opacity="0" result="BackgroundImageFix"/>
<feColorMatrix in="SourceAlpha" type="matrix" values="0 0 0 0 0 0 0 0 0 0 0 0 0 0 0 0 0 0 127 0" result="hardAlpha"/>
<feOffset dy="4"/>
<feGaussianBlur stdDeviation="18"/>
<feComposite in2="hardAlpha" operator="out"/>
<feColorMatrix type="matrix" values="0 0 0 0 0 0 0 0 0 0 0 0 0 0 0 0 0 0 0.11 0"/>
<feBlend mode="normal" in2="BackgroundImageFix" result="effect1_dropShadow_2688_13246"/>
<feBlend mode="normal" in="SourceGraphic" in2="effect1_dropShadow_2688_13246" result="shape"/>
</filter>
<radialGradient id="paint0_radial_2688_13246" cx="0" cy="0" r="1" gradientUnits="userSpaceOnUse" gradientTransform="translate(324 150) rotate(90) scale(342 440.302)">
<stop stop-color="#C4CBFF"/>
<stop offset="1" stop-color="#FDFDFF"/>
</radialGradient>
<clipPath id="clip0_2688_13246">
<rect width="648" height="300" rx="8" fill="white"/>
</clipPath>
</defs>
</svg>
