<svg width="20" height="20" viewBox="0 0 20 20" fill="none" xmlns="http://www.w3.org/2000/svg">
<g id="Frame 1171276141">
<g id="Group 1171276033">
<g id="Group 1171276032">
<rect id="Rectangle 40275" x="2" y="7" width="16" height="11" rx="2" fill="#73798D"/>
<rect id="Rectangle 40277" x="9" y="7" width="2" height="11" fill="#AFB3C0"/>
<path id="Ellipse 8740" d="M9.49697 6.87633C9.37914 7.13428 9.08844 7.38744 8.54903 7.49217C8.01193 7.59645 7.31114 7.52695 6.59974 7.20199C5.88834 6.87703 5.37697 6.39283 5.10414 5.91858C4.83013 5.44229 4.83116 5.05681 4.94899 4.79886C5.06681 4.54091 5.35751 4.28774 5.89693 4.18301C6.43403 4.07874 7.13482 4.14824 7.84622 4.4732C8.55762 4.79816 9.06898 5.28236 9.34182 5.7566C9.61583 6.23289 9.61479 6.61838 9.49697 6.87633Z" stroke="#AFB3C0" stroke-width="2"/>
<path id="Ellipse 8741" d="M10.9477 6.8761C11.0586 7.11886 11.3463 7.37283 11.9136 7.47281C12.4757 7.57187 13.2128 7.4905 13.9644 7.14719C14.716 6.80387 15.2601 6.29998 15.5532 5.81026C15.8491 5.31603 15.8455 4.93224 15.7346 4.68948C15.6237 4.44672 15.336 4.19275 14.7687 4.09278C14.2066 3.99371 13.4695 4.07508 12.7179 4.4184C11.9663 4.76171 11.4222 5.2656 11.1291 5.75532C10.8332 6.24955 10.8368 6.63334 10.9477 6.8761Z" stroke="#AFB3C0" stroke-width="2"/>
</g>
</g>
</g>
</svg>
