<svg width="24" height="24" viewBox="0 0 24 24" fill="none" xmlns="http://www.w3.org/2000/svg">
<path d="M20.0052 9.50321L20.0052 9.50327L20.0088 9.4994C20.1347 9.36433 20.2032 9.18569 20.2 9.0011C20.1967 8.81652 20.1219 8.6404 19.9914 8.50986C19.8608 8.37932 19.6847 8.30454 19.5001 8.30128C19.3155 8.29803 19.1369 8.36654 19.0018 8.4924L19.0018 8.49233L18.998 8.49607L12.0016 15.4916L5.00515 8.49607L5.00522 8.496L5.00135 8.4924C4.86629 8.36654 4.68764 8.29803 4.50306 8.30128C4.31847 8.30454 4.14235 8.37932 4.01181 8.50986C3.88127 8.6404 3.80649 8.81652 3.80324 9.0011C3.79998 9.18569 3.8685 9.36433 3.99435 9.4994L3.99428 9.49946L3.99803 9.50321L11.498 17.0032L11.4981 17.0033C11.6317 17.1367 11.8128 17.2116 12.0016 17.2116C12.1904 17.2116 12.3715 17.1367 12.5051 17.0033L12.5052 17.0032L20.0052 9.50321Z" fill="#5A6072" stroke="#5A6072" stroke-width="0.3"/>
</svg>
