<svg width="24" height="24" viewBox="0 0 24 24" fill="none" xmlns="http://www.w3.org/2000/svg">
<path d="M16.9031 9.58748L12.2453 14.2453C12.1798 14.3107 12.091 14.3474 11.9984 14.3474C11.9058 14.3474 11.817 14.3107 11.7515 14.2453L7.09376 9.58748C7.03205 9.52126 6.99846 9.43367 7.00005 9.34317C7.00165 9.25267 7.03831 9.16632 7.10232 9.10232C7.16632 9.03831 7.25267 9.00165 7.34317 9.00005C7.43367 8.99846 7.52126 9.03205 7.58748 9.09376L11.9984 13.5041L16.4093 9.09376C16.4756 9.03205 16.5631 8.99846 16.6536 9.00005C16.7441 9.00165 16.8305 9.03831 16.8945 9.10232C16.9585 9.16632 16.9952 9.25267 16.9968 9.34317C16.9984 9.43367 16.9648 9.52126 16.9031 9.58748Z" fill="#6478FF"/>
<path fill-rule="evenodd" clip-rule="evenodd" d="M17.2628 9.9348L12.5988 14.5988C12.4396 14.7579 12.2235 14.8474 11.9984 14.8474C11.7733 14.8474 11.5575 14.7581 11.3982 14.599L6.73397 9.9348L6.72795 9.92834C6.57793 9.76734 6.49625 9.55439 6.50013 9.33435C6.50401 9.11432 6.59315 8.90438 6.74876 8.74876C6.90438 8.59315 7.11431 8.50401 7.33435 8.50013C7.55439 8.49625 7.76734 8.57793 7.92834 8.72795L7.93479 8.73396L11.9984 12.797L16.062 8.73396L16.0685 8.72795C16.2295 8.57793 16.4424 8.49625 16.6625 8.50013C16.8825 8.50401 17.0924 8.59315 17.248 8.74876C17.4037 8.90438 17.4928 9.11432 17.4967 9.33435C17.5006 9.55439 17.4189 9.76734 17.2689 9.92834L17.2628 9.9348ZM11.9984 13.5041L7.58748 9.09376C7.52126 9.03205 7.43367 8.99846 7.34317 9.00005C7.25267 9.00165 7.16632 9.03831 7.10232 9.10232C7.03831 9.16632 7.00165 9.25267 7.00005 9.34317C6.99846 9.43367 7.03205 9.52126 7.09376 9.58748L11.7515 14.2453C11.817 14.3107 11.9058 14.3474 11.9984 14.3474C12.091 14.3474 12.1798 14.3107 12.2453 14.2453L16.9031 9.58748C16.9648 9.52126 16.9984 9.43367 16.9968 9.34317C16.9952 9.25267 16.9585 9.16632 16.8945 9.10232C16.8305 9.03831 16.7441 9.00165 16.6536 9.00005C16.5631 8.99846 16.4756 9.03205 16.4093 9.09376L11.9984 13.5041Z" fill="#6478FF"/>
</svg>
