<svg width="24" height="24" viewBox="0 0 24 24" fill="none" xmlns="http://www.w3.org/2000/svg">
<path d="M16.9031 9.58773L12.2453 14.2455C12.1798 14.3109 12.091 14.3477 11.9984 14.3477C11.9058 14.3477 11.817 14.3109 11.7515 14.2455L7.09376 9.58773C7.03205 9.5215 6.99846 9.43392 7.00005 9.34342C7.00165 9.25291 7.03831 9.16657 7.10232 9.10256C7.16632 9.03856 7.25267 9.0019 7.34317 9.0003C7.43367 8.9987 7.52126 9.0323 7.58748 9.094L11.9984 13.5043L16.4093 9.094C16.4756 9.0323 16.5631 8.9987 16.6536 9.0003C16.7441 9.0019 16.8305 9.03856 16.8945 9.10256C16.9585 9.16657 16.9952 9.25291 16.9968 9.34342C16.9984 9.43392 16.9648 9.5215 16.9031 9.58773Z" fill="#5A6072"/>
<path fill-rule="evenodd" clip-rule="evenodd" d="M17.2628 9.93504L12.5988 14.5991C12.4396 14.7581 12.2235 14.8477 11.9984 14.8477C11.7733 14.8477 11.5575 14.7583 11.3982 14.5993L6.73397 9.93504L6.72795 9.92859C6.57793 9.76758 6.49625 9.55463 6.50013 9.3346C6.50401 9.11456 6.59315 8.90462 6.74876 8.74901C6.90438 8.5934 7.11431 8.50426 7.33435 8.50038C7.55439 8.49649 7.76734 8.57817 7.92834 8.7282L7.93479 8.7342L11.9984 12.7973L16.062 8.7342L16.0685 8.7282C16.2295 8.57817 16.4424 8.49649 16.6625 8.50038C16.8825 8.50426 17.0924 8.5934 17.248 8.74901C17.4037 8.90462 17.4928 9.11456 17.4967 9.3346C17.5006 9.55463 17.4189 9.76758 17.2689 9.92859L17.2628 9.93504ZM11.9984 13.5043L7.58748 9.094C7.52126 9.0323 7.43367 8.9987 7.34317 9.0003C7.25267 9.0019 7.16632 9.03856 7.10232 9.10256C7.03831 9.16657 7.00165 9.25291 7.00005 9.34342C6.99846 9.43392 7.03205 9.5215 7.09376 9.58773L11.7515 14.2455C11.817 14.3109 11.9058 14.3477 11.9984 14.3477C12.091 14.3477 12.1798 14.3109 12.2453 14.2455L16.9031 9.58773C16.9648 9.5215 16.9984 9.43392 16.9968 9.34342C16.9952 9.25291 16.9585 9.16657 16.8945 9.10256C16.8305 9.03856 16.7441 9.0019 16.6536 9.0003C16.5631 8.9987 16.4756 9.0323 16.4093 9.094L11.9984 13.5043Z" fill="#5A6072"/>
</svg>
