<svg width="104" height="62" viewBox="0 0 104 62" fill="none" xmlns="http://www.w3.org/2000/svg">
<path d="M2.61524 4.54115C2.04782 2.23067 3.79696 0 6.1761 0H60.7707C62.4589 0 63.929 1.15269 64.3316 2.79218L77.5963 56.805C78.1637 59.1155 76.4146 61.3462 74.0354 61.3462H19.4408C17.7526 61.3462 16.2826 60.1935 15.88 58.554L2.61524 4.54115Z" fill="#C6CAD2"/>
<path d="M33.6407 40.0772C32.1583 40.0772 31.4746 39.285 31.2018 38.8084C30.4326 37.4805 30.8468 35.5215 32.5067 32.6422C33.3251 31.2222 34.5742 29.4308 36.0434 27.6197C35.7969 25.2367 35.1625 23.4716 34.607 23.258C33.6045 23.2185 31.4253 24.2835 28.2468 27.4291C27.8294 27.8432 27.4284 28.2574 27.0438 28.6715C27.4645 31.7974 26.3831 34.9693 24.858 37.0532C23.4742 38.9465 21.7716 39.9326 20.184 39.8011C19.1157 39.7025 18.0869 38.8906 18.1954 37.2965C18.3269 35.3933 20.7263 31.4457 23.8325 27.8334C23.7832 27.6888 23.7273 27.5441 23.6681 27.3995C23.6517 27.3601 23.6057 27.2384 23.5498 27.0741C22.7938 24.9146 22.258 24.6516 22.1989 24.6286C21.8077 24.6714 21.6697 24.7864 21.6697 24.7897C21.3673 25.549 20.5159 25.9007 19.76 25.5983C19.004 25.2959 18.6457 24.4215 18.9481 23.6656C19.4083 22.5151 20.5061 21.815 22.0345 21.6934C24.3058 21.4962 25.5154 23.9581 26.084 25.4109C29.0686 22.4494 32.3226 20.1715 34.7714 20.3063C36.7534 20.3983 37.9367 22.2949 38.5513 24.7568C41.5096 21.6474 44.8261 19.077 47.2946 19.077C48.2084 19.077 49.8913 19.432 50.8971 21.8019C51.1863 22.4855 51.3769 23.2415 51.5019 23.9942C55.0682 20.4937 59.0026 17.7688 61.8918 17.7688C62.707 17.7688 63.3677 18.4295 63.3677 19.2446C63.3677 20.0598 62.707 20.7205 61.8918 20.7205C59.7356 20.7205 55.6828 23.659 51.6695 28.1029C51.3572 33.3587 49.2635 40.0706 45.1548 40.0706C43.6297 40.0706 42.6041 39.0484 42.6041 37.5265C42.6041 35.3243 45.2468 30.9757 48.7573 26.9196C48.7573 26.8637 48.7573 26.8079 48.7573 26.752C48.7573 25.1841 48.5502 23.8365 48.1788 22.9556C47.7876 22.0287 47.4162 22.0287 47.2946 22.0287C45.9469 22.0287 42.6107 24.4577 39.074 28.5861C39.1003 29.1482 39.1035 29.7036 39.0904 30.2526C38.9852 34.9923 37.5028 40.0608 33.6538 40.0739H33.644L33.6407 40.0772ZM35.9185 32.7342C34.4624 34.943 33.8839 36.4386 33.7919 37.1124C34.63 36.948 35.4222 35.4558 35.8363 33.2108C35.8659 33.053 35.8922 32.892 35.9185 32.7342ZM47.8731 32.8591C46.6109 34.6965 45.9141 36.1033 45.6577 36.9185C46.4071 36.3958 47.2551 34.9036 47.8731 32.8591ZM23.7996 32.6126C22.7149 34.1147 21.9293 35.4361 21.502 36.3597C21.7979 36.1164 22.1265 35.7746 22.4651 35.3111C23.014 34.5617 23.4873 33.6315 23.7963 32.6126H23.7996Z" fill="#9196A7"/>
<path d="M83.4651 11.0151C84.2912 10.189 85.6306 10.189 86.4567 11.0151L95.4988 20.0571C96.3249 20.8832 96.3249 22.2226 95.4988 23.0487L73.0082 45.5392L60.9746 33.5056L83.4651 11.0151Z" fill="#9196A7"/>
<path d="M58.3631 49.7196C57.4058 49.9928 56.5209 49.108 56.7942 48.1507L60.9745 33.5069L73.0069 45.5392L58.3631 49.7196Z" fill="#E2E4E8"/>
<path d="M58.0033 49.8173C57.2044 50.0467 56.4653 49.3075 56.6947 48.5087L57.9746 44.052L62.4599 48.5374L58.0033 49.8173Z" fill="#9196A7"/>
</svg>
