<svg width="105" height="104" viewBox="0 0 105 104" fill="none" xmlns="http://www.w3.org/2000/svg">
<path d="M3.11524 40.5412C2.54782 38.2307 4.29696 36 6.6761 36H61.2707C62.9589 36 64.429 37.1527 64.8316 38.7922L78.0963 92.805C78.6637 95.1155 76.9146 97.3462 74.5354 97.3462H19.9408C18.2526 97.3462 16.7826 96.1935 16.38 94.554L3.11524 40.5412Z" fill="#C6CAD2"/>
<path d="M34.1407 76.0772C32.6583 76.0772 31.9746 75.285 31.7018 74.8084C30.9326 73.4805 31.3468 71.5215 33.0067 68.6422C33.8251 67.2222 35.0742 65.4308 36.5434 63.6197C36.2969 61.2367 35.6625 59.4716 35.107 59.258C34.1045 59.2185 31.9253 60.2835 28.7468 63.4291C28.3294 63.8432 27.9284 64.2574 27.5438 64.6715C27.9645 67.7974 26.8831 70.9693 25.358 73.0532C23.9742 74.9465 22.2716 75.9326 20.684 75.8011C19.6157 75.7025 18.5869 74.8906 18.6954 73.2965C18.8269 71.3933 21.2263 67.4457 24.3325 63.8334C24.2832 63.6888 24.2273 63.5441 24.1681 63.3995C24.1517 63.3601 24.1057 63.2384 24.0498 63.0741C23.2938 60.9146 22.758 60.6516 22.6989 60.6286C22.3077 60.6714 22.1697 60.7864 22.1697 60.7897C21.8673 61.549 21.0159 61.9007 20.26 61.5983C19.504 61.2959 19.1457 60.4215 19.4481 59.6656C19.9083 58.5151 21.0061 57.815 22.5345 57.6934C24.8058 57.4962 26.0154 59.9581 26.584 61.4109C29.5686 58.4494 32.8226 56.1715 35.2714 56.3063C37.2534 56.3983 38.4367 58.2949 39.0513 60.7568C42.0096 57.6474 45.3261 55.077 47.7946 55.077C48.7084 55.077 50.3913 55.432 51.3971 57.8019C51.6863 58.4855 51.8769 59.2415 52.0019 59.9942C55.5682 56.4937 59.5026 53.7688 62.3918 53.7688C63.207 53.7688 63.8677 54.4295 63.8677 55.2446C63.8677 56.0598 63.207 56.7205 62.3918 56.7205C60.2356 56.7205 56.1828 59.659 52.1695 64.1029C51.8572 69.3587 49.7635 76.0706 45.6548 76.0706C44.1297 76.0706 43.1041 75.0484 43.1041 73.5265C43.1041 71.3243 45.7468 66.9757 49.2573 62.9196C49.2573 62.8637 49.2573 62.8079 49.2573 62.752C49.2573 61.1841 49.0502 59.8365 48.6788 58.9556C48.2876 58.0287 47.9162 58.0287 47.7946 58.0287C46.4469 58.0287 43.1107 60.4577 39.574 64.5861C39.6003 65.1482 39.6035 65.7036 39.5904 66.2526C39.4852 70.9923 38.0028 76.0608 34.1538 76.0739H34.144L34.1407 76.0772ZM36.4185 68.7342C34.9624 70.943 34.3839 72.4386 34.2919 73.1124C35.13 72.948 35.9222 71.4558 36.3363 69.2108C36.3659 69.053 36.3922 68.892 36.4185 68.7342ZM48.3731 68.8591C47.1109 70.6965 46.4141 72.1033 46.1577 72.9185C46.9071 72.3958 47.7551 70.9036 48.3731 68.8591ZM24.2996 68.6126C23.2149 70.1147 22.4293 71.4361 22.002 72.3597C22.2979 72.1164 22.6265 71.7746 22.9651 71.3111C23.514 70.5617 23.9873 69.6315 24.2963 68.6126H24.2996Z" fill="#9196A7"/>
<path d="M83.9651 47.0151C84.7912 46.189 86.1306 46.189 86.9567 47.0151L95.9988 56.0571C96.8249 56.8832 96.8249 58.2226 95.9988 59.0487L73.5082 81.5392L61.4746 69.5056L83.9651 47.0151Z" fill="#9196A7"/>
<path d="M58.8631 85.7196C57.9058 85.9928 57.0209 85.108 57.2942 84.1507L61.4745 69.5069L73.5069 81.5392L58.8631 85.7196Z" fill="#E2E4E8"/>
<path d="M58.5033 85.8173C57.7044 86.0467 56.9653 85.3075 57.1947 84.5087L58.4746 80.052L62.9599 84.5374L58.5033 85.8173Z" fill="#9196A7"/>
</svg>
