<svg width="38" height="38" viewBox="0 0 38 38" fill="none" xmlns="http://www.w3.org/2000/svg">
<path opacity="0.1" fill-rule="evenodd" clip-rule="evenodd" d="M19 37C28.9411 37 37 28.9411 37 19C37 9.05887 28.9411 1 19 1C9.05887 1 1 9.05887 1 19C1 28.9411 9.05887 37 19 37Z" stroke="black" stroke-width="1.5"/>
<path d="M23.6278 10.9429H21.0564C19.9197 10.9429 18.8296 11.3944 18.0259 12.1981C17.2222 13.0019 16.7706 14.0919 16.7706 15.2286V17.8H14.1992V21.2286H16.7706V28.0857H20.1992V21.2286H22.7706L23.6278 17.8H20.1992V15.2286C20.1992 15.0013 20.2895 14.7832 20.4503 14.6225C20.611 14.4617 20.829 14.3714 21.0564 14.3714H23.6278V10.9429Z" fill="#424242"/>
</svg>
