<svg width="44" height="44" viewBox="0 0 44 44" fill="none" xmlns="http://www.w3.org/2000/svg">
<g id="female-student">
<g id="Group 1171276098">
<g id="Group 1171276096">
<circle id="Ellipse 8721" cx="22" cy="22" r="22" fill="#CAD1FF"/>
<mask id="mask0_3207_34850" style="mask-type:alpha" maskUnits="userSpaceOnUse" x="0" y="0" width="44" height="44">
<circle id="Ellipse 8722" cx="22" cy="22" r="22" fill="#D9D9D9"/>
</mask>
<g mask="url(#mask0_3207_34850)">
<g id="Group 1171276020">
<path id="Rectangle 40258" d="M9.32488 18.1107C9.61805 11.496 15.066 6.28418 21.6871 6.28418C28.3083 6.28418 33.7562 11.496 34.0494 18.1107L35.2014 44.1032H8.17285L9.32488 18.1107Z" fill="#414654"/>
<rect id="Rectangle 40259" x="20.1055" y="27.2373" width="3.77143" height="8.38095" fill="#FFE2D3"/>
<path id="Rectangle 40260" d="M20.1055 27.2373H23.8769V31.0087L20.1055 32.2659V27.2373Z" fill="#F9BE9F"/>
<ellipse id="Ellipse 8723" cx="22.0032" cy="19.6949" rx="11.1048" ry="10.4762" fill="#FFE2D3"/>
<path id="Vector 26038" d="M25.7956 8.64354C19.9708 15.1212 15.6438 16.4726 10.5529 18.5567C11.4474 14.5501 15.5291 4.15211 25.7956 8.64354Z" fill="#414654"/>
<path id="Vector 26037" d="M24.088 8.6416C25.6595 14.9273 30.1118 17.0226 32.9929 18.594C33.8007 15.6495 30.7193 9.42679 24.088 8.6416Z" fill="#414654"/>
<ellipse id="Ellipse 8724" cx="33.4631" cy="22.523" rx="3.5619" ry="3.0381" transform="rotate(-30 33.4631 22.523)" fill="#FFE2D3"/>
<ellipse id="Ellipse 8725" cx="3.5619" cy="3.0381" rx="3.5619" ry="3.0381" transform="matrix(-0.866025 -0.5 -0.5 0.866025 15.4893 21.6729)" fill="#FFE2D3"/>
<path id="Subtract" fill-rule="evenodd" clip-rule="evenodd" d="M9.83974 24.3226C8.67534 23.6503 8.19624 22.3002 8.76964 21.307C9.34305 20.3139 10.7518 20.0537 11.9162 20.726C12.2862 20.9396 12.587 21.2216 12.8068 21.5389C12.8822 21.6477 12.8239 21.7935 12.6977 21.8334L11.9092 22.0824C11.7439 22.1346 11.7098 22.3534 11.8514 22.4534L13.0245 23.2814C13.0984 23.3336 13.1316 23.4278 13.098 23.5118C13.0666 23.5901 13.0294 23.6668 12.9863 23.7415C12.4129 24.7347 11.0041 24.9948 9.83974 24.3226Z" fill="#F9BE9F"/>
<path id="Subtract_2" fill-rule="evenodd" clip-rule="evenodd" d="M34.4796 24.3226C35.644 23.6503 36.1231 22.3002 35.5497 21.307C34.9763 20.3139 33.5675 20.0537 32.4031 20.726C32.0331 20.9396 31.7323 21.2216 31.5125 21.5389C31.4372 21.6477 31.4954 21.7935 31.6216 21.8334L32.4102 22.0824C32.5754 22.1346 32.6095 22.3534 32.4679 22.4534L31.2948 23.2814C31.2209 23.3336 31.1877 23.4278 31.2213 23.5118C31.2527 23.5901 31.2899 23.6668 31.333 23.7415C31.9064 24.7347 33.3152 24.9948 34.4796 24.3226Z" fill="#F9BE9F"/>
<path id="Ellipse 8731" d="M23.0484 24.0947C23.0484 24.6733 22.5793 25.1423 22.0007 25.1423C21.4222 25.1423 20.9531 24.6733 20.9531 24.0947" stroke="#2D333F" stroke-width="0.419048" stroke-linecap="round"/>
<path id="Vector 26031" d="M14.458 17.5986L15.4009 18.5415" stroke="#2D333F" stroke-width="0.419048" stroke-linecap="round"/>
<path id="Vector 26032" d="M29.4365 17.5986L28.4937 18.5415" stroke="#2D333F" stroke-width="0.419048" stroke-linecap="round"/>
<g id="Ellipse 8727">
<circle cx="25.9739" cy="19.6936" r="3.14286" fill="white"/>
<circle cx="25.9739" cy="19.6936" r="3.14286" fill="white"/>
</g>
<circle id="Ellipse 8730" cx="25.8767" cy="19.7985" r="1.78095" fill="#414654"/>
<g id="Ellipse 8726">
<circle cx="18.0188" cy="19.6936" r="3.14286" fill="white"/>
<circle cx="18.0188" cy="19.6936" r="3.14286" fill="white"/>
</g>
<circle id="Ellipse 8729" cx="18.1179" cy="19.7985" r="1.78095" fill="#414654"/>
<path id="Rectangle 40261" d="M10.4688 43.9994C10.4688 37.635 15.6281 32.4756 21.9926 32.4756C28.357 32.4756 33.5164 37.635 33.5164 43.9994V45.8432H10.4688V43.9994Z" fill="#EDEFFF"/>
<circle id="Ellipse 8732" cx="21.9987" cy="37.0641" r="0.628571" fill="#4C61F0"/>
<circle id="Ellipse 8733" cx="21.9987" cy="39.5778" r="0.628571" fill="#4C61F0"/>
<path id="Vector 26035" d="M24.5524 30.9883L21.8342 32.2454L23.4198 36.0169L26.8175 33.5026L24.5524 30.9883Z" fill="#4C61F0"/>
<path id="Vector 26036" d="M19.0238 30.9883L21.742 32.2454L20.1564 36.0169L16.7587 33.5026L19.0238 30.9883Z" fill="#4C61F0"/>
<circle id="Ellipse 8735" cx="15.1828" cy="24.0949" r="1.57143" fill="#FFD0D0"/>
<circle id="Ellipse 8736" cx="28.8097" cy="24.0949" r="1.57143" fill="#FFD0D0"/>
</g>
</g>
</g>
</g>
</g>
</svg>
