<svg width="304" height="43" viewBox="0 0 304 43" fill="none" xmlns="http://www.w3.org/2000/svg">
<g clip-path="url(#clip0_2688_13263)">
<g clip-path="url(#clip1_2688_13263)">
<path d="M95.9373 39.6013C91.6162 39.6013 87.5013 37.9402 85.2539 36.4908L87.8596 32.0122C89.1136 32.6636 92.9679 34.531 96.0731 34.531C96.2142 34.531 96.3553 34.531 96.4965 34.5202C98.9122 34.3736 99.6668 33.353 99.911 33.0219C100.063 32.8156 100.204 32.4356 100.101 32.0393C99.9979 31.6268 99.6342 31.2522 99.0479 30.959C98.5702 30.7528 97.2185 30.6116 95.7582 30.4705C93.8528 30.2859 92.3979 30.0253 90.1613 29.1785C89.0159 28.7442 88.0713 28.1959 87.3548 27.5499C86.9259 27.0885 86.5568 26.5402 86.2636 25.9322C86.0682 25.525 85.9325 25.1613 85.8456 24.8139C85.4005 23.0442 85.7696 21.1768 86.8608 19.6948C88.4568 17.5179 90.9973 16.2693 94.2056 16.0739C94.3956 16.063 94.5965 16.0576 94.7485 16.0576H94.9385C98.6571 16.139 102.348 17.697 104.596 19.1519L101.985 23.6413C98.2499 21.5513 95.5356 21.1116 93.9125 21.1116C93.7333 21.1116 93.5488 21.1116 93.3696 21.1279C92.4142 21.1822 91.7193 21.497 91.2905 22.0562C90.8399 22.6533 90.8508 23.3319 90.9213 23.6142C91.0245 24.0268 91.3882 24.4013 91.9745 24.6945C92.5011 24.9225 93.0385 25.0799 94.1079 25.183C95.9753 25.3622 98.5376 25.6119 100.79 26.4479C101.99 26.893 102.929 27.4359 103.668 28.1036C104.086 28.5542 104.455 29.0916 104.742 29.6942C104.943 30.1068 105.084 30.4813 105.171 30.8342C105.616 32.6093 105.242 34.4713 104.156 35.9533C102.56 38.1302 100.02 39.3788 96.8113 39.5742C96.5236 39.5905 96.2305 39.6013 95.9373 39.6013Z" fill="white" stroke="white" stroke-width="0.0542857" stroke-miterlimit="10"/>
<path d="M167.69 8.27844H162.229V39.0693H167.69V8.27844Z" fill="white"/>
<path d="M257.23 27.5933C257.192 21.4155 252.176 16.4213 245.993 16.4213C239.809 16.4213 234.75 21.4536 234.75 27.6638C234.75 33.8741 239.782 38.9064 245.993 38.9064C248.121 38.9064 250.107 38.3038 251.807 37.2724V39.0693H257.235V27.5878L257.23 27.5933ZM245.993 33.4778C242.79 33.4778 240.179 30.8721 240.179 27.6638C240.179 24.4556 242.784 21.8498 245.993 21.8498C249.201 21.8498 251.807 24.4556 251.807 27.6638C251.807 30.8721 249.201 33.4778 245.993 33.4778Z" fill="white"/>
<path d="M270.078 8.1156H264.66V39.0747H270.078V8.1156Z" fill="white"/>
<path d="M275.242 20.1236V15.7482L259.505 15.7482V20.1236H275.242Z" fill="white"/>
<path d="M277.884 21.8987C278.856 20.1778 280.208 18.837 281.95 17.8707C283.687 16.9044 285.674 16.4213 287.911 16.4213C290.147 16.4213 291.96 16.8556 293.432 17.7241C294.903 18.5927 295.912 19.407 296.455 20.1778C296.998 20.9487 297.476 21.725 297.888 22.5067C298.567 23.8476 298.904 25.6118 298.904 27.7941L298.86 29.6833H281.945C282.211 31.0838 282.933 32.2184 284.111 33.1033C285.289 33.9827 286.57 34.4224 287.954 34.4224C289.572 34.4224 290.782 34.151 291.575 33.6027C292.368 33.0598 292.872 32.6038 293.079 32.2401L297.937 34.0424C297.199 35.443 295.988 36.6264 294.295 37.609C292.601 38.5861 290.473 39.0801 287.911 39.0801C285.674 39.0801 283.687 38.6024 281.95 37.6524C280.213 36.7024 278.856 35.367 277.884 33.6461C276.912 31.9253 276.424 29.9764 276.424 27.7941C276.424 25.6118 276.912 23.6195 277.884 21.8987ZM291.711 22.4253C290.766 21.5024 289.518 21.041 287.954 21.041C286.391 21.041 285.104 21.497 284.002 22.4035C282.9 23.3101 282.216 24.3958 281.95 25.6553H293.524C293.258 24.423 292.655 23.3481 291.711 22.4253Z" fill="white"/>
<path d="M42.4691 21.9259C45.672 21.9259 48.2831 24.5316 48.2831 27.7399C48.2831 30.9482 45.6774 33.5539 42.4691 33.5539C39.2608 33.5539 36.6551 30.9482 36.6551 27.7399C36.6551 24.5316 39.2608 21.9259 42.4691 21.9259ZM42.4691 16.4973C36.2588 16.4973 31.2266 21.5296 31.2266 27.7399C31.2266 33.9502 36.2588 38.9825 42.4691 38.9825C48.6794 38.9825 53.7117 33.9502 53.7117 27.7399C53.7117 21.5296 48.6794 16.4973 42.4691 16.4973Z" fill="white"/>
<path d="M119.815 22.0182C123.018 22.0182 125.629 24.6239 125.629 27.8322C125.629 31.0405 123.023 33.6462 119.815 33.6462C116.607 33.6462 114.001 31.0405 114.001 27.8322C114.001 24.6239 116.607 22.0182 119.815 22.0182ZM119.815 16.5896C113.605 16.5896 108.572 21.6219 108.572 27.8322C108.572 34.0425 113.605 39.0747 119.815 39.0747C126.025 39.0747 131.057 34.0425 131.057 27.8322C131.057 21.6219 126.025 16.5896 119.815 16.5896Z" fill="white"/>
<path d="M145.776 22.0182C148.979 22.0182 151.59 24.6239 151.59 27.8322C151.59 31.0405 148.984 33.6462 145.776 33.6462C142.567 33.6462 139.962 31.0405 139.962 27.8322C139.962 24.6239 142.567 22.0182 145.776 22.0182ZM145.776 16.5896C139.565 16.5896 134.533 21.6219 134.533 27.8322C134.533 34.0425 139.565 39.0747 145.776 39.0747C151.986 39.0747 157.018 34.0425 157.018 27.8322C157.018 21.6219 151.986 16.5896 145.776 16.5896Z" fill="white"/>
<path d="M198.969 39.6284C196.521 39.6284 195.392 38.3202 194.941 37.533C193.671 35.3399 194.355 32.1044 197.096 27.349C198.448 25.0039 200.511 22.0453 202.937 19.0542C202.53 15.1184 201.483 12.2033 200.565 11.8504C198.909 11.7853 195.31 13.5442 190.061 18.7393C189.371 19.4233 188.709 20.1073 188.074 20.7913C188.769 25.9539 186.983 31.1924 184.464 34.6342C182.179 37.761 179.367 39.3896 176.745 39.1724C174.98 39.0096 173.281 37.6687 173.46 35.0359C173.677 31.8927 177.64 25.373 182.77 19.407C182.689 19.1682 182.597 18.9293 182.499 18.6904C182.472 18.6253 182.396 18.4244 182.303 18.153C181.055 14.5864 180.17 14.1522 180.072 14.1142C179.426 14.1847 179.198 14.3747 179.198 14.3802C178.699 15.6342 177.293 16.215 176.044 15.7156C174.796 15.2162 174.204 13.7722 174.703 12.5236C175.463 10.6236 177.277 9.4673 179.801 9.26644C183.552 8.94073 185.55 13.0067 186.489 15.4062C191.418 10.515 196.792 6.75301 200.837 6.97559C204.11 7.12759 206.064 10.2599 207.079 14.3259C211.965 9.19044 217.443 4.9453 221.519 4.9453C223.029 4.9453 225.808 5.53159 227.469 9.44559C227.947 10.5747 228.262 11.8233 228.468 13.0664C234.358 7.28501 240.856 2.78473 245.628 2.78473C246.974 2.78473 248.065 3.87587 248.065 5.22216C248.065 6.56844 246.974 7.65959 245.628 7.65959C242.067 7.65959 235.373 12.5127 228.745 19.8522C228.229 28.5324 224.771 39.6176 217.985 39.6176C215.467 39.6176 213.773 37.9293 213.773 35.4159C213.773 31.7787 218.137 24.5967 223.935 17.8979C223.935 17.8056 223.935 17.7133 223.935 17.621C223.935 15.0316 223.593 12.8059 222.98 11.351C222.334 9.82016 221.72 9.82016 221.519 9.82016C219.294 9.82016 213.784 13.8319 207.943 20.6502C207.986 21.5784 207.991 22.4959 207.97 23.4024C207.796 31.2304 205.348 39.6013 198.991 39.623H198.975L198.969 39.6284ZM202.731 27.501C200.326 31.149 199.371 33.619 199.219 34.7319C200.603 34.4604 201.911 31.9959 202.595 28.2882C202.644 28.0276 202.688 27.7616 202.731 27.501ZM222.475 27.7073C220.39 30.7419 219.239 33.0653 218.816 34.4116C220.054 33.5484 221.454 31.0839 222.475 27.7073ZM182.716 27.3002C180.925 29.781 179.627 31.9633 178.921 33.4887C179.41 33.087 179.953 32.5224 180.512 31.757C181.419 30.5193 182.2 28.983 182.711 27.3002H182.716Z" fill="#6478FF"/>
<path d="M69.3402 15.8622C63.1299 15.8622 58.0977 20.8945 58.0977 27.1048V39.0748H63.5262V27.1048C63.5262 23.9019 66.1319 21.2908 69.3402 21.2908C72.5485 21.2908 75.1542 23.8965 75.1542 27.1048V39.0748H80.5828V27.1048C80.5828 20.8945 75.5505 15.8622 69.3402 15.8622Z" fill="white"/>
<path d="M15.598 15.8622C9.38775 15.8622 4.35547 20.8945 4.35547 27.1048V39.0748H9.78404V27.1048C9.78404 23.9019 12.3898 21.2908 15.598 21.2908C18.8063 21.2908 21.412 23.8965 21.412 27.1048V39.0748H26.8406V27.1048C26.8406 20.8945 21.8083 15.8622 15.598 15.8622Z" fill="white"/>
</g>
</g>
<defs>
<clipPath id="clip0_2688_13263">
<rect width="294.771" height="36.9143" fill="white" transform="translate(4.61523 2.75214)"/>
</clipPath>
<clipPath id="clip1_2688_13263">
<rect width="294.554" height="36.8329" fill="white" transform="translate(4.35547 2.79559)"/>
</clipPath>
</defs>
</svg>
