<svg width="36" height="36" viewBox="0 0 36 36" fill="none" xmlns="http://www.w3.org/2000/svg">
<g id="Group 3750">
<rect id="Rectangle 1008" x="0.5" y="0.5" width="35" height="35" rx="17.5" stroke="#E2E4E8"/>
<path id="Subtract" fill-rule="evenodd" clip-rule="evenodd" d="M28 17.375C28 22.5527 23.5228 26.75 18 26.75C16.9079 26.75 15.8567 26.5859 14.873 26.2825L11.9722 28.4581C11.8807 28.5267 11.75 28.4614 11.75 28.347V24.6938C9.46384 22.9757 8 20.3356 8 17.375C8 12.1973 12.4772 8 18 8C23.5228 8 28 12.1973 28 17.375ZM12.919 20.4834C13.4491 20.7802 14.0428 20.9286 14.7001 20.9286C15.2779 20.9286 15.8053 20.8093 16.2823 20.5708C16.7647 20.3376 17.1543 20.0275 17.4511 19.6405C17.748 19.2536 17.9308 18.8401 17.9998 18.4002H16.5368C16.4997 18.5963 16.3936 18.7871 16.2187 18.9727C16.0491 19.1582 15.8318 19.3093 15.5667 19.4259C15.307 19.5425 15.0287 19.6008 14.7319 19.6008C14.3449 19.6008 13.9951 19.5133 13.6823 19.3384C13.3696 19.1582 13.1231 18.9091 12.9429 18.591C12.768 18.273 12.6805 17.9178 12.6805 17.5256C12.6805 17.128 12.768 16.7729 12.9429 16.4601C13.1231 16.1421 13.3696 15.8956 13.6823 15.7207C13.9951 15.5405 14.3449 15.4503 14.7319 15.4503C15.1824 15.4503 15.5641 15.5564 15.8768 15.7684C16.1949 15.9804 16.3936 16.2455 16.4732 16.5635H17.9361C17.846 16.1023 17.6579 15.6862 17.3716 15.3152C17.0854 14.9441 16.7117 14.6526 16.2505 14.4406C15.7947 14.2285 15.2779 14.1225 14.7001 14.1225C14.0428 14.1225 13.4491 14.2709 12.919 14.5678C12.3943 14.8593 11.9808 15.2648 11.6787 15.7843C11.3818 16.2985 11.2334 16.8789 11.2334 17.5256C11.2334 18.1723 11.3818 18.7553 11.6787 19.2748C11.9808 19.789 12.3943 20.1918 12.919 20.4834ZM20.7256 14.2506H19.3103V20.9295H20.7256V18.5362C20.7256 18.1758 20.8051 17.8922 20.9641 17.6855C21.1232 17.4787 21.3405 17.3754 21.6161 17.3754C21.8812 17.3754 22.0826 17.4708 22.2204 17.6616C22.3635 17.8471 22.4351 18.1175 22.4351 18.4726V20.9295H23.8504V18.2341C23.8504 17.81 23.7735 17.4416 23.6198 17.1289C23.4714 16.8161 23.2593 16.5776 22.9837 16.4133C22.7081 16.2437 22.39 16.1589 22.0296 16.1589C21.4518 16.1589 21.0171 16.355 20.7256 16.7472V14.2506Z" fill="#414654"/>
</g>
</svg>
