<svg width="24" height="24" viewBox="0 0 24 24" fill="none" xmlns="http://www.w3.org/2000/svg">
<path d="M14.0077 20.0759L14.0076 20.076L14.014 20.082C14.1681 20.2255 14.3718 20.3037 14.5823 20.2999C14.7928 20.2962 14.9936 20.211 15.1425 20.0621C15.2913 19.9132 15.3766 19.7124 15.3803 19.5019C15.384 19.2914 15.3059 19.0877 15.1624 18.9337L15.1625 18.9336L15.1563 18.9273L8.23143 12.0016L15.1563 5.07586L15.1564 5.07597L15.1624 5.06952C15.3059 4.9155 15.384 4.71179 15.3803 4.50129C15.3766 4.2908 15.2913 4.08996 15.1425 3.9411C14.9936 3.79224 14.7928 3.70697 14.5823 3.70325C14.3718 3.69954 14.1681 3.77767 14.014 3.92119L14.0139 3.92108L14.0077 3.92732L6.50768 11.4273L6.50757 11.4274C6.35542 11.5798 6.26996 11.7863 6.26996 12.0016C6.26996 12.2169 6.35542 12.4234 6.50757 12.5758L6.50768 12.5759L14.0077 20.0759Z" fill="white" stroke="white" stroke-width="0.5"/>
</svg>
