<svg width="44" height="44" viewBox="0 0 44 44" fill="none" xmlns="http://www.w3.org/2000/svg">
<g id="male-student">
<g id="Group 1171276059">
<circle id="Ellipse 8721" cx="22" cy="22" r="22" fill="#CAD1FF"/>
<mask id="mask0_3207_34884" style="mask-type:alpha" maskUnits="userSpaceOnUse" x="0" y="0" width="44" height="44">
<circle id="Ellipse 8722" cx="22" cy="22" r="22" fill="#D9D9D9"/>
</mask>
<g mask="url(#mask0_3207_34884)">
<g id="Group 1171276020">
<rect id="Rectangle 40259" x="20.1104" y="27.2383" width="3.77143" height="8.38095" fill="#FFE2D3"/>
<path id="Rectangle 40260" d="M20.1104 27.2383H23.8818V31.0097L20.1104 32.2669V27.2383Z" fill="#F9BE9F"/>
<ellipse id="Ellipse 8723" cx="21.9944" cy="19.6949" rx="11.1048" ry="10.4762" fill="#FFE2D3"/>
<path id="Vector 26072" d="M30.116 17.5483C25.4017 15.9121 19.6398 14.1435 18.8541 8.49009L18.0684 6.28602C26.4493 -1.83271 43.735 14.929 32.9969 19.6435C32.2112 18.5959 31.8339 18.1446 30.116 17.5483Z" fill="#414654"/>
<path id="Vector 26073" d="M14.0492 17.5486C16.2325 16.6131 18.5896 13.358 19.5492 10.0618L20.335 7.07235C14.0492 1.57227 3.39914 14.4056 11.1683 19.6438C11.954 18.5961 12.3778 18.2648 14.0492 17.5486Z" fill="#414654"/>
<ellipse id="Ellipse 8724" cx="33.4631" cy="22.5239" rx="3.5619" ry="3.0381" transform="rotate(-30 33.4631 22.5239)" fill="#FFE2D3"/>
<ellipse id="Ellipse 8725" cx="3.5619" cy="3.0381" rx="3.5619" ry="3.0381" transform="matrix(-0.866025 -0.5 -0.5 0.866025 15.4893 21.6738)" fill="#FFE2D3"/>
<path id="Subtract" fill-rule="evenodd" clip-rule="evenodd" d="M9.84853 24.3226C8.68413 23.6503 8.20503 22.3002 8.77843 21.307C9.35184 20.3139 10.7606 20.0537 11.925 20.726C12.2954 20.9399 12.5965 21.2223 12.8164 21.5401C12.8917 21.6489 12.8334 21.7946 12.7072 21.8344L11.922 22.0824C11.7568 22.1346 11.7227 22.3534 11.8643 22.4534L13.0342 23.2792C13.108 23.3313 13.1413 23.4253 13.1078 23.5093C13.0762 23.5884 13.0387 23.666 12.9951 23.7415C12.4217 24.7347 11.0129 24.9948 9.84853 24.3226Z" fill="#F9BE9F"/>
<path id="Subtract_2" fill-rule="evenodd" clip-rule="evenodd" d="M34.4884 24.3226C35.6528 23.6503 36.1319 22.3002 35.5585 21.307C34.9851 20.3139 33.5763 20.0537 32.4119 20.726C32.0415 20.9399 31.7404 21.2223 31.5205 21.5401C31.4452 21.6489 31.5035 21.7946 31.6297 21.8344L32.4149 22.0824C32.5801 22.1346 32.6142 22.3534 32.4726 22.4534L31.3027 23.2792C31.2289 23.3313 31.1956 23.4253 31.2291 23.5093C31.2607 23.5884 31.2982 23.666 31.3418 23.7415C31.9152 24.7347 33.324 24.9948 34.4884 24.3226Z" fill="#F9BE9F"/>
<path id="Ellipse 8731" d="M23.0445 24.0957C23.0445 24.6743 22.5754 25.1433 21.9968 25.1433C21.4183 25.1433 20.9492 24.6743 20.9492 24.0957" stroke="#2D333F" stroke-width="0.419048" stroke-linecap="round"/>
<g id="Ellipse 8727">
<circle cx="25.9778" cy="19.6956" r="3.14286" fill="white"/>
<circle cx="25.9778" cy="19.6956" r="3.14286" fill="white"/>
</g>
<circle id="Ellipse 8730" cx="25.8727" cy="19.8005" r="1.78095" fill="#414654"/>
<g id="Ellipse 8726">
<circle cx="18.0149" cy="19.6956" r="3.14286" fill="white"/>
<circle cx="18.0149" cy="19.6956" r="3.14286" fill="white"/>
</g>
<circle id="Ellipse 8729" cx="18.1218" cy="19.8005" r="1.78095" fill="#414654"/>
<path id="Rectangle 40261" d="M10.4727 44.0004C10.4727 37.6359 15.632 32.4766 21.9965 32.4766C28.3609 32.4766 33.5203 37.6359 33.5203 44.0004V45.8442H10.4727V44.0004Z" fill="#EDEFFF"/>
<circle id="Ellipse 8732" cx="21.9948" cy="37.0651" r="0.628571" fill="#4C61F0"/>
<circle id="Ellipse 8733" cx="21.9948" cy="39.5788" r="0.628571" fill="#4C61F0"/>
<path id="Vector 26035" d="M24.5524 30.9893L21.8342 32.2464L23.4198 36.0178L26.8175 33.5035L24.5524 30.9893Z" fill="#4C61F0"/>
<path id="Vector 26036" d="M19.0238 30.9893L21.742 32.2464L20.1564 36.0178L16.7587 33.5035L19.0238 30.9893Z" fill="#4C61F0"/>
<circle id="Ellipse 8735" cx="15.1867" cy="24.0958" r="1.57143" fill="#FFD0D0"/>
<circle id="Ellipse 8736" cx="28.8058" cy="24.0958" r="1.57143" fill="#FFD0D0"/>
</g>
</g>
</g>
</g>
</svg>
