<svg width="408" height="100" viewBox="0 0 408 100" fill="none" xmlns="http://www.w3.org/2000/svg">
<rect x="0.5" y="0.5" width="407" height="99" rx="7.5" fill="white"/>
<rect x="0.5" y="0.5" width="407" height="99" rx="7.5" stroke="#C6CAD2"/>
<path d="M21.4757 25.4297C20.8743 25.4297 20.3867 25.9345 20.3867 26.5572V29.4886C21.8302 29.4886 23.0003 30.7001 23.0003 32.1946C23.0003 33.6891 21.8302 34.9006 20.3867 34.9006V37.832C20.3867 38.4547 20.8743 38.9595 21.4757 38.9595H36.2859C36.8874 38.9595 37.3749 38.4547 37.3749 37.832V26.5572C37.3749 25.9345 36.8874 25.4297 36.2859 25.4297H21.4757Z" fill="#C9D0FF"/>
<path d="M27.9957 34.9002C27.6517 34.9002 27.4953 34.7091 27.4302 34.5917C27.2529 34.2695 27.3468 33.7943 27.7325 33.0953C27.9227 32.7513 28.212 32.3171 28.5507 31.8775C28.4934 31.2986 28.3475 30.8727 28.2172 30.8208C27.9852 30.8099 27.4797 31.0693 26.7448 31.8311C26.6484 31.9321 26.5545 32.0331 26.4659 32.1314C26.5624 32.8905 26.3122 33.6578 25.9604 34.163C25.6398 34.6217 25.2463 34.862 24.8789 34.8292C24.6313 34.8046 24.3942 34.608 24.4176 34.223C24.4489 33.7616 25.004 32.8032 25.7232 31.9294C25.7128 31.8939 25.6998 31.8584 25.6841 31.8229C25.6815 31.812 25.6685 31.7847 25.6555 31.7437C25.4809 31.2194 25.3558 31.1566 25.3428 31.1512C25.2515 31.1621 25.2203 31.1894 25.2203 31.1894C25.1499 31.3724 24.9545 31.4597 24.7773 31.386C24.6026 31.3123 24.5193 31.102 24.5896 30.9164C24.6965 30.6378 24.9492 30.4685 25.3037 30.4385C25.8301 30.3894 26.1089 30.9873 26.2418 31.3396C26.9324 30.6215 27.6855 30.0699 28.251 30.1027C28.7097 30.1245 28.9833 30.586 29.1267 31.1812C29.812 30.4276 30.5782 29.805 31.1489 29.805C31.36 29.805 31.7509 29.8924 31.9828 30.4658C32.0506 30.6324 32.0949 30.8153 32.1236 30.9983C32.9497 30.1491 33.8592 29.4883 34.5289 29.4883C34.7165 29.4883 34.8703 29.6494 34.8703 29.846C34.8703 30.0426 34.7165 30.2037 34.5289 30.2037C34.0312 30.2037 33.093 30.9164 32.1627 31.9949C32.0897 33.2701 31.605 34.8975 30.6538 34.8975C30.302 34.8975 30.0622 34.649 30.0622 34.2804C30.0622 33.7452 30.6746 32.6912 31.4851 31.7082V31.6673C31.4851 31.2877 31.4382 30.96 31.3522 30.7471C31.261 30.5232 31.175 30.5232 31.1463 30.5232C30.8336 30.5232 30.0622 31.113 29.2439 32.1123C29.2491 32.2489 29.2518 32.3827 29.2465 32.5165C29.2231 33.666 28.8791 34.8948 27.9878 34.8975H27.9852L27.9957 34.9002ZM28.5221 33.1199C28.1859 33.6551 28.0504 34.0182 28.0295 34.1821C28.2224 34.1411 28.4074 33.7807 28.5038 33.2373C28.5116 33.1991 28.5169 33.1609 28.5221 33.1226V33.1199ZM31.2896 33.1499C30.9978 33.595 30.8362 33.9363 30.7763 34.1329C30.9509 34.0073 31.1463 33.6442 31.2896 33.1499ZM25.718 33.0899C25.4678 33.453 25.2854 33.7752 25.1864 33.9991C25.2541 33.9391 25.3297 33.8571 25.4105 33.7452C25.5382 33.5622 25.6477 33.3383 25.718 33.0899Z" fill="#6478FF"/>
<path d="M36.5078 25.4307H41.5946C42.0161 25.4307 42.3998 25.6825 42.5795 26.0773L42.8363 26.641C42.975 26.9455 42.975 27.2983 42.8363 27.6028L42.5041 28.3322C42.3654 28.6367 42.3654 28.9895 42.5041 29.294L42.8363 30.0235C42.975 30.328 42.975 30.6807 42.8363 30.9852L42.5041 31.7147C42.3654 32.0192 42.3654 32.372 42.5041 32.6765L42.8363 33.4059C42.975 33.7104 42.975 34.0632 42.8363 34.3677L42.5041 35.0971C42.3654 35.4017 42.3654 35.7544 42.5041 36.0589L42.8363 36.7884C42.975 37.0929 42.975 37.4456 42.8363 37.7502L42.5795 38.3139C42.3998 38.7086 42.0161 38.9605 41.5946 38.9605H36.5078V25.4307Z" fill="#93A1FF"/>
<rect x="36.5059" y="25.4307" width="0.871189" height="1.80398" fill="#6478FF"/>
<rect x="36.5039" y="29.0361" width="0.871189" height="2.25497" fill="#6478FF"/>
<rect x="36.5039" y="33.0967" width="0.871189" height="2.25497" fill="#6478FF"/>
<rect x="36.5059" y="37.1553" width="0.871189" height="1.80398" fill="#6478FF"/>
<path d="M59.556 27.144V25.688H60.76V27.144H63.434V28.124H60.76V28.348C60.76 29.0947 61.04 29.7713 61.6 30.378C62.16 30.9753 62.902 31.4047 63.826 31.666L63.266 32.632C62.5567 32.4267 61.936 32.1093 61.404 31.68C60.872 31.2507 60.466 30.7467 60.186 30.168C59.9153 30.8027 59.5093 31.3533 58.968 31.82C58.436 32.2773 57.806 32.6227 57.078 32.856L56.518 31.904C57.4327 31.624 58.1653 31.162 58.716 30.518C59.276 29.8647 59.556 29.1413 59.556 28.348V28.124H56.854V27.144H59.556ZM58.646 33.64H66.668V37.896H58.646V33.64ZM65.492 36.916V34.606H59.836V36.916H65.492ZM63.098 29.146H65.45V25.744H66.668V33.01H65.45V30.14H63.098V29.146ZM72.9683 26.36V27.704C72.9683 28.5347 73.239 29.2953 73.7803 29.986C74.3217 30.6767 75.0403 31.1807 75.9363 31.498L75.3203 32.45C74.6483 32.198 74.0557 31.834 73.5423 31.358C73.0383 30.882 72.651 30.322 72.3803 29.678C72.119 30.378 71.727 30.9847 71.2043 31.498C70.691 32.0113 70.075 32.3987 69.3563 32.66L68.7263 31.694C69.6597 31.3673 70.397 30.8353 70.9383 30.098C71.489 29.3513 71.7643 28.5207 71.7643 27.606V26.36H72.9683ZM70.3223 33.808H78.3443V38.064H77.1263V34.788H70.3223V33.808ZM77.1263 25.744H78.3443V28.95H80.1503V29.972H78.3443V33.192H77.1263V25.744ZM91.1687 25.73V35.04H89.9507V33.374H87.3047V32.422H89.9507V25.73H91.1687ZM80.9067 30.574C83.0907 30.574 84.8873 30.5273 86.2967 30.434C86.4647 29.4727 86.558 28.474 86.5767 27.438H82.0267V26.458H87.7807V26.934C87.7807 27.466 87.762 27.998 87.7247 28.53C87.6967 29.0527 87.6267 29.6547 87.5147 30.336L87.9067 30.294C88.5133 30.2193 88.84 30.1773 88.8867 30.168L88.9707 31.036C87.9067 31.2227 86.768 31.3533 85.5547 31.428V34.242H84.3507V31.498C83.3707 31.5447 82.2787 31.568 81.0747 31.568L80.9067 30.574ZM82.6987 34.032H83.9167V36.804H91.4627V37.784H82.6987V34.032ZM101.9 31.778C102.338 32.0393 102.684 32.394 102.936 32.842C103.188 33.2807 103.314 33.7147 103.314 34.144C103.314 34.7133 103.174 35.222 102.894 35.67C102.614 36.118 102.222 36.468 101.718 36.72C101.214 36.972 100.64 37.098 99.9955 37.098C99.3515 37.098 98.7775 36.972 98.2735 36.72C97.7695 36.468 97.3775 36.118 97.0975 35.67C96.8175 35.2127 96.6775 34.6947 96.6775 34.116H97.8395C97.8395 34.6853 98.0402 35.152 98.4415 35.516C98.8429 35.88 99.3609 36.062 99.9955 36.062C100.63 36.062 101.148 35.8847 101.55 35.53C101.96 35.166 102.166 34.6993 102.166 34.13C102.166 33.5887 101.965 33.1453 101.564 32.8C101.162 32.4547 100.649 32.282 100.024 32.282H99.2815V31.246H100.024C100.612 31.246 101.092 31.092 101.466 30.784C101.839 30.4667 102.026 30.0607 102.026 29.566C102.026 29.0527 101.844 28.6373 101.48 28.32C101.116 27.9933 100.649 27.83 100.08 27.83C99.5102 27.83 99.0435 27.9933 98.6795 28.32C98.3155 28.6467 98.1335 29.0713 98.1335 29.594H96.9715C96.9715 29.0527 97.1022 28.572 97.3635 28.152C97.6249 27.7227 97.9889 27.3913 98.4555 27.158C98.9315 26.9153 99.4729 26.794 100.08 26.794C100.677 26.794 101.209 26.9107 101.676 27.144C102.142 27.3773 102.506 27.704 102.768 28.124C103.038 28.544 103.174 29.02 103.174 29.552C103.174 29.9533 103.057 30.3593 102.824 30.77C102.6 31.1807 102.292 31.5167 101.9 31.778ZM115.033 25.73V38.05H113.857V31.638H112.289V37.462H111.127V26.052H112.289V30.644H113.857V25.73H115.033ZM104.561 34.564C105.895 33.808 106.889 32.912 107.543 31.876C108.196 30.8307 108.569 29.6453 108.663 28.32H105.051V27.326H109.853C109.853 29.062 109.503 30.616 108.803 31.988C108.103 33.3507 106.927 34.4987 105.275 35.432L104.561 34.564Z" fill="black"/>
<path d="M221.476 25.4297C220.874 25.4297 220.387 25.9345 220.387 26.5572V29.4886C221.83 29.4886 223 30.7001 223 32.1946C223 33.6891 221.83 34.9006 220.387 34.9006V37.832C220.387 38.4547 220.874 38.9595 221.476 38.9595H236.286C236.887 38.9595 237.375 38.4547 237.375 37.832V26.5572C237.375 25.9345 236.887 25.4297 236.286 25.4297H221.476Z" fill="#C9D0FF"/>
<path d="M227.996 34.9002C227.652 34.9002 227.495 34.7091 227.43 34.5917C227.253 34.2695 227.347 33.7943 227.732 33.0953C227.923 32.7513 228.212 32.3171 228.551 31.8775C228.493 31.2986 228.347 30.8727 228.217 30.8208C227.985 30.8099 227.48 31.0693 226.745 31.8311C226.648 31.9321 226.555 32.0331 226.466 32.1314C226.562 32.8905 226.312 33.6578 225.96 34.163C225.64 34.6217 225.246 34.862 224.879 34.8292C224.631 34.8046 224.394 34.608 224.418 34.223C224.449 33.7616 225.004 32.8032 225.723 31.9294C225.713 31.8939 225.7 31.8584 225.684 31.8229C225.682 31.812 225.669 31.7847 225.655 31.7437C225.481 31.2194 225.356 31.1566 225.343 31.1512C225.252 31.1621 225.22 31.1894 225.22 31.1894C225.15 31.3724 224.954 31.4597 224.777 31.386C224.603 31.3123 224.519 31.102 224.59 30.9164C224.696 30.6378 224.949 30.4685 225.304 30.4385C225.83 30.3894 226.109 30.9873 226.242 31.3396C226.932 30.6215 227.686 30.0699 228.251 30.1027C228.71 30.1245 228.983 30.586 229.127 31.1812C229.812 30.4276 230.578 29.805 231.149 29.805C231.36 29.805 231.751 29.8924 231.983 30.4658C232.051 30.6324 232.095 30.8153 232.124 30.9983C232.95 30.1491 233.859 29.4883 234.529 29.4883C234.717 29.4883 234.87 29.6494 234.87 29.846C234.87 30.0426 234.717 30.2037 234.529 30.2037C234.031 30.2037 233.093 30.9164 232.163 31.9949C232.09 33.2701 231.605 34.8975 230.654 34.8975C230.302 34.8975 230.062 34.649 230.062 34.2804C230.062 33.7452 230.675 32.6912 231.485 31.7082V31.6673C231.485 31.2877 231.438 30.96 231.352 30.7471C231.261 30.5232 231.175 30.5232 231.146 30.5232C230.834 30.5232 230.062 31.113 229.244 32.1123C229.249 32.2489 229.252 32.3827 229.247 32.5165C229.223 33.666 228.879 34.8948 227.988 34.8975H227.985L227.996 34.9002ZM228.522 33.1199C228.186 33.6551 228.05 34.0182 228.03 34.1821C228.222 34.1411 228.407 33.7807 228.504 33.2373C228.512 33.1991 228.517 33.1609 228.522 33.1226V33.1199ZM231.29 33.1499C230.998 33.595 230.836 33.9363 230.776 34.1329C230.951 34.0073 231.146 33.6442 231.29 33.1499ZM225.718 33.0899C225.468 33.453 225.285 33.7752 225.186 33.9991C225.254 33.9391 225.33 33.8571 225.411 33.7452C225.538 33.5622 225.648 33.3383 225.718 33.0899Z" fill="#6478FF"/>
<path d="M236.508 25.4307H241.595C242.016 25.4307 242.4 25.6825 242.58 26.0773L242.836 26.641C242.975 26.9455 242.975 27.2983 242.836 27.6028L242.504 28.3322C242.365 28.6367 242.365 28.9895 242.504 29.294L242.836 30.0235C242.975 30.328 242.975 30.6807 242.836 30.9852L242.504 31.7147C242.365 32.0192 242.365 32.372 242.504 32.6765L242.836 33.4059C242.975 33.7104 242.975 34.0632 242.836 34.3677L242.504 35.0971C242.365 35.4017 242.365 35.7544 242.504 36.0589L242.836 36.7884C242.975 37.0929 242.975 37.4456 242.836 37.7502L242.58 38.3139C242.4 38.7086 242.016 38.9605 241.595 38.9605H236.508V25.4307Z" fill="#93A1FF"/>
<rect x="236.506" y="25.4307" width="0.871189" height="1.80398" fill="#6478FF"/>
<rect x="236.504" y="29.0361" width="0.871189" height="2.25497" fill="#6478FF"/>
<rect x="236.504" y="33.0967" width="0.871189" height="2.25497" fill="#6478FF"/>
<rect x="236.506" y="37.1553" width="0.871189" height="1.80398" fill="#6478FF"/>
<path d="M243.074 29.1484C245.324 29.1484 247.148 27.3243 247.148 25.0742C247.148 22.8241 245.324 21 243.074 21C240.824 21 239 22.8241 239 25.0742C239 27.3243 240.824 29.1484 243.074 29.1484Z" fill="#4C61F0"/>
<path d="M243.736 22.3393C243.589 22.1694 243.332 22.1514 243.162 22.2989C242.992 22.4465 242.974 22.7038 243.121 22.8737L243.366 23.1557C242.435 22.9873 241.457 23.4068 240.956 24.2738C240.319 25.378 240.697 26.79 241.801 27.4275C242.905 28.0651 244.317 27.6867 244.955 26.5825C245.067 26.3876 245.001 26.1385 244.806 26.026C244.611 25.9135 244.362 25.9802 244.249 26.1751C243.837 26.8896 242.923 27.1344 242.209 26.7219C241.494 26.3094 241.249 25.3957 241.662 24.6812C241.989 24.1135 242.634 23.8423 243.243 23.9618L242.865 24.1454C242.663 24.2437 242.578 24.4875 242.677 24.6899C242.775 24.8923 243.019 24.9766 243.221 24.8783L244.656 24.1809C244.77 24.1255 244.852 24.0202 244.878 23.896C244.903 23.7719 244.869 23.6429 244.786 23.5473L243.736 22.3393Z" fill="#EDEFFF"/>
<path d="M267.046 25.73V38.05H265.884V31.68H264.344V37.434H263.21V25.996H264.344V30.672H265.884V25.73H267.046ZM256.378 34.62C257.246 34.1253 257.904 33.388 258.352 32.408C258.8 31.428 259.024 30.2987 259.024 29.02V28.166H256.686V27.158H262.37V28.166H260.186V29.02C260.186 30.1773 260.41 31.218 260.858 32.142C261.306 33.0567 261.955 33.7333 262.804 34.172L262.09 35.11C261.502 34.7833 261.003 34.3447 260.592 33.794C260.181 33.234 259.864 32.5853 259.64 31.848C259.425 32.688 259.108 33.4253 258.688 34.06C258.268 34.6853 257.75 35.1847 257.134 35.558L256.378 34.62ZM271.792 27.144V25.688H272.996V27.144H275.67V28.124H272.996V28.348C272.996 29.0947 273.276 29.7713 273.836 30.378C274.396 30.9753 275.138 31.4047 276.062 31.666L275.502 32.632C274.793 32.4267 274.172 32.1093 273.64 31.68C273.108 31.2507 272.702 30.7467 272.422 30.168C272.152 30.8027 271.746 31.3533 271.204 31.82C270.672 32.2773 270.042 32.6227 269.314 32.856L268.754 31.904C269.669 31.624 270.402 31.162 270.952 30.518C271.512 29.8647 271.792 29.1413 271.792 28.348V28.124H269.09V27.144H271.792ZM270.882 33.64H278.904V37.896H270.882V33.64ZM277.728 36.916V34.606H272.072V36.916H277.728ZM275.334 29.146H277.686V25.744H278.904V33.01H277.686V30.14H275.334V29.146ZM285.205 26.36V27.704C285.205 28.5347 285.475 29.2953 286.017 29.986C286.558 30.6767 287.277 31.1807 288.173 31.498L287.557 32.45C286.885 32.198 286.292 31.834 285.779 31.358C285.275 30.882 284.887 30.322 284.617 29.678C284.355 30.378 283.963 30.9847 283.441 31.498C282.927 32.0113 282.311 32.3987 281.593 32.66L280.963 31.694C281.896 31.3673 282.633 30.8353 283.175 30.098C283.725 29.3513 284.001 28.5207 284.001 27.606V26.36H285.205ZM282.559 33.808H290.581V38.064H289.363V34.788H282.559V33.808ZM289.363 25.744H290.581V28.95H292.387V29.972H290.581V33.192H289.363V25.744ZM303.405 25.73V35.04H302.187V33.374H299.541V32.422H302.187V25.73H303.405ZM293.143 30.574C295.327 30.574 297.124 30.5273 298.533 30.434C298.701 29.4727 298.794 28.474 298.813 27.438H294.263V26.458H300.017V26.934C300.017 27.466 299.998 27.998 299.961 28.53C299.933 29.0527 299.863 29.6547 299.751 30.336L300.143 30.294C300.75 30.2193 301.076 30.1773 301.123 30.168L301.207 31.036C300.143 31.2227 299.004 31.3533 297.791 31.428V34.242H296.587V31.498C295.607 31.5447 294.515 31.568 293.311 31.568L293.143 30.574ZM294.935 34.032H296.153V36.804H303.699V37.784H294.935V34.032ZM312.204 37.014H311.042V28.18L309.39 29.244L308.816 28.32L311.042 26.892H312.204V37.014ZM324.576 25.73V38.05H323.4V31.638H321.832V37.462H320.67V26.052H321.832V30.644H323.4V25.73H324.576ZM314.104 34.564C315.438 33.808 316.432 32.912 317.086 31.876C317.739 30.8307 318.112 29.6453 318.206 28.32H314.594V27.326H319.396C319.396 29.062 319.046 30.616 318.346 31.988C317.646 33.3507 316.47 34.4987 314.818 35.432L314.104 34.564Z" fill="black"/>
<path d="M30.1809 60.3527L29.9274 59.6759C29.7947 59.3229 29.4554 59.0869 29.0789 59.0869H26.3698C25.8686 59.0869 25.4629 59.4926 25.4629 59.9938V71.2886C25.4629 71.7899 25.8686 72.1955 26.3698 72.1955H42.0939C42.5952 72.1955 43.0009 71.7899 43.0009 71.2886V61.8467C43.0009 61.3455 42.5952 60.9398 42.0939 60.9398H31.0313C30.6529 60.9398 30.3155 60.7057 30.1829 60.3508L30.1809 60.3527Z" fill="#6478FF"/>
<g filter="url(#filter0_b_3207_33862)">
<path d="M27.9504 62.3879L27.6969 61.7111C27.5643 61.3581 27.2249 61.1221 26.8485 61.1221H24.1394C23.6381 61.1221 23.2324 61.5278 23.2324 62.029V73.3238C23.2324 73.825 23.6381 74.2307 24.1394 74.2307H39.8635C40.3647 74.2307 40.7704 73.825 40.7704 73.3238V63.8838C40.7704 63.3826 40.3647 62.9769 39.8635 62.9769H28.8008C28.4224 62.9769 28.085 62.7429 27.9524 62.3879H27.9504Z" fill="#93A1FF"/>
</g>
<g filter="url(#filter1_b_3207_33862)">
<path d="M25.7219 64.4211L25.4684 63.7443C25.3357 63.3913 24.9964 63.1553 24.6199 63.1553H21.9089C21.4076 63.1553 21.002 63.561 21.002 64.0622V75.357C21.002 75.8582 21.4076 76.2639 21.9089 76.2639H37.633C38.1342 76.2639 38.5399 75.8582 38.5399 75.357V65.9151C38.5399 65.4138 38.1342 65.0082 37.633 65.0082H26.5703C26.192 65.0082 25.8545 64.7741 25.7219 64.4191V64.4211Z" fill="#C9D0FF"/>
</g>
<path d="M67.69 68.73V69.738H64.82V74.05H63.588V69.738H60.592V74.05H59.346V69.738H56.532V68.73H67.69ZM57.75 64.922C57.75 64.3713 57.9273 63.8953 58.282 63.494C58.646 63.0927 59.1547 62.7847 59.808 62.57C60.4613 62.346 61.2173 62.234 62.076 62.234C62.9347 62.234 63.6907 62.346 64.344 62.57C64.9973 62.7847 65.5013 63.0927 65.856 63.494C66.22 63.8953 66.402 64.3713 66.402 64.922C66.402 65.4633 66.22 65.9393 65.856 66.35C65.5013 66.7513 64.9973 67.064 64.344 67.288C63.6907 67.5027 62.9347 67.61 62.076 67.61C61.2173 67.61 60.4613 67.5027 59.808 67.288C59.1547 67.064 58.646 66.7513 58.282 66.35C57.9273 65.9393 57.75 65.4633 57.75 64.922ZM58.996 64.922C58.996 65.4447 59.276 65.86 59.836 66.168C60.396 66.476 61.1427 66.63 62.076 66.63C63.0093 66.63 63.756 66.476 64.316 66.168C64.8853 65.86 65.17 65.4447 65.17 64.922C65.17 64.3993 64.8853 63.984 64.316 63.676C63.7467 63.3587 63 63.2 62.076 63.2C61.152 63.2 60.4053 63.3587 59.836 63.676C59.276 63.984 58.996 64.3993 58.996 64.922ZM77.6863 64.656V61.73H78.9043V69.682H77.6863V68.044H75.6703V67.064H77.6863V65.636H75.6843V64.656H77.6863ZM68.7683 63.074H71.6663V61.632H72.8843V63.074H75.6703V64.026H68.7683V63.074ZM69.4543 66.91C69.4543 66.462 69.571 66.07 69.8043 65.734C70.047 65.3887 70.3783 65.1227 70.7983 64.936C71.2277 64.74 71.713 64.642 72.2543 64.642C73.085 64.642 73.757 64.852 74.2703 65.272C74.793 65.6827 75.0543 66.2287 75.0543 66.91C75.0543 67.6007 74.793 68.1607 74.2703 68.59C73.757 69.01 73.085 69.22 72.2543 69.22C71.713 69.22 71.2277 69.1267 70.7983 68.94C70.3783 68.744 70.047 68.4733 69.8043 68.128C69.571 67.7733 69.4543 67.3673 69.4543 66.91ZM70.6023 66.91C70.6023 67.33 70.7517 67.666 71.0503 67.918C71.3583 68.1607 71.7597 68.282 72.2543 68.282C72.7583 68.282 73.1597 68.1607 73.4583 67.918C73.7663 67.666 73.9203 67.33 73.9203 66.91C73.9203 66.5087 73.7663 66.1867 73.4583 65.944C73.1503 65.692 72.749 65.566 72.2543 65.566C71.7597 65.566 71.3583 65.692 71.0503 65.944C70.7517 66.1867 70.6023 66.5087 70.6023 66.91ZM70.7423 71.922C70.7423 71.2593 71.1063 70.7413 71.8343 70.368C72.5623 69.9947 73.5703 69.808 74.8583 69.808C76.137 69.808 77.1403 69.9947 77.8683 70.368C78.6057 70.7413 78.9743 71.2593 78.9743 71.922C78.9743 72.5847 78.6057 73.1027 77.8683 73.476C77.1403 73.8493 76.137 74.036 74.8583 74.036C73.5703 74.036 72.5623 73.8493 71.8343 73.476C71.1063 73.1027 70.7423 72.5847 70.7423 71.922ZM72.0023 71.922C72.0023 72.2953 72.2543 72.5847 72.7583 72.79C73.2623 72.9953 73.9623 73.098 74.8583 73.098C75.7543 73.098 76.4497 72.9953 76.9443 72.79C77.4483 72.5847 77.7003 72.2953 77.7003 71.922C77.7003 71.5487 77.4483 71.264 76.9443 71.068C76.4497 70.8627 75.7543 70.76 74.8583 70.76C73.9623 70.76 73.2623 70.8627 72.7583 71.068C72.2543 71.264 72.0023 71.5487 72.0023 71.922ZM91.1547 61.744V68.142H89.9507V66.644H87.1927V67.68H81.6067V62.304H82.8107V64.012H86.0027V62.304H87.1927V63.466H89.9507V61.744H91.1547ZM86.0027 66.7V64.95H82.8107V66.7H86.0027ZM83.1887 68.73H91.1547V71.698H84.4207V72.93H91.5887V73.896H83.2307V70.788H89.9647V69.696H83.1887V68.73ZM89.9507 65.706V64.404H87.1927V65.706H89.9507ZM106.618 61.744V70.83H105.4V67.568H102.348C102.058 67.932 101.694 68.212 101.256 68.408C100.826 68.604 100.35 68.702 99.8275 68.702C99.2302 68.702 98.6889 68.5713 98.2035 68.31C97.7182 68.0487 97.3355 67.6847 97.0555 67.218C96.7849 66.742 96.6495 66.21 96.6495 65.622C96.6495 65.0247 96.7849 64.488 97.0555 64.012C97.3355 63.536 97.7182 63.1673 98.2035 62.906C98.6889 62.6447 99.2302 62.514 99.8275 62.514C100.341 62.514 100.812 62.612 101.242 62.808C101.68 63.004 102.044 63.2793 102.334 63.634H105.4V61.744H106.618ZM97.7975 65.622C97.7975 66.2193 97.9889 66.7093 98.3715 67.092C98.7542 67.4653 99.2395 67.652 99.8275 67.652C100.406 67.652 100.887 67.4653 101.27 67.092C101.662 66.7093 101.858 66.2193 101.858 65.622C101.858 65.0247 101.662 64.5393 101.27 64.166C100.887 63.7833 100.406 63.592 99.8275 63.592C99.2395 63.592 98.7542 63.7833 98.3715 64.166C97.9889 64.5393 97.7975 65.0247 97.7975 65.622ZM98.7075 69.892H99.9255V72.804H106.954V73.784H98.7075V69.892ZM102.866 64.614C102.968 64.9407 103.02 65.2767 103.02 65.622C103.02 65.9393 102.973 66.2613 102.88 66.588H105.4V64.614H102.866ZM111.294 69.108V70.494H117.174V69.108H118.378V73.896H110.104V69.108H111.294ZM108.704 67.33H119.834V68.296H108.704V67.33ZM109.334 65.538C110.099 65.4353 110.809 65.23 111.462 64.922C112.125 64.614 112.652 64.2407 113.044 63.802C113.445 63.354 113.646 62.8873 113.646 62.402V61.87H114.892V62.402C114.892 62.878 115.093 63.34 115.494 63.788C115.895 64.236 116.427 64.6187 117.09 64.936C117.753 65.244 118.462 65.4447 119.218 65.538L118.77 66.49C117.79 66.35 116.889 66.0513 116.068 65.594C115.256 65.1367 114.659 64.5813 114.276 63.928C113.893 64.5907 113.291 65.1507 112.47 65.608C111.658 66.056 110.757 66.35 109.768 66.49L109.334 65.538ZM117.174 72.916V71.432H111.294V72.916H117.174ZM132.084 68.016V68.996H127.212V71.432H125.994V68.996H120.926V68.016H132.084ZM122.326 70.256H123.544V72.818H130.852V73.798H122.326V70.256ZM122.354 62.318H130.642V66.672H122.354V62.318ZM129.452 65.692V63.27H123.544V65.692H129.452ZM143.635 61.73V74.05H142.473V61.73H143.635ZM133.009 70.718C133.839 70.2047 134.483 69.444 134.941 68.436C135.407 67.428 135.641 66.3453 135.641 65.188V64.152H133.345V63.144H138.959V64.152H136.817V65.188C136.817 66.2893 137.041 67.3207 137.489 68.282C137.937 69.234 138.571 69.9527 139.393 70.438L138.665 71.32C138.095 70.9747 137.605 70.4987 137.195 69.892C136.784 69.276 136.467 68.576 136.243 67.792C136.019 68.6413 135.697 69.3973 135.277 70.06C134.857 70.7227 134.348 71.2407 133.751 71.614L133.009 70.718ZM138.035 66.14H140.009V62.01H141.143V73.434H140.009V67.134H138.035V66.14Z" fill="black"/>
<path d="M231.998 55.2002H237.456C237.787 55.2002 238.055 55.4685 238.055 55.7994V58.4356C238.055 58.7665 237.787 59.0348 237.456 59.0348H231.998V55.2002Z" fill="#93A1FF"/>
<path d="M231.998 64.1302V55.0781" stroke="#6478FF" stroke-width="1.19833" stroke-linecap="round"/>
<path d="M220.615 69.8639V80.0498C220.615 80.3807 220.883 80.6489 221.214 80.6489H242.784C243.115 80.6489 243.384 80.3807 243.384 80.0498V69.8639C243.384 69.533 243.115 69.2648 242.784 69.2648H240.388C240.057 69.2648 239.789 68.9965 239.789 68.6656V66.0276C239.789 65.8072 239.668 65.6046 239.473 65.5001L232.283 61.6285C232.106 61.5331 231.893 61.5331 231.715 61.6285L224.525 65.5001C224.331 65.6046 224.21 65.8072 224.21 66.0276V68.6656C224.21 68.9965 223.942 69.2648 223.611 69.2648H221.214C220.883 69.2648 220.615 69.533 220.615 69.8639Z" fill="#C9D0FF"/>
<circle cx="232.072" cy="66.9426" r="2.39667" fill="#93A1FF"/>
<rect x="228.605" y="73.5586" width="6.78592" height="7.09032" fill="#93A1FF"/>
<path d="M232.072 65.5137V67.1401H233.663" stroke="#6478FF" stroke-width="0.643292" stroke-linecap="round" stroke-linejoin="round"/>
<path d="M263.798 62.99V63.998H260.956V65.44C260.956 66.1213 261.101 66.798 261.39 67.47C261.679 68.142 262.071 68.7393 262.566 69.262C263.061 69.7753 263.611 70.1627 264.218 70.424L263.532 71.39C262.823 71.0633 262.188 70.5733 261.628 69.92C261.077 69.2667 260.657 68.5247 260.368 67.694C260.079 68.59 259.654 69.3973 259.094 70.116C258.543 70.8253 257.913 71.3527 257.204 71.698L256.504 70.732C257.101 70.452 257.647 70.032 258.142 69.472C258.637 68.9027 259.024 68.2633 259.304 67.554C259.593 66.8447 259.738 66.14 259.738 65.44V63.998H256.91V62.99H263.798ZM265.394 61.744H266.612V74.064H265.394V61.744ZM278.876 61.73V71.11H277.658V69.864H275.194V68.996H277.658V61.73H278.876ZM268.684 67.4C270.28 67.3907 271.713 67.3627 272.982 67.316C274.261 67.2693 275.479 67.176 276.636 67.036L276.706 67.904C275.736 68.072 274.644 68.1933 273.43 68.268V70.676H272.212V68.324C271.214 68.3707 270.094 68.394 268.852 68.394L268.684 67.4ZM269.65 64.376C269.65 63.9467 269.776 63.5687 270.028 63.242C270.29 62.9153 270.649 62.6633 271.106 62.486C271.564 62.3087 272.091 62.22 272.688 62.22C273.286 62.22 273.813 62.3087 274.27 62.486C274.728 62.6633 275.082 62.9153 275.334 63.242C275.596 63.5687 275.726 63.9467 275.726 64.376C275.726 65.0293 275.446 65.552 274.886 65.944C274.326 66.336 273.594 66.532 272.688 66.532C271.783 66.532 271.05 66.336 270.49 65.944C269.93 65.552 269.65 65.0293 269.65 64.376ZM270.406 70.2H271.624V72.804H279.184V73.784H270.406V70.2ZM270.798 64.376C270.798 64.7587 270.971 65.062 271.316 65.286C271.671 65.51 272.128 65.622 272.688 65.622C273.258 65.622 273.71 65.51 274.046 65.286C274.392 65.062 274.564 64.7587 274.564 64.376C274.564 63.9933 274.392 63.69 274.046 63.466C273.701 63.2327 273.248 63.116 272.688 63.116C272.128 63.116 271.671 63.2327 271.316 63.466C270.971 63.69 270.798 63.9933 270.798 64.376ZM294.689 61.73V74.05H293.527V67.652H291.889V73.42H290.755V62.01H291.889V66.644H293.527V61.73H294.689ZM284.665 63.228H289.229V64.222H285.869V70.046C286.7 70.0367 287.423 70.0087 288.039 69.962C288.655 69.9153 289.271 69.8267 289.887 69.696L290.013 70.69C289.313 70.8393 288.627 70.9373 287.955 70.984C287.283 71.0307 286.457 71.054 285.477 71.054H284.665V63.228ZM299.534 63.004V61.66H300.738V63.004H303.776V63.984H296.496V63.004H299.534ZM297.182 66.826C297.182 66.154 297.452 65.6127 297.994 65.202C298.535 64.7913 299.249 64.586 300.136 64.586C301.022 64.586 301.736 64.7913 302.278 65.202C302.819 65.6127 303.09 66.154 303.09 66.826C303.09 67.498 302.819 68.0347 302.278 68.436C301.736 68.8373 301.022 69.038 300.136 69.038C299.249 69.038 298.535 68.8373 297.994 68.436C297.452 68.0347 297.182 67.498 297.182 66.826ZM298.022 70.088H306.044V74.064H304.826V71.068H298.022V70.088ZM298.33 66.826C298.33 67.2087 298.493 67.5213 298.82 67.764C299.156 67.9973 299.594 68.114 300.136 68.114C300.668 68.114 301.097 67.9973 301.424 67.764C301.76 67.5213 301.928 67.2087 301.928 66.826C301.928 66.434 301.76 66.1213 301.424 65.888C301.097 65.6453 300.668 65.524 300.136 65.524C299.594 65.524 299.156 65.6453 298.82 65.888C298.493 66.1213 298.33 66.434 298.33 66.826ZM304.826 61.744H306.044V65.104H307.85V66.112H306.044V69.444H304.826V61.744ZM320.862 65.636V61.73H322.08V70.872H320.862V66.63H318.244V65.636H320.862ZM316.704 65.09C316.872 64.6513 316.97 64.1893 316.998 63.704H312.784V62.724H318.272C318.272 64.3947 317.829 65.8087 316.942 66.966C316.056 68.114 314.646 69.01 312.714 69.654L312.224 68.688C314.166 68.0627 315.514 67.1527 316.27 65.958L312.364 66.266L312.182 65.286L316.704 65.09ZM314.296 69.962H315.528V72.804H322.444V73.784H314.296V69.962ZM333.099 63.914V61.744H334.317V68.072H333.099V64.908H330.481V63.914H333.099ZM324.139 67.162C325.072 66.8447 325.814 66.3313 326.365 65.622C326.925 64.9127 327.205 64.1193 327.205 63.242V62.122H328.395V63.242C328.395 64.0353 328.665 64.7727 329.207 65.454C329.757 66.126 330.481 66.6067 331.377 66.896L330.747 67.834C330.084 67.61 329.501 67.2693 328.997 66.812C328.493 66.3453 328.101 65.8087 327.821 65.202C327.559 65.8833 327.167 66.476 326.645 66.98C326.122 67.484 325.501 67.862 324.783 68.114L324.139 67.162ZM326.365 68.702H334.317V71.698H327.583V72.93H334.751V73.896H326.379V70.788H333.113V69.654H326.365V68.702ZM342.969 62.64V63.606H338.307V65.062H342.633V66.028H338.307V67.54C339.632 67.54 340.701 67.5167 341.513 67.47C342.334 67.4233 343.146 67.3347 343.949 67.204L344.075 68.17C343.226 68.31 342.372 68.4033 341.513 68.45C340.664 68.4967 339.53 68.52 338.111 68.52H337.103V62.64H342.969ZM338.279 71.768C338.279 71.068 338.648 70.522 339.385 70.13C340.122 69.7287 341.135 69.528 342.423 69.528C343.72 69.528 344.733 69.7287 345.461 70.13C346.198 70.522 346.567 71.068 346.567 71.768C346.567 72.4867 346.198 73.042 345.461 73.434C344.733 73.8353 343.72 74.036 342.423 74.036C341.126 74.036 340.108 73.8353 339.371 73.434C338.643 73.042 338.279 72.4867 338.279 71.768ZM339.497 71.768C339.497 72.188 339.754 72.5147 340.267 72.748C340.78 72.9813 341.499 73.098 342.423 73.098C343.347 73.098 344.066 72.9813 344.579 72.748C345.102 72.5147 345.363 72.188 345.363 71.768C345.363 71.3573 345.102 71.04 344.579 70.816C344.056 70.5827 343.338 70.466 342.423 70.466C341.499 70.466 340.78 70.5827 340.267 70.816C339.754 71.04 339.497 71.3573 339.497 71.768ZM345.293 61.744H346.511V69.346H345.293V61.744Z" fill="black"/>
<defs>
<filter id="filter0_b_3207_33862" x="20.5019" y="58.3915" width="22.9982" height="18.5695" filterUnits="userSpaceOnUse" color-interpolation-filters="sRGB">
<feFlood flood-opacity="0" result="BackgroundImageFix"/>
<feGaussianBlur in="BackgroundImageFix" stdDeviation="1.36528"/>
<feComposite in2="SourceAlpha" operator="in" result="effect1_backgroundBlur_3207_33862"/>
<feBlend mode="normal" in="SourceGraphic" in2="effect1_backgroundBlur_3207_33862" result="shape"/>
</filter>
<filter id="filter1_b_3207_33862" x="20.2998" y="62.4531" width="18.9414" height="14.5127" filterUnits="userSpaceOnUse" color-interpolation-filters="sRGB">
<feFlood flood-opacity="0" result="BackgroundImageFix"/>
<feGaussianBlur in="BackgroundImageFix" stdDeviation="0.351072"/>
<feComposite in2="SourceAlpha" operator="in" result="effect1_backgroundBlur_3207_33862"/>
<feBlend mode="normal" in="SourceGraphic" in2="effect1_backgroundBlur_3207_33862" result="shape"/>
</filter>
</defs>
</svg>
