<svg width="44" height="44" viewBox="0 0 44 44" fill="none" xmlns="http://www.w3.org/2000/svg">
<path d="M5.12842 5.12842H38.8715V38.8715H5.12842V5.12842Z" fill="white" fill-opacity="0.01"/>
<path d="M7.5 35.5L10.5 32L36.5 33V40.5H13L9.5 39.5L7.5 38V35.5Z" fill="#E4E7FF"/>
<path fill-rule="evenodd" clip-rule="evenodd" d="M10.9987 40.3333H36.6654V33H10.9987C8.97365 33 7.33203 34.6417 7.33203 36.6667C7.33203 38.6917 8.97365 40.3333 10.9987 40.3333Z" stroke="#6478FF" stroke-width="2" stroke-linecap="round" stroke-linejoin="round"/>
<path d="M7.33203 36.667C7.33203 33.0003 7.33203 9.16699 7.33203 9.16699C7.33203 6.12942 9.95865 3.66699 13.1987 3.66699H36.6654V33.0003C36.6654 33.0003 18.3151 33.0003 13.1987 33.0003C8.58076 33.0003 7.33203 33.6275 7.33203 36.667Z" fill="#6478FF" stroke="#6478FF" stroke-width="2" stroke-linejoin="round"/>
</svg>
