<svg width="44" height="44" viewBox="0 0 44 44" fill="none" xmlns="http://www.w3.org/2000/svg">
<path d="M2.9917 31.9857C2.9917 29.9392 4.65066 28.2803 6.69708 28.2803H37.3507V35.691H6.69709C4.65066 35.691 2.9917 34.0321 2.9917 31.9857Z" fill="#E4E7FF"/>
<path d="M2.65674 12.0145C2.65674 9.96804 4.3157 8.30908 6.36212 8.30908H37.0158V15.7199H6.36213C4.3157 15.7199 2.65674 14.0609 2.65674 12.0145Z" fill="#E4E7FF"/>
<path d="M41.3433 22.0003C41.3433 19.9539 39.6843 18.2949 37.6379 18.2949H6.98422V25.7057H37.6379C39.6843 25.7057 41.3433 24.0467 41.3433 22.0003Z" fill="#E4E7FF"/>
<path d="M38.0244 28.2803H4.33911C4.33911 28.2803 4.33911 28.2803 4.33911 28.2803C4.33911 28.2803 2.9917 28.2803 2.9917 31.9857C2.9917 35.691 4.33911 35.691 4.33911 35.691C4.33911 35.691 4.33911 35.691 4.33911 35.691H38.0244" stroke="#6478FF" stroke-width="2" stroke-linecap="round" stroke-linejoin="round"/>
<path d="M6.31051 18.2949H39.9958C39.9958 18.2949 39.9958 18.2949 39.9958 18.2949C39.9958 18.2949 41.3433 18.2949 41.3433 22.0003C41.3433 25.7057 39.9958 25.7057 39.9958 25.7057C39.9958 25.7057 39.9958 25.7057 39.9958 25.7057H6.31051" stroke="#6478FF" stroke-width="2" stroke-linecap="round" stroke-linejoin="round"/>
<path d="M37.6895 8.30908H4.00415C4.00415 8.30908 4.00415 8.30908 4.00415 8.30908C4.00415 8.30908 2.65674 8.30908 2.65674 12.0145C2.65674 15.7199 4.00415 15.7199 4.00415 15.7199C4.00415 15.7199 4.00415 15.7199 4.00415 15.7199H37.6895" stroke="#6478FF" stroke-width="2" stroke-linecap="round" stroke-linejoin="round"/>
</svg>
