<svg width="24" height="24" viewBox="0 0 24 24" fill="none" xmlns="http://www.w3.org/2000/svg">
<rect x="4.5" y="9" width="16" height="11" rx="2" fill="#6478FF"/>
<rect x="11.5" y="9" width="2" height="11" fill="#93A1FF"/>
<path d="M11.997 8.87633C11.8791 9.13428 11.5884 9.38744 11.049 9.49217C10.5119 9.59645 9.81114 9.52695 9.09974 9.20199C8.38834 8.87703 7.87697 8.39283 7.60414 7.91858C7.33013 7.44229 7.33116 7.05681 7.44899 6.79886C7.56681 6.54091 7.85751 6.28774 8.39693 6.18301C8.93403 6.07874 9.63482 6.14824 10.3462 6.4732C11.0576 6.79816 11.569 7.28236 11.8418 7.7566C12.1158 8.23289 12.1148 8.61838 11.997 8.87633Z" stroke="#93A1FF" stroke-width="2"/>
<path d="M13.4477 8.8761C13.5586 9.11886 13.8463 9.37283 14.4136 9.47281C14.9757 9.57187 15.7128 9.4905 16.4644 9.14719C17.216 8.80387 17.7601 8.29998 18.0532 7.81026C18.3491 7.31603 18.3455 6.93224 18.2346 6.68948C18.1237 6.44672 17.836 6.19275 17.2687 6.09278C16.7066 5.99371 15.9695 6.07508 15.2179 6.4184C14.4663 6.76171 13.9222 7.2656 13.6291 7.75532C13.3332 8.24955 13.3368 8.63334 13.4477 8.8761Z" stroke="#93A1FF" stroke-width="2"/>
</svg>
