<svg width="32" height="32" viewBox="0 0 32 32" fill="none" xmlns="http://www.w3.org/2000/svg">
<circle cx="16" cy="16" r="15.4" fill="#F3F4F6" stroke="#73798D" stroke-width="1.2"/>
<path d="M23.0004 12.6H23.6004V12V9.8C23.6004 9.0268 22.9736 8.4 22.2004 8.4H10.2004C9.42719 8.4 8.80039 9.0268 8.80039 9.8V12V12.6H9.40039H23.0004Z" fill="#F3F4F6" stroke="#73798D" stroke-width="1.2"/>
<rect x="6.4" y="12.4" width="19.6" height="8.4" rx="1.4" fill="#F3F4F6" stroke="#73798D" stroke-width="1.2"/>
<path d="M11 16.2H21.4V25C21.4 25.4418 21.0418 25.8 20.6 25.8H11.8C11.3582 25.8 11 25.4418 11 25V16.2Z" fill="#F3F4F6" stroke="#73798D" stroke-width="1.2"/>
<path d="M8.59961 16.2H24.5996" stroke="#73798D" stroke-width="1.2"/>
<path d="M12.5996 18.6H19.7996" stroke="#73798D" stroke-width="1.2"/>
<path d="M12.5996 21H19.7996" stroke="#73798D" stroke-width="1.2"/>
<path d="M12.5996 23.4H19.7996" stroke="#73798D" stroke-width="1.2"/>
<path d="M23.8 14.2C23.8 14.421 23.6209 14.6 23.4 14.6C23.1791 14.6 23 14.421 23 14.2C23 13.9791 23.1791 13.8 23.4 13.8C23.6209 13.8 23.8 13.9791 23.8 14.2Z" fill="#F3F4F6"/>
</svg>
