<svg width="132" height="132" viewBox="0 0 132 132" fill="none" xmlns="http://www.w3.org/2000/svg">
<g clip-path="url(#clip0_2512_13453)">
<path d="M30.2974 37.4386C30.0266 34.9229 31.9978 32.7281 34.528 32.7281H76.8024C78.9761 32.7281 80.8003 34.3666 81.033 36.5278L87.7895 99.289C88.0605 101.805 86.0895 104 83.5595 104H41.2848C39.1111 104 37.2869 102.361 37.0542 100.2L30.2974 37.4386Z" fill="#C6CAD2"/>
<path d="M34.561 32.1282C34.285 29.6098 36.2572 27.4095 38.7907 27.4095H81.9876C84.1586 27.4095 85.9806 29.0433 86.2176 31.2009L93.0966 93.963C93.3726 96.481 91.4006 98.681 88.8676 98.681H45.6704C43.4998 98.681 41.6772 97.047 41.4407 94.89L34.561 32.1282Z" fill="#E2E4E8"/>
<path d="M44.6816 44.9615H77.6581" stroke="#ECEDF0" stroke-width="3.19127" stroke-linecap="round"/>
<path fill-rule="evenodd" clip-rule="evenodd" d="M43.0869 44.9615C43.0869 44.0802 43.8013 43.3658 44.6825 43.3658H77.659C78.5403 43.3658 79.2547 44.0802 79.2547 44.9615C79.2547 45.8427 78.5403 46.5571 77.659 46.5571H44.6825C43.8013 46.5571 43.0869 45.8427 43.0869 44.9615Z" fill="#F3F4F6"/>
<path d="M45.7451 56.131H79.7853" stroke="#ECEDF0" stroke-width="3.19127" stroke-linecap="round"/>
<path fill-rule="evenodd" clip-rule="evenodd" d="M44.1504 56.131C44.1504 55.2498 44.8648 54.5354 45.746 54.5354H79.7862C80.6675 54.5354 81.3819 55.2498 81.3819 56.131C81.3819 57.0123 80.6675 57.7267 79.7862 57.7267H45.746C44.8648 57.7267 44.1504 57.0123 44.1504 56.131Z" fill="#F3F4F6"/>
<path d="M47.873 67.0343H84.5727" stroke="#ECEDF0" stroke-width="3.19127" stroke-linecap="round"/>
<path fill-rule="evenodd" clip-rule="evenodd" d="M46.2773 67.0344C46.2773 66.1531 46.9917 65.4387 47.873 65.4387H84.5727C85.4539 65.4387 86.1683 66.1531 86.1683 67.0344C86.1683 67.9156 85.4539 68.63 84.5727 68.63H47.873C46.9917 68.63 46.2773 67.9156 46.2773 67.0344Z" fill="#F3F4F6"/>
<path d="M112.946 49.3069L106.784 55.4689L96.5146 45.199L102.676 39.037C103.811 37.9027 105.65 37.9027 106.784 39.037L112.946 45.199C114.081 46.3334 114.081 48.1725 112.946 49.3069Z" fill="#9196A7"/>
<path d="M67.3158 74.391L96.5097 45.1976L106.78 55.4675L77.5857 84.661C77.2008 85.046 76.7154 85.315 76.1849 85.438L68.1744 87.286C66.0828 87.769 64.2082 85.894 64.6909 83.803L66.5394 75.792C66.6619 75.262 66.9309 74.776 67.3158 74.391Z" fill="#C6CAD2"/>
<path d="M63.8887 87.1851L65.0967 82.0031L69.9697 86.8761L64.7565 88.0581C64.2337 88.1771 63.7669 87.7071 63.8887 87.1851Z" fill="#9196A7"/>
<path d="M36.1722 52.9397C44.9847 52.9397 52.1286 45.7957 52.1286 36.9833C52.1286 28.1708 44.9847 21.0269 36.1722 21.0269C27.3597 21.0269 20.2158 28.1708 20.2158 36.9833C20.2158 45.7957 27.3597 52.9397 36.1722 52.9397Z" fill="#9196A7"/>
<path d="M31.7088 26.0407C30.8756 25.7535 29.9675 26.1961 29.6803 27.0292C29.3931 27.8624 29.8357 28.7706 30.6689 29.0577L32.052 29.5345C28.5623 30.7876 26.0664 34.1258 26.0664 38.0468C26.0664 43.0406 30.1146 47.0888 35.1083 47.0888C40.1021 47.0888 44.1503 43.0406 44.1503 38.0468C44.1503 37.1656 43.4359 36.4512 42.5546 36.4512C41.6734 36.4512 40.959 37.1656 40.959 38.0468C40.959 41.2781 38.3396 43.8975 35.1083 43.8975C31.8771 43.8975 29.2577 41.2781 29.2577 38.0468C29.2577 35.4795 30.9114 33.2983 33.2117 32.5104L32.2897 33.873C31.7959 34.6028 31.9872 35.5948 32.717 36.0887C33.4469 36.5826 34.4389 36.3913 34.9328 35.6614L38.4352 30.4855C38.7134 30.0744 38.7844 29.5572 38.6273 29.0863C38.4702 28.6155 38.1029 28.2445 37.6336 28.0827L31.7088 26.0407Z" fill="#ECEDF0"/>
</g>
<defs>
<clipPath id="clip0_2512_13453">
<rect width="94" height="83" fill="white" transform="translate(20 21)"/>
</clipPath>
</defs>
</svg>
