<svg width="133" height="132" viewBox="0 0 133 132" fill="none" xmlns="http://www.w3.org/2000/svg">
<g clip-path="url(#clip0_2512_13514)">
<path d="M30.7974 37.4386C30.5266 34.9229 32.4978 32.7281 35.028 32.7281H77.3024C79.4761 32.7281 81.3003 34.3666 81.533 36.5278L88.2895 99.289C88.5605 101.805 86.5895 104 84.0595 104H41.7848C39.6111 104 37.7869 102.361 37.5542 100.2L30.7974 37.4386Z" fill="#93A1FF"/>
<path d="M35.061 32.1282C34.785 29.6098 36.7572 27.4095 39.2907 27.4095H82.4876C84.6586 27.4095 86.4806 29.0433 86.7176 31.2009L93.5966 93.963C93.8726 96.481 91.9006 98.681 89.3676 98.681H46.1704C43.9998 98.681 42.1772 97.047 41.9407 94.89L35.061 32.1282Z" fill="#E3E6FF"/>
<path d="M45.1816 44.9615H78.1581" stroke="white" stroke-width="3.19127" stroke-linecap="round"/>
<path fill-rule="evenodd" clip-rule="evenodd" d="M43.5869 44.9615C43.5869 44.0802 44.3013 43.3658 45.1825 43.3658H78.159C79.0403 43.3658 79.7547 44.0802 79.7547 44.9615C79.7547 45.8427 79.0403 46.5571 78.159 46.5571H45.1825C44.3013 46.5571 43.5869 45.8427 43.5869 44.9615Z" fill="white"/>
<path d="M46.2451 56.131H80.2853" stroke="white" stroke-width="3.19127" stroke-linecap="round"/>
<path fill-rule="evenodd" clip-rule="evenodd" d="M44.6504 56.131C44.6504 55.2498 45.3648 54.5354 46.246 54.5354H80.2862C81.1675 54.5354 81.8819 55.2498 81.8819 56.131C81.8819 57.0123 81.1675 57.7267 80.2862 57.7267H46.246C45.3648 57.7267 44.6504 57.0123 44.6504 56.131Z" fill="white"/>
<path d="M48.373 67.0343H85.0727" stroke="white" stroke-width="3.19127" stroke-linecap="round"/>
<path fill-rule="evenodd" clip-rule="evenodd" d="M46.7773 67.0344C46.7773 66.1531 47.4917 65.4387 48.373 65.4387H85.0727C85.9539 65.4387 86.6683 66.1531 86.6683 67.0344C86.6683 67.9156 85.9539 68.63 85.0727 68.63H48.373C47.4917 68.63 46.7773 67.9156 46.7773 67.0344Z" fill="white"/>
<path d="M113.446 49.3069L107.284 55.4689L97.0146 45.199L103.176 39.037C104.311 37.9027 106.15 37.9027 107.284 39.037L113.446 45.199C114.581 46.3334 114.581 48.1725 113.446 49.3069Z" fill="#6478FF"/>
<path d="M67.8158 74.391L97.0097 45.1976L107.28 55.4675L78.0857 84.661C77.7008 85.046 77.2154 85.315 76.6849 85.438L68.6744 87.286C66.5828 87.769 64.7082 85.894 65.1909 83.803L67.0394 75.792C67.1619 75.262 67.4309 74.776 67.8158 74.391Z" fill="#C9D0FF"/>
<path d="M64.3887 87.1851L65.5967 82.0031L70.4697 86.8761L65.2565 88.0581C64.7337 88.1771 64.2669 87.7071 64.3887 87.1851Z" fill="#6478FF"/>
<path d="M36.6722 52.9397C45.4847 52.9397 52.6286 45.7957 52.6286 36.9833C52.6286 28.1708 45.4847 21.0269 36.6722 21.0269C27.8597 21.0269 20.7158 28.1708 20.7158 36.9833C20.7158 45.7957 27.8597 52.9397 36.6722 52.9397Z" fill="#6478FF"/>
<path d="M32.2088 26.0407C31.3756 25.7535 30.4675 26.1961 30.1803 27.0292C29.8931 27.8624 30.3357 28.7706 31.1689 29.0577L32.552 29.5345C29.0623 30.7876 26.5664 34.1258 26.5664 38.0468C26.5664 43.0406 30.6146 47.0888 35.6083 47.0888C40.6021 47.0888 44.6503 43.0406 44.6503 38.0468C44.6503 37.1656 43.9359 36.4512 43.0546 36.4512C42.1734 36.4512 41.459 37.1656 41.459 38.0468C41.459 41.2781 38.8396 43.8975 35.6083 43.8975C32.3771 43.8975 29.7577 41.2781 29.7577 38.0468C29.7577 35.4795 31.4114 33.2983 33.7117 32.5104L32.7897 33.873C32.2959 34.6028 32.4872 35.5948 33.217 36.0887C33.9469 36.5826 34.9389 36.3913 35.4328 35.6614L38.9352 30.4855C39.2134 30.0744 39.2844 29.5572 39.1273 29.0863C38.9702 28.6155 38.6029 28.2445 38.1336 28.0827L32.2088 26.0407Z" fill="white"/>
</g>
<defs>
<clipPath id="clip0_2512_13514">
<rect width="94" height="83" fill="white" transform="translate(20.5 21)"/>
</clipPath>
</defs>
</svg>
