<svg width="94" height="52" viewBox="0 0 94 52" fill="none" xmlns="http://www.w3.org/2000/svg">
<rect x="0.5" y="0.5" width="93" height="51" rx="4.5" stroke="#9747FF" stroke-dasharray="10 5"/>
<path d="M24.5125 22.0067L24.5126 22.0067L24.5101 22.0042C24.442 21.9364 24.3506 21.8983 24.2548 21.9001C24.159 21.9019 24.0691 21.9434 24.0035 22.0136C23.9381 22.0836 23.9016 22.1767 23.9001 22.273C23.8985 22.3693 23.9318 22.4636 23.9947 22.5358L23.9947 22.5359L23.9971 22.5384L27.2323 26L23.9971 29.4616L23.997 29.4615L23.9947 29.4642C23.9318 29.5364 23.8985 29.6307 23.9001 29.727C23.9016 29.8233 23.9381 29.9164 24.0035 29.9864C24.0691 30.0566 24.159 30.0981 24.2548 30.0999C24.3506 30.1017 24.442 30.0636 24.5101 29.9958L24.5101 29.9958L24.5125 29.9933L27.9966 26.2658L27.9967 26.2658C28.0635 26.1942 28.1 26.0985 28.1 26C28.1 25.9015 28.0635 25.8058 27.9967 25.7342L27.9966 25.7342L24.5125 22.0067Z" fill="#AFB3C0" stroke="#AFB3C0" stroke-width="0.2"/>
<path d="M66.5125 22.0067L66.5126 22.0067L66.5101 22.0042C66.442 21.9364 66.3506 21.8983 66.2548 21.9001C66.159 21.9019 66.0691 21.9434 66.0035 22.0136C65.9381 22.0836 65.9016 22.1767 65.9001 22.273C65.8985 22.3693 65.9318 22.4636 65.9947 22.5358L65.9947 22.5359L65.9971 22.5384L69.2323 26L65.9971 29.4616L65.997 29.4615L65.9947 29.4642C65.9318 29.5364 65.8985 29.6307 65.9001 29.727C65.9016 29.8233 65.9381 29.9164 66.0035 29.9864C66.0691 30.0566 66.159 30.0981 66.2548 30.0999C66.3506 30.1017 66.442 30.0636 66.5101 29.9958L66.5101 29.9958L66.5125 29.9933L69.9966 26.2658L69.9967 26.2658C70.0635 26.1942 70.1 26.0985 70.1 26C70.1 25.9015 70.0635 25.8058 69.9967 25.7342L69.9966 25.7342L66.5125 22.0067Z" fill="#6478FF" stroke="#6478FF" stroke-width="0.2"/>
</svg>
