<svg width="73" height="36" viewBox="0 0 73 36" fill="none" xmlns="http://www.w3.org/2000/svg">
<path d="M35.6653 1.26499C36.0606 0.665977 36.9394 0.665977 37.3347 1.26499L42.405 8.94926C42.8437 9.61411 42.3668 10.5 41.5703 10.5H31.4297C30.6331 10.5 30.1563 9.61411 30.595 8.94926L35.6653 1.26499Z" fill="#5A6072"/>
<rect y="8" width="73" height="28" rx="1" fill="#5A6072"/>
<path d="M14.384 17.984H16.34V16.568H17.636V17.984H19.568V19.028H14.384V17.984ZM14.672 22.1C14.672 20.636 15.644 19.604 16.988 19.604C18.344 19.604 19.316 20.636 19.316 22.1C19.316 23.576 18.344 24.608 16.988 24.608C15.644 24.608 14.672 23.576 14.672 22.1ZM15.836 22.1C15.836 22.964 16.316 23.504 16.988 23.504C17.66 23.504 18.152 22.964 18.152 22.1C18.152 21.248 17.66 20.696 16.988 20.696C16.316 20.696 15.836 21.248 15.836 22.1ZM20 26.48V16.508H21.236V20.684H22.268V16.28H23.516V26.96H22.268V21.752H21.236V26.48H20ZM32.7563 16.28H34.0043V26.96H32.7563V16.28ZM24.7043 23.948C26.2283 22.988 26.8883 21.068 26.8883 19.196V18.5H25.0523V17.42H29.8643V18.5H28.1723V19.196C28.1723 20.996 28.7963 22.82 30.3083 23.708L29.5283 24.656C28.5563 24.068 27.9083 23.06 27.5363 21.848C27.1763 23.168 26.5043 24.284 25.4963 24.92L24.7043 23.948ZM29.0843 21.08V20.012H30.6083V16.484H31.8323V26.456H30.6083V21.08H29.0843ZM38.1502 24.596H42.3142V22.508H39.2182V16.988H40.5262V18.728H45.4222V16.988H46.7302V22.508H43.6222V24.596H47.8222V25.676H38.1502V24.596ZM40.5262 21.452H45.4222V19.772H40.5262V21.452ZM56.1505 16.28H57.4705V26.96H56.1505V16.28ZM48.6985 24.044C51.4705 22.712 52.7305 20.9 52.9585 18.464H49.2265V17.396H54.3145C54.3145 20.6 53.1025 23.288 49.3825 25.088L48.6985 24.044Z" fill="white"/>
</svg>
