<svg width="32" height="32" viewBox="0 0 32 32" fill="none" xmlns="http://www.w3.org/2000/svg">
<path d="M18.1143 21.9941L23.9997 21.9941" stroke="#AFB3C0" stroke-width="1.17333" stroke-linecap="round"/>
<path d="M14.1191 24.2913L24.0004 24.2913" stroke="#AFB3C0" stroke-width="1.17333" stroke-linecap="round"/>
<path d="M25.2452 10.5256L22.9824 12.7883L19.2112 9.01709L21.4739 6.75435C21.8905 6.33779 22.5659 6.33779 22.9824 6.75435L25.2452 9.01709C25.6617 9.43365 25.6617 10.109 25.2452 10.5256Z" fill="#AFB3C0"/>
<path d="M8.48871 19.7369L19.209 9.0166L22.9802 12.7878L12.26 23.5081C12.1186 23.6495 11.9403 23.7483 11.7456 23.7932L8.80399 24.472C8.03591 24.6493 7.34754 23.9609 7.52479 23.1928L8.20361 20.2513C8.24856 20.0565 8.34735 19.8782 8.48871 19.7369Z" fill="#ECEDF0"/>
<path d="M7.23022 24.4348L7.67383 22.5317L9.46324 24.3212L7.54892 24.7554C7.35691 24.799 7.18553 24.6266 7.23022 24.4348Z" fill="#AFB3C0"/>
</svg>
