<svg width="24" height="24" viewBox="0 0 24 24" fill="none" xmlns="http://www.w3.org/2000/svg">
<path d="M7.09278 13.7602L11.7506 9.10241C11.8161 9.03699 11.9049 9.00024 11.9974 9.00024C12.09 9.00024 12.1788 9.03699 12.2443 9.10241L16.9021 13.7602C16.9638 13.8264 16.9974 13.914 16.9958 14.0045C16.9942 14.095 16.9575 14.1814 16.8935 14.2454C16.8295 14.3094 16.7432 14.346 16.6527 14.3476C16.5622 14.3492 16.4746 14.3156 16.4084 14.2539L11.9974 9.84358L7.58651 14.2539C7.52028 14.3156 7.4327 14.3492 7.34219 14.3476C7.25169 14.346 7.16534 14.3094 7.10134 14.2454C7.03734 14.1814 7.00067 14.095 6.99908 14.0045C6.99748 13.914 7.03107 13.8264 7.09278 13.7602Z" fill="#5A6072"/>
<path fill-rule="evenodd" clip-rule="evenodd" d="M6.73299 13.4129L11.397 8.74885C11.5563 8.5898 11.7724 8.50024 11.9974 8.50024C12.2225 8.50024 12.4384 8.58958 12.5976 8.74863L17.2619 13.4129L17.2679 13.4193C17.4179 13.5803 17.4996 13.7933 17.4957 14.0133C17.4918 14.2334 17.4027 14.4433 17.2471 14.5989C17.0915 14.7545 16.8815 14.8437 16.6615 14.8475C16.4414 14.8514 16.2285 14.7698 16.0675 14.6197L16.061 14.6137L11.9974 10.5506L7.93381 14.6137L7.92737 14.6197C7.76636 14.7698 7.55341 14.8514 7.33337 14.8475C7.11334 14.8437 6.9034 14.7545 6.74779 14.5989C6.59217 14.4433 6.50304 14.2334 6.49916 14.0133C6.49527 13.7933 6.57695 13.5803 6.72697 13.4193L6.73299 13.4129ZM11.9974 9.84358L16.4084 14.2539C16.4746 14.3156 16.5622 14.3492 16.6527 14.3476C16.7432 14.346 16.8295 14.3094 16.8935 14.2454C16.9575 14.1814 16.9942 14.095 16.9958 14.0045C16.9974 13.914 16.9638 13.8264 16.9021 13.7602L12.2443 9.10241C12.1788 9.03699 12.09 9.00024 11.9974 9.00024C11.9049 9.00024 11.8161 9.03699 11.7506 9.10241L7.09278 13.7602C7.03107 13.8264 6.99748 13.914 6.99908 14.0045C7.00067 14.095 7.03734 14.1814 7.10134 14.2454C7.16534 14.3094 7.25169 14.346 7.34219 14.3476C7.4327 14.3492 7.52028 14.3156 7.58651 14.2539L11.9974 9.84358Z" fill="#5A6072"/>
</svg>
